<svg width="50" height="800" viewBox="0 0 50 800" fill="none" xmlns="http://www.w3.org/2000/svg">
<path d="M22.2348 34H28.4696M22.2348 34H20.1565C19.0542 34 17.9969 33.5621 17.2174 32.7826C16.4379 32.0031 16 30.9458 16 29.8435V23.3052C16 22.5905 16.1843 21.8879 16.535 21.2652C16.8858 20.6425 17.3912 20.1207 18.0024 19.7503L23.1981 16.6017C23.8477 16.2081 24.5927 16 25.3522 16C26.1118 16 26.8568 16.2081 27.5064 16.6017L32.702 19.7503C33.3131 20.1206 33.8184 20.6422 34.1692 21.2647C34.5199 21.8872 34.7043 22.5896 34.7044 23.3042V29.8435C34.7044 30.9458 34.2665 32.0031 33.487 32.7826C32.7075 33.5621 31.6503 34 30.5479 34H28.4696H22.2348ZM22.2348 34V29.8435C22.2348 29.0167 22.5633 28.2237 23.1479 27.6391C23.7325 27.0545 24.5254 26.726 25.3522 26.726V26.726C26.179 26.726 26.9719 27.0545 27.5566 27.6391C28.1412 28.2237 28.4696 29.0167 28.4696 29.8435V34H22.2348Z" stroke="black" stroke-width="1.5" stroke-linecap="round" stroke-linejoin="round"/>
<path d="M29.4146 75.7444C29.2199 75.7444 29.0332 75.8218 28.8955 75.9594C28.7579 76.0971 28.6806 76.2838 28.6806 76.4785C28.6806 76.6731 28.7579 76.8599 28.8955 76.9975C29.0332 77.1352 29.2199 77.2125 29.4146 77.2125H32.0571C32.2518 77.2125 32.4385 77.1352 32.5761 76.9975C32.7138 76.8599 32.7911 76.6731 32.7911 76.4785C32.7911 76.2838 32.7138 76.0971 32.5761 75.9594C32.4385 75.8218 32.2518 75.7444 32.0571 75.7444H29.4146ZM14 66.3489V81.4699C14 82.4432 14.3867 83.3768 15.075 84.065C15.7632 84.7533 16.6968 85.14 17.6701 85.14H32.0571C33.0305 85.14 33.964 84.7533 34.6523 84.065C35.3405 83.3768 35.7272 82.4432 35.7272 81.4699V71.1935C35.7272 70.3475 35.4349 69.5274 34.8999 68.872C34.3649 68.2167 33.62 67.7662 32.7911 67.5967V66.4957C32.7911 65.8338 32.5282 65.199 32.0601 64.731C31.5921 64.2629 30.9573 64 30.2954 64H16.4957C15.8592 63.9999 15.2467 64.2431 14.7835 64.6797C14.3204 65.1164 14.0416 65.7135 14.0041 66.3489H14ZM31.3231 66.4957V67.5233H16.4957C16.2231 67.5233 15.9618 67.4151 15.769 67.2223C15.5763 67.0296 15.4681 66.7682 15.4681 66.4957C15.4681 66.2231 15.5763 65.9618 15.769 65.769C15.9618 65.5763 16.2231 65.4681 16.4957 65.4681H30.2954C30.8633 65.4681 31.3231 65.9284 31.3231 66.4957ZM15.4681 68.9914H32.0571C32.6411 68.9914 33.2012 69.2234 33.6142 69.6364C34.0272 70.0493 34.2592 70.6094 34.2592 71.1935V81.4699C34.2592 82.0539 34.0272 82.614 33.6142 83.027C33.2012 83.4399 32.6411 83.6719 32.0571 83.6719H17.6701C17.0861 83.6719 16.526 83.4399 16.113 83.027C15.7001 82.614 15.4681 82.0539 15.4681 81.4699V68.9914Z" fill="black"/>
<path d="M36.3333 128.667C36.3319 126.44 35.6865 124.261 34.475 122.393L33.2716 123.597C34.1847 125.13 34.6667 126.882 34.6666 128.667H36.3333ZM34.6666 119.845L33.4883 118.667L26.3491 125.806C25.8411 125.5 25.2598 125.336 24.6667 125.333C24.0074 125.333 23.3629 125.529 22.8148 125.895C22.2666 126.261 21.8394 126.782 21.5871 127.391C21.3348 128 21.2688 128.67 21.3974 129.317C21.526 129.964 21.8435 130.558 22.3096 131.024C22.7758 131.49 23.3698 131.807 24.0164 131.936C24.663 132.065 25.3332 131.999 25.9423 131.746C26.5513 131.494 27.0719 131.067 27.4382 130.519C27.8045 129.97 28 129.326 28 128.667C27.997 128.073 27.8337 127.492 27.5275 126.983L34.6666 119.845ZM24.6667 130.333C24.337 130.333 24.0148 130.236 23.7407 130.052C23.4666 129.869 23.253 129.609 23.1269 129.304C23.0007 129 22.9677 128.665 23.032 128.342C23.0963 128.018 23.2551 127.721 23.4881 127.488C23.7212 127.255 24.0182 127.096 24.3415 127.032C24.6648 126.968 24.9999 127.001 25.3045 127.127C25.609 127.253 25.8693 127.467 26.0524 127.741C26.2356 128.015 26.3333 128.337 26.3333 128.667C26.3329 129.109 26.1571 129.532 25.8447 129.845C25.5322 130.157 25.1085 130.333 24.6667 130.333V130.333ZM24.6667 118.667C26.4511 118.668 28.2022 119.149 29.7358 120.062L30.9475 118.851C29.1866 117.719 27.1532 117.082 25.061 117.007C22.9688 116.933 20.8953 117.424 19.0585 118.429C17.2218 119.433 15.6897 120.914 14.6236 122.716C13.5574 124.517 12.9966 126.573 13 128.667H14.6667C14.6698 126.015 15.7243 123.474 17.599 121.599C19.4737 119.724 22.0154 118.67 24.6667 118.667V118.667Z" fill="black"/>
<path d="M21.1429 166.429C21.8492 166.429 22.5397 166.638 23.127 167.03C23.7144 167.423 24.1721 167.981 24.4424 168.633C24.7127 169.286 24.7835 170.004 24.6457 170.697C24.5079 171.39 24.1677 172.026 23.6682 172.525C23.1688 173.025 22.5324 173.365 21.8396 173.503C21.1468 173.641 20.4287 173.57 19.7761 173.3C19.1235 173.029 18.5658 172.571 18.1733 171.984C17.7809 171.397 17.5714 170.706 17.5714 170C17.5714 169.053 17.9477 168.144 18.6175 167.475C19.2872 166.805 20.1957 166.429 21.1429 166.429V166.429ZM21.1429 165C20.154 165 19.1873 165.293 18.365 165.843C17.5428 166.392 16.9019 167.173 16.5235 168.087C16.145 169 16.046 170.006 16.2389 170.975C16.4319 171.945 16.9081 172.836 17.6073 173.536C18.3066 174.235 19.1975 174.711 20.1674 174.904C21.1373 175.097 22.1426 174.998 23.0563 174.619C23.9699 174.241 24.7508 173.6 25.3002 172.778C25.8496 171.956 26.1429 170.989 26.1429 170C26.1429 168.674 25.6161 167.402 24.6784 166.464C23.7407 165.527 22.4689 165 21.1429 165V165ZM28.2857 185H26.8571V181.429C26.8571 180.481 26.4809 179.573 25.8111 178.903C25.1413 178.233 24.2329 177.857 23.2857 177.857H19C18.0528 177.857 17.1444 178.233 16.4746 178.903C15.8048 179.573 15.4286 180.481 15.4286 181.429V185H14V181.429C14 180.102 14.5268 178.831 15.4645 177.893C16.4021 176.955 17.6739 176.429 19 176.429H23.2857C24.6118 176.429 25.8836 176.955 26.8212 177.893C27.7589 178.831 28.2857 180.102 28.2857 181.429V185ZM28.2857 166.429H35.4286V167.857H28.2857V166.429ZM28.2857 170H35.4286V171.429H28.2857V170ZM28.2857 173.571H33.2857V175H28.2857V173.571Z" fill="black"/>
<path d="M31.7315 224.047C31.8657 223.908 31.94 223.722 31.9383 223.529C31.9366 223.336 31.8591 223.151 31.7225 223.014C31.5859 222.878 31.4011 222.8 31.2079 222.799C31.0147 222.797 30.8285 222.871 30.6896 223.005L25.3158 228.379L22.8894 225.953C22.7504 225.819 22.5643 225.744 22.3711 225.746C22.1779 225.748 21.9931 225.825 21.8564 225.962C21.7198 226.098 21.6423 226.283 21.6407 226.476C21.639 226.67 21.7132 226.856 21.8475 226.995L25.3158 230.463L31.7315 224.047Z" fill="black"/>
<path fill-rule="evenodd" clip-rule="evenodd" d="M35.6317 218.368V233.842C35.6317 234.428 35.3988 234.991 34.9843 235.405C34.5697 235.82 34.0075 236.053 33.4212 236.053H20.158C19.5718 236.053 19.0095 235.82 18.595 235.405C18.1804 234.991 17.9475 234.428 17.9475 233.842V213.211C17.9475 212.624 18.1804 212.062 18.595 211.647C19.0095 211.233 19.5718 211 20.158 211H28.2633L35.6317 218.368ZM28.2633 219.105C28.0679 219.105 27.8805 219.028 27.7423 218.889C27.6041 218.751 27.5265 218.564 27.5265 218.368V212.474H20.158C19.9626 212.474 19.7752 212.551 19.637 212.69C19.4988 212.828 19.4212 213.015 19.4212 213.211V233.842C19.4212 234.038 19.4988 234.225 19.637 234.363C19.7752 234.501 19.9626 234.579 20.158 234.579H33.4212C33.6166 234.579 33.804 234.501 33.9422 234.363C34.0804 234.225 34.158 234.038 34.158 233.842V219.105H28.2633ZM29.0001 213.821L32.8111 217.632H29.0001V213.821Z" fill="black"/>
<path d="M16.4737 215.421V235.316C16.4737 235.902 16.7066 236.464 17.1211 236.879C17.5357 237.293 18.0979 237.526 18.6842 237.526H32.6842V239H18.6842C17.7071 239 16.77 238.612 16.0791 237.921C15.3882 237.23 15 236.293 15 235.316V215.421H16.4737Z" fill="black"/>
<path d="M34 285H16.5C14.5 285 14 283.334 14 282.5V267.5C14 266.837 14.2634 266.201 14.7322 265.732C15.2011 265.263 15.837 265 16.5 265H29C29.663 265 30.2989 265.263 30.7678 265.732C31.2366 266.201 31.5 266.837 31.5 267.5V275M34 285C33.1663 285 31.5 284.5 31.5 282.5V275M34 285C36 285 36.5 283.334 36.5 282.5V275H31.5" stroke="black" stroke-width="1.5" stroke-linecap="round" stroke-linejoin="round"/>
<path d="M19 280H26.5M25.25 272.5C25.25 273.163 24.9866 273.799 24.5178 274.268C24.0489 274.737 23.413 275 22.75 275C22.087 275 21.4511 274.737 20.9822 274.268C20.5134 273.799 20.25 273.163 20.25 272.5C20.25 271.837 20.5134 271.201 20.9822 270.732C21.4511 270.263 22.087 270 22.75 270C23.413 270 24.0489 270.263 24.5178 270.732C24.9866 271.201 25.25 271.837 25.25 272.5V272.5Z" stroke="black" stroke-width="1.5" stroke-linecap="round" stroke-linejoin="round"/>
<path d="M30 323H33M36 323H33M33 323V320M33 323V326M14 333V332C14 330.143 14.7375 328.363 16.0503 327.05C17.363 325.737 19.1435 325 21 325V325C22.8565 325 24.637 325.737 25.9497 327.05C27.2625 328.363 28 330.143 28 332V333M21 325C22.0609 325 23.0783 324.579 23.8284 323.828C24.5786 323.078 25 322.061 25 321C25 319.939 24.5786 318.922 23.8284 318.172C23.0783 317.421 22.0609 317 21 317C19.9391 317 18.9217 317.421 18.1716 318.172C17.4214 318.922 17 319.939 17 321C17 322.061 17.4214 323.078 18.1716 323.828C18.9217 324.579 19.9391 325 21 325V325Z" stroke="black" stroke-width="1.5" stroke-linecap="round" stroke-linejoin="round"/>
<path d="M22.9673 369.327C22.4784 369.423 21.9432 369.739 21.5226 370.482C21.4783 370.56 21.419 370.629 21.3483 370.684C21.2775 370.739 21.1966 370.78 21.1101 370.803C21.0236 370.827 20.9333 370.834 20.8443 370.823C20.7552 370.812 20.6693 370.783 20.5913 370.739C20.5133 370.695 20.4447 370.635 20.3896 370.565C20.3345 370.494 20.2939 370.413 20.27 370.326C20.2462 370.24 20.2396 370.15 20.2507 370.061C20.2618 369.972 20.2902 369.886 20.3345 369.808C20.9367 368.748 21.7929 368.165 22.7051 367.987C23.5539 367.827 24.4317 368.004 25.1522 368.48C25.8131 368.917 26.347 369.631 26.3634 370.488C26.3812 371.382 25.8377 372.189 24.8354 372.782C24.1553 373.183 23.8904 373.456 23.7771 373.638C23.6815 373.791 23.6596 373.93 23.6596 374.242C23.6596 374.423 23.5877 374.596 23.4597 374.724C23.3316 374.852 23.1579 374.924 22.9769 374.924C22.7958 374.924 22.6221 374.852 22.4941 374.724C22.366 374.596 22.2941 374.423 22.2941 374.242C22.2941 373.87 22.3132 373.409 22.6177 372.917C22.9045 372.457 23.3947 372.047 24.1403 371.606C24.8709 371.173 25.0033 370.762 24.9992 370.516C24.9924 370.234 24.8053 369.888 24.3984 369.619C23.9771 369.34 23.4642 369.236 22.9673 369.327V369.327ZM23.3183 378.338C23.5899 378.338 23.8504 378.23 24.0424 378.038C24.2345 377.846 24.3424 377.586 24.3424 377.314C24.3424 377.042 24.2345 376.782 24.0424 376.59C23.8504 376.398 23.5899 376.29 23.3183 376.29C23.0466 376.29 22.7861 376.398 22.5941 376.59C22.402 376.782 22.2941 377.042 22.2941 377.314C22.2941 377.586 22.402 377.846 22.5941 378.038C22.7861 378.23 23.0466 378.338 23.3183 378.338ZM22.9769 364C21.429 364 19.908 364.404 18.5647 365.173C17.2214 365.942 16.1026 367.049 15.3193 368.384C14.5359 369.719 14.1154 371.236 14.0992 372.784C14.0831 374.331 14.4721 375.856 15.2274 377.208L14.1418 380.051C14.0514 380.287 14.0285 380.544 14.0756 380.792C14.1227 381.041 14.2379 381.272 14.4084 381.458C14.5789 381.645 14.798 381.781 15.0412 381.851C15.2845 381.921 15.5423 381.921 15.7859 381.853L19.182 380.901C20.3851 381.47 21.7005 381.76 23.031 381.752C24.3615 381.743 25.6731 381.436 26.8687 380.852C28.0644 380.268 29.1134 379.423 29.9383 378.379C30.7632 377.335 31.3428 376.119 31.6343 374.821C31.9258 373.522 31.9217 372.175 31.6223 370.879C31.3229 369.582 30.7359 368.37 29.9046 367.331C29.0734 366.292 28.0192 365.453 26.82 364.877C25.6209 364.3 24.3074 364 22.9769 364V364ZM15.4664 372.876C15.467 371.239 16.0022 369.648 16.9907 368.343C17.9791 367.039 19.3666 366.093 20.9421 365.649C22.5176 365.206 24.1948 365.289 25.7185 365.887C27.2423 366.484 28.5292 367.563 29.3834 368.959C30.2376 370.355 30.6123 371.992 30.4506 373.621C30.2889 375.25 29.5996 376.781 28.4876 377.982C27.3755 379.183 25.9016 379.987 24.2902 380.274C22.6787 380.56 21.0178 380.312 19.5603 379.567L19.3227 379.444L15.4172 380.538L16.7404 377.075L16.5656 376.788C15.8448 375.611 15.4643 374.257 15.4664 372.876V372.876ZM27.023 385.849C25.7453 385.85 24.4824 385.575 23.321 385.042C22.1597 384.51 21.1274 383.732 20.2949 382.763C21.0792 382.975 21.886 383.093 22.6983 383.114C23.9632 384.007 25.4744 384.486 27.023 384.483C28.2547 384.483 29.4154 384.187 30.4396 383.664L30.6772 383.541L34.5826 384.635L33.2594 381.172L33.4342 380.885C34.1306 379.746 34.5335 378.408 34.5335 376.973C34.5356 375.456 34.0765 373.975 33.2171 372.726C33.2059 371.913 33.0982 371.105 32.8962 370.318C33.841 371.15 34.5975 372.174 35.1153 373.322C35.6331 374.469 35.9003 375.714 35.899 376.973C35.899 378.544 35.4893 380.022 34.7711 381.304L35.858 384.147C35.9482 384.383 35.9711 384.64 35.9241 384.888C35.8771 385.137 35.762 385.367 35.5916 385.554C35.4213 385.741 35.2025 385.877 34.9595 385.947C34.7164 386.017 34.4588 386.018 34.2153 385.95L30.8178 384.998C29.6667 385.544 28.379 385.849 27.0216 385.849H27.023Z" fill="black"/>
<path d="M20.4085 424.889C21.6026 424.848 22.7325 424.338 23.5533 423.47C24.3742 422.601 24.82 421.445 24.7943 420.25C24.8198 419.65 24.7264 419.05 24.5195 418.486C24.3126 417.922 23.9963 417.405 23.5887 416.963C23.1811 416.522 22.6904 416.166 22.1446 415.914C21.5989 415.663 21.0089 415.522 20.4085 415.5C19.8068 415.52 19.2151 415.66 18.6675 415.91C18.1199 416.16 17.6273 416.516 17.218 416.958C16.8088 417.4 16.4911 417.918 16.2832 418.483C16.0753 419.048 15.9814 419.648 16.0068 420.25C15.9853 421.446 16.4347 422.603 17.2581 423.471C18.0815 424.338 19.2129 424.848 20.4085 424.889V424.889ZM20.4085 417.495C20.7484 417.515 21.0809 417.603 21.3867 417.752C21.6924 417.902 21.9653 418.112 22.1893 418.368C22.4133 418.625 22.584 418.923 22.6915 419.246C22.7989 419.569 22.841 419.91 22.8152 420.25C22.8372 420.919 22.5985 421.57 22.1495 422.066C21.7005 422.563 21.0763 422.865 20.4085 422.91C19.7407 422.865 19.1165 422.563 18.6675 422.066C18.2185 421.57 17.9798 420.919 18.0018 420.25C17.976 419.91 18.0181 419.569 18.1255 419.246C18.233 418.923 18.4037 418.625 18.6277 418.368C18.8517 418.112 19.1246 417.902 19.4303 417.752C19.7361 417.603 20.0686 417.515 20.4085 417.495V417.495ZM31.7927 425.491C32.7909 425.454 33.7339 425.023 34.4161 424.294C35.0982 423.564 35.4643 422.594 35.4343 421.596C35.4686 420.595 35.1044 419.621 34.4218 418.888C33.7392 418.155 32.7937 417.722 31.7927 417.685C30.7944 417.726 29.853 418.161 29.1738 418.893C28.4945 419.626 28.1325 420.597 28.1668 421.596C28.1368 422.592 28.5007 423.559 29.1795 424.288C29.8583 425.018 30.7973 425.45 31.7927 425.491V425.491ZM31.7927 419.664C32.2674 419.705 32.7074 419.93 33.0182 420.291C33.329 420.652 33.4859 421.12 33.4552 421.596C33.4816 422.069 33.3228 422.533 33.0124 422.891C32.702 423.249 32.2645 423.471 31.7927 423.512C31.318 423.475 30.8765 423.254 30.5628 422.896C30.2491 422.538 30.0881 422.071 30.1143 421.596C30.0838 421.118 30.2428 420.647 30.557 420.285C30.8711 419.924 31.3151 419.701 31.7927 419.664ZM31.6818 427.47C30.7421 427.467 29.8145 427.681 28.9713 428.096C28.128 428.511 27.3921 429.115 26.821 429.861C26.0411 428.918 25.061 428.16 23.9519 427.642C22.8428 427.124 21.6324 426.86 20.4085 426.868C18.3301 426.825 16.3182 427.602 14.8073 429.03C13.2965 430.458 12.4079 432.422 12.3335 434.5H14.3127C14.3745 432.943 15.0507 431.474 16.1932 430.415C17.3357 429.355 18.8514 428.792 20.4085 428.848C21.964 428.792 23.4781 429.356 24.618 430.416C25.758 431.476 26.4308 432.945 26.4885 434.5H28.4677C28.4724 433.584 28.3004 432.675 27.961 431.824C28.2821 431.109 28.8053 430.503 29.4664 430.081C30.1275 429.659 30.8976 429.439 31.6818 429.449C32.7014 429.411 33.6948 429.777 34.4453 430.468C35.1958 431.159 35.6424 432.119 35.6877 433.138V434.5H37.6668V433.138C37.6213 431.594 36.966 430.131 35.8444 429.069C34.7228 428.006 33.2261 427.432 31.6818 427.47V427.47Z" fill="black"/>
<path fill-rule="evenodd" clip-rule="evenodd" d="M25.5778 481.5H27.5278C32.514 481.5 36.5556 477.458 36.5556 472.472C36.5556 467.486 32.514 463.444 27.5278 463.444H22.4722C17.486 463.444 13.4444 467.486 13.4444 472.472C13.4444 478.293 16.7638 481.774 20.255 483.873C22.0071 484.926 23.7722 485.607 25.1054 486.023C25.2701 486.075 25.4283 486.122 25.5778 486.166V481.5ZM27.0222 488C27.0222 488 26.4704 487.907 25.5778 487.666C21.815 486.646 12 482.981 12 472.472C12 466.689 16.6887 462 22.4722 462H27.5278C33.3113 462 38 466.689 38 472.472C38 478.256 33.3113 482.944 27.5278 482.944H27.0222V488Z" fill="black"/>
<path fill-rule="evenodd" clip-rule="evenodd" d="M27.6656 466.681C28.4095 467.175 28.9699 467.976 28.9699 469.05C28.9699 470.19 28.5106 471.028 27.766 471.541C27.472 471.74 27.1476 471.889 26.8054 471.984V473.09C26.8054 473.378 26.6913 473.653 26.4881 473.856C26.285 474.06 26.0094 474.174 25.7221 474.174C25.4348 474.174 25.1592 474.06 24.9561 473.856C24.7529 473.653 24.6388 473.378 24.6388 473.09V471.07C24.6387 470.796 24.7431 470.531 24.9309 470.33C25.1186 470.129 25.3756 470.008 25.6499 469.989C26.05 469.963 26.3533 469.883 26.5361 469.757C26.6101 469.708 26.6699 469.64 26.7094 469.56C26.7527 469.474 26.8033 469.319 26.8033 469.05C26.8033 468.824 26.7152 468.651 26.466 468.485C26.1829 468.297 25.7279 468.158 25.1812 468.141C24.6409 468.124 24.1159 468.229 23.7295 468.416C23.3424 468.604 23.2001 468.815 23.1604 468.97C23.125 469.108 23.0628 469.237 22.9774 469.351C22.892 469.465 22.785 469.561 22.6625 469.633C22.5401 469.706 22.4046 469.753 22.2637 469.773C22.1228 469.793 21.9794 469.786 21.8416 469.75C21.7038 469.715 21.5743 469.653 21.4605 469.567C21.3468 469.482 21.2509 469.375 21.1785 469.252C21.1061 469.13 21.0585 468.994 21.0384 468.853C21.0183 468.713 21.0262 468.569 21.0616 468.431C21.3108 467.463 22.0352 466.83 22.7848 466.467C23.5359 466.102 24.4192 465.948 25.2498 465.975C26.0753 466.001 26.9564 466.209 27.6656 466.681V466.681Z" fill="black"/>
<path d="M27.1667 477.167C27.1667 477.55 27.0145 477.917 26.7437 478.188C26.4728 478.459 26.1054 478.611 25.7223 478.611C25.3392 478.611 24.9718 478.459 24.7009 478.188C24.43 477.917 24.2778 477.55 24.2778 477.167C24.2778 476.784 24.43 476.416 24.7009 476.145C24.9718 475.874 25.3392 475.722 25.7223 475.722C26.1054 475.722 26.4728 475.874 26.7437 476.145C27.0145 476.416 27.1667 476.784 27.1667 477.167V477.167Z" fill="black"/>
<path d="M25.7098 534.718L32.5082 527.857H31.0725C30.8968 527.857 30.7254 527.836 30.5582 527.794L25.037 533.368L19.5186 527.794C19.3494 527.836 19.1757 527.857 19.0014 527.857H17.5715L24.3641 534.718C24.7356 535.094 25.3384 535.094 25.7098 534.718ZM34.6067 516.876C35.4623 517.741 36.0494 518.835 36.2973 520.026C36.5452 521.218 36.4433 522.455 36.0038 523.59C35.9081 523.577 35.8117 523.571 35.7152 523.571H34.4453C34.9247 522.655 35.1003 521.609 34.9468 520.586C34.7932 519.563 34.3184 518.616 33.591 517.88C33.153 517.432 32.6303 517.075 32.0531 516.831C31.476 516.587 30.8561 516.46 30.2295 516.458C29.6029 516.456 28.9821 516.579 28.4033 516.819C27.8245 517.059 27.2994 517.412 26.8584 517.857L25.4998 519.233C25.4334 519.3 25.3543 519.353 25.2671 519.39C25.18 519.426 25.0864 519.445 24.992 519.445C24.8975 519.445 24.804 519.426 24.7168 519.39C24.6297 519.353 24.5506 519.3 24.4841 519.233L23.1127 517.847C22.6753 517.4 22.1533 517.044 21.5771 516.8C21.0008 516.557 20.3818 516.43 19.7562 516.428C19.1306 516.426 18.5108 516.548 17.9329 516.788C17.355 517.028 16.8305 517.38 16.3901 517.824C14.8573 519.373 14.5916 521.73 15.6015 523.571H14.2873C14.2016 523.571 14.1159 523.577 14.0302 523.586C13.5699 522.45 13.4519 521.204 13.6908 520.002C13.9296 518.8 14.5149 517.694 15.3744 516.82C15.9476 516.242 16.6301 515.783 17.3822 515.47C18.1343 515.158 18.941 514.998 19.7555 515C20.5699 515.002 21.3758 515.166 22.1263 515.483C22.8768 515.799 23.5569 516.261 24.127 516.843L24.9913 517.714L25.8427 516.853C26.4165 516.274 27.0999 515.814 27.853 515.501C28.6061 515.188 29.4139 515.028 30.2295 515.03C31.045 515.032 31.852 515.197 32.6035 515.513C33.3549 515.83 34.0359 516.293 34.6067 516.876ZM22.0899 519.724C22.036 519.594 21.9449 519.483 21.8281 519.405C21.7113 519.327 21.5739 519.284 21.4333 519.284C21.2926 519.283 21.1549 519.324 21.0374 519.401C20.9199 519.479 20.8278 519.589 20.7728 519.719L18.53 525H14.2873C14.0979 525 13.9162 525.075 13.7822 525.209C13.6483 525.343 13.573 525.525 13.573 525.714C13.573 525.904 13.6483 526.085 13.7822 526.219C13.9162 526.353 14.0979 526.428 14.2873 526.428H19.0014C19.1415 526.428 19.2784 526.387 19.3953 526.31C19.5121 526.233 19.6037 526.123 19.6586 525.994L21.4228 521.841L24.3413 528.846C24.3916 528.967 24.4743 529.072 24.5803 529.149C24.6863 529.226 24.8116 529.273 24.9423 529.284C25.0731 529.294 25.2043 529.269 25.3215 529.21C25.4388 529.151 25.5375 529.061 25.607 528.95L28.6683 524.051L30.5354 526.184C30.6024 526.261 30.6849 526.322 30.7776 526.364C30.8702 526.407 30.9708 526.428 31.0725 526.428H35.7152C35.9047 526.428 36.0864 526.353 36.2203 526.219C36.3543 526.085 36.4295 525.904 36.4295 525.714C36.4295 525.525 36.3543 525.343 36.2203 525.209C36.0864 525.075 35.9047 525 35.7152 525H31.3968L29.1111 522.386C29.0377 522.302 28.9455 522.236 28.8421 522.194C28.7387 522.152 28.6269 522.135 28.5156 522.144C28.4044 522.153 28.2968 522.188 28.2015 522.246C28.1062 522.304 28.0258 522.384 27.9669 522.479L25.1284 527.02L22.0899 519.726V519.724Z" fill="black"/>
<path d="M21.8462 574.308C20.9281 574.308 20.0476 573.943 19.3985 573.294C18.7493 572.645 18.3846 571.764 18.3846 570.846V568.077C18.3846 567.893 18.4576 567.717 18.5874 567.587C18.7172 567.458 18.8933 567.385 19.0769 567.385H19.7692C19.9528 567.385 20.1289 567.312 20.2588 567.182C20.3886 567.052 20.4615 566.876 20.4615 566.692C20.4615 566.509 20.3886 566.333 20.2588 566.203C20.1289 566.073 19.9528 566 19.7692 566H19.0769C18.5261 566 17.9978 566.219 17.6083 566.608C17.2188 566.998 17 567.526 17 568.077V570.846C17.0009 571.628 17.1916 572.399 17.5558 573.091C17.92 573.783 18.4467 574.376 19.0908 574.82C19.7096 575.366 20.2114 576.031 20.566 576.776C20.9206 577.521 21.1206 578.33 21.1538 579.154C21.1538 580.439 21.6644 581.672 22.5733 582.581C23.4821 583.489 24.7147 584 26 584C27.2853 584 28.5179 583.489 29.4267 582.581C30.3356 581.672 30.8462 580.439 30.8462 579.154V578.365C31.4988 578.196 32.0675 577.795 32.4458 577.238C32.8241 576.68 32.9859 576.003 32.901 575.334C32.8161 574.666 32.4902 574.051 31.9845 573.605C31.4787 573.16 30.8279 572.914 30.1538 572.914C29.4798 572.914 28.829 573.16 28.3232 573.605C27.8175 574.051 27.4916 574.666 27.4067 575.334C27.3218 576.003 27.4836 576.68 27.8619 577.238C28.2402 577.795 28.8089 578.196 29.4615 578.365V579.154C29.4615 580.072 29.0968 580.952 28.4477 581.602C27.7985 582.251 26.9181 582.615 26 582.615C25.0819 582.615 24.2015 582.251 23.5523 581.602C22.9032 580.952 22.5385 580.072 22.5385 579.154C22.5735 578.329 22.7756 577.519 23.1326 576.774C23.4896 576.029 23.9941 575.364 24.6154 574.82C25.2569 574.375 25.7809 573.781 26.1427 573.089C26.5044 572.396 26.693 571.627 26.6923 570.846V568.077C26.6923 567.526 26.4735 566.998 26.084 566.608C25.6945 566.219 25.1662 566 24.6154 566H23.9231C23.7395 566 23.5634 566.073 23.4335 566.203C23.3037 566.333 23.2308 566.509 23.2308 566.692C23.2308 566.876 23.3037 567.052 23.4335 567.182C23.5634 567.312 23.7395 567.385 23.9231 567.385H24.6154C24.799 567.385 24.9751 567.458 25.1049 567.587C25.2348 567.717 25.3077 567.893 25.3077 568.077V570.846C25.3077 571.301 25.2182 571.751 25.0442 572.171C24.8702 572.591 24.6153 572.972 24.2938 573.294C23.9724 573.615 23.5908 573.87 23.1708 574.044C22.7509 574.218 22.3007 574.308 21.8462 574.308M30.1538 577.077C29.7866 577.077 29.4344 576.931 29.1748 576.671C28.9151 576.412 28.7692 576.06 28.7692 575.692C28.7692 575.325 28.9151 574.973 29.1748 574.713C29.4344 574.454 29.7866 574.308 30.1538 574.308C30.5211 574.308 30.8733 574.454 31.1329 574.713C31.3926 574.973 31.5385 575.325 31.5385 575.692C31.5385 576.06 31.3926 576.412 31.1329 576.671C30.8733 576.931 30.5211 577.077 30.1538 577.077Z" fill="black"/>
<path d="M34.4507 619.191C34.4189 619.116 34.372 619.049 34.313 618.993C34.2539 618.938 34.184 618.895 34.1076 618.868C34.0319 618.839 33.9512 618.827 33.8705 618.83C33.7897 618.833 33.7104 618.853 33.6372 618.887C33.5819 618.918 33.5322 618.957 33.4902 619.005L29.5996 622.895L27.522 622.474L27.1006 620.396L30.9912 616.506C31.041 616.462 31.0811 616.409 31.1088 616.349C31.1435 616.278 31.1631 616.2 31.1665 616.121C31.1699 616.041 31.1569 615.962 31.1284 615.888C31.1011 615.812 31.0582 615.742 31.0026 615.683C30.9469 615.624 30.8797 615.577 30.805 615.545C29.5281 615.003 28.1168 614.861 26.7574 615.138C25.3981 615.414 24.1544 616.096 23.1907 617.094C22.2269 618.092 21.5882 619.358 21.359 620.726C21.1297 622.094 21.3206 623.5 21.9065 624.757L15.8892 629.951L15.8598 629.981C15.3093 630.532 15 631.279 15 632.058C15 632.838 15.3093 633.585 15.8598 634.136C16.1321 634.41 16.4559 634.627 16.8124 634.775C17.169 634.924 17.5513 635 17.9374 635C18.3236 635 18.7059 634.924 19.0625 634.775C19.419 634.627 19.7428 634.41 20.0151 634.136L20.0445 634.107L25.2385 628.089C26.496 628.675 27.9014 628.866 29.2696 628.637C30.6377 628.408 31.9042 627.769 32.9019 626.805C33.8997 625.841 34.5818 624.598 34.8583 623.239C35.1348 621.879 34.9926 620.468 34.4507 619.191ZM32.1476 625.884C31.2761 626.751 30.1485 627.313 28.9322 627.488C27.7158 627.663 26.4755 627.441 25.3953 626.855C25.2771 626.784 25.1377 626.757 25.0016 626.778C24.8655 626.8 24.7412 626.868 24.6505 626.972L19.1723 633.323C18.8409 633.654 18.3914 633.84 17.9227 633.84C17.4541 633.84 17.0046 633.654 16.6732 633.323C16.3418 632.991 16.1557 632.542 16.1557 632.073C16.1557 631.605 16.3418 631.155 16.6732 630.824L23.0237 625.345C23.1251 625.255 23.193 625.134 23.2161 625C23.2393 624.867 23.2163 624.729 23.1511 624.61C22.6179 623.643 22.3783 622.54 22.4616 621.439C22.5449 620.337 22.9476 619.283 23.6204 618.407C24.2931 617.53 25.2068 616.869 26.2496 616.503C27.2923 616.138 28.419 616.084 29.4918 616.349L26.0519 619.789C25.9848 619.858 25.9348 619.942 25.9059 620.034C25.8769 620.125 25.8699 620.223 25.8853 620.318L26.444 623.091C26.4668 623.205 26.5227 623.309 26.6046 623.391C26.6866 623.473 26.7909 623.529 26.9046 623.552L29.678 624.111C29.7731 624.126 29.8705 624.119 29.9624 624.09C30.0543 624.061 30.1381 624.011 30.2072 623.944L33.647 620.504C33.8853 621.454 33.8723 622.449 33.6094 623.393C33.3465 624.336 32.8428 625.195 32.1476 625.884Z" fill="black"/>
<path d="M27.0317 664.5C27.1869 664.5 27.338 664.55 27.4634 664.644C27.5888 664.737 27.682 664.869 27.7295 665.021L28.5357 667.584C28.8743 667.753 29.1983 667.944 29.5076 668.158L32.0816 667.592C32.2334 667.558 32.3915 667.575 32.5333 667.64C32.675 667.705 32.793 667.814 32.8703 667.952L34.902 671.55C34.9795 671.688 35.0124 671.847 34.9958 672.005C34.9792 672.163 34.914 672.311 34.8096 672.429L33.0432 674.424C33.069 674.807 33.069 675.19 33.0432 675.573L34.8096 677.571C34.914 677.689 34.9792 677.837 34.9958 677.995C35.0124 678.153 34.9795 678.312 34.902 678.45L32.8703 682.05C32.7928 682.187 32.6747 682.296 32.533 682.361C32.3913 682.425 32.2332 682.442 32.0816 682.409L29.5076 681.841C29.1997 682.054 28.8743 682.247 28.5371 682.416L27.7295 684.979C27.682 685.131 27.5888 685.263 27.4634 685.356C27.338 685.45 27.1869 685.5 27.0317 685.5H22.9683C22.8131 685.5 22.662 685.45 22.5366 685.356C22.4112 685.263 22.318 685.131 22.2705 684.979L21.4658 682.417C21.1281 682.249 20.8023 682.056 20.491 681.84L17.9184 682.409C17.7666 682.442 17.6085 682.425 17.4667 682.36C17.325 682.295 17.207 682.186 17.1297 682.049L15.098 678.45C15.0205 678.312 14.9876 678.153 15.0042 677.995C15.0208 677.837 15.086 677.689 15.1904 677.571L16.9568 675.573C16.9312 675.191 16.9312 674.809 16.9568 674.427L15.1904 672.429C15.086 672.311 15.0208 672.163 15.0042 672.005C14.9876 671.847 15.0205 671.688 15.098 671.55L17.1297 667.95C17.2072 667.813 17.3253 667.704 17.467 667.639C17.6087 667.575 17.7668 667.558 17.9184 667.592L20.491 668.16C20.8017 667.946 21.1272 667.752 21.4658 667.583L22.272 665.021C22.3193 664.87 22.412 664.738 22.5369 664.645C22.6617 664.551 22.8122 664.501 22.9668 664.5H27.0302H27.0317ZM26.4952 666H23.5048L22.6722 668.65L22.1108 668.931C21.8348 669.069 21.5683 669.227 21.3133 669.402L20.7944 669.762L18.1324 669.174L16.6372 671.826L18.4622 673.893L18.4182 674.529C18.3972 674.843 18.3972 675.157 18.4182 675.471L18.4622 676.107L16.6343 678.174L18.1309 680.826L20.793 680.24L21.3119 680.598C21.5669 680.773 21.8333 680.931 22.1093 681.069L22.6707 681.349L23.5048 684H26.4981L27.3337 681.348L27.8936 681.069C28.1693 680.931 28.4353 680.774 28.6896 680.598L29.207 680.24L31.8705 680.826L33.3657 678.174L31.5392 676.107L31.5832 675.471C31.6044 675.157 31.6044 674.842 31.5832 674.527L31.5392 673.892L33.3672 671.826L31.8705 669.174L29.207 669.759L28.6896 669.402C28.4353 669.226 28.1693 669.069 27.8936 668.931L27.3337 668.652L26.4967 666H26.4952ZM25 670.5C26.1663 670.5 27.2849 670.974 28.1096 671.818C28.9343 672.662 29.3976 673.807 29.3976 675C29.3976 676.193 28.9343 677.338 28.1096 678.182C27.2849 679.026 26.1663 679.5 25 679.5C23.8337 679.5 22.7151 679.026 21.8904 678.182C21.0657 677.338 20.6024 676.193 20.6024 675C20.6024 673.807 21.0657 672.662 21.8904 671.818C22.7151 670.974 23.8337 670.5 25 670.5V670.5ZM25 672C24.2225 672 23.4768 672.316 22.9269 672.879C22.3771 673.441 22.0683 674.204 22.0683 675C22.0683 675.796 22.3771 676.559 22.9269 677.121C23.4768 677.684 24.2225 678 25 678C25.7775 678 26.5232 677.684 27.0731 677.121C27.6229 676.559 27.9317 675.796 27.9317 675C27.9317 674.204 27.6229 673.441 27.0731 672.879C26.5232 672.316 25.7775 672 25 672V672Z" fill="black"/>
</svg>
