<svg width="60" height="60" viewBox="0 0 60 60" fill="none" xmlns="http://www.w3.org/2000/svg">
<g clip-path="url(#clip0_132_19398)">
<rect width="60" height="60" fill="white"/>
<g clip-path="url(#clip1_132_19398)">
<path d="M44.244 54.4737H16.5455C15.2559 54.4737 14.2105 53.441 14.2105 52.167V12.9166C14.2105 11.6426 15.2559 10.6099 16.5455 10.6099H44.244C45.5336 10.6099 46.579 11.6426 46.579 12.9166V52.167C46.5789 53.441 45.5336 54.4737 44.244 54.4737Z" fill="#A9BAE6"/>
<path d="M43.7776 12.3776H17.1359V50.6093H43.7776V12.3776Z" fill="#F6F5F5"/>
<path d="M43.7776 12.3778C43.7859 27.2861 44.2731 45.2663 42.578 49.2472C35.1115 49.9659 26.3689 50.1965 17.1356 50.2394L20.6453 12.4931L43.7776 12.3778Z" fill="#E4E4E4"/>
<path d="M41.3847 48.0425C29.7471 49.8824 21.9691 49.9795 15.6607 49.5167C16.4783 40.9198 16.8059 26.6382 17.1356 12.3796L31.1591 12.4103L43.851 13.2379C44.036 28.037 44.0562 41.7071 41.3847 48.0425Z" fill="white"/>
<path d="M37.2724 16.2284L23.2576 15.903L23.2075 18.0118L37.2223 18.3373L37.2724 16.2284Z" fill="#708CD5"/>
<path d="M39.9743 21.389L27.333 21.0954L27.3101 22.0607L39.9514 22.3543L39.9743 21.389Z" fill="#708CD5"/>
<path d="M35.8755 23.3996L27.283 23.2001L27.26 24.1654L35.8525 24.3649L35.8755 23.3996Z" fill="#D3DFFF"/>
<path d="M23.3497 21.0597L20.3571 20.9902L20.2867 23.9467L23.2794 24.0162L23.3497 21.0597Z" fill="white" stroke="#708CD5" stroke-miterlimit="10"/>
<path d="M20.8446 21.7687C20.9369 22.1181 21.1076 23.5819 21.8496 23.1726C22.0207 23.0782 22.1656 22.8286 22.2936 22.6851C22.5237 22.427 22.7538 22.169 22.9839 21.9109C23.4441 21.3947 23.9043 20.8786 24.3645 20.3624C24.4824 20.2301 23.9616 19.8984 23.8136 20.0644C23.4045 20.5232 22.9955 20.982 22.5864 21.4408C22.3819 21.6702 22.1774 21.8996 21.9728 22.129C21.8309 22.2882 21.5027 22.8017 21.2921 22.8472C21.4066 22.8838 21.5211 22.9203 21.6356 22.9568C21.7166 23.0225 21.5662 22.5574 21.5629 22.5448C21.5058 22.3289 21.4487 22.113 21.3917 21.8971C21.3445 21.7188 20.7747 21.5044 20.8446 21.7687Z" fill="#EE6F57"/>
<path d="M37.615 26.7121L27.2051 26.4703L27.1822 27.4356L37.5921 27.6773L37.615 26.7121Z" fill="#708CD5"/>
<path d="M39.7963 28.8686L27.1551 28.575L27.1321 29.5403L39.7734 29.8339L39.7963 28.8686Z" fill="#D3DFFF"/>
<path d="M23.2219 26.4346L20.2292 26.3651L20.1588 29.3216L23.1515 29.3911L23.2219 26.4346Z" fill="white" stroke="#708CD5" stroke-miterlimit="10"/>
<path d="M20.7145 27.2271C20.8069 27.5766 20.9776 29.0403 21.7196 28.631C21.8907 28.5366 22.0356 28.2871 22.1636 28.1436C22.3937 27.8855 22.6237 27.6274 22.8539 27.3693C23.314 26.8532 23.7742 26.337 24.2344 25.8208C24.3524 25.6886 23.8316 25.3568 23.6836 25.5228C23.2745 25.9816 22.8654 26.4405 22.4564 26.8993C22.2519 27.1287 22.0473 27.3581 21.8428 27.5875C21.7008 27.7467 21.3727 28.2602 21.162 28.3057C21.2766 28.3422 21.3911 28.3788 21.5056 28.4153C21.5865 28.4809 21.4362 28.0159 21.4328 28.0032C21.3758 27.7874 21.3187 27.5715 21.2616 27.3556C21.2144 27.1772 20.6447 26.9628 20.7145 27.2271Z" fill="#EE6F57"/>
<path d="M39.7185 32.1388L27.0772 31.8452L27.0543 32.8105L39.6956 33.1041L39.7185 32.1388Z" fill="#708CD5"/>
<path d="M32.6806 34.0812L27.0272 33.9499L27.0042 34.9152L32.6576 35.0465L32.6806 34.0812Z" fill="#D3DFFF"/>
<path d="M23.094 31.8095L20.1013 31.74L20.031 34.6965L23.0236 34.766L23.094 31.8095Z" fill="white" stroke="#708CD5" stroke-miterlimit="10"/>
<path d="M20.6271 32.6403C20.7195 32.9898 20.8901 34.4535 21.6321 34.0442C21.8032 33.9498 21.9482 33.7003 22.0761 33.5567C22.3062 33.2987 22.5363 33.0406 22.7664 32.7825C23.2266 32.2664 23.6868 31.7502 24.147 31.234C24.2649 31.1018 23.7442 30.77 23.5961 30.936C23.1871 31.3948 22.778 31.8537 22.369 32.3125C22.1645 32.5419 21.9599 32.7712 21.7554 33.0007C21.6134 33.1599 21.2853 33.6733 21.0746 33.7189C21.1891 33.7554 21.3037 33.792 21.4182 33.8285C21.4991 33.8941 21.3487 33.4291 21.3454 33.4164C21.2883 33.2006 21.2313 32.9846 21.1742 32.7688C21.127 32.5904 20.5572 32.376 20.6271 32.6403Z" fill="#EE6F57"/>
<path d="M39.5906 37.5137L26.9493 37.2201L26.9264 38.1854L39.5677 38.479L39.5906 37.5137Z" fill="#708CD5"/>
<path d="M36.8854 39.5567L26.8993 39.3248L26.8763 40.2901L36.8624 40.522L36.8854 39.5567Z" fill="#D3DFFF"/>
<path d="M22.9661 37.1844L19.9734 37.1149L19.9031 40.0714L22.8957 40.1409L22.9661 37.1844Z" fill="white" stroke="#708CD5" stroke-miterlimit="10"/>
<path d="M20.4999 37.9801C20.5923 38.3295 20.7629 39.7933 21.5049 39.384C21.676 39.2896 21.8209 39.0401 21.9489 38.8965C22.179 38.6384 22.4091 38.3804 22.6392 38.1223C23.0994 37.6061 23.5596 37.09 24.0198 36.5738C24.1377 36.4415 23.6169 36.1098 23.4689 36.2758C23.0598 36.7346 22.6508 37.1934 22.2417 37.6522C22.0372 37.8816 21.8327 38.111 21.6282 38.3404C21.4862 38.4996 21.158 39.0131 20.9474 39.0586C21.0619 39.0952 21.1764 39.1317 21.2909 39.1683C21.3719 39.2339 21.2215 38.7688 21.2182 38.7562C21.1611 38.5403 21.104 38.3244 21.047 38.1085C20.9998 37.9302 20.43 37.7158 20.4999 37.9801Z" fill="#EE6F57"/>
<path d="M31.8334 42.6707L26.8224 42.5544L26.7994 43.5197L31.8104 43.636L31.8334 42.6707Z" fill="#708CD5"/>
<path d="M39.4131 44.9542L26.7715 44.6603L26.7485 45.6256C31.6394 45.739 37.8668 45.9653 39.1375 45.7727C39.3303 45.5561 39.4344 45.29 39.4131 44.9542Z" fill="#D3DFFF"/>
<path d="M22.881 42.5196L19.8883 42.4501L19.818 45.4066L22.8106 45.4761L22.881 42.5196Z" fill="white" stroke="#708CD5" stroke-miterlimit="10"/>
<path d="M20.3738 43.2731C20.4662 43.6225 20.6368 45.0863 21.3788 44.677C21.5499 44.5826 21.6948 44.333 21.8228 44.1895C22.0529 43.9314 22.283 43.6734 22.5131 43.4153C22.9733 42.8991 23.4335 42.3829 23.8937 41.8668C24.0116 41.7345 23.4909 41.4027 23.3428 41.5688C22.9338 42.0276 22.5247 42.4864 22.1157 42.9452C21.9111 43.1746 21.7066 43.404 21.5021 43.6334C21.3601 43.7926 21.0319 44.3061 20.8213 44.3516C20.9358 44.3882 21.0504 44.4247 21.1649 44.4612C21.2458 44.5269 21.0954 44.0618 21.0921 44.0492C21.035 43.8333 20.9779 43.6174 20.9209 43.4015C20.8737 43.2232 20.3039 43.0088 20.3738 43.2731Z" fill="#EE6F57"/>
<path d="M36.3949 10.8755V13.8263H24.3942V10.8755C24.3942 10.405 24.5877 9.97919 24.8993 9.67008C24.9383 9.6316 24.9785 9.5956 25.0212 9.56208C25.319 9.31752 25.7023 9.17104 26.1195 9.17104C26.4324 9.17104 26.7327 9.10028 27.0017 8.97241C27.1185 8.91655 27.2291 8.85075 27.3334 8.77503C27.6765 8.52426 27.9391 8.16798 28.0698 7.74342C28.203 7.31016 28.4757 6.94767 28.8288 6.69567C29.1681 6.45483 29.5815 6.3158 30.0201 6.3158H30.7691C31.2076 6.3158 31.621 6.45483 31.9603 6.69567C32.3134 6.94767 32.5861 7.31016 32.7193 7.74342C32.85 8.16798 33.1127 8.52426 33.4557 8.77503C33.56 8.85075 33.6706 8.91655 33.7875 8.97241C34.0564 9.10028 34.3567 9.17104 34.6696 9.17104C35.0868 9.17104 35.4701 9.31752 35.7679 9.56208C36.1512 9.87367 36.3949 10.3467 36.3949 10.8755Z" fill="#EE6F57"/>
<path d="M37.3688 12.3776V14.5712H23.4203V12.3776H24.3942V13.8263H36.3949V12.3776H37.3688Z" fill="#E4E4E4"/>
<path d="M30.3947 9.08401C30.9826 9.08401 31.4592 8.63656 31.4592 8.08459C31.4592 7.53262 30.9826 7.08516 30.3947 7.08516C29.8069 7.08516 29.3303 7.53262 29.3303 8.08459C29.3303 8.63656 29.8069 9.08401 30.3947 9.08401Z" fill="white"/>
</g>
<g clip-path="url(#clip2_132_19398)">
<path d="M58.4624 54.4737H40.2219C39.3727 54.4737 38.6842 53.7965 38.6842 52.9611V27.2231C38.6842 26.3877 39.3726 25.7105 40.2219 25.7105H58.4624C59.3116 25.7105 60 26.3877 60 27.2231V52.9611C60 53.7965 59.3116 54.4737 58.4624 54.4737Z" fill="#A9BAE6"/>
<path d="M58.1552 26.8697H40.6107V51.9396H58.1552V26.8697Z" fill="#F6F5F5"/>
<path d="M58.1552 26.8698C58.1607 36.6458 58.4815 48.436 57.3652 51.0465C52.4483 51.5177 46.691 51.669 40.6105 51.6971L42.9218 26.9454L58.1552 26.8698Z" fill="#E4E4E4"/>
<path d="M56.5794 50.2565C48.9156 51.463 43.7935 51.5266 39.6392 51.2232C40.1776 45.5859 40.3934 36.2209 40.6105 26.871L49.8455 26.8911L58.2035 27.4338C58.3253 37.1381 58.3386 46.1022 56.5794 50.2565Z" fill="white"/>
<path d="M53.8713 29.3948L44.6421 29.1814L44.609 30.5643L53.8383 30.7777L53.8713 29.3948Z" fill="#708CD5"/>
<path d="M55.6506 32.7788L47.3259 32.5863L47.3107 33.2193L55.6355 33.4118L55.6506 32.7788Z" fill="#708CD5"/>
<path d="M52.9514 34.0973L47.2929 33.9664L47.2778 34.5994L52.9362 34.7302L52.9514 34.0973Z" fill="#D3DFFF"/>
<path d="M44.7027 32.5629L42.7319 32.5173L42.6856 34.4559L44.6564 34.5015L44.7027 32.5629Z" fill="white" stroke="#708CD5" stroke-width="0.5" stroke-miterlimit="10"/>
<path d="M43.053 33.0278C43.1138 33.2569 43.2262 34.2167 43.7148 33.9484C43.8275 33.8865 43.9229 33.7228 44.0072 33.6287C44.1587 33.4595 44.3103 33.2902 44.4618 33.121C44.7648 32.7826 45.0679 32.4441 45.3709 32.1056C45.4486 32.0189 45.1057 31.8013 45.0082 31.9102C44.7388 32.2111 44.4694 32.5119 44.2 32.8128C44.0654 32.9632 43.9307 33.1136 43.796 33.2641C43.7025 33.3685 43.4864 33.7052 43.3477 33.735C43.4231 33.759 43.4985 33.7829 43.5739 33.8069C43.6272 33.8499 43.5282 33.545 43.526 33.5367C43.4884 33.3951 43.4508 33.2536 43.4133 33.112C43.3822 32.9951 43.007 32.8545 43.053 33.0278Z" fill="#EE6F57"/>
<path d="M54.0969 36.2693L47.2416 36.1108L47.2265 36.7438L54.0818 36.9023L54.0969 36.2693Z" fill="#708CD5"/>
<path d="M55.5334 37.6835L47.2087 37.491L47.1935 38.1239L55.5183 38.3164L55.5334 37.6835Z" fill="#D3DFFF"/>
<path d="M44.6185 36.0874L42.6477 36.0418L42.6014 37.9805L44.5722 38.0261L44.6185 36.0874Z" fill="white" stroke="#708CD5" stroke-width="0.5" stroke-miterlimit="10"/>
<path d="M42.9673 36.6071C43.0282 36.8362 43.1406 37.7961 43.6292 37.5277C43.7419 37.4658 43.8373 37.3021 43.9216 37.208C44.0731 37.0388 44.2246 36.8696 44.3762 36.7003C44.6792 36.3619 44.9823 36.0234 45.2853 35.6849C45.363 35.5982 45.0201 35.3806 44.9225 35.4895C44.6532 35.7904 44.3838 36.0912 44.1144 36.3921C43.9797 36.5425 43.845 36.6929 43.7104 36.8434C43.6169 36.9478 43.4008 37.2845 43.262 37.3143C43.3375 37.3383 43.4129 37.3623 43.4883 37.3862C43.5416 37.4292 43.4426 37.1243 43.4404 37.116C43.4028 36.9744 43.3652 36.8329 43.3276 36.6913C43.2965 36.5744 42.9213 36.4338 42.9673 36.6071Z" fill="#EE6F57"/>
<path d="M55.4822 39.8278L47.1574 39.6353L47.1423 40.2683L55.467 40.4608L55.4822 39.8278Z" fill="#708CD5"/>
<path d="M50.8474 41.1016L47.1244 41.0155L47.1093 41.6484L50.8323 41.7345L50.8474 41.1016Z" fill="#D3DFFF"/>
<path d="M44.5343 39.6119L42.5635 39.5664L42.5172 41.505L44.488 41.5506L44.5343 39.6119Z" fill="white" stroke="#708CD5" stroke-width="0.5" stroke-miterlimit="10"/>
<path d="M42.9098 40.1567C42.9706 40.3859 43.083 41.3457 43.5716 41.0773C43.6843 41.0154 43.7797 40.8518 43.864 40.7577C44.0155 40.5884 44.1671 40.4192 44.3186 40.25C44.6216 39.9115 44.9247 39.573 45.2277 39.2346C45.3054 39.1478 44.9625 38.9303 44.865 39.0392C44.5956 39.34 44.3262 39.6409 44.0568 39.9417C43.9222 40.0922 43.7875 40.2426 43.6528 40.393C43.5593 40.4974 43.3432 40.8341 43.2045 40.864C43.2799 40.8879 43.3553 40.9119 43.4307 40.9358C43.484 40.9789 43.385 40.6739 43.3828 40.6656C43.3452 40.5241 43.3076 40.3825 43.27 40.2409C43.239 40.124 42.8638 39.9834 42.9098 40.1567Z" fill="#EE6F57"/>
<path d="M55.3979 43.3524L47.0732 43.1599L47.0581 43.7928L55.3828 43.9853L55.3979 43.3524Z" fill="#708CD5"/>
<path d="M53.6164 44.6921L47.0402 44.54L47.0251 45.173L53.6013 45.325L53.6164 44.6921Z" fill="#D3DFFF"/>
<path d="M44.4501 43.1365L42.4793 43.0909L42.433 45.0295L44.4037 45.0751L44.4501 43.1365Z" fill="white" stroke="#708CD5" stroke-width="0.5" stroke-miterlimit="10"/>
<path d="M42.826 43.6582C42.8868 43.8873 42.9992 44.8472 43.4878 44.5788C43.6005 44.5169 43.6959 44.3533 43.7802 44.2591C43.9317 44.0899 44.0833 43.9207 44.2348 43.7514C44.5378 43.413 44.8409 43.0745 45.1439 42.736C45.2216 42.6493 44.8787 42.4318 44.7812 42.5406C44.5118 42.8415 44.2424 43.1424 43.9731 43.4432C43.8384 43.5936 43.7037 43.7441 43.569 43.8945C43.4755 43.9989 43.2594 44.3356 43.1207 44.3654C43.1961 44.3894 43.2715 44.4134 43.3469 44.4373C43.4002 44.4803 43.3012 44.1754 43.299 44.1671C43.2614 44.0256 43.2238 43.884 43.1863 43.7424C43.1552 43.6255 42.78 43.4849 42.826 43.6582Z" fill="#EE6F57"/>
<path d="M50.2895 46.7341L46.9896 46.6577L46.9745 47.2907L50.2744 47.367L50.2895 46.7341Z" fill="#708CD5"/>
<path d="M55.281 48.2314L46.9561 48.0387L46.9409 48.6717C50.1618 48.746 54.2627 48.8944 55.0995 48.7681C55.2265 48.6261 55.295 48.4516 55.281 48.2314Z" fill="#D3DFFF"/>
<path d="M44.394 46.635L42.4233 46.5894L42.3769 48.528L44.3477 48.5736L44.394 46.635Z" fill="white" stroke="#708CD5" stroke-width="0.5" stroke-miterlimit="10"/>
<path d="M42.7429 47.129C42.8038 47.3582 42.9162 48.318 43.4048 48.0496C43.5175 47.9877 43.6129 47.8241 43.6972 47.73C43.8487 47.5607 44.0002 47.3915 44.1518 47.2223C44.4548 46.8838 44.7579 46.5453 45.0609 46.2069C45.1386 46.1201 44.7957 45.9026 44.6982 46.0115C44.4288 46.3123 44.1594 46.6132 43.89 46.914C43.7554 47.0645 43.6206 47.2149 43.486 47.3653C43.3925 47.4697 43.1764 47.8064 43.0377 47.8363C43.1131 47.8602 43.1885 47.8842 43.2639 47.9081C43.3172 47.9512 43.2182 47.6462 43.216 47.6379C43.1784 47.4964 43.1408 47.3548 43.1032 47.2132C43.0721 47.0963 42.6969 46.9557 42.7429 47.129Z" fill="#EE6F57"/>
<path d="M53.2935 25.8847V27.8197H45.3905V25.8847C45.3905 25.5762 45.518 25.297 45.7232 25.0943C45.7488 25.069 45.7753 25.0454 45.8035 25.0235C45.9996 24.8631 46.252 24.767 46.5267 24.767C46.7328 24.767 46.9306 24.7206 47.1076 24.6368C47.1846 24.6002 47.2574 24.557 47.3261 24.5074C47.552 24.3429 47.725 24.1093 47.8111 23.8309C47.8988 23.5468 48.0784 23.3091 48.3109 23.1438C48.5343 22.9859 48.8066 22.8947 49.0954 22.8947H49.5886C49.8774 22.8947 50.1497 22.9859 50.3731 23.1438C50.6056 23.3091 50.7852 23.5468 50.8729 23.8309C50.959 24.1093 51.132 24.3429 51.3579 24.5074C51.4266 24.557 51.4994 24.6002 51.5763 24.6368C51.7534 24.7206 51.9512 24.767 52.1573 24.767C52.432 24.767 52.6844 24.8631 52.8805 25.0235C53.1329 25.2278 53.2935 25.5379 53.2935 25.8847Z" fill="#EE6F57"/>
<path d="M53.9348 26.8697V28.3081H44.7492V26.8697H45.3905V27.8197H53.2935V26.8697H53.9348Z" fill="#E4E4E4"/>
<path d="M49.3421 24.71C49.7292 24.71 50.0431 24.4166 50.0431 24.0546C50.0431 23.6927 49.7292 23.3992 49.3421 23.3992C48.955 23.3992 48.6411 23.6927 48.6411 24.0546C48.6411 24.4166 48.955 24.71 49.3421 24.71Z" fill="white"/>
</g>
<path d="M5.26568 59.4332C5.26568 59.4332 5.16478 61.2318 5.22302 61.2886C5.28126 61.3453 7.36377 61.8029 7.40628 61.7371C7.44878 61.6712 7.78598 59.8316 7.78598 59.8316L5.26568 59.4332Z" fill="#FE8E9C"/>
<path d="M7.08604 43.0963C7.08604 43.0963 4.23836 60.0839 4.49419 60.3059C4.75001 60.5279 8.93719 60.8384 8.89029 60.6182C8.84339 60.398 10.7558 49.6177 10.695 48.6436C10.6342 47.6694 7.08604 43.0963 7.08604 43.0963Z" fill="#1C056D"/>
<path d="M12.8599 35.2054C12.8599 35.2054 14.4155 60.8532 13.7222 60.7747C13.0289 60.6963 10.5057 60.9525 9.95208 60.7015C9.39842 60.4505 7.74276 44.7122 7.74276 44.7122C7.74276 44.7122 4.86035 38.1102 5.19747 35.2054H12.8599Z" fill="#1B3D9E"/>
<path d="M11.9279 61.1207C11.8976 60.9569 11.447 56.6492 11.0453 52.7287C10.8485 50.8087 10.2068 44.5218 10.2102 44.2338C10.2152 43.7968 9.15548 35.063 9.14479 34.9749L9.26095 34.9607C9.30468 35.321 10.3323 43.7904 10.3272 44.2351C10.3246 44.459 10.7566 48.7632 11.1617 52.7166C11.6124 57.1145 12.016 60.9533 12.043 61.0993L11.9279 61.1207Z" fill="#1C056D"/>
<path d="M2.28035 22.4968C2.28035 22.4968 -0.769183 27.3686 -0.789282 30.5316C-0.806915 33.3056 0.48182 33.4481 0.48182 33.4481C0.48182 33.4481 2.83491 32.1684 3.09855 31.7586C3.36218 31.3487 3.89639 28.5869 3.89639 28.5869C3.89639 28.5869 2.73133 22.8088 2.28035 22.4968Z" fill="#D4DFFF"/>
<path d="M9.12666 20.2293C9.12666 20.2293 11.9091 21.1062 12.2665 21.59C12.6238 22.0738 15.6615 25.9142 15.87 25.9444C16.0785 25.9747 23.7025 23.8132 23.7025 23.8132L24.3279 25.9448C24.3279 25.9448 16.5252 30.7245 15.6317 30.6175C14.7383 30.5105 13.1897 29.1498 13.1897 29.1498C13.1897 29.1498 13.1831 35.0552 12.865 35.2885C12.5469 35.5219 6.30203 35.9811 5.31573 35.827C4.32943 35.6729 1.8871 23.9491 2.12028 22.9067C2.52181 21.1115 6.67373 19.9951 6.67373 19.9951L9.12666 20.2293Z" fill="#D4DFFF"/>
<path d="M13.1898 29.1498C13.1898 29.1498 11.6276 24.3385 11.6276 24.1646C11.6276 23.9908 13.7314 29.0083 14.7589 29.2816C15.7864 29.5548 18.9556 29.0871 18.9556 29.0871C18.9556 29.0871 16.3735 31.219 15.5417 31.1197C14.71 31.0203 13.1898 29.1498 13.1898 29.1498Z" fill="#B7C9F7"/>
<path d="M3.52489 30.8186L3.89642 27.638C3.89642 27.638 7.90912 36.4314 7.8281 36.2758C7.74709 36.1201 4.31912 35.9135 4.28912 35.7003C4.25915 35.4872 3.52489 30.8186 3.52489 30.8186Z" fill="#B7C9F7"/>
<path d="M5.95005 14.4229C6.18853 13.9672 7.27163 13.2851 8.2578 13.2543C8.81372 13.2369 9.32274 13.5704 9.55431 14.0838C10.0785 15.2459 11.2179 18.01 10.4198 18.4635C10.0645 18.6654 9.59689 18.6731 9.12569 18.5783C9.19877 19.3403 9.21681 21.1082 9.20292 21.3482C9.1834 21.6856 6.86606 21.0746 6.43601 20.757C6.00599 20.4395 7.16007 17.5753 7.16007 17.5753C6.84786 17.1181 5.61827 15.0571 5.95005 14.4229Z" fill="#FE8E9C"/>
<path d="M9.12567 18.5782C9.12567 18.5782 8.47809 18.3131 7.91297 17.9544C7.91297 17.9544 8.40061 19.5427 9.37791 19.5017L9.12567 18.5782Z" fill="#E57492"/>
<path d="M8.77219 14.3868C8.84799 14.6919 8.53301 14.9799 8.22343 14.9951C7.91384 15.0103 7.62764 14.8424 7.36208 14.6802C7.42949 14.8978 7.40548 15.1429 7.29718 15.3428C7.09512 15.0983 6.89071 14.8502 6.75836 14.5607C6.62601 14.2713 6.572 13.9306 6.68158 13.6315C6.81278 13.2733 7.15546 13.0334 7.51284 12.9134C7.73048 12.8404 7.96185 12.8032 8.19001 12.8252C8.61625 12.8662 9.00327 13.1113 9.30094 13.4238C9.42511 13.5541 9.53629 13.6966 9.63897 13.8449C9.73474 13.9832 9.84197 14.1287 9.90782 14.2847C9.95661 14.4003 9.96002 14.5245 9.83979 14.5924C9.68734 14.6786 9.48923 14.6752 9.32453 14.6352C9.12728 14.5873 8.94786 14.4861 8.77219 14.3868Z" fill="#E57492"/>
<path d="M8.83282 15.2067C8.83282 15.2067 10.1243 15.9274 10.0307 16.1175C9.93709 16.3075 9.02 16.046 8.92641 16.0935C8.83282 16.141 9.11236 16.3652 9.23838 16.3567C9.36436 16.3481 10.2414 16.3709 10.2414 16.1321C10.2414 15.8933 9.8303 15.5528 8.83282 15.2067Z" fill="#E57492"/>
<path d="M10.2463 16.6871C10.2463 16.6871 10.1016 17.2921 9.39174 16.9543C9.39174 16.9543 9.34122 17.2486 9.77309 17.2201C10.3424 17.1826 10.2463 16.6871 10.2463 16.6871Z" fill="white"/>
<path d="M4.93565 15.5474C5.57977 17.2221 6.97204 17.2815 6.97204 17.2815C6.97204 17.2815 7.12766 16.1501 7.00558 15.916C7.00558 15.916 6.39146 16.0509 6.30646 15.5737C6.13379 14.6042 7.21533 15.2067 7.21533 15.2067L6.95642 14.2548C6.95642 14.2548 7.78485 14.6547 8.30011 14.5033C8.81538 14.3519 8.24586 13.9388 8.24586 13.9388C8.24586 13.9388 9.30553 14.0967 9.4819 14.0903C9.65827 14.0839 9.27643 13.3743 9.27643 13.3743C9.27643 13.3743 9.56501 13.6634 10.1394 13.5257C10.4948 13.4406 9.9709 12.9707 9.1377 12.6312C9.27429 12.5441 9.38428 12.4071 9.40405 12.246C9.41223 12.1794 9.40216 12.1054 9.35493 12.0585C9.31025 12.0142 9.24359 12.0041 9.18164 11.9963C8.96031 11.9682 8.73893 11.9402 8.51755 11.9121C8.05008 11.8529 7.57091 11.7942 7.11216 11.9029C7.08733 11.9088 7.06263 11.9152 7.03813 11.9223C6.82378 11.9837 6.61901 12.0876 6.44802 12.2332C6.36467 12.3042 6.28941 12.3853 6.22718 12.4761C6.17346 12.5543 6.1305 12.6105 6.13305 12.6832C6.13379 12.6835 6.13449 12.6838 6.13523 12.6841C6.13523 12.6841 4.5062 12.5063 4.46329 13.4982C4.42038 14.4901 4.93565 15.5474 4.93565 15.5474Z" fill="#1B3D9E"/>
<path d="M4.24885 26.8306L3.21236 27.4062L14.5332 49.1609C14.901 49.8677 15.3511 50.5271 15.8738 51.1249L19.2075 54.9375C19.323 55.0695 19.5347 54.9519 19.4875 54.7821L18.1265 49.8835C17.9112 49.1086 17.6044 48.363 17.2127 47.663L5.24719 26.2762L4.24885 26.8306Z" fill="#6880E4"/>
<path opacity="0.3" d="M4.27367 25.9324C4.27367 25.9324 15.9725 50.3198 18.8649 51.5561C21.7574 52.7923 18.8649 51.5561 18.8649 51.5561C18.8649 51.5561 16.6687 44.0153 13.7412 37.9448C10.8136 31.8742 5.23996 25.0273 5.23996 25.0273L4.27367 25.9324Z" fill="#D4DFFF"/>
<path d="M17.8245 53.5546C17.8245 53.5546 18.4901 52.9355 19.0606 52.8681C19.0606 52.8681 19.7273 55.2119 19.5891 55.274C19.4509 55.3362 17.8245 53.5546 17.8245 53.5546Z" fill="#1C056D"/>
<path d="M3.21244 27.4062C3.21244 27.4062 1.01764 23.8571 1.21892 23.579C1.4202 23.3008 2.90742 22.3364 3.30916 22.4346C3.54957 22.4933 5.21045 25.903 5.24728 26.2761L3.21244 27.4062Z" fill="#1C056D"/>
<path d="M4.9708 25.5452C4.9708 25.5452 6.69206 25.4738 7.29265 26.1025C7.97812 26.8202 12.9268 37.4016 12.8076 37.5679C12.6884 37.7342 12.4453 37.5542 12.4453 37.5542C12.4453 37.5542 7.12528 26.7609 6.9545 26.573C6.78372 26.3852 5.24721 26.2761 5.24721 26.2761L4.9708 25.5452Z" fill="#1C056D"/>
<path d="M9.72538 39.9219C9.72538 39.9219 11.6518 38.552 12.1335 38.5845C12.6152 38.6171 17.6078 48.3936 17.6078 48.3936C17.6078 48.3936 15.3733 49.864 14.9222 49.8851C14.9222 49.885 10.06 41.1678 9.72538 39.9219Z" fill="#1C056D"/>
<path d="M9.95203 38.1512L10.4514 38.1752C10.5131 38.1782 10.8037 38.1497 10.8356 38.096C10.8877 38.0083 10.792 37.8454 10.6978 37.7497C10.5165 37.5656 9.4278 37.1691 9.21177 37.0535C5.42308 32.8018 2.92752 31.365 2.92752 31.365C2.28332 30.5207 0.97325 30.6812 0.563948 31.6651C0.278654 32.3509 0.340431 33.052 0.481784 33.4481C0.708383 34.0832 7.02966 37.4466 8.40249 38.171C8.40249 38.171 8.484 39.1752 8.80156 39.5087C9.11908 39.8422 9.95943 40.8714 10.1387 40.9084C10.3179 40.9454 10.7542 40.5149 10.6229 39.9812C10.4915 39.4476 9.95203 38.1512 9.95203 38.1512Z" fill="#FE8E9C"/>
<path d="M0.576437 31.0885C0.576437 31.0885 1.26413 32.8359 2.12445 33.4397C2.98481 34.0434 8.40249 38.1709 8.40249 38.1709C8.40249 38.1709 1.23342 35.7021 0.348564 34.3531C-0.536297 33.0041 0.576437 31.0885 0.576437 31.0885Z" fill="#E57492"/>
<path d="M10.4515 38.1752C10.4515 38.1752 9.62525 37.7274 9.63598 37.7927C9.64671 37.858 10.516 40.1473 10.5689 40.2642C10.6217 40.381 10.4459 40.4992 10.4002 40.5178C10.3544 40.5364 9.46725 39.2455 9.43984 38.9483C9.41242 38.6512 9.34485 38.9964 9.53516 39.4591C9.72546 39.9218 10.341 40.4976 10.3727 40.6351C10.4044 40.7727 10.2226 41.0849 10.1806 40.9966C10.1387 40.9084 9.07398 39.3384 8.97336 39.292C8.87274 39.2455 9.0374 39.5056 9.11056 39.6542C9.18373 39.8027 9.26606 40.1185 9.34834 40.2949C9.43067 40.4713 10.0277 41.2183 10.2505 41.142C10.4733 41.0657 10.8158 40.7778 10.8504 40.4621C10.8849 40.1463 10.7203 39.7284 10.5099 39.1155C10.2995 38.5026 10.1623 38.3633 10.1623 38.3633L10.4515 38.1752Z" fill="#E57492"/>
<path d="M6.10082 20.1703C6.10082 20.1703 5.49019 20.7083 6.10082 21.5609C6.71144 22.4135 8.29443 23.7509 8.29443 23.7509C8.29443 23.7509 9.20173 22.106 9.20297 21.3483C9.20297 21.3483 6.33 20.3339 6.34694 20.2434C6.36387 20.153 6.37838 20.0606 6.37838 20.0606L6.10082 20.1703Z" fill="#B7C9F7"/>
<path d="M9.20296 21.3483C9.20296 21.3483 10.86 22.0428 10.9662 22.1088C11.0725 22.1747 10.3145 20.7065 10.1947 20.5926C10.075 20.4787 9.19881 20.2524 9.19881 20.2524L9.20296 21.3483Z" fill="#B7C9F7"/>
<path d="M13.47 31.8966C13.3172 30.5674 10.3248 23.0014 10.1785 22.6321C10.1627 22.2752 10.1093 21.7698 10.0876 21.722C10.0539 21.6478 9.2029 21.3483 9.2029 21.3483C9.2029 21.3483 8.98198 22.2673 8.93911 22.3798C8.90984 22.4565 9.45273 22.7144 9.82462 22.8679C9.96762 24.0371 10.961 32.0783 11.3341 32.8921C11.7367 33.7699 13.028 35.0643 13.0197 34.9621C13.0114 34.8599 13.6268 33.259 13.47 31.8966Z" fill="#1B3D9E"/>
<path d="M3.37018 31.6515C3.37018 31.6515 1.20139 34.3744 0.914038 34.515C0.626689 34.6556 -0.329238 34.0039 -0.41354 33.5641C-0.497842 33.1242 0.071144 31.5514 0.661174 30.8187C1.2512 30.086 3.19997 30.5139 3.22652 30.6209C3.25307 30.7278 3.37018 31.6515 3.37018 31.6515Z" fill="#B7C9F7"/>
<path d="M23.8137 24.2222C23.8137 24.2222 24.9384 22.4633 25.1633 22.4815C25.3881 22.4998 24.8993 23.5919 24.9286 23.5919C24.958 23.5919 27.5 23.0161 27.6858 23.155C27.8715 23.294 27.0698 25.0313 26.9232 25.1008C26.7765 25.1703 24.1686 25.4317 24.1686 25.4317L23.8137 24.2222Z" fill="#FE8E9C"/>
<path d="M24.9286 23.5919C24.9286 23.5919 24.5452 24.7521 24.6878 24.7076C24.8303 24.663 25.6838 23.5764 25.8908 23.5547C26.0979 23.533 27.6105 23.2841 27.6403 23.388C27.67 23.4918 27.6117 23.7432 27.3975 23.7867C27.1833 23.8303 25.7409 24.1493 25.9337 24.1565C26.1265 24.1638 27.3689 23.8582 27.3761 23.9566C27.3832 24.055 27.3475 24.3015 27.2761 24.374C27.2047 24.4465 25.5339 24.635 25.7124 24.6495C25.8909 24.664 27.1432 24.4336 27.1548 24.5408C27.163 24.6169 27.1612 24.8943 26.6549 25.1063C26.5025 25.1701 25.3998 25.3024 25.4288 25.2992C25.4578 25.296 26.9262 25.1643 26.9905 25.1208C27.0547 25.0773 27.5405 24.2 27.6475 23.9173C27.7545 23.6345 27.817 23.292 27.6858 23.1551C27.5546 23.0182 24.9286 23.5919 24.9286 23.5919Z" fill="#E57492"/>
</g>
<defs>
<clipPath id="clip0_132_19398">
<rect width="60" height="60" fill="white"/>
</clipPath>
<clipPath id="clip1_132_19398">
<rect width="32.3684" height="48.1579" fill="white" transform="translate(14.2105 6.3158)"/>
</clipPath>
<clipPath id="clip2_132_19398">
<rect width="21.3158" height="31.5789" fill="white" transform="translate(38.6842 22.8947)"/>
</clipPath>
</defs>
</svg>
