<svg width="60" height="60" viewBox="0 0 60 60" fill="none" xmlns="http://www.w3.org/2000/svg">
<g clip-path="url(#clip0_132_19164)">
<rect width="60" height="60" rx="30" fill="white"/>
<path d="M21.6236 46.8603C21.6539 46.6168 21.6531 45.6913 21.5539 45.3552C21.2087 44.1856 19.786 43.7216 19.1765 44.1269C18.7897 44.3841 17.884 46.7246 18.2386 48.0471C18.2616 48.1324 18.3148 48.1817 18.3716 48.2C18.3689 48.4219 18.3783 48.5981 18.4013 48.6796C18.4502 48.8542 18.6184 48.8867 18.7092 48.7933C18.7286 48.9371 18.7543 49.0494 18.7716 49.1086C18.8357 49.3278 19.0681 49.3478 19.1114 49.1455C19.2054 48.705 19.2173 48.4087 19.307 48.1036C19.3689 47.8933 19.5484 47.4511 19.5668 47.4525C19.5108 47.638 19.4592 47.8397 19.4146 48.0385C19.3027 48.5383 19.383 49.0771 19.4349 49.2298C19.5084 49.4461 19.7711 49.4412 19.8057 49.2371C19.883 48.7801 19.9049 48.4906 19.9973 48.1769C20.0825 47.8885 20.339 47.0262 20.6598 46.6949C20.6925 46.7617 20.7236 46.8331 20.7493 46.9179C20.806 47.1037 20.7474 47.2828 20.7736 47.7449C20.792 48.0708 21.1576 48.4411 21.3106 47.9857C21.3766 47.7894 21.5917 47.1172 21.6236 46.8603Z" fill="#FFB072"/>
<path d="M21.7352 33.1776C22.352 30.1386 21.1779 24.348 22.4058 21.8745C23.7312 19.2044 28.0439 20.8713 27.9344 23.0249C27.7438 26.7775 27.0146 31.5742 26.4405 34.1872C25.6559 37.7586 21.7766 45.7112 21.7766 45.7112C20.7857 45.3808 19.703 44.8441 18.9535 44.2487C18.9537 44.2487 21.1038 36.2894 21.7352 33.1776Z" fill="#4F4F4F"/>
<path d="M23.8876 39.2732C24.5804 35.8531 31.6196 35.8356 30.9369 39.2683C28.5857 51.0942 27.6619 65.9916 25.1191 73.6652C23.9787 74.0778 22.8714 73.6124 22.2898 73.2578C22.2898 73.2581 21.6267 50.4352 23.8876 39.2732Z" fill="#091420"/>
<path d="M29.5288 39.5225C29.6582 36.0276 35.8469 34.6816 36.2139 38.1577C37.8018 53.1952 34.3717 64.2816 33.8284 73.6747C32.3456 74.2536 31.3486 74.0541 30.5631 73.711C30.5631 73.7107 29.3336 44.7951 29.5288 39.5225Z" fill="#091420"/>
<path d="M23.908 40.192C23.9799 42.0154 26.8536 43.3837 30.3269 43.248C33.8003 43.1122 36.4069 41.5299 36.335 39.7065C36.1034 33.8221 33.1641 26.944 29.6907 27.0797C26.2173 27.2154 23.6721 34.1953 23.908 40.192Z" fill="black"/>
<path d="M24.33 33.7224C24.7084 29.931 22.008 22.8173 22.4061 21.8747C23.0051 20.4566 29.8475 16.7131 29.8475 16.7131C30.1335 16.8516 36.9681 19.6463 38.3168 21.8225C38.8817 22.7338 35.5361 31.6583 35.7575 35.0237C35.8664 36.6823 36.4751 38.3099 36.5381 39.9057C36.61 41.7291 23.5727 41.8948 23.5008 40.0711C23.417 37.9504 24.1227 35.7992 24.33 33.7224Z" fill="#091420"/>
<path d="M38.3167 21.8222C38.3102 21.8117 38.3016 21.8009 38.2945 21.7902C32.9424 26.2389 32.4848 34.1813 36.5088 39.5379C36.3793 38.06 35.858 36.5551 35.7571 35.0234C35.536 31.658 38.8813 22.7335 38.3167 21.8222Z" fill="#4F4F4F"/>
<path d="M27.0716 20.308L28.7966 24.7858H29.5833L32.3005 20.1841" stroke="#7C4284" stroke-width="0.757" stroke-miterlimit="10"/>
<path d="M31.901 28.9373H26.5287C26.4132 28.9373 26.3197 28.8441 26.3197 28.7291V25.4604C26.3197 25.3454 26.4132 25.2522 26.5287 25.2522H31.901C32.0164 25.2522 32.11 25.3454 32.11 25.4604V28.7291C32.11 28.8441 32.0164 28.9373 31.901 28.9373Z" fill="white"/>
<path d="M28.2111 28.3168H26.8392C26.7464 28.3168 26.6713 28.242 26.6713 28.1496V26.3213C26.6713 26.229 26.7464 26.1541 26.8392 26.1541H28.2111C28.3038 26.1541 28.3789 26.229 28.3789 26.3213V28.1496C28.3789 28.242 28.3038 28.3168 28.2111 28.3168Z" fill="#DD4026"/>
<path d="M29.9575 25.3963H28.4723V25.6225H29.9575V25.3963Z" fill="#3E2344"/>
<path d="M29.4961 25.5094H28.8842C28.8358 25.5094 28.7969 25.4704 28.7969 25.4221V24.6258C28.7969 24.5776 28.836 24.5386 28.8842 24.5386H29.4961C29.5445 24.5386 29.5834 24.5776 29.5834 24.6258V25.4221C29.5834 25.4704 29.5442 25.5094 29.4961 25.5094Z" fill="#7C4284"/>
<path d="M31.6523 26.1541H29.0093V26.4021H31.6523V26.1541Z" fill="#A1ABAD"/>
<path d="M31.6523 26.6747H29.0093V26.9227H31.6523V26.6747Z" fill="#A1ABAD"/>
<path d="M31.6523 27.1949H29.0093V27.4429H31.6523V27.1949Z" fill="#A1ABAD"/>
<path d="M31.6523 28.0688H29.0093V28.3168H31.6523V28.0688Z" fill="#A1ABAD"/>
<path d="M26.1747 11.4519C26.262 13.6712 27.4739 14.3199 29.5521 14.2386C32.2111 14.1346 33.2704 12.9481 33.1828 10.7288C33.0955 8.50956 31.3581 7.24118 29.2799 7.32224C27.2017 7.40356 26.0506 8.30113 26.1747 11.4519Z" fill="#FFB072"/>
<path d="M27.0695 11.8459C26.9241 11.6016 26.4381 11.0162 25.9676 11.3703C25.497 11.7244 25.7519 12.7741 26.2241 13.1829C26.6963 13.5917 28.0087 13.4226 27.0695 11.8459Z" fill="#FFB072"/>
<path d="M26.5357 12.6064C26.6124 12.4822 26.8046 12.7407 26.9068 12.4437C26.9427 12.3395 26.8257 12.1144 26.7405 11.9878C26.6397 11.8381 26.3024 11.4153 26.0316 11.6652C25.7608 11.9151 25.9432 12.6629 26.263 12.8999C26.4497 13.0383 26.6246 13.0181 26.5889 12.9435C26.5289 12.8188 26.4824 12.668 26.5357 12.6064Z" fill="#E57E55"/>
<path d="M26.3463 12.1596C26.2628 12.4316 26.3655 12.678 26.5506 12.8541C26.5131 12.7537 26.4947 12.6535 26.5355 12.6064C26.6123 12.4822 26.8044 12.7407 26.9066 12.4437C26.9426 12.3395 26.8255 12.1144 26.7404 11.9878C26.7382 11.9846 26.7358 11.9811 26.7334 11.9776C26.5688 11.9202 26.3877 12.0613 26.3463 12.1596Z" fill="#BC6658"/>
<path d="M25.877 8.88873C25.877 8.88873 25.5702 10.7585 26.3462 12.1596C27.1222 13.561 27.639 8.16891 25.877 8.88873Z" fill="#DD4026"/>
<path d="M31.2857 13.4843C31.2857 13.4843 31.3884 16.9202 31.9298 17.5781C33.8288 19.886 31.8381 21.8968 30.1746 21.8631C27.9615 21.8184 27.1947 20.1741 28.4602 18.2145C28.7085 17.8299 28.4953 13.8661 28.4953 13.8661L31.2857 13.4843Z" fill="#FFB072"/>
<path d="M28.5817 16.4514C29.8907 16.4002 31.2464 14.6479 31.3732 13.2451C31.4494 12.4012 30.8026 11.8666 31.051 10.7218C31.5548 8.40051 29.2682 8.18965 28.2614 8.23139C26.8863 8.28848 26.1011 9.40444 26.1565 10.8118C26.1565 10.8118 26.2076 12.8571 26.2665 13.5371C26.4362 15.5024 27.2728 16.5026 28.5817 16.4514Z" fill="#FFB072"/>
<path d="M27.3342 7.44046C27.0144 7.48705 26.4985 7.72645 26.4293 7.66021C26.2836 7.41811 26.8726 5.8947 29.7621 6.75645C29.7621 6.75645 29.5032 6.43329 29.6629 6.39047C31.5387 5.88716 33.2274 8.01702 33.145 10.1038C33.1493 9.87867 33.2044 9.47796 33.3247 9.45453C33.535 9.41386 33.7701 10.6117 33.3212 11.7271C32.9587 12.9153 31.3295 14.5819 31.2938 13.6811C31.2038 13.0399 31.1987 12.5213 30.9233 11.9218C30.757 11.5596 30.5924 11.1931 30.5597 10.79C30.5405 10.5535 30.5567 10.3144 30.6024 10.0839C30.5797 10.0806 28.9064 9.79599 27.7864 9.14618C27.8577 9.20489 27.9291 9.26171 28.001 9.3118C28.4853 9.64869 29.5802 10.0432 29.5432 10.2204C29.5062 10.3976 26.1866 10.2934 26.1441 9.36081C26.0182 9.37024 25.6906 10.3944 25.5936 10.2218C24.9127 9.01207 26.1377 7.8067 27.3342 7.44046Z" fill="#DD4026"/>
<path d="M29.3517 11.4557C29.3574 11.4557 29.3574 11.4468 29.3517 11.4468C29.346 11.4468 29.346 11.4557 29.3517 11.4557Z" fill="#1E1C1C"/>
<path d="M29.5443 14.0366C29.5124 13.9278 27.4545 14.0067 27.408 14.0993C27.3615 14.1919 27.5851 14.5905 28.1624 14.5913C28.83 14.5924 29.5762 14.1454 29.5443 14.0366Z" fill="white"/>
<path d="M29.474 14.0571C29.4983 14.105 29.4981 14.0845 29.4921 14.0872L29.4648 14.0808C29.444 14.0767 29.4216 14.0738 29.3983 14.0711C29.3521 14.0659 29.3046 14.0624 29.2564 14.06C29.1605 14.0549 29.0637 14.0525 28.967 14.0514C28.7732 14.0479 28.5783 14.0468 28.384 14.0501C28.1894 14.0536 27.9948 14.0584 27.801 14.0719C27.7045 14.0797 27.6072 14.0883 27.5137 14.1036C27.4907 14.1077 27.4672 14.1123 27.4483 14.1185L27.4364 14.1228C27.4393 14.1252 27.4423 14.1115 27.441 14.1174C27.4396 14.1206 27.4385 14.1273 27.4396 14.1368C27.442 14.1731 27.4637 14.2165 27.4877 14.2534C27.5923 14.4042 27.771 14.4965 27.9534 14.5302C28.138 14.5625 28.331 14.5394 28.5161 14.4992C28.7021 14.4575 28.8818 14.3894 29.0537 14.3086C29.14 14.2687 29.2243 14.2243 29.3027 14.1739C29.3421 14.1494 29.3805 14.1225 29.4138 14.0942C29.4319 14.0802 29.4459 14.0659 29.4586 14.0522C29.4743 14.0425 29.4681 14.0177 29.474 14.0571ZM29.6148 14.0161C29.6221 14.1058 29.5838 14.122 29.5678 14.1481C29.5473 14.1702 29.5265 14.1896 29.5056 14.2052C29.4638 14.2388 29.4213 14.2674 29.3778 14.2932C29.2913 14.3466 29.2016 14.3913 29.11 14.4316C28.9262 14.5103 28.7348 14.5703 28.5378 14.6051C28.3413 14.6382 28.1372 14.6514 27.9375 14.6094C27.7402 14.5682 27.5461 14.4656 27.4296 14.2919C27.401 14.2483 27.3739 14.203 27.3669 14.1419C27.3653 14.1268 27.3656 14.1096 27.3729 14.0894C27.3723 14.0818 27.3904 14.0638 27.4012 14.0579L27.4234 14.0484C27.4507 14.039 27.4753 14.0342 27.5002 14.0291C27.5988 14.0107 27.6961 14.0005 27.794 13.9908C27.9891 13.9703 28.1842 13.9542 28.3797 13.9415C28.5751 13.9294 28.7708 13.9192 28.9672 13.9159C29.0654 13.9151 29.1637 13.9157 29.2629 13.9192C29.3127 13.9211 29.3624 13.9235 29.4132 13.9281C29.4386 13.9305 29.4646 13.9335 29.4919 13.938C29.5048 13.9399 29.5213 13.9445 29.5359 13.948C29.5524 13.9604 29.5765 13.9469 29.6148 14.0161Z" fill="#C67154"/>
<path d="M31.1283 11.6873C31.2542 11.4325 31.6923 10.811 32.1894 11.1271C32.6864 11.4433 32.5145 12.51 32.0761 12.9543C31.6375 13.3989 30.3155 13.3324 31.1283 11.6873Z" fill="#FFB072"/>
<path d="M31.72 12.4039L31.3373 12.2706C31.3373 12.2706 31.3922 11.9359 31.4673 11.8031C31.556 11.6458 31.8592 11.1983 32.1487 11.4264C32.4382 11.6545 32.3152 12.4141 32.0149 12.6754C31.8395 12.8278 31.6849 12.8544 31.6849 12.8544L31.72 12.4039Z" fill="#E57E55"/>
<path d="M38.1407 46.3012C38.2007 46.0632 38.5367 45.2004 38.7508 44.9224C39.4959 43.9557 40.9911 44.0343 41.4128 44.6311C41.6803 45.01 41.6779 47.5185 40.8684 48.6242C40.8162 48.6956 40.7487 48.7225 40.6889 48.719C40.6111 48.9269 40.5384 49.0877 40.4876 49.1558C40.3789 49.3009 40.2103 49.271 40.1592 49.1512C40.0892 49.2783 40.0243 49.3739 39.9867 49.4229C39.8476 49.6044 39.6238 49.5395 39.6567 49.3354C39.7284 48.8908 39.8246 48.6102 39.8513 48.2932C39.8697 48.0748 39.8624 47.5979 39.8449 47.5928C39.8297 47.7859 39.8051 47.9927 39.7746 48.1939C39.6978 48.7001 39.4281 49.1738 39.3246 49.2977C39.1778 49.473 38.9345 49.3739 38.9759 49.1714C39.0691 48.7174 39.1535 48.4395 39.181 48.1139C39.2062 47.8141 39.2789 46.9179 39.0994 46.4935C39.0448 46.5441 38.99 46.5994 38.9351 46.6694C38.8151 46.8223 38.8045 47.0106 38.6132 47.432C38.478 47.7296 38.0029 47.9434 38.0253 47.4635C38.0348 47.2564 38.0775 46.552 38.1407 46.3012Z" fill="#FFB072"/>
<path d="M37.9359 21.3353C39.5333 22.935 40.4347 27.1939 41.2266 32.0943C42.1347 37.7142 41.7696 45.3549 41.7696 45.3549C41.7415 45.705 38.3705 45.1435 38.3986 44.7935C38.3986 44.7935 38.0035 36.996 36.8753 33.5172C35.6804 29.8324 34.5736 27.1637 33.4938 24.1632C32.7638 22.1333 35.8272 19.2238 37.9359 21.3353Z" fill="#091420"/>
<path d="M35.4158 19.4597C35.4158 19.4597 33.8379 19.44 33.0792 20.2474C31.8792 21.5246 31.274 21.8766 29.3601 22.172C29.3601 22.172 31.8356 17.5124 31.7486 17.218C31.6616 16.924 31.4659 16.3749 32.0835 16.3151C32.7008 16.2553 35.4517 17.9306 35.4158 19.4597Z" fill="#091420"/>
<path d="M29.3599 22.1723C29.3599 22.1723 32.9432 18.7808 33.0297 18.0394C33.1162 17.298 32.7386 16.4177 31.6575 16.6423C30.5767 16.8669 28.5341 20.521 29.3599 22.1723Z" fill="#4F4F4F"/>
<path d="M24.936 19.6773C24.936 19.6773 26.1971 19.5747 26.9396 20.4873C27.6385 21.3466 28.0683 22.1007 29.5281 22.1656C29.5281 22.1656 28.5086 17.6166 28.5724 17.3164C28.6361 17.0164 28.624 16.4861 28.0037 16.4745C27.3834 16.463 24.6211 18.4205 24.936 19.6773Z" fill="#091420"/>
<path d="M29.5281 22.1656C29.5281 22.1656 27.3402 18.9995 27.1956 18.2673C27.051 17.535 27.3583 16.6278 28.4537 16.7673C29.5492 16.9068 30.2214 20.455 29.5281 22.1656Z" fill="#4F4F4F"/>
<path d="M28.8299 12.3718C28.8269 12.4946 28.9864 12.5205 29.1837 12.525C29.381 12.5296 29.5413 12.511 29.5443 12.3885C29.5472 12.2657 29.3897 12.1626 29.1924 12.158C28.995 12.1534 28.8329 12.2493 28.8299 12.3718Z" fill="#3E2344"/>
<path d="M30.0828 11.341C30.0845 11.3611 29.5066 11.2036 29.3282 11.2217C29.1498 11.2397 28.4863 11.4126 28.423 11.3485C28.3595 11.2844 28.2917 11.0498 28.2917 11.0498C28.2917 11.0498 29.2012 10.8743 29.3955 10.9082C29.5269 10.9311 29.8112 10.9443 29.9718 11.0668C30.0485 11.1255 30.0774 11.2693 30.0828 11.341Z" fill="#DD4026"/>
<path d="M26.855 12.3174C26.852 12.4402 27.0115 12.4661 27.2088 12.4706C27.4061 12.4752 27.5664 12.4566 27.5693 12.3341C27.5723 12.2113 27.4147 12.1082 27.2174 12.1039C27.0199 12.099 26.8577 12.1949 26.855 12.3174Z" fill="#3E2344"/>
<path d="M26.2272 11.4979C26.227 11.519 26.6367 11.2615 26.7975 11.2747C26.9583 11.2879 27.6741 11.5222 27.7373 11.4532C27.8003 11.3846 27.8819 11.1384 27.8819 11.1384C27.8819 11.1384 26.8805 10.9596 26.7008 11.0011C26.6154 11.0208 26.3686 11.0873 26.2851 11.1788C26.1929 11.2801 26.2283 11.418 26.2272 11.4979Z" fill="#DD4026"/>
<path opacity="0.5" d="M27.7888 13.4676C27.7888 13.4676 28.2423 13.5007 28.2453 13.3763C28.2483 13.2519 27.3166 13.0154 27.2553 13.0987C27.1934 13.1819 27.5918 13.3892 27.7888 13.4676Z" fill="#E57E55"/>
<path d="M27.9122 11.5866C27.9122 11.5866 27.9838 12.165 27.8941 12.3608C27.8043 12.5568 27.3403 12.9705 27.3208 13.0663C27.3016 13.1619 27.7549 13.4498 27.7887 13.4676C27.8224 13.4854 27.1167 13.2993 27.1616 13.0795C27.2065 12.8598 27.7997 12.3597 27.8308 12.2531C27.8616 12.1462 27.9122 11.5866 27.9122 11.5866Z" fill="#E57E55"/>
<path d="M41.735 22.8904C40.0941 26.0725 39.9134 35.8855 37.4795 44.2574C38.1925 44.8143 39.2202 45.313 40.1593 45.6175C40.1593 45.6175 45.1359 36.7423 45.7582 25.2107C45.8681 23.1754 43.0264 20.3863 41.735 22.8904Z" fill="#549E7B"/>
<path d="M46.5309 47.6396L32.3684 45.1932L34.2883 35.4402L48.219 37.9387L46.5309 47.6396Z" fill="#8C8C8C"/>
<path d="M32.8263 45.2723L34.8101 35.7497L48.219 37.9387L46.5308 47.6396L32.8263 45.2723Z" fill="#E2E2E2"/>
<path d="M41.5921 41.6056C41.5921 42.1941 41.1134 42.6711 40.5228 42.6711C39.9322 42.6711 39.4535 42.1941 39.4535 41.6056C39.4535 41.0172 39.9322 40.5402 40.5228 40.5402C41.1132 40.5402 41.5921 41.0172 41.5921 41.6056Z" fill="#8C8C8C"/>
<path d="M38.5851 46.5808C38.5123 47.1313 37.763 47.013 37.861 46.4447C37.9061 46.1825 38.0021 45.6509 38.1165 45.4137C38.2833 45.068 38.6392 45.136 38.7021 45.5383C38.7427 45.7973 38.6194 46.3208 38.5851 46.5808Z" fill="#F4B998"/>
<path d="M39.2499 46.7472C39.1773 47.2752 38.4278 47.1617 38.5257 46.6167C38.5709 46.3653 38.6669 45.8555 38.7813 45.6281C38.9481 45.2966 39.3039 45.3618 39.3669 45.7475C39.4077 45.9958 39.2844 46.4978 39.2499 46.7472Z" fill="#F4B998"/>
<path d="M39.9202 46.8921C39.8476 47.3131 39.0981 47.2226 39.1961 46.7881C39.2412 46.5876 39.3372 46.1812 39.4517 45.9996C39.6184 45.7354 39.9743 45.7872 40.0372 46.095C40.0781 46.293 39.9547 46.6933 39.9202 46.8921Z" fill="#F4B998"/>
<path d="M37.9148 46.3681C37.8422 46.7891 37.0927 46.6986 37.1907 46.2641C37.2358 46.0636 37.3318 45.6572 37.4463 45.4756C37.613 45.2114 37.9689 45.2632 38.0321 45.571C38.0727 45.7687 37.9491 46.1693 37.9148 46.3681Z" fill="#F4B998"/>
<path d="M49.0893 39.8007C48.3307 36.5809 43.7782 36.2532 43.3305 39.5203C42.6881 44.2079 40.8489 74.5052 40.8489 74.5052C41.7327 75.2191 43.0043 74.8494 43.8031 74.5932C43.8033 74.5932 51.0729 48.2197 49.0893 39.8007Z" fill="#19323A"/>
<path d="M54.8319 38.749C53.2847 35.8276 48.6619 36.7413 48.5492 40.0445C48.1921 50.5099 51.5884 74.7361 51.5884 74.7361C52.5374 75.2682 53.705 75.0791 54.3946 74.636C54.3946 74.6357 57.7366 44.2334 54.8319 38.749Z" fill="#1C3742"/>
<path d="M44.0498 41.003C44.0922 42.7272 47.3581 44.7106 50.1787 44.6418C52.9994 44.573 55.1294 43.1227 55.087 41.3985C54.9505 35.8346 52.6369 32.8591 49.816 32.9277C46.9954 32.9967 43.9107 35.3332 44.0498 41.003Z" fill="#1C3742"/>
<path d="M43.2452 40.2264C43.2701 41.2364 46.2816 41.6762 49.5657 41.5963C52.8499 41.5163 55.3081 40.981 55.2832 39.9712C55.2033 36.7122 52.3501 34.8835 49.066 34.9634C45.7821 35.0433 43.1637 36.9051 43.2452 40.2264Z" fill="#3C8460"/>
<path d="M57.3983 22.4967C56.1543 20.4214 49.6351 18.5379 49.3351 18.5293C47.2601 18.4699 42.5846 21.3971 42.1102 22.4597C41.6972 23.3846 43.5082 31.1319 43.3318 34.6483C43.2399 36.4805 43.0034 37.8507 43.0488 39.6978C43.0912 41.422 55.4132 41.4466 55.3708 39.7226C55.3358 38.2933 55.071 37.2147 55.0878 35.7239C55.1216 32.7405 57.9326 23.3881 57.3983 22.4967Z" fill="#71BF9D"/>
<path opacity="0.3" d="M55.3706 39.7223C55.3356 38.293 55.0708 37.2144 55.0876 35.7236C55.1213 32.7408 57.9324 23.3884 57.3981 22.4969C56.8607 21.6004 54.8975 22.2228 54.6358 23.2662C52.4111 28.4381 52.4276 33.0387 54.2434 40.5109C54.948 40.3096 55.3787 40.0468 55.3706 39.7223Z" fill="#549E7B"/>
<path d="M48.5767 24.2636C48.5805 24.4219 48.7125 24.5471 48.8714 24.5431C49.0302 24.5393 49.1559 24.4078 49.1518 24.2494C49.148 24.0911 49.016 23.966 48.8571 23.97C48.6985 23.9741 48.5729 24.1053 48.5767 24.2636Z" fill="white"/>
<path d="M48.1921 27.3201C48.196 27.4784 48.3279 27.6035 48.4868 27.5995C48.6457 27.5957 48.7714 27.4642 48.7673 27.3059C48.7635 27.1476 48.6315 27.0224 48.4726 27.0264C48.314 27.0305 48.1883 27.1617 48.1921 27.3201Z" fill="white"/>
<path d="M47.9685 30.2966C47.9723 30.4549 48.1043 30.5801 48.2632 30.576C48.4221 30.5722 48.5477 30.4407 48.5437 30.2824C48.5399 30.1241 48.4079 29.9989 48.249 30.003C48.0904 30.0068 47.9647 30.1383 47.9685 30.2966Z" fill="white"/>
<path d="M47.7482 33.0452C47.752 33.2036 47.884 33.3287 48.0429 33.3247C48.2017 33.3209 48.3274 33.1894 48.3233 33.0311C48.3195 32.8728 48.1875 32.7476 48.0286 32.7516C47.87 32.7557 47.7444 32.8869 47.7482 33.0452Z" fill="white"/>
<path d="M47.7525 35.7567C47.7563 35.9151 47.8883 36.0402 48.0472 36.0362C48.2061 36.0324 48.3317 35.9009 48.3277 35.7426C48.3239 35.5843 48.1919 35.4591 48.033 35.4631C47.8744 35.4669 47.7487 35.5984 47.7525 35.7567Z" fill="white"/>
<path d="M47.6751 38.4693C47.6789 38.6276 47.8109 38.7527 47.9698 38.7487C48.1287 38.7449 48.2543 38.6134 48.2503 38.4551C48.2464 38.2968 48.1145 38.1716 47.9556 38.1756C47.7969 38.1797 47.6713 38.3109 47.6751 38.4693Z" fill="white"/>
<path d="M50.9724 30.3993H45.9273C45.8189 30.3993 45.7311 30.3118 45.7311 30.2038V27.1342C45.7311 27.0262 45.8189 26.9387 45.9273 26.9387H50.9724C51.0808 26.9387 51.1686 27.0262 51.1686 27.1342V30.2038C51.1686 30.3118 51.0808 30.3993 50.9724 30.3993Z" fill="white"/>
<path d="M47.5073 29.8166H46.219C46.1319 29.8166 46.0613 29.7463 46.0613 29.6595V27.9427C46.0613 27.8559 46.1319 27.7856 46.219 27.7856H47.5073C47.5944 27.7856 47.665 27.8559 47.665 27.9427V29.6595C47.6652 29.7463 47.5946 29.8166 47.5073 29.8166Z" fill="#71BF9D"/>
<path d="M49.1472 27.074H47.7525V27.2864H49.1472V27.074Z" fill="#3E2344"/>
<path d="M48.7139 27.1802H48.1393C48.0938 27.1802 48.0573 27.1435 48.0573 27.0983V26.3505C48.0573 26.3052 48.0941 26.2685 48.1393 26.2685H48.7139C48.7594 26.2685 48.7959 26.3052 48.7959 26.3505V27.0983C48.7959 27.1435 48.7591 27.1802 48.7139 27.1802Z" fill="#7C4284"/>
<path d="M50.7391 27.7856H48.2571V28.0185H50.7391V27.7856Z" fill="#A1ABAD"/>
<path d="M50.7391 28.2744H48.2571V28.5074H50.7391V28.2744Z" fill="#A1ABAD"/>
<path d="M50.7391 28.763H48.2571V28.9959H50.7391V28.763Z" fill="#A1ABAD"/>
<path d="M50.7391 29.5837H48.2571V29.8166H50.7391V29.5837Z" fill="#A1ABAD"/>
<path d="M48.7599 26.482H48.1098C48.039 26.482 47.9756 26.4397 47.9479 26.3747C47.122 24.406 45.9128 20.184 46.5413 19.3209C46.5725 19.2779 46.6953 19.178 46.674 19.2263C46.3024 20.0702 47.1918 24.0757 48.1251 26.3006L48.7599 26.2905L48.7992 26.2362C49.8597 25.0218 52.3803 21.8237 52.5331 19.4488C52.5364 19.3957 52.7009 19.5606 52.6976 19.6134C52.541 22.0465 50.0175 25.1328 48.9441 26.3618L48.8919 26.422C48.8591 26.4602 48.8109 26.482 48.7599 26.482Z" fill="#764582"/>
<path d="M51.7686 17.8263C51.5336 17.297 47.3705 17.4689 47.2035 17.9871L47.4058 20.1974L51.7887 19.9291L51.7686 17.8263Z" fill="#3C8460"/>
<path d="M50.6602 14.9567C50.6602 14.9567 50.6404 16.3714 50.9546 17.5054C51.2689 18.6396 52.1136 20.0919 52.1136 20.0919L50.1429 20.3489L48.8642 22.3381L48.3919 20.0967L46.8608 19.6231C46.8608 19.6231 48.2556 18.6634 48.1198 17.1083C48.0015 15.7528 47.9256 15 47.9256 15L50.6602 14.9567Z" fill="#FFB072"/>
<path d="M51.7686 17.8263C51.7686 17.8263 51.8986 18.2577 51.0859 19.051C50.8318 19.2991 49.9506 19.9207 49.9506 19.9207L48.7498 22.4964L49.0528 22.5293L50.1947 20.1293L51.5453 21.9357C52.193 21.1257 52.6131 20.3635 52.6435 19.6835L51.7686 17.8263Z" fill="#84D1AA"/>
<path d="M51.5455 21.936L50.195 20.1296L49.053 22.5295L50.4899 21.2454L51.5455 21.936Z" fill="#3C8460"/>
<path d="M47.2034 17.9874C47.2138 18.5844 47.6154 19.5661 48.3586 19.9596L49.0527 22.5295L48.7497 22.4967L48.1738 20.1789L47.3661 21.9924C46.8945 21.2835 46.5349 20.5398 46.4699 19.703L47.2034 17.9874Z" fill="#84D1AA"/>
<path d="M47.3667 21.9921L48.174 20.1789L48.75 22.4967L48.206 21.2481L47.3667 21.9921Z" fill="#3C8460"/>
<path fill-rule="evenodd" clip-rule="evenodd" d="M46.6212 14.7478C47.0273 14.4036 47.0771 13.3648 46.7245 12.8653C46.7245 12.8653 46.4507 12.4308 45.9273 12.6789C45.5301 12.8671 45.4387 13.3858 45.5171 13.8883C45.611 14.4911 46.1776 15.1239 46.6212 14.7478Z" fill="#FFB072"/>
<path d="M46.4664 14.5157L46.3337 13.9662L46.6651 13.8514C46.6651 13.8514 46.5583 12.8362 46.0057 13.1599C45.5517 13.426 45.9164 14.6732 46.4664 14.5157Z" fill="#E57E55"/>
<path fill-rule="evenodd" clip-rule="evenodd" d="M50.6602 14.9567C50.6602 14.9567 50.5734 15.9096 50.2201 16.4121C49.7947 17.0163 49.2036 17.7497 47.4972 17.4912C45.7908 17.2327 46.1565 13.6247 46.1565 13.6247C46.1565 13.6247 46.0471 12.2101 46.3928 11.0885C46.7385 9.96668 49.0609 9.57697 50.8544 10.3076C50.8544 10.3076 51.3377 10.8591 50.9252 13.0879C50.9252 13.0879 51.3037 12.7111 51.8123 13.0514C52.1981 13.3096 52.1923 13.8359 52.0085 14.3154C51.7882 14.8905 51.1227 15.3421 50.6602 14.9567Z" fill="#FFB072"/>
<path d="M46.1237 14.4031C46.1237 14.4031 44.6734 18.1983 47.3344 18.6477C48.8746 18.9076 50.2183 18.1219 50.6967 17.1265C51 16.4956 50.7117 15.0182 50.5617 14.3C50.5394 14.1935 50.463 14.301 50.4523 14.2231L50.0429 15.8967C50.0429 15.8967 49.2233 14.8563 47.741 14.8234C46.4154 14.7941 46.1872 15.6127 46.1872 15.6127L46.1237 14.4031Z" fill="#E57930"/>
<path d="M48.951 15.307C48.8058 15.4043 48.6411 15.4615 48.4736 15.506C48.3051 15.5485 48.131 15.5657 47.9571 15.568C47.87 15.5677 47.783 15.5649 47.6962 15.5571C47.6099 15.5518 47.5256 15.5475 47.4401 15.5336C47.3553 15.5184 47.2695 15.5014 47.1865 15.4663C47.1055 15.4319 47.0149 15.393 46.9616 15.3049C46.9553 15.2946 46.9588 15.2812 46.969 15.2751C46.9746 15.2718 46.9812 15.2713 46.987 15.2731L46.9923 15.2749C47.1393 15.3242 47.3053 15.3259 47.4682 15.355C47.6335 15.3826 47.7964 15.423 47.9604 15.4291C48.2873 15.4463 48.6269 15.4094 48.9325 15.2779L48.9343 15.2771C48.9432 15.2733 48.9531 15.2774 48.9569 15.2862C48.9607 15.2936 48.9579 15.3024 48.951 15.307Z" fill="#FFB072"/>
<path d="M51.7744 10.283C51.5193 9.80102 50.598 9.49932 49.8091 9.32331C49.7957 9.25503 49.7794 9.18599 49.7571 9.11594C49.3984 7.99538 48.1497 8.02396 48.1497 8.02396V8.74672C47.9596 8.44983 47.9596 7.89473 47.9596 7.89473C47.0364 8.43668 47.0999 9.11594 47.0999 9.11594L46.8961 8.5917C46.8961 8.5917 46.2488 9.09293 46.2415 9.80406C46.0887 9.92089 45.9717 10.0554 45.9186 10.213C45.6118 11.1234 46.1567 13.6247 46.1567 13.6247L46.2745 11.8221C46.2745 11.8221 46.3519 11.2316 46.573 10.7767C46.573 10.7767 46.772 11.0078 47.9596 11.0078C48.0088 11.0078 48.0578 11.0066 48.1065 11.0058C48.1319 11.0071 48.1497 11.0078 48.1497 11.0078C48.1553 11.0071 48.1601 11.0058 48.1654 11.005C49.2746 10.977 50.2792 10.7352 50.2792 10.7352C50.2792 10.7352 50.3378 11.4054 50.5317 12.0105C50.6424 12.3557 50.4449 14.2997 50.4449 14.2997C50.4449 14.2997 50.4937 14.5321 50.5619 14.2997C50.6871 13.8743 50.9292 12.8663 51.4226 12.9113C51.4226 12.9113 52.244 11.1702 51.7744 10.283Z" fill="#E57930"/>
<path d="M50.8714 14.7572L51.1224 14.2415L50.7919 14.0678C50.7919 14.0678 51.1079 13.0899 51.6326 13.5094C52.0636 13.8544 51.4262 15.0131 50.8714 14.7572Z" fill="#E57E55"/>
<path d="M48.6718 13.6637C48.6705 13.7912 48.8368 13.8157 49.0416 13.8177C49.2467 13.8195 49.4132 13.798 49.4142 13.6703C49.4152 13.5426 49.25 13.4379 49.0452 13.4358C48.8398 13.4343 48.6728 13.5362 48.6718 13.6637Z" fill="#3E2344"/>
<path d="M50.0429 12.7356C50.0495 12.7543 49.4571 12.5649 49.2708 12.5715C49.0845 12.578 48.3837 12.7057 48.3231 12.639C48.2624 12.5722 48.2106 12.3383 48.2106 12.3383C48.2106 12.3383 49.1667 12.2235 49.3652 12.2687C49.5637 12.3143 49.9858 12.5755 50.0429 12.7356Z" fill="#E57930"/>
<path d="M46.6184 13.6364C46.6174 13.7638 46.7834 13.7884 46.9882 13.7904C47.1933 13.7922 47.3598 13.7707 47.3608 13.643C47.3621 13.5155 47.1966 13.4106 46.9915 13.4088C46.7867 13.407 46.6194 13.5089 46.6184 13.6364Z" fill="#3E2344"/>
<path d="M46.352 12.7354C46.3454 12.7539 46.6756 12.5101 46.8043 12.5204C46.9329 12.5308 47.5073 12.7415 47.5566 12.6767C47.6061 12.6117 47.6677 12.3811 47.6677 12.3811C47.6677 12.3811 46.8662 12.2253 46.7233 12.2663C46.5806 12.307 46.4096 12.5778 46.352 12.7354Z" fill="#E57930"/>
<path opacity="0.5" d="M47.606 14.8176C47.606 14.8176 48.0779 14.8454 48.0791 14.716C48.0804 14.5865 47.1088 14.3546 47.0459 14.4421C46.9832 14.5298 47.4002 14.7395 47.606 14.8176Z" fill="#E57E55"/>
<path d="M47.7063 12.861C47.7063 12.861 47.7896 13.4611 47.6992 13.666C47.6088 13.8708 47.1327 14.3078 47.1142 14.4074C47.0956 14.5073 47.571 14.7997 47.6063 14.8176C47.6416 14.8356 46.9055 14.6525 46.9487 14.4236C46.9921 14.1948 47.6012 13.6662 47.6317 13.5547C47.6621 13.4434 47.7063 12.861 47.7063 12.861Z" fill="#E57E55"/>
<path opacity="0.5" d="M45.8877 12.9388C45.8877 12.9388 45.6319 14.0308 46.7222 14.0308C47.8302 14.0308 47.5499 12.9042 47.5499 12.9042C46.353 12.7461 45.8877 12.9388 45.8877 12.9388Z" fill="#A1ABAD"/>
<path opacity="0.5" d="M49.918 12.9038C48.721 12.746 48.2558 12.9384 48.2558 12.9384C48.2558 12.9384 47.9999 14.0304 49.0903 14.0304C50.1982 14.0306 49.918 12.9038 49.918 12.9038Z" fill="#A1ABAD"/>
<path d="M50.798 13.1688V12.989L49.9635 12.8532L49.9252 12.8481C48.7269 12.6903 48.2535 12.8785 48.2337 12.8866L48.2068 12.8977L48.201 12.923C47.8992 12.7674 47.6698 12.8701 47.6076 12.9045C47.6066 12.9002 47.6048 12.8919 47.6045 12.8906L47.5951 12.8532L47.5568 12.8481C46.3588 12.6906 45.8852 12.8787 45.8654 12.8866L45.8385 12.8977L45.8319 12.9258C45.8268 12.947 45.7126 13.4518 45.9842 13.7927C46.1398 13.9879 46.3877 14.087 46.7215 14.087C47.057 14.087 47.3058 13.9871 47.4606 13.7899C47.6505 13.5481 47.6492 13.2272 47.6284 13.0411C47.8139 12.9027 48.1182 13.0236 48.1807 13.0514C48.1614 13.2264 48.1586 13.5499 48.3523 13.7929C48.5079 13.9882 48.7558 14.0873 49.0896 14.0873C49.4251 14.0873 49.6739 13.9874 49.8287 13.7901C49.9993 13.5729 50.0158 13.2897 50.0023 13.0992V13.1003L50.798 13.1688ZM47.3718 13.7206C47.2393 13.8888 47.0207 13.9742 46.7223 13.9742C46.425 13.9742 46.207 13.8898 46.0738 13.7229C45.871 13.4687 45.9182 13.0896 45.937 12.9811C46.0512 12.946 46.5248 12.8302 47.5025 12.9546C47.5248 13.0752 47.5751 13.4626 47.3718 13.7206ZM49.7399 13.7206C49.6074 13.8888 49.3889 13.9742 49.0904 13.9742C48.7931 13.9742 48.5751 13.8898 48.4419 13.7229C48.2391 13.4687 48.2863 13.0896 48.3051 12.9811C48.4195 12.9462 48.8929 12.8302 49.8706 12.9546C49.8929 13.0752 49.9429 13.4626 49.7399 13.7206Z" fill="#DD4026"/>
<path d="M57.4663 22.5849C55.8063 20.3069 52.4224 23.1898 53.7435 25.9737C55.0776 28.7848 57.0762 31.3054 57.4658 33.8927C57.7373 35.6976 53.4443 42.6961 53.4443 42.6961C53.4128 43.0264 55.3593 44.9916 55.7055 44.9976C55.7055 44.9976 63.085 37.1874 62.3116 32.889C61.6829 29.3943 59.6664 25.8652 57.4663 22.5849Z" fill="#71BF9D"/>
<path d="M57.7087 33.8927C58.2818 33.3889 60.3669 32.5311 60.5428 32.7516C60.6827 32.9269 58.6341 33.6456 58.6341 33.6456C58.6341 33.6456 61.2634 32.825 61.4103 33.3798C61.4911 33.6843 59.7913 33.4638 57.9062 34.0669C57.9062 34.0669 57.3706 34.1901 57.7087 33.8927Z" fill="#549E7B"/>
<path d="M52.9212 41.8572C52.9212 41.8572 53.7527 43.6634 55.9318 45.1352C55.9318 45.1352 55.967 45.3471 55.7708 45.4081C55.5746 45.469 55.117 45.0867 54.2523 44.2395C53.6741 43.673 52.7047 42.2487 52.6799 42.053C52.6547 41.8572 52.9212 41.8572 52.9212 41.8572Z" fill="#2B545E"/>
<path d="M6.34309 11.2077C7.095 8.95259 8.44719 9.04521 8.44719 9.04521C8.44719 9.04521 9.07898 7.08476 12.6931 8.28215C14.3808 8.70833 16.5544 11.1782 15.1172 15.4647C14.6453 16.8725 16.8571 18.0058 16.4593 21.4901C16.1073 24.5754 5.33444 24.3731 4.79693 21.5501C4.17856 18.3032 7.05574 17.8658 6.82895 16.1891C6.59648 14.4701 5.88591 12.5789 6.34309 11.2077Z" fill="#DD4026"/>
<path d="M15.6085 20.1146C19.736 22.9813 22.5825 29.8072 21.6914 30.9122C20.8002 32.0172 19.0774 30.9776 18.1018 29.9224C16.7207 28.4284 13.5392 24.0126 13.1714 23.1752C12.2774 21.1402 14.8997 19.6222 15.6085 20.1146Z" fill="#0CC9D6"/>
<path d="M20.6251 55.5773C20.6421 52.7133 18.5102 41.4414 16.5773 34.915C15.6916 31.9239 12.6897 33.2205 11.3483 35.5588C8.3371 40.8073 15.8908 54.7498 15.5694 56.4564C13.9543 65.0338 13.9218 72.5817 13.9218 72.5817C13.9535 73.2732 16.0465 74.593 16.0674 73.3081C16.0674 73.3084 20.6111 57.9166 20.6251 55.5773Z" fill="#FFB072"/>
<path d="M11.7195 44.6634L11.5509 37.2406C10.467 34.8021 6.76461 34.054 5.70817 36.9246C3.73555 42.2841 7.43618 61.8324 8.41823 73.7554C8.59697 74.5968 10.6579 74.7635 10.5882 73.7569C10.5879 73.7567 11.5651 48.0283 11.7195 44.6634Z" fill="#FFB072"/>
<path d="M6.36399 35.1112C6.36399 35.1112 4.95808 36.4709 4.51587 39.5194C4.07366 42.5681 3.94736 49.9079 3.94736 49.9079C3.94736 49.9079 12.4815 53.0074 20.1586 49.6038C20.1586 49.6038 18.1713 36.5582 16.1338 34.7995C14.0964 33.0409 8.33842 32.6371 6.36399 35.1112Z" fill="#101B26"/>
<path d="M17.1316 37.1327C17.0009 37.7202 14.7031 39.0764 11.3971 38.97C8.09118 38.8634 5.49218 37.8963 5.6327 37.0465C5.96435 35.0402 8.09118 27.4406 11.3971 27.5473C14.7031 27.6539 17.4927 35.5086 17.1316 37.1327Z" fill="#FFB072"/>
<path d="M4.50353 21.4919C5.51916 19.3828 10.5464 17.9142 10.8052 17.7758C10.8052 17.7758 15.6674 19.5189 16.2863 20.7833C16.4092 21.0344 15.7335 21.8845 15.6279 22.9101C15.583 23.346 16.138 24.8349 16.0667 25.3497C15.832 27.045 15.1834 29.6059 15.3996 30.1916C15.702 31.0109 16.9754 35.1977 17.3422 36.4073C17.4001 36.5982 17.3172 36.8106 17.1343 36.8959C12.05 39.2627 7.89834 38.1622 5.38329 36.7834C5.20507 36.6857 5.07256 36.5302 5.12371 36.3358C5.43444 35.1573 6.82253 31.6832 7.21101 30.6194C7.73354 29.1914 3.71805 23.1231 4.50353 21.4919Z" fill="#00B9C5"/>
<path d="M7.2572 30.2555C7.2572 30.2555 8.25862 34.0469 9.89855 34.1319C11.5387 34.2169 15.8115 31.1982 15.8115 31.1982L7.2572 30.2555Z" fill="#0CC9D6"/>
<path d="M11.5418 23.7129C11.518 23.7129 11.4953 23.7037 11.4785 23.6874C9.27162 21.5463 8.05272 19.8871 7.84892 18.8724C7.83936 18.8241 8.02895 18.7699 8.03851 18.818C8.23146 19.7787 9.44468 21.4608 11.5762 23.5325L12.1764 23.4907C13.3042 21.2084 13.352 19.28 12.7483 18.5165C12.7176 18.4778 12.9464 18.4918 12.9769 18.5307C13.6314 19.3584 13.4963 21.2392 12.3159 23.6149C12.3017 23.6434 12.2733 23.6622 12.2413 23.6645L11.5483 23.7129C11.5462 23.7129 11.5439 23.7129 11.5418 23.7129Z" fill="#7C4284"/>
<path d="M14.5204 27.0496L9.8189 27.377C9.70887 27.3846 9.6133 27.303 9.60555 27.1946L9.4033 24.3782C9.39555 24.2698 9.47847 24.1757 9.5885 24.168L14.2898 23.8406C14.3998 23.8329 14.4954 23.9146 14.5031 24.023L14.7054 26.8394C14.7134 26.9478 14.6305 27.0417 14.5204 27.0496Z" fill="white"/>
<path d="M11.2349 26.7356L10.0511 26.818C9.96278 26.8241 9.88606 26.7585 9.87986 26.6715L9.76725 25.1036C9.76105 25.0166 9.82769 24.941 9.91602 24.9349L11.0998 24.8525C11.1881 24.8464 11.2649 24.912 11.2711 24.999L11.3837 26.5669C11.3899 26.6537 11.3232 26.7292 11.2349 26.7356Z" fill="#DD4026"/>
<path d="M12.6031 24.0838L11.295 24.175L11.3091 24.3719L12.6172 24.2807L12.6031 24.0838Z" fill="#3E2344"/>
<path d="M12.1968 24.2115L11.6704 24.2482C11.6244 24.2515 11.5844 24.2171 11.5811 24.1718L11.5322 23.491C11.5289 23.4457 11.5637 23.4062 11.6097 23.4029L12.1359 23.3663C12.1819 23.363 12.2219 23.3973 12.225 23.4426L12.2738 24.1235C12.2774 24.169 12.2428 24.2085 12.1968 24.2115Z" fill="#7C4284"/>
<path d="M14.1421 24.6406L11.8142 24.8027L11.8297 25.0187L14.1576 24.8566L14.1421 24.6406Z" fill="#A1ABAD"/>
<path d="M14.1762 25.0928L11.8484 25.2551L11.8639 25.4711L14.1918 25.3088L14.1762 25.0928Z" fill="#A1ABAD"/>
<path d="M14.2072 25.5466L11.8793 25.7087L11.8948 25.9247L14.2227 25.7626L14.2072 25.5466Z" fill="#A1ABAD"/>
<path d="M14.2633 26.3068L11.9355 26.4691L11.951 26.685L14.2789 26.5227L14.2633 26.3068Z" fill="#A1ABAD"/>
<path d="M10.0979 26.4369C13.1293 26.3829 18.6246 26.8295 20.9113 28.0103C21.4493 28.2882 22.3813 29.2581 22.0269 30.5509C21.6723 31.8437 19.7565 31.4544 19.7565 31.4544C19.7565 31.4544 12.5097 30.1039 10.66 29.4762C8.61015 28.7805 8.58432 26.4636 10.0979 26.4369Z" fill="#0CC9D6"/>
<path fill-rule="evenodd" clip-rule="evenodd" d="M13.3481 14.3281C13.0108 14.0775 12.9232 13.2671 13.1789 12.8605C13.1789 12.8605 13.3753 12.5081 13.8009 12.6784C14.1238 12.8076 14.2204 13.2089 14.1817 13.6055C14.1352 14.0813 13.7165 14.6019 13.3481 14.3281Z" fill="#FFB072"/>
<path d="M13.4597 14.1396L13.5393 13.7037L13.2717 13.6292C13.2717 13.6292 13.3089 12.8305 13.7611 13.0585C14.1326 13.2455 13.9019 14.2375 13.4597 14.1396Z" fill="#E57E55"/>
<path d="M19.8813 29.1456C20.2306 29.1049 20.8456 28.849 21.1914 28.5703C21.5376 28.2917 21.9482 29.281 21.9482 29.281C21.9482 29.281 22.2995 28.5373 21.8442 27.9065C21.7527 27.7798 21.8718 27.5508 21.7233 27.2956C21.5747 27.0407 21.5153 27.174 21.3981 26.9849C21.2808 26.7959 21.3369 26.7101 21.2609 26.518C21.185 26.3259 21.0362 26.3705 20.9101 26.2499C20.7841 26.1293 20.7371 25.9214 20.5849 25.8575C20.2858 25.7321 19.9785 25.8921 19.8328 25.9585C19.3498 26.1789 18.6738 26.7526 18.4279 27.2569C18.1859 27.7533 17.8312 29.3848 19.8813 29.1456Z" fill="#FFB072"/>
<path d="M4.22149 23.4144C3.94744 20.4525 6.37596 18.8884 7.96035 21.1089C9.1369 22.7577 10.3251 28.5884 11.0744 28.9049C11.6897 29.165 18.4031 27.1442 18.4031 27.1442C19.4644 27.1681 19.982 28.9958 19.6225 29.6398C15.1214 31.589 11.2529 33.8584 9.47604 33.0307C7.28594 32.0101 4.49219 26.3392 4.22149 23.4144Z" fill="#0CC9D6"/>
<path d="M9.53565 14.6421C9.53565 14.6421 9.5248 15.9934 9.19728 17.0702C8.86975 18.1467 8.59751 18.362 8.12121 18.8429C7.68494 19.2833 11.4225 21.1163 11.4225 21.1163C11.4225 21.1163 11.8247 22.146 12.0189 22.1895L12.1277 21.0405C12.1277 21.0405 13.4987 19.7141 12.9395 19.0111C12.1091 17.9674 11.7803 18.2322 11.9443 16.7499C12.0874 15.4576 12.1765 14.7403 12.1765 14.7403L9.53565 14.6421Z" fill="#FFB072"/>
<path fill-rule="evenodd" clip-rule="evenodd" d="M9.26158 14.7017C9.26158 14.7017 10.0427 17.3565 12.5972 16.7776C13.8799 16.4871 14.1351 13.935 13.5302 13.1806C13.5302 13.1806 13.7443 12.0359 13.1585 10.7749C12.6851 9.75561 10.4993 9.48184 8.81059 10.2782C8.81059 10.2782 8.37562 10.8311 8.89996 12.9336C8.89996 12.9336 8.51355 12.5954 8.04215 12.9481C7.68467 13.2157 7.72006 13.7172 7.92463 14.1645C8.16975 14.7009 8.83745 15.0948 9.26158 14.7017Z" fill="#FFB072"/>
<path d="M9.04637 14.5228L8.7749 14.045L9.08382 13.861C9.08382 13.861 8.7235 12.9458 8.24126 13.3755C7.84529 13.7282 8.5259 14.7978 9.04637 14.5228Z" fill="#E57E55"/>
<path d="M12.7587 15.0238C12.7587 15.0238 12.5179 14.6274 11.1825 14.9691C11.446 15.653 12.769 15.8108 12.7587 15.0238Z" fill="#FD6141"/>
<path d="M12.7587 15.0238C12.7587 15.0238 11.9409 15.1502 11.1826 14.9691Z" fill="#E57E55"/>
<path d="M12.7587 15.0238C12.5012 15.0948 12.2328 15.1095 11.9667 15.1077C11.701 15.0963 11.4321 15.0637 11.1826 14.9691C11.3156 14.98 11.4455 14.9965 11.5767 15.0037C11.7077 15.0118 11.8381 15.022 11.9691 15.0215C12.231 15.0329 12.4926 15.0235 12.7587 15.0238Z" fill="#E57E55"/>
<path d="M13.2571 13.1865C13.2654 13.3081 13.1068 13.3407 12.9089 13.3539C12.7113 13.3671 12.5494 13.3557 12.5411 13.234C12.5328 13.1124 12.6863 13.0033 12.8839 12.99C13.082 12.9768 13.2488 13.0648 13.2571 13.1865Z" fill="#3E2344"/>
<path d="M13.5852 12.6252C13.5937 12.6417 13.0753 12.3394 12.9508 12.3326C12.8067 12.3247 12.3968 12.5941 12.3415 12.5384C12.2862 12.4827 12.2209 12.3527 12.2209 12.3527C12.2209 12.3527 12.847 12.1364 12.989 12.1583C13.1308 12.1799 13.5113 12.4824 13.5852 12.6252Z" fill="#D8462A"/>
<path d="M11.4454 13.3068C11.4537 13.4284 11.2951 13.461 11.0973 13.4742C10.8997 13.4875 10.7377 13.476 10.7294 13.3544C10.7212 13.2328 10.8746 13.1236 11.0722 13.1104C11.2701 13.0974 11.4369 13.1854 11.4454 13.3068Z" fill="#3E2344"/>
<path d="M10.1679 12.7155C10.1607 12.733 10.7393 12.3911 10.8987 12.4068C11.058 12.4226 11.5891 12.5941 11.6467 12.5336C11.704 12.4733 11.7585 12.3369 11.7585 12.3369C11.7585 12.3369 11.0004 12.2043 10.8263 12.2374C10.6523 12.2705 10.2305 12.5659 10.1679 12.7155Z" fill="#D8462A"/>
<path opacity="0.5" d="M12.411 14.3633C12.411 14.3633 11.9574 14.4159 11.9489 14.2925C11.9404 14.1691 12.8646 13.8938 12.9302 13.974C12.9955 14.0541 12.605 14.2773 12.411 14.3633Z" fill="#E57E55"/>
<path d="M12.2033 12.5028C12.2033 12.5028 12.1571 13.0796 12.256 13.2702C12.3547 13.4605 12.8388 13.8505 12.8625 13.9447C12.886 14.0388 12.4441 14.3442 12.411 14.3632C12.378 14.3823 13.0777 14.1668 13.0229 13.9508C12.9682 13.7348 12.3506 13.2648 12.3147 13.1602C12.279 13.0557 12.2033 12.5028 12.2033 12.5028Z" fill="#E57E55"/>
<path d="M13.222 9.96274C13.426 10.1345 14.5292 10.7014 13.2088 10.8902C12.2027 11.0339 10.1451 10.5268 9.53659 10.3592C9.6815 10.6792 9.7546 11.512 9.69106 11.7939C9.57534 12.3082 9.35889 13.4943 9.35889 13.4943C9.35889 13.4943 9.09026 13.1229 8.89989 12.9338C8.70953 12.745 8.04596 12.6081 7.7843 13.3865C7.7843 13.3865 7.15612 12.2708 7.13985 11.5148C7.09362 9.34954 10.6496 7.79695 13.222 9.96274Z" fill="#D8462A"/>
<path d="M7.07279 27.8226C7.28511 27.3852 7.70252 26.9559 8.56007 26.5992C8.87493 26.4682 9.11076 26.4435 9.27478 26.4799C9.39515 26.4707 9.48219 26.472 9.48219 26.472C9.48219 26.472 11.3344 26.4471 11.5754 27.1931C11.8164 27.9391 11.5599 28.9057 11.5599 28.9057C11.5599 28.9057 10.6396 29.0357 10.3149 28.9098C10.0414 29.0693 9.7002 29.2912 9.41245 29.6912C9.30009 29.8474 8.97593 29.7894 9.01364 29.6013C9.07925 29.2744 9.25876 28.924 9.6506 28.5533C9.29803 28.6683 8.84368 28.8345 8.40897 29.2077C8.24443 29.3489 7.89134 29.2286 7.9789 29.0406C8.16177 28.648 8.53656 28.2505 9.30112 27.8859C9.29983 27.8844 9.29828 27.8829 9.29673 27.8813C8.93047 27.9963 8.40974 28.15 7.91329 28.5604C7.74824 28.6971 7.39592 28.5831 7.48426 28.4022C7.62297 28.1182 7.87093 27.8312 8.30849 27.5559C8.05071 27.6582 7.77019 27.8045 7.49407 28.0355C7.32257 28.1795 6.97567 28.0225 7.07279 27.8226Z" fill="#FFB072"/>
</g>
<defs>
<clipPath id="clip0_132_19164">
<rect width="60" height="60" rx="30" fill="white"/>
</clipPath>
</defs>
</svg>
