<svg width="12" height="12" viewBox="0 0 12 12" fill="none" xmlns="http://www.w3.org/2000/svg">
<path d="M9.85388 9.14645L9.70743 9.00001H9.50033H3.66699C3.30147 9.00001 3.00033 8.69886 3.00033 8.33334V8.25001H9.50033C10.0973 8.25001 10.5837 7.76365 10.5837 7.16667V3.00001H10.667C11.0325 3.00001 11.3337 3.30115 11.3337 3.66667V10.6262L9.85388 9.14645ZM2.50033 6.08334H2.29322L2.14677 6.22979L0.666992 7.70957V1.33334C0.666992 0.967814 0.968135 0.666672 1.33366 0.666672H7.75033C8.11585 0.666672 8.41699 0.967814 8.41699 1.33334V5.41667C8.41699 5.7822 8.11585 6.08334 7.75033 6.08334H2.50033Z" stroke="#6B62DC"/>
</svg>
