<svg width="20" height="22" viewBox="0 0 20 22" fill="none" xmlns="http://www.w3.org/2000/svg">
<path fill-rule="evenodd" clip-rule="evenodd" d="M9.16378 3.25002C9.16386 3.25002 9.16371 3.25002 9.16378 3.25002L10.8128 3.25302C14.866 3.26164 18.5899 6.18028 18.642 9.99076L18.6421 10.001L18.642 13.789C18.642 14.5185 18.7501 15.0972 19.0934 15.5633L19.4155 16.0004C19.8528 16.5923 19.8357 17.3087 19.5125 17.8543C19.1944 18.3912 18.5944 18.75 17.892 18.75H14.0422C13.8771 19.4871 13.4721 20.16 12.885 20.6819C12.1065 21.3739 11.0677 21.75 10.0003 21.75C8.93295 21.75 7.8941 21.3739 7.11558 20.6819C6.52853 20.16 6.12355 19.4871 5.95841 18.75H2.10856C1.40634 18.75 0.806095 18.3914 0.487784 17.8545C0.164349 17.3089 0.147154 16.5925 0.585016 16.0005C0.585197 16.0002 0.584835 16.0007 0.585016 16.0005L0.907494 15.563C1.25109 15.0974 1.35856 14.5203 1.35856 13.79V9.99411C1.38852 6.18382 5.1051 3.2415 9.16378 3.25002ZM7.52635 18.75C7.64897 19.0461 7.84535 19.3236 8.11213 19.5608C8.59946 19.994 9.27747 20.25 10.0003 20.25C10.7231 20.25 11.4011 19.994 11.8885 19.5608C12.1552 19.3236 12.3516 19.0461 12.4743 18.75H7.52635ZM2.10856 17.25C1.92768 17.25 1.822 17.1636 1.77806 17.0895C1.75567 17.0517 1.74931 17.0184 1.75013 16.9934C1.75083 16.9718 1.75709 16.9382 1.7911 16.8923L1.79203 16.891L2.11466 16.4534C2.11457 16.4535 2.11474 16.4532 2.11466 16.4534C2.74057 15.605 2.85856 14.6396 2.85856 13.79V10.0031C2.88224 7.23259 5.69668 4.74265 9.16059 4.75002L10.8098 4.75301C10.8097 4.75301 10.8099 4.75301 10.8098 4.75301C14.2783 4.7605 17.1008 7.23486 17.142 10.0063V13.789C17.142 14.6395 17.2612 15.6048 17.8855 16.4527L18.2086 16.891C18.2425 16.937 18.2493 16.9712 18.25 16.9932C18.2508 17.0184 18.2444 17.0519 18.222 17.0897C18.1781 17.1638 18.0728 17.25 17.892 17.25H2.10856Z" fill="black"/>
<path fill-rule="evenodd" clip-rule="evenodd" d="M10.0004 1.75C9.66891 1.75 9.35096 1.8817 9.11654 2.11612C8.88212 2.35054 8.75043 2.66848 8.75043 3V3.25H11.2504V3C11.2504 2.66848 11.1187 2.35054 10.8843 2.11612C10.6499 1.8817 10.3319 1.75 10.0004 1.75ZM8.05588 1.05546C8.57161 0.539731 9.27108 0.25 10.0004 0.25C10.7298 0.25 11.4292 0.539731 11.945 1.05546C12.4607 1.57118 12.7504 2.27065 12.7504 3V4C12.7504 4.41421 12.4146 4.75 12.0004 4.75H8.00043C7.58621 4.75 7.25043 4.41421 7.25043 4V3C7.25043 2.27065 7.54016 1.57118 8.05588 1.05546Z" fill="black"/>
</svg>
