<svg width="140" height="20" viewBox="0 0 140 20" fill="none" xmlns="http://www.w3.org/2000/svg">
<path fill-rule="evenodd" clip-rule="evenodd" d="M3.47492 12.0001C4.7019 13.8401 6.77886 15.871 9.99979 18C13.2207 15.871 15.2977 13.8401 16.5247 12.0001H13.9997C13.8999 12.0001 13.8023 11.9702 13.7196 11.9142C13.6369 11.8583 13.5729 11.7788 13.5357 11.6861L12.0787 8.0442L10.4808 13.6371C10.4522 13.7374 10.393 13.8263 10.3114 13.8912C10.2298 13.9562 10.13 13.994 10.0258 13.9994C9.92165 14.0048 9.81842 13.9775 9.73055 13.9213C9.64269 13.8652 9.57459 13.7829 9.5358 13.6861L7.88883 9.56817L6.41586 11.7781C6.37013 11.8465 6.30824 11.9025 6.23568 11.9412C6.16312 11.98 6.08212 12.0002 5.99987 12.0001H3.47492ZM2.87893 11.0001C-0.425999 4.68027 6.40986 1.00034 9.82379 4.14328C9.88379 4.19828 9.94279 4.25528 9.99979 4.31428C10.0562 4.25533 10.1149 4.19862 10.1758 4.14428C13.5897 1.00034 20.4256 4.68027 17.1196 11.0001H14.3367L12.4627 6.31424C12.4239 6.21742 12.3559 6.13517 12.268 6.07898C12.1801 6.02279 12.0769 5.99549 11.9727 6.00089C11.8686 6.00629 11.7687 6.04412 11.6871 6.1091C11.6056 6.17407 11.5463 6.26293 11.5178 6.36324L9.92079 11.9561L8.46382 8.3142C8.42989 8.22971 8.37353 8.1561 8.30083 8.10129C8.22813 8.04648 8.14185 8.01257 8.05129 8.00321C7.96072 7.99384 7.86932 8.00938 7.78695 8.04815C7.70457 8.08692 7.63434 8.14744 7.58384 8.2232L5.73188 11.0001H2.87993H2.87893Z" fill="black" fill-opacity="0.5"/>
<path d="M43.5307 6.875H41.192L40.542 5.25C39.8741 3.5793 38.2799 2.5 36.4803 2.5H31.5194C29.7202 2.5 28.1256 3.5793 27.4573 5.25L26.8073 6.875H24.469C24.1639 6.875 23.9401 7.16172 24.0143 7.45742L24.2487 8.39492C24.3006 8.60352 24.4881 8.75 24.7034 8.75H25.4874C24.9627 9.2082 24.6249 9.87422 24.6249 10.625V12.5C24.6249 13.1297 24.8655 13.698 25.2499 14.1379V16.25C25.2499 16.9402 25.8096 17.5 26.4999 17.5H27.7499C28.4401 17.5 28.9999 16.9402 28.9999 16.25V15H38.9999V16.25C38.9999 16.9402 39.5596 17.5 40.2499 17.5H41.4999C42.1901 17.5 42.7499 16.9402 42.7499 16.25V14.1379C43.1342 13.6984 43.3749 13.1301 43.3749 12.5V10.625C43.3749 9.87422 43.037 9.2082 42.5127 8.75H43.2967C43.512 8.75 43.6995 8.60352 43.7514 8.39492L43.9858 7.45742C44.0596 7.16172 43.8358 6.875 43.5307 6.875ZM29.7784 6.17852C30.0631 5.4668 30.7526 5 31.5194 5H36.4803C37.2471 5 37.9366 5.4668 38.2213 6.17852L38.9999 8.125H28.9999L29.7784 6.17852ZM27.7499 12.4922C26.9999 12.4922 26.4999 11.9937 26.4999 11.2461C26.4999 10.4984 26.9999 10 27.7499 10C28.4999 10 29.6249 11.1215 29.6249 11.8691C29.6249 12.6168 28.4999 12.4922 27.7499 12.4922ZM40.2499 12.4922C39.4999 12.4922 38.3749 12.6168 38.3749 11.8691C38.3749 11.1215 39.4999 10 40.2499 10C40.9999 10 41.4999 10.4984 41.4999 11.2461C41.4999 11.9937 40.9999 12.4922 40.2499 12.4922Z" fill="black" fill-opacity="0.5"/>
<path d="M61.3521 5.97089C62.1988 6.45946 62.9019 7.16243 63.3907 8.00905C63.8794 8.85567 64.1365 9.81609 64.1362 10.7936V17.1572H60.8192C60.6548 17.6229 60.3501 18.0262 59.9469 18.3115C59.5437 18.5968 59.062 18.75 58.5681 18.75C58.0742 18.75 57.5924 18.5968 57.1893 18.3115C56.7861 18.0262 56.4813 17.6229 56.317 17.1572H53V10.7936C52.9996 9.81609 53.2568 8.85567 53.7455 8.00905C54.2342 7.16243 54.9373 6.45946 55.784 5.97089C55.6533 5.73614 55.5531 5.48568 55.4858 5.22557H53V3.63469H55.4865C55.6635 2.95201 56.0621 2.34741 56.6198 1.9158C57.1776 1.48419 57.8628 1.25 58.5681 1.25C59.2733 1.25 59.9586 1.48419 60.5163 1.9158C61.0741 2.34741 61.4727 2.95201 61.6496 3.63469H64.1362V5.22557H61.6496C61.5824 5.48548 61.4827 5.73589 61.3529 5.97089H61.3521ZM58.5681 11.5891C58.3571 11.5891 58.1548 11.6729 58.0056 11.8221C57.8564 11.9712 57.7726 12.1736 57.7726 12.3845V16.3617C57.7726 16.5727 57.8564 16.775 58.0056 16.9242C58.1548 17.0734 58.3571 17.1572 58.5681 17.1572C58.779 17.1572 58.9814 17.0734 59.1305 16.9242C59.2797 16.775 59.3635 16.5727 59.3635 16.3617V12.3845C59.3635 12.1736 59.2797 11.9712 59.1305 11.8221C58.9814 11.6729 58.779 11.5891 58.5681 11.5891ZM58.5681 6.02101C58.99 6.02101 59.3947 5.8534 59.693 5.55505C59.9914 5.2567 60.159 4.85205 60.159 4.43013C60.159 4.0082 59.9914 3.60355 59.693 3.3052C59.3947 3.00686 58.99 2.83925 58.5681 2.83925C58.1462 2.83925 57.7415 3.00686 57.4432 3.3052C57.1448 3.60355 56.9772 4.0082 56.9772 4.43013C56.9772 4.85205 57.1448 5.2567 57.4432 5.55505C57.7415 5.8534 58.1462 6.02101 58.5681 6.02101Z" fill="black" fill-opacity="0.5"/>
<path d="M82.4167 10.2594V16.15C82.4167 16.8542 82.1575 17.4635 81.6391 17.9781C81.1208 18.4927 80.5069 18.75 79.7976 18.75C79.0883 18.75 78.4745 18.4927 77.9561 17.9781C77.4377 17.4635 77.1786 16.8542 77.1786 16.15C77.1786 15.974 77.2434 15.8216 77.373 15.693C77.5025 15.5643 77.656 15.5 77.8333 15.5C78.0107 15.5 78.1641 15.5643 78.2937 15.693C78.4233 15.8216 78.4881 15.974 78.4881 16.15C78.4881 16.4885 78.6211 16.7898 78.8871 17.0539C79.1531 17.318 79.4566 17.45 79.7976 17.45C80.1386 17.45 80.4422 17.318 80.7081 17.0539C80.9741 16.7898 81.1071 16.4885 81.1071 16.15V10.2594C81.3322 10.1849 81.5505 10.1477 81.7619 10.1477C81.9733 10.1477 82.1916 10.1849 82.4167 10.2594ZM90.2738 10.5336C90.2738 10.6216 90.2414 10.6978 90.1766 10.7621C90.1118 10.8264 90.0351 10.8586 89.9464 10.8586C89.8714 10.8586 89.793 10.8247 89.7111 10.757C89.3769 10.4456 89.0598 10.212 88.7597 10.0562C88.4596 9.90052 88.1117 9.82266 87.7161 9.82266C87.2524 9.82266 86.8158 9.94792 86.4066 10.1984C85.9974 10.449 85.6461 10.7773 85.3529 11.1836C85.3051 11.2513 85.2454 11.3461 85.1738 11.468C85.1022 11.5898 85.0528 11.6711 85.0255 11.7117C84.9505 11.8268 84.855 11.8844 84.739 11.8844C84.6163 11.8844 84.5174 11.8268 84.4423 11.7117C84.4151 11.6711 84.3656 11.5898 84.294 11.468C84.2224 11.3461 84.1627 11.2513 84.115 11.1836C83.8217 10.7773 83.4721 10.449 83.0663 10.1984C82.6605 9.94792 82.2257 9.82266 81.7619 9.82266C81.2981 9.82266 80.8633 9.94792 80.4575 10.1984C80.0517 10.449 79.7021 10.7773 79.4089 11.1836C79.3611 11.2513 79.3014 11.3461 79.2298 11.468C79.1582 11.5898 79.1088 11.6711 79.0815 11.7117C79.0064 11.8268 78.9076 11.8844 78.7848 11.8844C78.6688 11.8844 78.5734 11.8268 78.4983 11.7117C78.471 11.6711 78.4216 11.5898 78.35 11.468C78.2784 11.3461 78.2187 11.2513 78.1709 11.1836C77.8777 10.7773 77.5264 10.449 77.1172 10.1984C76.708 9.94792 76.2715 9.82266 75.8077 9.82266C75.4121 9.82266 75.0642 9.90052 74.7641 10.0562C74.464 10.212 74.1469 10.4456 73.8127 10.757C73.7308 10.8247 73.6524 10.8586 73.5774 10.8586C73.4887 10.8586 73.412 10.8264 73.3472 10.7621C73.2824 10.6978 73.25 10.6216 73.25 10.5336C73.25 10.4997 73.2534 10.476 73.2602 10.4625C73.5672 9.22344 74.1554 8.1418 75.025 7.21758C75.8946 6.29336 76.9109 5.60104 78.0738 5.14062C79.2366 4.68021 80.466 4.45 81.7619 4.45C82.7168 4.45 83.6529 4.58542 84.5702 4.85625C85.4876 5.12708 86.3282 5.51133 87.0921 6.00898C87.856 6.50664 88.5193 7.13971 89.0819 7.9082C89.6446 8.67669 90.0385 9.52812 90.2636 10.4625C90.2704 10.476 90.2738 10.4997 90.2738 10.5336ZM82.4167 3.15V4.14531C82.1302 4.13177 81.912 4.125 81.7619 4.125C81.6119 4.125 81.3936 4.13177 81.1071 4.14531V3.15C81.1071 2.97396 81.1719 2.82161 81.3015 2.69297C81.4311 2.56432 81.5846 2.5 81.7619 2.5C81.9392 2.5 82.0927 2.56432 82.2223 2.69297C82.3519 2.82161 82.4167 2.97396 82.4167 3.15Z" fill="black" fill-opacity="0.5"/>
<path d="M97.2505 3.75V16H114.75V3.75H97.2505ZM101.625 14.25C101.625 13.5538 101.349 12.8861 100.857 12.3938C100.364 11.9016 99.6967 11.625 99.0005 11.625V8.125C99.6967 8.125 100.364 7.84844 100.857 7.35616C101.349 6.86387 101.625 6.19619 101.625 5.5H110.375C110.375 6.19619 110.652 6.86387 111.144 7.35616C111.637 7.84844 112.304 8.125 113 8.125V11.625C112.304 11.625 111.637 11.9016 111.144 12.3938C110.652 12.8861 110.375 13.5538 110.375 14.25H101.625ZM106 7.25C106.963 7.25 107.75 8.3875 107.75 9.875C107.75 11.3625 106.963 12.5 106 12.5C105.038 12.5 104.25 11.3625 104.25 9.875C104.25 8.3875 105.038 7.25 106 7.25Z" fill="black" fill-opacity="0.5"/>
<path d="M123.563 6.52417L126.64 7.41242L130.021 4.95636L125.168 5.09548C125.121 5.09808 125.074 5.11282 125.034 5.13829L123.499 6.02119C123.451 6.04766 123.412 6.08785 123.387 6.13656C123.363 6.18528 123.353 6.24028 123.36 6.29445C123.367 6.34863 123.39 6.39948 123.426 6.44043C123.462 6.48138 123.51 6.51056 123.563 6.52417V6.52417Z" fill="black" fill-opacity="0.5"/>
<path d="M138.69 3.77376L135.319 3.04604C135.035 2.98449 134.742 2.98465 134.458 3.04651C134.175 3.10837 133.908 3.23048 133.676 3.40455L123.493 10.8048L121.048 10.6978C120.908 10.6931 120.77 10.7324 120.653 10.8103C120.537 10.8883 120.448 11.0008 120.399 11.1321C120.35 11.2633 120.343 11.4067 120.38 11.5419C120.417 11.6772 120.495 11.7974 120.604 11.8857L122.985 13.7746C123.024 13.8062 123.071 13.8272 123.121 13.8357C123.17 13.8441 123.221 13.8397 123.269 13.8227C123.948 13.5606 126.479 12.2175 129.47 10.5748L130.07 16.7336C130.075 16.787 130.094 16.8379 130.126 16.881C130.158 16.924 130.201 16.9575 130.251 16.9779C130.3 16.9983 130.354 17.0047 130.407 16.9966C130.46 16.9884 130.51 16.966 130.551 16.9316L131.889 15.8186C131.962 15.7572 132.011 15.672 132.028 15.5778L133.296 8.4665C135.437 7.2786 137.481 6.12816 138.92 5.31482C139.069 5.23354 139.19 5.10831 139.266 4.95609C139.342 4.80387 139.369 4.63202 139.344 4.46383C139.319 4.29564 139.243 4.13923 139.126 4.01579C139.009 3.89236 138.857 3.80787 138.69 3.77376V3.77376Z" fill="black" fill-opacity="0.5"/>
</svg>
