<svg width="21" height="20" viewBox="0 0 21 20" fill="none" xmlns="http://www.w3.org/2000/svg">
<path d="M1.83462 11.6523L2.55308 13.0677C2.06077 13.5523 1.78846 14.08 1.78846 14.6154C1.78846 16.5938 5.52231 18.4615 10.25 18.4615C14.9777 18.4615 18.7115 16.5938 18.7115 14.6154C18.7115 14.08 18.4377 13.5538 17.9469 13.0692L18.6792 11.6646C19.6715 12.4954 20.25 13.5015 20.25 14.6154C20.25 17.7338 15.7177 20 10.25 20C4.78231 20 0.25 17.7338 0.25 14.6154C0.25 13.4954 0.834615 12.4862 1.83462 11.6523Z" fill="black"/>
<path d="M1.83462 7.03693L2.55308 8.45231C2.06077 8.93846 1.78846 9.46616 1.78846 10C1.78846 11.9785 5.52231 13.8462 10.25 13.8462C14.9777 13.8462 18.7115 11.9785 18.7115 10C18.7115 9.46462 18.4377 8.93846 17.9469 8.45385L18.6792 7.04923C19.6715 7.88 20.25 8.88616 20.25 10C20.25 13.1185 15.7177 15.3846 10.25 15.3846C4.78231 15.3846 0.25 13.1185 0.25 10C0.25 8.88 0.834615 7.87077 1.83462 7.03693Z" fill="black"/>
<path d="M10.25 10.7692C4.78231 10.7692 0.25 8.50308 0.25 5.38462C0.25 2.26615 4.78231 0 10.25 0C15.7177 0 20.25 2.26615 20.25 5.38462C20.25 8.50308 15.7177 10.7692 10.25 10.7692ZM10.25 9.23077C14.9777 9.23077 18.7115 7.36308 18.7115 5.38462C18.7115 3.40615 14.9777 1.53846 10.25 1.53846C5.52231 1.53846 1.78846 3.40615 1.78846 5.38462C1.78846 7.36308 5.52231 9.23077 10.25 9.23077Z" fill="black"/>
</svg>
