<svg width="16" height="16" viewBox="0 0 16 16" fill="none" xmlns="http://www.w3.org/2000/svg">
<path fill-rule="evenodd" clip-rule="evenodd" d="M0.952935 15.0471C0.621076 14.7153 0.621076 14.1772 0.952935 13.8453L14.1974 0.600871C14.5293 0.269012 15.0673 0.269012 15.3992 0.600871C15.731 0.93273 15.731 1.47078 15.3992 1.80264L2.1547 15.0471C1.82284 15.379 1.28479 15.379 0.952935 15.0471Z" fill="black"/>
<path fill-rule="evenodd" clip-rule="evenodd" d="M15.3992 15.3991C15.0674 15.731 14.5293 15.731 14.1975 15.3991L0.952983 2.15464C0.621123 1.82278 0.621124 1.28473 0.952983 0.952874C1.28484 0.621015 1.82289 0.621015 2.15475 0.952874L15.3992 14.1973C15.7311 14.5292 15.7311 15.0673 15.3992 15.3991Z" fill="black"/>
</svg>
