<svg width="218" height="151" viewBox="0 0 218 151" fill="none" xmlns="http://www.w3.org/2000/svg">
<path fill-rule="evenodd" clip-rule="evenodd" d="M110.554 2.01129C109.685 1.99866 108.815 1.99662 107.945 2.0052C107.074 2.01379 106.204 2.03299 105.336 2.06276L105.267 0.0639338C106.152 0.0336088 107.038 0.0140486 107.925 0.00530219C108.812 -0.00344419 109.698 -0.00136363 110.584 0.0114989L110.554 2.01129ZM120.968 2.67138C119.241 2.47695 117.507 2.32448 115.769 2.21432L115.896 0.218322C117.666 0.330543 119.432 0.485867 121.192 0.683929L120.968 2.67138ZM100.126 2.3686C98.3905 2.51302 96.6605 2.69966 94.9373 2.92812L94.6744 0.945464C96.4298 0.712733 98.1922 0.522611 99.96 0.375494L100.126 2.3686ZM131.268 4.34268C129.566 3.98071 127.856 3.66016 126.138 3.38141L126.459 1.40723C128.208 1.6912 129.951 2.01773 131.684 2.38647L131.268 4.34268ZM89.782 3.73998C88.07 4.05257 86.3663 4.40679 84.6725 4.80225L84.2178 2.85462C85.9432 2.45177 87.6787 2.09094 89.4228 1.77251L89.782 3.73998ZM141.356 7.00921C139.697 6.48295 138.026 5.9974 136.344 5.55291L136.855 3.61932C138.568 4.07211 140.27 4.56674 141.96 5.10284L141.356 7.00921ZM79.6209 6.11236C77.9484 6.58993 76.2873 7.10835 74.6391 7.66723L73.9969 5.77315C75.6758 5.20383 77.368 4.67572 79.0717 4.18923L79.6209 6.11236ZM151.136 10.6456C149.535 9.95989 147.919 9.31395 146.29 8.70815L146.987 6.83353C148.647 7.45065 150.293 8.10868 151.923 8.80724L151.136 10.6456ZM69.7391 9.46316C68.122 10.101 66.5194 10.7787 64.9325 11.4958L64.1088 9.67334C65.7253 8.94276 67.358 8.2524 69.0052 7.60266L69.7391 9.46316ZM158.213 13.9891C157.44 13.5887 156.663 13.198 155.881 12.8171L156.758 11.0193C157.554 11.4073 158.345 11.8053 159.133 12.2132C159.92 12.6211 160.702 13.0383 161.479 13.4646L160.516 15.2176C159.754 14.799 158.986 14.3895 158.213 13.9891ZM60.2308 13.7605C59.457 14.1567 58.6875 14.5627 57.9226 14.9782C57.1576 15.3938 56.3983 15.8184 55.6447 16.2519L54.6474 14.5183C55.4151 14.0767 56.1886 13.6442 56.9678 13.2208C57.7471 12.7975 58.531 12.384 59.3192 11.9803L60.2308 13.7605ZM169.405 20.6811C167.97 19.6998 166.511 18.7527 165.027 17.8409L166.074 16.137C167.586 17.0658 169.073 18.0306 170.534 19.0303L169.405 20.6811ZM51.1859 18.9637C49.7206 19.9046 48.2798 20.8803 46.8647 21.8897L45.7033 20.2615C47.1449 19.2332 48.6126 18.2393 50.1053 17.2808L51.1859 18.9637ZM177.72 26.9847C176.387 25.8676 175.027 24.7829 173.64 23.7315L174.848 22.1377C176.261 23.2087 177.647 24.3137 179.005 25.4517L177.72 26.9847ZM42.6911 25.023C41.3253 26.1015 39.9863 27.2129 38.6754 28.3561L37.3609 26.8487C38.6963 25.6842 40.0603 24.552 41.4517 23.4534L42.6911 25.023ZM185.382 34.0681C184.163 32.8258 182.915 31.6137 181.638 30.433L182.995 28.9644C184.296 30.1672 185.568 31.402 186.81 32.6675L185.382 34.0681ZM34.8269 31.8809C33.5733 33.0866 32.3489 34.3231 31.1549 35.5893L29.6998 34.2171C30.9162 32.9273 32.1635 31.6677 33.4405 30.4394L34.8269 31.8809ZM192.317 41.8642C191.225 40.5082 190.1 39.1803 188.945 37.8816L190.439 36.5523C191.616 37.8753 192.762 39.228 193.875 40.6093L192.317 41.8642ZM27.668 39.4722C26.5385 40.7935 25.4403 42.1433 24.3747 43.5206L22.7929 42.2966C23.8785 40.8937 24.9972 39.5186 26.1478 38.1727L27.668 39.4722ZM197.002 48.1346C196.507 47.4186 196.004 46.7091 195.492 46.0064L197.108 44.829C197.63 45.5448 198.143 46.2675 198.647 46.9969C199.152 47.7263 199.647 48.4613 200.133 49.2017L198.461 50.2989C197.984 49.5721 197.498 48.8506 197.002 48.1346ZM21.2827 47.7246C20.7849 48.4373 20.2954 49.1565 19.8144 49.8822C19.3334 50.6078 18.8616 51.3387 18.3991 52.0748L16.7056 51.0108C17.1768 50.261 17.6574 49.5163 18.1474 48.7771C18.6373 48.038 19.136 47.3053 19.6431 46.5793L21.2827 47.7246ZM203.753 59.2915C202.945 57.7522 202.1 56.2314 201.216 54.7307L202.94 53.7163C203.84 55.2451 204.701 56.7943 205.524 58.3624L203.753 59.2915ZM15.7313 56.5601C14.8778 58.078 14.0624 59.6151 13.2853 61.1701L11.4963 60.2761C12.2878 58.692 13.1186 57.1262 13.9879 55.5799L15.7313 56.5601ZM208.144 68.757C207.49 67.1454 206.796 65.5495 206.064 63.9707L207.878 63.1291C208.624 64.7373 209.331 66.3631 209.997 68.0048L208.144 68.757ZM11.067 65.894C10.3659 67.4868 9.70397 69.0961 9.08172 70.7203L7.21408 70.0048C7.84797 68.3503 8.52228 66.7109 9.2365 65.0882L11.067 65.894ZM211.592 78.6052C211.098 76.9365 210.563 75.2806 209.988 73.639L211.876 72.9781C212.461 74.6504 213.006 76.3372 213.51 78.037L211.592 78.6052ZM7.33409 75.6378C6.79177 77.2904 6.28966 78.9565 5.82829 80.6346L3.89985 80.1044C4.36984 78.3949 4.88133 76.6977 5.43379 75.0142L7.33409 75.6378ZM214.065 88.7423C213.735 87.0325 213.364 85.3324 212.952 83.6437L214.895 83.1697C215.315 84.89 215.693 86.6219 216.029 88.3637L214.065 88.7423ZM4.56792 85.6989C4.18938 87.3955 3.8519 89.1025 3.55601 90.8186L1.5851 90.4787C1.88652 88.7306 2.2303 86.9917 2.61592 85.2634L4.56792 85.6989ZM215.265 96.4771C215.163 95.6125 215.05 94.7498 214.928 93.8892L216.908 93.6068C217.033 94.4835 217.147 95.3623 217.251 96.2431C217.355 97.1238 217.448 98.0052 217.53 98.8869L215.538 99.0725C215.458 98.2069 215.367 97.3417 215.265 96.4771ZM2.79495 95.9815C2.68918 96.8443 2.59386 97.7091 2.50904 98.5755C2.42422 99.4419 2.35004 100.309 2.28647 101.176L0.291829 101.029C0.356588 100.146 0.432154 99.2633 0.518554 98.3807C0.604955 97.498 0.702061 96.6171 0.809804 95.7381L2.79495 95.9815ZM215.999 109.497C216.007 107.758 215.973 106.019 215.896 104.279L217.894 104.191C217.972 105.963 218.007 107.735 217.999 109.506L215.999 109.497ZM2.03188 106.388C1.98937 108.129 1.98941 109.869 2.03176 111.607L0.032357 111.656C-0.0107882 109.885 -0.010824 108.113 0.0324796 106.339L2.03188 106.388ZM215.442 119.916C215.619 118.186 215.754 116.451 215.847 114.713L217.845 114.82C217.75 116.59 217.612 118.358 217.431 120.12L215.442 119.916ZM2.28612 116.82C2.41331 118.555 2.58279 120.287 2.79433 122.013L0.80918 122.257C0.593683 120.498 0.421035 118.734 0.291468 116.966L2.28612 116.82ZM213.872 130.232C214.218 128.526 214.521 126.813 214.783 125.093L216.76 125.394C216.494 127.146 216.184 128.891 215.833 130.629L213.872 130.232ZM3.55518 127.176C3.85064 128.891 4.18795 130.598 4.56685 132.296L2.61483 132.732C2.22884 131.001 1.88524 129.262 1.58425 127.516L3.55518 127.176ZM211.306 140.346C211.816 138.681 212.285 137.005 212.712 135.32L214.651 135.812C214.215 137.528 213.738 139.236 213.218 140.932L211.306 140.346ZM5.82697 137.361C6.2877 139.037 6.78962 140.703 7.3325 142.357L5.43218 142.981C4.87915 141.295 4.36785 139.598 3.8985 137.891L5.82697 137.361ZM208.74 147.741C209.056 146.929 209.361 146.114 209.656 145.297L211.537 145.975C211.237 146.808 210.926 147.638 210.605 148.465L208.74 147.741ZM9.0799 147.275C9.39087 148.087 9.71194 148.895 10.0431 149.7L8.19343 150.461C7.85609 149.641 7.52902 148.817 7.21223 147.99L9.0799 147.275Z" fill="#6B62DC"/>
</svg>
