<svg width="143" height="99" viewBox="0 0 143 99" fill="none" xmlns="http://www.w3.org/2000/svg">
<path fill-rule="evenodd" clip-rule="evenodd" d="M73.3096 2.23118C72.3764 2.20245 71.4417 2.19263 70.506 2.20186C69.5703 2.21109 68.6359 2.23934 67.7035 2.28648L67.6025 0.289026C68.562 0.240524 69.5234 0.211451 70.4863 0.201954C71.4491 0.192458 72.4109 0.202562 73.3711 0.232131L73.3096 2.23118ZM84.4423 3.48424C82.6091 3.12525 80.7606 2.84058 78.9014 2.63131L79.1251 0.643856C81.0382 0.859198 82.9403 1.15212 84.8266 1.52152L84.4423 3.48424ZM62.1207 2.79681C60.266 3.04272 58.4235 3.36379 56.5977 3.75886L56.1747 1.80411C58.0534 1.39758 59.9493 1.06719 61.8579 0.81416L62.1207 2.79681ZM95.2253 6.52291C93.4716 5.87085 91.6935 5.29095 89.8956 4.78429L90.438 2.85927C92.2881 3.38062 94.1178 3.97733 95.9223 4.64829L95.2253 6.52291ZM51.1711 5.16623C49.3835 5.70825 47.6172 6.32311 45.8767 7.00963L45.1429 5.14912C46.9338 4.4427 48.7514 3.81002 50.5908 3.25228L51.1711 5.16623ZM102.911 9.92726C102.081 9.49687 101.242 9.08393 100.396 8.68857L101.243 6.87675C102.113 7.28357 102.976 7.70849 103.831 8.15135C104.686 8.59422 105.531 9.05392 106.366 9.53007L105.374 11.2671C104.563 10.8044 103.742 10.3576 102.911 9.92726ZM40.7496 9.27686C39.9118 9.68882 39.0815 10.1182 38.2592 10.5649C37.4369 11.0116 36.6248 11.4745 35.8232 11.9531L34.7979 10.2359C35.6227 9.74342 36.4584 9.26714 37.3045 8.8075C38.1506 8.34786 39.005 7.90601 39.8671 7.4821L40.7496 9.27686ZM114.621 17.5916C113.17 16.4153 111.671 15.2975 110.126 14.2413L111.256 12.5905C112.845 13.6773 114.388 14.8275 115.881 16.0379L114.621 17.5916ZM31.1307 15.0204C29.6075 16.1069 28.1304 17.2541 26.7027 18.4587L25.4129 16.9302C26.882 15.6906 28.4019 14.5102 29.9693 13.3922L31.1307 15.0204ZM122.723 25.3296C121.479 23.9316 120.18 22.586 118.829 21.2958L120.211 19.8495C121.601 21.1772 122.937 22.5618 124.217 24.0002L122.723 25.3296ZM22.5686 22.2452C21.2435 23.5618 19.9714 24.9328 18.7556 26.355L17.2354 25.0554C18.4864 23.592 19.7954 22.1813 21.159 20.8265L22.5686 22.2452ZM127.917 31.9391C127.385 31.1695 126.837 30.4117 126.276 29.6661L127.873 28.4625C128.451 29.2298 129.014 30.0095 129.562 30.8015C130.11 31.5934 130.64 32.3955 131.154 33.2071L129.465 34.277C128.965 33.4882 128.449 32.7088 127.917 31.9391ZM15.289 30.7607C14.742 31.5173 14.2098 32.2858 13.6928 33.0657C13.1758 33.8457 12.6753 34.6352 12.1915 35.4337L10.4809 34.3973C10.9787 33.5757 11.4937 32.7633 12.0257 31.9607C12.5577 31.1581 13.1054 30.3674 13.6683 29.5889L15.289 30.7607ZM134.669 44.1977C133.939 42.4785 133.138 40.7883 132.269 39.1315L134.04 38.2023C134.934 39.9072 135.758 41.6464 136.51 43.4155L134.669 44.1977ZM9.48381 40.3425C8.64745 42.0162 7.88023 43.7218 7.18368 45.4551L5.32793 44.7093C6.04467 42.9258 6.83414 41.1707 7.69475 39.4485L9.48381 40.3425ZM138.199 54.8301C137.756 53.0123 137.239 51.2149 136.65 49.4421L138.548 48.8119C139.154 50.6361 139.686 52.4857 140.142 54.3561L138.199 54.8301ZM5.30633 50.7375C4.75284 52.5216 4.27158 54.3289 3.86414 56.155L1.91214 55.7195C2.3314 53.8404 2.8266 51.9807 3.39615 50.1449L5.30633 50.7375ZM139.69 63.1032C139.58 62.1738 139.452 61.2479 139.305 60.3259L141.28 60.0113C141.431 60.96 141.563 61.9128 141.676 62.8691C141.789 63.8254 141.882 64.7827 141.955 65.7406L139.961 65.8937C139.89 64.9629 139.799 64.0325 139.69 63.1032ZM2.86668 61.6716C2.73805 62.5963 2.62805 63.5246 2.53688 64.4559C2.44571 65.3872 2.37361 66.3192 2.32048 67.2513L0.323725 67.1375C0.37839 66.1783 0.452585 65.2193 0.546394 64.261C0.640204 63.3027 0.753391 62.3475 0.88576 61.396L2.86668 61.6716ZM139.909 77.0966C140.07 75.2355 140.154 73.3671 140.163 71.4962L142.163 71.5054C142.154 73.4307 142.067 75.3532 141.902 77.2682L139.909 77.0966ZM2.2292 72.8566C2.27479 74.727 2.39643 76.5934 2.59345 78.4509L0.604601 78.6618C0.401874 76.7504 0.276707 74.83 0.229797 72.9053L2.2292 72.8566ZM138.044 88.1433C138.505 86.3298 138.891 84.4998 139.201 82.6578L141.174 82.9908C140.854 84.8861 140.457 86.7692 139.983 88.6353L138.044 88.1433ZM3.41077 83.9971C3.75797 85.8326 4.17987 87.6546 4.67578 89.4587L2.74731 89.9888C2.23702 88.1324 1.80289 86.2575 1.44562 84.3689L3.41077 83.9971ZM135.484 96.1502C135.823 95.2779 136.143 94.3999 136.446 93.5166L138.338 94.1644C138.027 95.0732 137.697 95.9768 137.348 96.8743L135.484 96.1502ZM6.38013 94.7994C6.69987 95.6766 7.03776 96.5481 7.3937 97.4135L5.54404 98.1743C5.17778 97.2838 4.8301 96.3869 4.50108 95.4844L6.38013 94.7994Z" fill="#6B62DC"/>
</svg>
