<svg width="31" height="30" viewBox="0 0 31 30" fill="none" xmlns="http://www.w3.org/2000/svg">
<path d="M25.3428 0H5.84277C2.99277 0 0.592773 2.4 0.592773 5.25V24.75C0.592773 27.6 2.99277 30 5.84277 30H21.5928L30.5928 21V5.25C30.5928 2.4 28.1928 0 25.3428 0ZM27.5928 19.5H25.3428C22.4928 19.5 20.0928 21.9 20.0928 24.75V27H6.29277C4.79277 27 3.59277 25.8 3.59277 24.3V5.7C3.59277 4.2 4.79277 3 6.29277 3H25.0428C26.5428 3 27.7428 4.2 27.7428 5.7V19.5H27.5928ZM20.3928 9.3L22.6428 11.55L13.6428 20.55L8.39277 15.3L10.6428 13.05L13.6428 16.05L20.3928 9.3Z" fill="#28B311"/>
</svg>
