<svg width="10" height="6" viewBox="0 0 10 6" fill="none" xmlns="http://www.w3.org/2000/svg">
<path d="M4.55378 5.63141C4.61169 5.68977 4.68058 5.73609 4.75647 5.7677C4.83237 5.79931 4.91377 5.81558 4.99598 5.81558C5.0782 5.81558 5.1596 5.79931 5.23549 5.7677C5.31139 5.73609 5.38027 5.68977 5.43818 5.63141L9.81639 1.2532C9.93384 1.13592 9.99988 0.976793 10 0.810819C10.0001 0.644845 9.9343 0.485622 9.81702 0.368178C9.69974 0.250733 9.54061 0.184688 9.37464 0.18457C9.20866 0.184453 9.04944 0.250273 8.93199 0.367552L4.99661 4.30419L1.05997 0.368803C0.942009 0.254871 0.784018 0.191828 0.620024 0.193253C0.456031 0.194678 0.299158 0.260457 0.183193 0.376422C0.067228 0.492387 0.0014487 0.64926 2.3644e-05 0.813253C-0.00140141 0.977246 0.0616413 1.13524 0.175574 1.2532L4.55378 5.63141Z" fill="black"/>
</svg>
