<svg width="59" height="48" viewBox="0 0 59 48" fill="none" xmlns="http://www.w3.org/2000/svg">
<path fill-rule="evenodd" clip-rule="evenodd" d="M25.8132 26.9341V40.2857H17.3407C15.6044 40.2857 14.1868 40.011 13.0879 39.4615C11.989 38.8901 11.1758 38.1209 10.6484 37.1538C10.1209 36.1868 9.85714 35.0769 9.85714 33.8242C9.85714 32.4176 10.0989 31.1978 10.5824 30.1648C11.044 29.1319 11.7912 28.3407 12.8242 27.7912C13.8571 27.2198 15.2198 26.9341 16.9121 26.9341H25.8132ZM6.62637 22.6484C7.02639 22.8716 7.4525 23.0737 7.9047 23.2547C6.88096 23.5121 5.97134 23.8814 5.17582 24.3626C3.37363 25.4176 2.06593 26.7912 1.25275 28.4835C0.417583 30.1758 0 31.989 0 33.9231C0 37 0.67033 39.5934 2.01099 41.7033C3.35165 43.7912 5.31868 45.3626 7.91209 46.4176C10.4835 47.4725 13.6264 48 17.3407 48H25.8132H26.7423H31.9451H33.4016H35.7033H36.6324H58.951V40.2857H36.6324V27.0659H55.6214V19.5494H36.6324V7.74725H58.9181V0H36.6324H35.7033H33.4016H26.7423H18.956C16.1648 0 13.6703 0.263736 11.4725 0.791209C9.25275 1.31868 7.37363 2.12088 5.83516 3.1978C4.2967 4.27473 3.12088 5.63736 2.30769 7.28571C1.49451 8.91209 1.08791 10.8462 1.08791 13.0879C1.08791 15.0659 1.53846 16.8901 2.43956 18.5604C3.31868 20.2308 4.71429 21.5934 6.62637 22.6484ZM25.8132 20.1429H18.956C17.1319 20.1429 15.6374 19.9121 14.4725 19.4506C13.3077 18.967 12.4396 18.2747 11.8681 17.3736C11.2747 16.4506 10.978 15.3297 10.978 14.011C10.978 12.5165 11.2637 11.3077 11.8352 10.3846C12.3846 9.46154 13.2527 8.79121 14.4396 8.37363C15.6044 7.95604 17.1099 7.74725 18.956 7.74725H25.8132V20.1429ZM26.7423 20.1429V26.9341H29.2418L29.3077 20.1429H26.7423ZM33.4016 27.0659V19.5494H35.7033V27.0659H33.4016Z" fill="#6B62DC"/>
<path fill-rule="evenodd" clip-rule="evenodd" d="M25.8132 40.2857V26.9341H16.9121C15.2198 26.9341 13.8571 27.2198 12.8242 27.7912C11.7912 28.3407 11.044 29.1319 10.5824 30.1648C10.0989 31.1978 9.85714 32.4176 9.85714 33.8242C9.85714 35.0769 10.1209 36.1868 10.6484 37.1538C11.1758 38.1209 11.989 38.8901 13.0879 39.4615C14.1868 40.011 15.6044 40.2857 17.3407 40.2857H25.8132ZM7.9047 23.2547C7.4525 23.0737 7.02639 22.8716 6.62637 22.6484C4.71429 21.5934 3.31868 20.2308 2.43956 18.5604C1.53846 16.8901 1.08791 15.0659 1.08791 13.0879C1.08791 10.8462 1.49451 8.91209 2.30769 7.28571C3.12088 5.63736 4.2967 4.27473 5.83516 3.1978C7.37363 2.12088 9.25275 1.31868 11.4725 0.791209C13.6703 0.263736 16.1648 0 18.956 0H26.7423H33.4016H35.7033H36.6324V7.74725V19.5494V27.0659V40.2857V48H35.7033H33.4016H31.9451H26.7423H25.8132H17.3407C13.6264 48 10.4835 47.4725 7.91209 46.4176C5.31868 45.3626 3.35165 43.7912 2.01099 41.7033C0.67033 39.5934 0 37 0 33.9231C0 31.989 0.417583 30.1758 1.25275 28.4835C2.06593 26.7912 3.37363 25.4176 5.17582 24.3626C5.97134 23.8814 6.88096 23.5121 7.9047 23.2547ZM18.956 20.1429H25.8132V7.74725H18.956C17.1099 7.74725 15.6044 7.95604 14.4396 8.37363C13.2527 8.79121 12.3846 9.46154 11.8352 10.3846C11.2637 11.3077 10.978 12.5165 10.978 14.011C10.978 15.3297 11.2747 16.4506 11.8681 17.3736C12.4396 18.2747 13.3077 18.967 14.4725 19.4506C15.6374 19.9121 17.1319 20.1429 18.956 20.1429ZM26.7423 26.9341V20.1429H29.3077L29.2418 26.9341H26.7423ZM33.4016 19.5494V27.0659H35.7033V19.5494H33.4016Z" fill="#ACD4FB"/>
<path fill-rule="evenodd" clip-rule="evenodd" d="M25.8132 26.9341V40.2857V48H26.7423H31.9451H33.4016H35.7033H36.6324V40.2857V27.0659V19.5494V7.74725V0H35.7033H33.4016H25.8132V18.8643V20.1429V26.9341ZM26.7423 20.1429H29.3077L29.2418 26.9341H26.7423V20.1429ZM33.4016 27.0659V19.5494H35.7033V27.0659H33.4016Z" fill="#9A70EE"/>
</svg>
