<svg width="60" height="60" viewBox="0 0 60 60" fill="none" xmlns="http://www.w3.org/2000/svg">
<g clip-path="url(#clip0_132_18964)">
<rect width="60" height="60" rx="30" fill="white"/>
<path d="M23.992 50.0182C24.0223 49.7747 24.0215 48.8492 23.9223 48.5131C23.5771 47.3435 22.1544 46.8795 21.5449 47.2848C21.1581 47.542 20.2524 49.8824 20.607 51.205C20.63 51.2903 20.6832 51.3396 20.74 51.3579C20.7373 51.5798 20.7468 51.7559 20.7697 51.8375C20.8187 52.012 20.9868 52.0446 21.0776 51.9512C21.097 52.095 21.1227 52.2073 21.14 52.2665C21.2041 52.4857 21.4365 52.5057 21.4798 52.3034C21.5738 51.8628 21.5857 51.5666 21.6754 51.2615C21.7373 51.0512 21.9168 50.609 21.9352 50.6103C21.8792 50.7959 21.8276 50.9976 21.783 51.1963C21.6711 51.6962 21.7514 52.235 21.8033 52.3877C21.8768 52.6039 22.1395 52.5991 22.1741 52.395C22.2514 51.938 22.2733 51.6485 22.3657 51.3348C22.4509 51.0463 22.7074 50.1841 23.0282 49.8528C23.0609 49.9196 23.092 49.991 23.1177 50.0758C23.1744 50.2616 23.1158 50.4407 23.142 50.9028C23.1604 51.2287 23.5261 51.5989 23.679 51.1436C23.745 50.9472 23.9601 50.2751 23.992 50.0182Z" fill="#FFB072"/>
<path d="M24.1036 36.3355C24.7204 33.2965 23.5463 27.5058 24.7742 25.0323C26.0997 22.3623 30.4123 24.0292 30.3028 26.1828C30.1123 29.9354 29.383 34.7321 28.809 37.3451C28.0243 40.9165 24.145 48.8691 24.145 48.8691C23.1541 48.5387 22.0714 48.002 21.3219 47.4066C21.3222 47.4066 23.4723 39.4472 24.1036 36.3355Z" fill="#AAC0FF"/>
<path d="M26.2561 42.431C26.9488 39.011 33.988 38.9935 33.3053 42.4262C30.9541 54.2521 30.0303 69.1495 27.4875 76.8231C26.3472 77.2357 25.2398 76.7703 24.6582 76.4157C24.6582 76.4159 23.9952 53.5931 26.2561 42.431Z" fill="#091420"/>
<path d="M31.8972 42.6804C32.0266 39.1855 38.2153 37.8395 38.5823 41.3156C40.1702 56.3531 36.7401 67.4395 36.1968 76.8325C34.7141 77.4115 33.717 77.212 32.9315 76.8689C32.9315 76.8686 31.702 47.9529 31.8972 42.6804Z" fill="#091420"/>
<path d="M26.2764 43.3499C26.3483 45.1733 29.222 46.5416 32.6954 46.4058C36.1687 46.2701 38.7753 44.6877 38.7034 42.8643C38.4718 36.9799 35.5325 30.1018 32.0591 30.2376C28.5857 30.3733 26.0405 37.3532 26.2764 43.3499Z" fill="black"/>
<path d="M26.6984 36.8803C27.0768 33.0889 24.3764 25.9752 24.7746 25.0326C25.3735 23.6145 32.2159 19.871 32.2159 19.871C32.5019 20.0094 39.3365 22.8042 40.6852 24.9804C41.2501 25.8917 37.9046 34.8161 38.1259 38.1815C38.2348 39.8401 38.8435 41.4678 38.9065 43.0636C38.9784 44.887 25.9411 45.0526 25.8692 43.229C25.7854 41.1083 26.4911 38.9571 26.6984 36.8803Z" fill="#D4DFFF"/>
<path d="M40.6851 24.9801C40.6786 24.9696 40.67 24.9588 40.6629 24.9481C35.3108 29.3968 34.8533 37.3392 38.8772 42.6958C38.7477 41.2179 38.2264 39.713 38.1255 38.1813C37.9045 34.8159 41.2497 25.8914 40.6851 24.9801Z" fill="#AAC0FF"/>
<path d="M28.5431 14.6098C28.6304 16.829 29.8423 17.4778 31.9205 17.3965C34.5795 17.2925 35.6388 16.106 35.5512 13.8867C35.4639 11.6674 33.7265 10.3991 31.6483 10.4801C29.5701 10.5614 28.419 11.459 28.5431 14.6098Z" fill="#FFB072"/>
<path d="M29.4379 15.0038C29.2925 14.7595 28.8065 14.1741 28.336 14.5282C27.8654 14.8823 28.1203 15.932 28.5925 16.3408C29.0647 16.7496 30.3771 16.5805 29.4379 15.0038Z" fill="#FFB072"/>
<path d="M28.9041 15.7643C28.9809 15.6401 29.173 15.8986 29.2752 15.6016C29.3111 15.4974 29.1941 15.2722 29.109 15.1457C29.0082 14.9959 28.6708 14.5732 28.4 14.8231C28.1292 15.073 28.3116 15.8208 28.6314 16.0578C28.8181 16.1962 28.993 16.176 28.9573 16.1014C28.8973 15.9767 28.8508 15.8259 28.9041 15.7643Z" fill="#E57E55"/>
<path d="M28.7147 15.3175C28.6312 15.5895 28.7339 15.8359 28.919 16.012C28.8815 15.9116 28.8631 15.8114 28.9039 15.7642C28.9807 15.6401 29.1728 15.8986 29.275 15.6016C29.311 15.4974 29.1939 15.2722 29.1088 15.1457C29.1066 15.1424 29.1042 15.1389 29.1018 15.1354C28.9372 15.0781 28.7561 15.2192 28.7147 15.3175Z" fill="#BC6658"/>
<path d="M28.2454 12.0466C28.2454 12.0466 27.9386 13.9163 28.7146 15.3175C29.4906 16.7189 30.0074 11.3268 28.2454 12.0466Z" fill="#DD4026"/>
<path d="M33.6541 16.6422C33.6541 16.6422 33.7568 20.0781 34.2982 20.736C36.1971 23.0439 34.2065 25.0547 32.5429 25.021C30.3299 24.9763 29.5631 23.332 30.8286 21.3723C31.0769 20.9878 30.8637 17.024 30.8637 17.024L33.6541 16.6422Z" fill="#FFB072"/>
<path d="M30.9501 19.6093C32.2591 19.5581 33.6148 17.8058 33.7416 16.403C33.8178 15.5591 33.171 15.0245 33.4194 13.8797C33.9232 11.5584 31.6367 11.3475 30.6299 11.3893C29.2547 11.4464 28.4695 12.5623 28.5249 13.9697C28.5249 13.9697 28.576 16.015 28.6349 16.6949C28.8046 18.6603 29.6412 19.6604 30.9501 19.6093Z" fill="#FFB072"/>
<path d="M29.7026 10.5983C29.3829 10.6449 28.8669 10.8843 28.7977 10.8181C28.652 10.576 29.241 9.05258 32.1305 9.91433C32.1305 9.91433 31.8716 9.59118 32.0313 9.54836C33.9071 9.04504 35.5958 11.1749 35.5134 13.2617C35.5177 13.0366 35.5728 12.6358 35.6931 12.6124C35.9034 12.5717 36.1385 13.7696 35.6896 14.885C35.3272 16.0731 33.6979 17.7398 33.6622 16.839C33.5722 16.1978 33.5671 15.6792 33.2917 15.0797C33.1254 14.7175 32.9608 14.351 32.9281 13.9478C32.9089 13.7114 32.9252 13.4723 32.9708 13.2418C32.9481 13.2385 31.2748 12.9539 30.1548 12.3041C30.2261 12.3628 30.2975 12.4196 30.3694 12.4697C30.8537 12.8066 31.9486 13.2011 31.9116 13.3783C31.8746 13.5555 28.555 13.4513 28.5125 12.5187C28.3866 12.5281 28.059 13.5523 27.962 13.3796C27.2811 12.17 28.5061 10.9646 29.7026 10.5983Z" fill="#DD4026"/>
<path d="M31.7201 14.6136C31.7258 14.6136 31.7258 14.6047 31.7201 14.6047C31.7144 14.6047 31.7144 14.6136 31.7201 14.6136Z" fill="#1E1C1C"/>
<path d="M31.9128 17.1944C31.8809 17.0857 29.8229 17.1646 29.7765 17.2572C29.73 17.3498 29.9535 17.7484 30.5308 17.7492C31.1984 17.7503 31.9447 17.3032 31.9128 17.1944Z" fill="white"/>
<path d="M31.8424 17.2149C31.8668 17.2629 31.8665 17.2424 31.8606 17.2451L31.8333 17.2386C31.8124 17.2346 31.79 17.2316 31.7668 17.2289C31.7206 17.2238 31.673 17.2203 31.6249 17.2179C31.5289 17.2128 31.4322 17.2104 31.3354 17.2093C31.1416 17.2058 30.9467 17.2047 30.7524 17.2079C30.5578 17.2114 30.3632 17.2163 30.1694 17.2298C30.0729 17.2376 29.9756 17.2462 29.8821 17.2615C29.8591 17.2656 29.8356 17.2701 29.8167 17.2763L29.8048 17.2806C29.8078 17.2831 29.8107 17.2693 29.8094 17.2753C29.808 17.2785 29.807 17.2852 29.808 17.2947C29.8105 17.331 29.8321 17.3744 29.8562 17.4113C29.9607 17.5621 30.1394 17.6544 30.3218 17.6881C30.5064 17.7204 30.6994 17.6973 30.8846 17.6571C31.0705 17.6154 31.2503 17.5473 31.4222 17.4665C31.5084 17.4266 31.5927 17.3822 31.6711 17.3318C31.7105 17.3073 31.7489 17.2804 31.7822 17.2521C31.8003 17.2381 31.8143 17.2238 31.827 17.2101C31.8427 17.2004 31.8365 17.1756 31.8424 17.2149ZM31.9833 17.174C31.9906 17.2637 31.9522 17.2798 31.9362 17.306C31.9157 17.328 31.8949 17.3474 31.8741 17.3631C31.8322 17.3967 31.7897 17.4253 31.7462 17.4511C31.6597 17.5044 31.57 17.5491 31.4784 17.5895C31.2946 17.6682 31.1032 17.7282 30.9062 17.763C30.7097 17.7961 30.5056 17.8093 30.3059 17.7673C30.1086 17.7261 29.9145 17.6235 29.798 17.4498C29.7694 17.4061 29.7424 17.3609 29.7353 17.2998C29.7337 17.2847 29.734 17.2675 29.7413 17.2473C29.7407 17.2397 29.7588 17.2217 29.7697 17.2157L29.7918 17.2063C29.8191 17.1969 29.8437 17.1921 29.8686 17.1869C29.9672 17.1686 30.0645 17.1584 30.1624 17.1487C30.3575 17.1282 30.5527 17.1121 30.7481 17.0994C30.9435 17.0873 31.1392 17.0771 31.3357 17.0738C31.4338 17.073 31.5322 17.0736 31.6314 17.0771C31.6811 17.0789 31.7308 17.0814 31.7816 17.0859C31.807 17.0884 31.833 17.0913 31.8603 17.0959C31.8733 17.0978 31.8897 17.1024 31.9043 17.1059C31.9208 17.1183 31.9449 17.1048 31.9833 17.174Z" fill="#C67154"/>
<path d="M33.4967 14.8452C33.6226 14.5904 34.0608 13.9689 34.5578 14.285C35.0549 14.6012 34.883 15.6679 34.4446 16.1122C34.0059 16.5568 32.684 16.4903 33.4967 14.8452Z" fill="#FFB072"/>
<path d="M34.0885 15.5618L33.7057 15.4285C33.7057 15.4285 33.7606 15.0938 33.8358 14.961C33.9244 14.8037 34.2277 14.3562 34.5171 14.5842C34.8066 14.8123 34.6836 15.572 34.3833 15.8332C34.2079 15.9857 34.0533 16.0123 34.0533 16.0123L34.0885 15.5618Z" fill="#E57E55"/>
<path d="M40.5091 49.4591C40.5691 49.2211 40.9051 48.3582 41.1191 48.0803C41.8643 47.1136 43.3595 47.1922 43.7811 47.789C44.0487 48.1679 44.0463 50.6763 43.2368 51.7821C43.1846 51.8534 43.1171 51.8804 43.0573 51.8769C42.9795 52.0848 42.9068 52.2455 42.856 52.3137C42.7473 52.4588 42.5787 52.4289 42.5276 52.3091C42.4576 52.4362 42.3927 52.5318 42.3551 52.5808C42.2159 52.7623 41.9922 52.6974 42.0251 52.4933C42.0967 52.0487 42.193 51.7681 42.2197 51.4511C42.2381 51.2327 42.2308 50.7558 42.2132 50.7507C42.1981 50.9438 42.1735 51.1506 42.143 51.3517C42.0662 51.858 41.7965 52.3317 41.693 52.4556C41.5462 52.6309 41.3029 52.5318 41.3443 52.3293C41.4375 51.8753 41.5219 51.5973 41.5494 51.2718C41.5746 50.972 41.6473 50.0758 41.4678 49.6514C41.4132 49.702 41.3583 49.7572 41.3035 49.8273C41.1835 49.9802 41.1729 50.1685 40.9816 50.5899C40.8464 50.8875 40.3713 51.1013 40.3937 50.6214C40.4032 50.4143 40.4459 49.7098 40.5091 49.4591Z" fill="#FFB072"/>
<path d="M40.3043 24.4932C41.9017 26.0928 42.8031 30.3518 43.595 35.2521C44.5031 40.8721 44.138 48.5128 44.138 48.5128C44.1099 48.8629 40.7389 48.3014 40.767 47.9513C40.767 47.9513 40.3719 40.1539 39.2437 36.6751C38.0488 32.9903 36.942 30.3216 35.8622 27.3211C35.1322 25.2911 38.1956 22.3817 40.3043 24.4932Z" fill="#D4DFFF"/>
<path d="M37.7842 22.6175C37.7842 22.6175 36.2063 22.5979 35.4476 23.4052C34.2476 24.6825 33.6424 25.0345 31.7286 25.3299C31.7286 25.3299 34.2041 20.6703 34.1171 20.3759C34.03 20.0819 33.8343 19.5328 34.4519 19.473C35.0692 19.4132 37.8202 21.0885 37.7842 22.6175Z" fill="#AAC0FF"/>
<path d="M31.7283 25.3302C31.7283 25.3302 35.3117 21.9386 35.3982 21.1973C35.4847 20.4559 35.1071 19.5756 34.026 19.8002C32.9451 20.0248 30.9026 23.6788 31.7283 25.3302Z" fill="#D4DFFF"/>
<path d="M27.3044 22.8351C27.3044 22.8351 28.5655 22.7325 29.308 23.6452C30.0069 24.5045 30.4367 25.2585 31.8965 25.3234C31.8965 25.3234 30.877 20.7745 30.9408 20.4742C31.0045 20.1742 30.9924 19.644 30.3721 19.6324C29.7518 19.6208 26.9895 21.5783 27.3044 22.8351Z" fill="#AAC0FF"/>
<path d="M31.8965 25.3234C31.8965 25.3234 29.7086 22.1573 29.564 21.4251C29.4194 20.6929 29.7267 19.7856 30.8221 19.9251C31.9176 20.0646 32.5898 23.6129 31.8965 25.3234Z" fill="#D4DFFF"/>
<path d="M31.1983 15.5297C31.1953 15.6525 31.3548 15.6783 31.5521 15.6829C31.7494 15.6875 31.9097 15.6689 31.9127 15.5464C31.9156 15.4236 31.7581 15.3205 31.5608 15.3159C31.3635 15.3113 31.2013 15.4072 31.1983 15.5297Z" fill="#3E2344"/>
<path d="M32.4512 14.4988C32.4529 14.519 31.875 14.3615 31.6966 14.3795C31.5182 14.3976 30.8547 14.5705 30.7914 14.5064C30.7279 14.4423 30.6601 14.2077 30.6601 14.2077C30.6601 14.2077 31.5696 14.0321 31.7639 14.0661C31.8953 14.089 32.1796 14.1022 32.3402 14.2247C32.4169 14.2834 32.4458 14.4272 32.4512 14.4988Z" fill="#DD4026"/>
<path d="M29.2234 15.4753C29.2204 15.5981 29.3799 15.6239 29.5772 15.6285C29.7745 15.6331 29.9348 15.6145 29.9377 15.492C29.9407 15.3692 29.7831 15.2661 29.5858 15.2617C29.3882 15.2569 29.2261 15.3528 29.2234 15.4753Z" fill="#3E2344"/>
<path d="M28.5956 14.6558C28.5953 14.6768 29.0051 14.4194 29.1659 14.4326C29.3267 14.4458 30.0424 14.6801 30.1057 14.6111C30.1687 14.5425 30.2503 14.2963 30.2503 14.2963C30.2503 14.2963 29.2489 14.1175 29.0691 14.159C28.9837 14.1786 28.737 14.2452 28.6535 14.3367C28.5613 14.438 28.5967 14.5759 28.5956 14.6558Z" fill="#DD4026"/>
<path opacity="0.5" d="M30.1572 16.6255C30.1572 16.6255 30.6108 16.6586 30.6137 16.5342C30.6167 16.4098 29.685 16.1733 29.6237 16.2565C29.5618 16.3397 29.9602 16.5471 30.1572 16.6255Z" fill="#E57E55"/>
<path d="M30.2806 14.7444C30.2806 14.7444 30.3522 15.3229 30.2625 15.5187C30.1727 15.7147 29.7087 16.1284 29.6892 16.2242C29.67 16.3198 30.1233 16.6077 30.1571 16.6255C30.1908 16.6433 29.4851 16.4572 29.53 16.2374C29.5749 16.0177 30.1681 15.5176 30.1992 15.411C30.23 15.304 30.2806 14.7444 30.2806 14.7444Z" fill="#E57E55"/>
<path d="M15.5227 24.8171C16.3459 26.5442 21.8003 33.1203 23.9645 33.9789C27.1893 35.2581 32.4614 33.0993 34.7386 32.2087C35.6071 31.7118 34.6833 29.3215 33.9076 29.433C33.9076 29.433 26.4404 30.5014 25.6261 30.0476C24.9276 29.6583 21.4567 24.254 18.5073 21.9805C17.5162 21.216 14.418 22.4997 15.5227 24.8171Z" fill="#2E1933"/>
<path d="M34.8095 30.5956C34.9455 31.0499 34.9414 31.4837 34.8231 31.7513C34.7662 31.8855 34.6785 31.9783 34.5662 32.0119C34.4113 32.0578 34.2345 31.984 34.0693 31.8259C33.8723 31.6382 33.6925 31.3304 33.5817 30.9606C33.445 30.5042 33.4507 30.0677 33.5718 29.8014C33.6291 29.6693 33.7154 29.5793 33.8278 29.5459C33.8702 29.5333 33.9131 29.5297 33.9583 29.5347L33.9604 29.534C34.2732 29.5676 34.6318 30.0019 34.8095 30.5956Z" fill="white"/>
<path d="M39.1916 29.0724C39.1562 29.1242 39.0819 29.2154 38.9792 29.3196C39.1085 29.3434 39.1865 29.5112 39.0762 29.659C39.0257 29.7292 38.8918 29.8451 38.7138 29.976C38.7321 30.0373 38.722 30.1115 38.6727 30.186C38.1171 31.0001 35.6399 31.8284 34.9733 31.7228C34.9586 31.7203 34.9425 31.7205 34.9242 31.7212C34.7336 31.7248 34.3439 31.8661 34.1945 31.8069C34.187 31.8046 34.1787 31.8 34.1705 31.7957C33.9734 31.608 33.7936 31.3002 33.6828 30.9304C33.5461 30.474 33.5518 30.0375 33.6729 29.7712C33.7491 29.6705 33.8865 29.6595 34.0597 29.5045L34.0617 29.5038C34.1482 29.4298 34.2441 29.3185 34.3464 29.1432C34.4531 28.9597 34.8297 28.5049 35.6561 27.9095C35.8669 27.7571 36.5487 27.566 36.7459 27.5075C37.2028 27.3672 37.1306 27.9132 36.8829 28.1273C36.5294 28.4279 36.3505 28.4857 36.2374 28.6482C36.1736 28.7362 36.1303 28.8228 36.0926 28.9053C36.3163 28.8964 37.4249 28.6498 37.7006 28.5517C38.008 28.4443 38.2525 28.2889 38.6638 28.0814C38.8466 27.9902 39.0122 28.2194 38.8835 28.4142C38.7929 28.5515 38.4128 28.9476 37.9469 29.1505C37.7609 29.2312 37.5687 29.3066 37.3889 29.3692C37.3987 29.3871 37.8586 29.2801 38.0635 29.2079C38.3624 29.103 38.605 28.9341 39.0142 28.7503C39.2019 28.6667 39.3292 28.8843 39.1916 29.0724Z" fill="#FFB072"/>
<path d="M12.8915 38.5704C13.5828 35.6361 17.7316 35.3372 18.1397 38.3149C18.725 42.5868 20.4013 70.1982 20.4013 70.1982C19.596 70.8488 18.4369 70.5117 17.7089 70.2784C17.7091 70.2784 11.084 46.243 12.8915 38.5704Z" fill="#19323A"/>
<path d="M7.65819 37.6118C9.06818 34.9496 13.2812 35.7821 13.3839 38.7925C13.7094 48.33 10.6142 70.4084 10.6142 70.4084C9.74921 70.8934 8.68535 70.7211 8.05685 70.3172C8.05685 70.3172 5.01093 42.6101 7.65819 37.6118Z" fill="#1C3742"/>
<path d="M17.4844 40.3706C17.4458 41.9418 15.8904 43.7496 13.3198 43.687C10.7491 43.6244 7.38733 42.3025 7.42587 40.7312C7.55019 35.6608 9.65864 32.9489 12.2295 33.0115C14.7999 33.0741 17.611 35.2033 17.4844 40.3706Z" fill="#1C3742"/>
<path d="M18.2175 38.9584C18.195 39.8788 15.4503 40.2799 12.4573 40.2069C9.46439 40.134 7.22404 39.6463 7.24675 38.726C7.3197 35.7559 9.91993 34.0893 12.9129 34.1622C15.9056 34.2349 18.2918 35.9316 18.2175 38.9584Z" fill="#3C8460"/>
<path d="M5.91859 22.8005C7.05241 20.9093 12.3944 19.1925 12.6678 19.1847C14.5588 19.1305 18.6365 21.6877 19.0689 22.6562C19.4451 23.4989 17.9779 30.6701 18.1387 33.8747C18.2225 35.5447 18.4381 36.7934 18.3968 38.4764C18.3583 40.0477 7.12857 40.0703 7.1671 38.4991C7.19899 37.1966 8.15251 36.2374 8.13715 34.8787C8.10641 32.16 5.43139 23.6127 5.91859 22.8005Z" fill="#EFE9DA"/>
<path d="M10.0518 20.0031C10.0518 20.0031 12.7197 29.4721 11.6237 35.456C11.2037 37.7492 8.10983 40.4017 7.24645 42.222C6.71957 43.333 6.65374 45.9457 6.65374 45.9457C6.65374 45.9457 3.3945 44.7061 3.39954 42.222C3.40229 40.8862 7.24645 33.3068 7.24645 33.3068C7.24645 33.3068 4.61525 24.9088 5.25728 22.8809C5.89954 20.8531 10.0518 20.0031 10.0518 20.0031Z" fill="#3E2344"/>
<path opacity="0.5" d="M8.4764 34.1597C9.90153 30.1527 9.621 21.1531 6.05691 21.7565C5.68325 22.0815 5.3924 22.4549 5.2573 22.8809C4.61526 24.9088 7.24647 33.3068 7.24647 33.3068C7.24647 33.3068 6.07572 35.2282 5.29904 37.1875C6.43883 36.1101 7.95685 35.6206 8.4764 34.1597Z" fill="#2E1933"/>
<path d="M13.3588 24.4108C13.3553 24.555 13.2349 24.669 13.0902 24.6656C12.9454 24.6622 12.831 24.5422 12.8344 24.398C12.8379 24.2538 12.9583 24.1397 13.103 24.1431C13.248 24.1468 13.3625 24.2666 13.3588 24.4108Z" fill="white"/>
<path d="M13.7093 27.1963C13.7059 27.3405 13.5854 27.4545 13.4407 27.4511C13.296 27.4477 13.1815 27.3279 13.185 27.1835C13.1884 27.0392 13.3088 26.9252 13.4536 26.9286C13.5985 26.9323 13.713 27.052 13.7093 27.1963Z" fill="white"/>
<path d="M13.913 29.9088C13.9096 30.053 13.7894 30.1671 13.6446 30.1637C13.4999 30.1602 13.3854 30.0405 13.3889 29.896C13.3923 29.7518 13.5127 29.6378 13.6575 29.6412C13.8022 29.6449 13.9167 29.7646 13.913 29.9088Z" fill="white"/>
<path d="M14.1139 32.4139C14.1104 32.5581 13.9902 32.6721 13.8455 32.6687C13.7008 32.6653 13.5863 32.5453 13.5897 32.4011C13.5932 32.2569 13.7136 32.1428 13.8583 32.1463C14.0028 32.1499 14.1173 32.2697 14.1139 32.4139Z" fill="white"/>
<path d="M14.1098 34.8849C14.1064 35.0291 13.986 35.1431 13.8412 35.1397C13.6965 35.1363 13.582 35.0165 13.5855 34.8721C13.5889 34.7279 13.7091 34.6138 13.8541 34.6173C13.999 34.6209 14.1135 34.7407 14.1098 34.8849Z" fill="white"/>
<path d="M14.1804 37.357C14.177 37.5012 14.0568 37.6153 13.912 37.6119C13.7673 37.6082 13.6528 37.4887 13.6563 37.3442C13.6597 37.2 13.7801 37.086 13.9246 37.0894C14.0696 37.0931 14.1841 37.2128 14.1804 37.357Z" fill="white"/>
<path d="M5.57983 22.2558C7.09258 20.1798 9.55772 23.1435 8.35348 25.6806C7.13754 28.2423 5.61263 30.8285 5.25778 33.1861C5.01028 34.8309 8.92257 41.2091 8.92257 41.2091C8.95124 41.5101 7.17722 43.301 6.86183 43.3067C6.86183 43.3067 0.136445 36.1887 0.841326 32.2715C1.41454 29.0863 2.697 25.4305 5.57983 22.2558Z" fill="#4C2B54"/>
<path opacity="0.5" d="M5.03643 33.1861C4.51413 32.727 2.61396 31.9454 2.45339 32.1463C2.32586 32.306 4.19277 32.961 4.19277 32.961C4.19277 32.961 1.79668 32.2132 1.6625 32.7188C1.58887 32.9962 3.13809 32.7951 4.85591 33.345C4.85636 33.3447 5.34471 33.4569 5.03643 33.1861Z" fill="#2E1933"/>
<path d="M9.39944 40.4444C9.39944 40.4444 8.64181 42.0904 6.65584 43.4319C6.65584 43.4319 6.6235 43.625 6.80242 43.6806C6.98133 43.7361 7.39834 43.3876 8.18626 42.6156C8.71314 42.0993 9.59671 40.8014 9.61942 40.6229C9.64213 40.4444 9.39944 40.4444 9.39944 40.4444Z" fill="#2B545E"/>
<path d="M15.1497 19.8715C15.1497 19.8715 15.6309 33.7449 15.769 34.6173C15.9071 35.4896 16.9081 44.6583 17.4884 45.3668C18.0687 46.075 19.7703 45.0388 19.7703 45.0388L18.4364 33.4837C18.4364 33.4837 19.7459 24.3868 19.2521 22.7669C18.7582 21.147 15.1497 19.8715 15.1497 19.8715Z" fill="#3E2344"/>
<path d="M10.5147 18.6968C10.8498 18.2536 14.2107 18.1736 14.3882 18.6371L14.312 20.6583L10.3103 20.6266L10.5147 18.6968Z" fill="#AAAAAA"/>
<path d="M11.3834 16.0315C11.3834 16.0315 11.4705 17.318 11.24 18.3654C11.0095 19.4128 10.3117 20.7754 10.3117 20.7754L12.1178 20.9134L13.3787 22.6617L13.6989 20.5989L15.0692 20.0936C15.0692 20.0936 13.7531 19.288 13.8006 17.866C13.8421 16.6266 13.8742 15.9378 13.8742 15.9378L11.3834 16.0315Z" fill="#FFB072"/>
<path fill-rule="evenodd" clip-rule="evenodd" d="M15.0488 15.6453C14.6625 15.3516 14.5664 14.4088 14.8628 13.9371C14.8628 13.9371 15.0908 13.5285 15.5793 13.7289C15.95 13.8809 16.0585 14.3483 16.0117 14.8097C15.9555 15.3628 15.4708 15.9661 15.0488 15.6453Z" fill="#FFB072"/>
<path d="M15.1781 15.4265L15.2722 14.9201L14.9648 14.8319C14.9648 14.8319 15.0123 13.9031 15.5311 14.1707C15.9573 14.3905 15.6864 15.5433 15.1781 15.4265Z" fill="#E57E55"/>
<path fill-rule="evenodd" clip-rule="evenodd" d="M11.3834 16.0315C11.3834 16.0315 11.5088 16.8945 11.8552 17.3344C12.2718 17.8637 12.8457 18.5023 14.3859 18.1844C15.9262 17.8665 15.417 14.6006 15.417 14.6006C15.417 14.6006 15.4473 13.3079 15.078 12.304C14.7084 11.3 12.5761 11.0579 10.9794 11.8096C10.9794 11.8096 10.5666 12.335 11.051 14.3432C11.051 14.3432 10.6881 14.0187 10.242 14.3531C9.90342 14.6068 9.93439 15.0853 10.1252 15.5129C10.3537 16.0258 10.9813 16.4047 11.3834 16.0315Z" fill="#FFB072"/>
<path d="M12.9712 16.2397C13.2558 16.3446 13.5664 16.3617 13.8632 16.3302C14.0121 16.3167 14.1582 16.2719 14.3075 16.239C14.4545 16.2047 14.6052 16.1949 14.7367 16.143L14.7415 16.1412C14.7518 16.1371 14.7633 16.1421 14.7674 16.1524C14.7697 16.1579 14.769 16.164 14.7665 16.1691C14.7225 16.2518 14.6417 16.2918 14.5699 16.327C14.4961 16.3631 14.4188 16.3825 14.3424 16.4004C14.2653 16.417 14.1887 16.425 14.1105 16.4342C14.0318 16.4456 13.9527 16.4522 13.8735 16.4568C13.715 16.4632 13.5558 16.4561 13.4006 16.4255C13.246 16.3933 13.0934 16.3492 12.9562 16.2676C12.9487 16.2632 12.9464 16.2536 12.9507 16.2461C12.9546 16.2395 12.9627 16.237 12.9698 16.2395L12.9712 16.2397Z" fill="#FD6141"/>
<path d="M10.1406 11.8322C11.1948 9.59641 13.329 9.60029 13.329 9.60029L13.3643 10.258C13.5228 9.97876 13.4957 9.47368 13.4957 9.47368C14.3623 9.92208 14.3378 10.5433 14.3378 10.5433L14.4977 10.0562C15.8159 10.7297 15.901 12.3154 15.4166 14.6006L15.2211 12.9658C15.2211 12.9658 15.1218 12.4322 14.8984 12.0288C14.8984 12.0288 14.7286 12.2486 13.6478 12.3062C13.6031 12.3085 13.5586 12.3099 13.5139 12.3115C13.4907 12.314 13.4749 12.3154 13.4749 12.3154C13.4698 12.3149 13.4655 12.314 13.4604 12.3136C12.4498 12.3419 11.5235 12.1707 11.5235 12.1707C11.5235 12.1707 11.5029 12.7834 11.3561 13.3436C11.2721 13.6631 11.5472 15.4229 11.5472 15.4229C11.5472 15.4229 11.5141 15.6366 11.4407 15.4286C11.3061 15.0476 11.1616 13.9812 10.2418 14.3531C10.2415 14.3533 9.75686 12.6623 10.1406 11.8322Z" fill="#201D42"/>
<path d="M11.1812 15.8601L10.9276 15.403L11.2198 15.2288C11.2198 15.2288 10.8844 14.3542 10.4275 14.7617C10.0522 15.0963 10.689 16.1199 11.1812 15.8601Z" fill="#E57E55"/>
<path d="M13.1298 14.7583C13.1371 14.8744 12.9871 14.9048 12.8006 14.9164C12.6141 14.9281 12.4616 14.9164 12.4542 14.8003C12.4469 14.6842 12.5923 14.5807 12.7788 14.5693C12.9653 14.5576 13.1224 14.6422 13.1298 14.7583Z" fill="#3E2344"/>
<path d="M11.8364 13.9803C11.8373 13.9984 12.3612 13.7966 12.5311 13.7936C12.7011 13.7904 13.345 13.8727 13.3968 13.8089C13.4487 13.7451 13.4844 13.5296 13.4844 13.5296C13.4844 13.5296 12.6089 13.4716 12.4304 13.5225C12.3098 13.557 12.0444 13.5991 11.9081 13.7253C11.8428 13.7856 11.8329 13.9161 11.8364 13.9803Z" fill="#201D42"/>
<path d="M14.997 14.6337C15.0043 14.7498 14.8543 14.7802 14.6678 14.7916C14.4813 14.8033 14.3288 14.7916 14.3214 14.6755C14.3141 14.5594 14.4595 14.4561 14.646 14.4445C14.8327 14.4331 14.9898 14.5178 14.997 14.6337Z" fill="#3E2344"/>
<path d="M15.1954 13.8007C15.1963 13.8185 14.8899 13.6112 14.7734 13.627C14.6568 13.6428 14.1444 13.8622 14.0962 13.8057C14.0481 13.749 13.9804 13.542 13.9804 13.542C13.9804 13.542 14.7023 13.3614 14.8342 13.3916C14.8968 13.406 15.0784 13.4553 15.1422 13.531C15.2131 13.6144 15.192 13.7326 15.1954 13.8007Z" fill="#201D42"/>
<path opacity="0.5" d="M14.1558 15.7568C14.1558 15.7568 13.7278 15.805 13.7204 15.6873C13.7131 15.5696 14.5859 15.3113 14.6474 15.3879C14.7086 15.4645 14.3393 15.6754 14.1558 15.7568Z" fill="#E57E55"/>
<path d="M13.969 13.981C13.969 13.981 13.9227 14.5311 14.0149 14.7133C14.1071 14.8954 14.5618 15.2698 14.5835 15.3598C14.6053 15.4496 14.1869 15.739 14.1558 15.757C14.1246 15.7751 14.7856 15.5728 14.7349 15.3667C14.6842 15.1603 14.1041 14.7091 14.0709 14.609C14.0376 14.5087 13.969 13.981 13.969 13.981Z" fill="#E57E55"/>
<path opacity="0.5" d="M15.6278 13.9634C15.6278 13.9634 15.9141 14.9448 14.9218 14.9976C13.9134 15.0513 14.1134 14.0123 14.1134 14.0123C15.1949 13.8105 15.6278 13.9634 15.6278 13.9634Z" fill="#A1ABAD"/>
<path opacity="0.5" d="M11.9584 14.1273C13.0399 13.9255 13.4728 14.0782 13.4728 14.0782C13.4728 14.0782 13.759 15.0595 12.7667 15.1125C11.7586 15.1662 11.9584 14.1273 11.9584 14.1273Z" fill="#A1ABAD"/>
<path d="M11.8907 14.3096V14.3087C11.8878 14.4827 11.9167 14.7398 12.0825 14.929C12.233 15.1011 12.4642 15.1799 12.7695 15.1637C13.0732 15.1475 13.2943 15.0453 13.4262 14.8602C13.5904 14.6296 13.5721 14.3355 13.5459 14.1771C13.6014 14.149 13.8726 14.024 14.048 14.141C14.0382 14.3112 14.0529 14.6036 14.2373 14.8143C14.3878 14.9864 14.619 15.0652 14.9243 15.049C15.228 15.0328 15.4489 14.9306 15.581 14.7455C15.8115 14.4221 15.6828 13.9682 15.6771 13.9492L15.6698 13.9239L15.6448 13.915C15.6264 13.9086 15.1862 13.7605 14.1038 13.962L14.0691 13.9684L14.0625 14.0029C14.0623 14.0041 14.0611 14.0116 14.0604 14.0157C14.0024 13.9874 13.7884 13.9051 13.5214 14.0612L13.5147 14.0386L13.4897 14.0297C13.4716 14.0233 13.0314 13.875 11.9488 14.0768L11.9141 14.0832L11.1613 14.2473L11.17 14.4109L11.8907 14.3096ZM14.1588 14.0562C15.0426 13.8955 15.4794 13.978 15.5849 14.0045C15.6074 14.1024 15.6688 14.4452 15.4966 14.6863C15.3837 14.8444 15.1892 14.932 14.9188 14.9464C14.647 14.9608 14.444 14.8938 14.3153 14.7471C14.118 14.522 14.1446 14.167 14.1588 14.0562ZM12.0041 14.1711C12.8876 14.0105 13.3244 14.093 13.4301 14.1195C13.4526 14.2173 13.5141 14.5601 13.3418 14.8012C13.2289 14.9594 13.0344 15.0469 12.764 15.0613C12.4922 15.0757 12.2892 15.0088 12.1605 14.862C11.963 14.6369 11.9898 14.282 12.0041 14.1711Z" fill="#666666"/>
<path d="M10.5146 18.6967C10.5146 18.6967 10.4176 19.0956 11.1959 19.7782C11.4393 19.9917 12.2714 20.5146 12.2714 20.5146L13.4901 22.8002L13.216 22.8448L12.0595 20.7162L10.9186 22.4257C10.5555 21.9448 9.96734 20.8073 9.90656 20.19L10.5146 18.6967Z" fill="#EFE9DA"/>
<path d="M10.9189 22.4259L12.0596 20.7164L13.2161 22.845L11.8458 21.746L10.9189 22.4259Z" fill="#AAAAAA"/>
<path d="M14.3882 18.6371C14.4079 19.181 14.0292 20.1976 13.7223 20.4728L13.2161 22.8453L13.4902 22.8007L13.901 20.6634L14.7245 22.2744C15.119 21.6066 15.2635 20.5457 15.0522 19.7842L14.3882 18.6371Z" fill="#EFE9DA"/>
<path d="M14.7244 22.2741L13.9009 20.6631L13.4901 22.8005L13.9243 21.6376L14.7244 22.2741Z" fill="#AAAAAA"/>
<g clip-path="url(#clip1_132_18964)">
<path d="M53.3883 12.9182C52.7998 11.111 51.7416 11.1852 51.7416 11.1852C51.7416 11.1852 51.2471 9.61412 48.4187 10.5737C47.0978 10.9152 45.3968 12.8946 46.5215 16.3298C46.8908 17.458 45.1599 18.3662 45.4712 21.1585C45.7467 23.631 54.1776 23.4689 54.5983 21.2066C55.0822 18.6045 52.8305 18.254 53.008 16.9103C53.1899 15.5327 53.7461 14.0171 53.3883 12.9182Z" fill="#DD4026"/>
<path d="M46.137 20.0562C42.9067 22.3536 40.679 27.8238 41.3765 28.7093C42.0739 29.5949 43.4222 28.7617 44.1857 27.9161C45.2666 26.7188 47.7564 23.18 48.0443 22.5089C48.7439 20.8781 46.6917 19.6616 46.137 20.0562Z" fill="#E06258"/>
<path d="M42.2109 48.4758C42.1976 46.1806 43.8661 37.1474 45.3788 31.9172C46.0719 29.52 48.4213 30.5592 49.471 32.4331C51.8277 36.6392 45.9161 47.8127 46.1675 49.1803C47.4316 56.0542 47.457 62.103 47.457 62.103C47.4322 62.6572 45.7942 63.7149 45.7778 62.6852C45.7778 62.6854 42.2218 50.3505 42.2109 48.4758Z" fill="#3E2344"/>
<path d="M49.1805 39.7294L49.3125 33.7809C50.1608 31.8266 53.0583 31.2271 53.8851 33.5276C55.4289 37.8227 52.5327 53.4886 51.7642 63.0436C51.6243 63.718 50.0114 63.8515 50.0659 63.0449C50.0662 63.0447 49.3014 42.4261 49.1805 39.7294Z" fill="#3E2344"/>
<path d="M53.3719 32.0744C53.3719 32.0744 54.4722 33.164 54.8182 35.607C55.1643 38.0503 55.2632 43.9323 55.2632 43.9323C55.2632 43.9323 48.5842 46.4163 42.576 43.6887C42.576 43.6887 44.1313 33.234 45.7259 31.8246C47.3204 30.4152 51.8267 30.0916 53.3719 32.0744Z" fill="#DD4026"/>
<path d="M44.945 33.6944C45.0472 34.1652 46.8455 35.2521 49.4328 35.1668C52.0201 35.0814 54.0541 34.3063 53.9441 33.6253C53.6846 32.0175 52.0201 25.9272 49.4328 26.0127C46.8455 26.0981 44.6624 32.3929 44.945 33.6944Z" fill="#BA2F1C"/>
<path d="M54.8279 21.1599C54.0331 19.4697 50.0987 18.2928 49.8961 18.1818C49.8961 18.1818 46.0909 19.5788 45.6066 20.592C45.5104 20.7933 46.0392 21.4745 46.1219 22.2965C46.157 22.6458 45.7226 23.839 45.7784 24.2515C45.9622 25.6101 46.4698 27.6625 46.3006 28.1318C46.0638 28.7884 45.0673 32.1437 44.7802 33.1131C44.7349 33.266 44.7998 33.4363 44.9429 33.5046C48.922 35.4013 52.1711 34.5194 54.1394 33.4144C54.2789 33.3361 54.3826 33.2116 54.3426 33.0558C54.0994 32.1113 53.013 29.3271 52.709 28.4746C52.3001 27.3303 55.4427 22.4671 54.8279 21.1599Z" fill="#FF8976"/>
<path d="M52.6729 28.183C52.6729 28.183 51.8891 31.2214 50.6057 31.2895C49.3221 31.3576 45.9781 28.9385 45.9781 28.9385L52.6729 28.183Z" fill="#E06258"/>
<path d="M49.3196 22.9398C49.3382 22.9398 49.356 22.9325 49.3691 22.9194C51.0963 21.2035 52.0502 19.8739 52.2097 19.0607C52.2172 19.0219 52.0688 18.9785 52.0613 19.017C51.9103 19.787 50.9609 21.135 49.2927 22.7952L48.8229 22.7618C47.9404 20.9327 47.903 19.3873 48.3754 18.7754C48.3994 18.7444 48.2203 18.7556 48.1965 18.7868C47.6843 19.4501 47.79 20.9574 48.7138 22.8613C48.7249 22.8841 48.7471 22.8992 48.7722 22.9011L49.3146 22.9398C49.3162 22.9398 49.318 22.9398 49.3196 22.9398Z" fill="#7C4284"/>
<path d="M46.9885 25.6138L50.6679 25.8763C50.7541 25.8824 50.8289 25.8169 50.8349 25.73L50.9932 23.473C50.9993 23.3861 50.9344 23.3107 50.8483 23.3046L47.169 23.0422C47.0829 23.036 47.0081 23.1015 47.002 23.1884L46.8437 25.4454C46.8375 25.5323 46.9024 25.6075 46.9885 25.6138Z" fill="white"/>
<path d="M49.5598 25.3622L50.4862 25.4283C50.5553 25.4332 50.6154 25.3806 50.6202 25.3108L50.7084 24.0544C50.7132 23.9846 50.6611 23.9241 50.5919 23.9192L49.6655 23.8531C49.5964 23.8482 49.5363 23.9008 49.5315 23.9705L49.4433 25.227C49.4385 25.2966 49.4906 25.3571 49.5598 25.3622Z" fill="#DD4026"/>
<path d="M48.4891 23.2371L49.5128 23.3102L49.5017 23.468L48.478 23.3949L48.4891 23.2371Z" fill="#3E2344"/>
<path d="M48.807 23.3394L49.2189 23.3688C49.2549 23.3715 49.2863 23.3439 49.2889 23.3076L49.3271 22.762C49.3297 22.7257 49.3024 22.6941 49.2665 22.6914L48.8547 22.6621C48.8187 22.6594 48.7874 22.6869 48.7849 22.7232L48.7467 23.2689C48.7439 23.3054 48.771 23.337 48.807 23.3394Z" fill="#7C4284"/>
<path d="M47.2847 23.6833L49.1065 23.8132L49.0944 23.9863L47.2725 23.8564L47.2847 23.6833Z" fill="#A1ABAD"/>
<path d="M47.258 24.0457L49.0798 24.1758L49.0677 24.3489L47.2458 24.2188L47.258 24.0457Z" fill="#A1ABAD"/>
<path d="M47.2338 24.4094L49.0556 24.5393L49.0435 24.7124L47.2216 24.5825L47.2338 24.4094Z" fill="#A1ABAD"/>
<path d="M47.1898 25.0186L49.0117 25.1486L48.9995 25.3217L47.1777 25.1917L47.1898 25.0186Z" fill="#A1ABAD"/>
<path d="M50.4496 25.1228C48.0772 25.0796 43.7766 25.4374 41.987 26.3838C41.5659 26.6064 40.8365 27.3837 41.1139 28.4198C41.3914 29.4558 42.8908 29.1438 42.8908 29.1438C42.8908 29.1438 48.5622 28.0615 50.0098 27.5585C51.614 27.001 51.6342 25.1442 50.4496 25.1228Z" fill="#EF7265"/>
<path fill-rule="evenodd" clip-rule="evenodd" d="M47.906 15.4189C48.17 15.2181 48.2385 14.5686 48.0384 14.2428C48.0384 14.2428 47.8848 13.9604 47.5516 14.0968C47.299 14.2004 47.2234 14.5219 47.2537 14.8398C47.2901 15.2211 47.6177 15.6383 47.906 15.4189Z" fill="#FFB072"/>
<path d="M47.8187 15.2678L47.7564 14.9185L47.9659 14.8588C47.9659 14.8588 47.9367 14.2187 47.5828 14.4014C47.2921 14.5513 47.4726 15.3463 47.8187 15.2678Z" fill="#E57E55"/>
<path d="M42.7931 27.2936C42.5198 27.261 42.0385 27.0558 41.7678 26.8326C41.4969 26.6093 41.1755 27.4021 41.1755 27.4021C41.1755 27.4021 40.9006 26.8061 41.257 26.3006C41.3286 26.199 41.2354 26.0155 41.3516 25.811C41.4678 25.6067 41.5143 25.7135 41.6061 25.562C41.6979 25.4105 41.654 25.3418 41.7134 25.1879C41.7729 25.0339 41.8893 25.0696 41.988 24.9729C42.0866 24.8763 42.1234 24.7097 42.2425 24.6585C42.4766 24.558 42.7171 24.6862 42.8311 24.7395C43.2091 24.916 43.7381 25.3759 43.9306 25.78C44.12 26.1778 44.3976 27.4853 42.7931 27.2936Z" fill="#FFB072"/>
<path d="M55.0487 22.7006C55.2632 20.3269 53.3626 19.0735 52.1226 20.853C51.2018 22.1743 50.2719 26.847 49.6855 27.1007C49.204 27.3091 43.95 25.6897 43.95 25.6897C43.1194 25.7088 42.7143 27.1735 42.9957 27.6896C46.5183 29.2517 49.5458 31.0703 50.9364 30.407C52.6504 29.5892 54.8368 25.0445 55.0487 22.7006Z" fill="#FFA399"/>
<path d="M50.8897 15.6705C50.8897 15.6705 50.8982 16.7535 51.1545 17.6164C51.4108 18.4792 51.6239 18.6517 51.9967 19.037C52.3381 19.39 49.413 20.8589 49.413 20.8589C49.413 20.8589 49.0983 21.6841 48.9463 21.719L48.8612 20.7982C48.8612 20.7982 47.7882 19.7352 48.2258 19.1718C48.8757 18.3354 49.133 18.5477 49.0047 17.3597C48.8927 16.3241 48.823 15.7493 48.823 15.7493L50.8897 15.6705Z" fill="#FFB072"/>
<path fill-rule="evenodd" clip-rule="evenodd" d="M51.1042 15.7183C51.1042 15.7183 50.4929 17.8458 48.4936 17.3819C47.4898 17.1491 47.2901 15.1039 47.7635 14.4993C47.7635 14.4993 47.5959 13.5819 48.0544 12.5714C48.4249 11.7545 50.1355 11.5351 51.4571 12.1733C51.4571 12.1733 51.7975 12.6164 51.3872 14.3013C51.3872 14.3013 51.6896 14.0303 52.0585 14.3129C52.3383 14.5274 52.3106 14.9293 52.1505 15.2878C51.9586 15.7176 51.4361 16.0333 51.1042 15.7183Z" fill="#FFB072"/>
<path d="M51.2725 15.5749L51.485 15.192L51.2432 15.0445C51.2432 15.0445 51.5252 14.3111 51.9026 14.6555C52.2125 14.9381 51.6799 15.7953 51.2725 15.5749Z" fill="#E57E55"/>
<path d="M48.3673 15.9764C48.3673 15.9764 48.5557 15.6587 49.6008 15.9326C49.3946 16.4807 48.3592 16.6071 48.3673 15.9764Z" fill="#FD6141"/>
<path d="M48.3673 15.9764C48.3673 15.9764 49.0073 16.0777 49.6008 15.9326Z" fill="#E57E55"/>
<path d="M48.3673 15.9764C48.5688 16.0333 48.7788 16.0451 48.9871 16.0437C49.1951 16.0345 49.4055 16.0084 49.6008 15.9326C49.4967 15.9413 49.395 15.9546 49.2923 15.9603C49.1898 15.9668 49.0877 15.975 48.9852 15.9746C48.7803 15.9837 48.5755 15.9762 48.3673 15.9764Z" fill="#E57E55"/>
<path d="M47.9771 14.504C47.9707 14.6015 48.0948 14.6276 48.2496 14.6382C48.4043 14.6488 48.531 14.6396 48.5375 14.5421C48.5439 14.4447 48.4239 14.3572 48.2692 14.3466C48.1142 14.336 47.9836 14.4065 47.9771 14.504Z" fill="#3E2344"/>
<path d="M47.7204 14.0542C47.7137 14.0674 48.1194 13.8252 48.2169 13.8197C48.3297 13.8134 48.6505 14.0293 48.6937 13.9846C48.737 13.94 48.7881 13.8358 48.7881 13.8358C48.7881 13.8358 48.2981 13.6625 48.187 13.68C48.076 13.6973 47.7782 13.9398 47.7204 14.0542Z" fill="#D8462A"/>
<path d="M49.395 14.6004C49.3885 14.6979 49.5126 14.724 49.6675 14.7346C49.8221 14.7452 49.9489 14.736 49.9553 14.6386C49.9618 14.5411 49.8417 14.4536 49.6871 14.443C49.5323 14.4326 49.4017 14.5032 49.395 14.6004Z" fill="#3E2344"/>
<path d="M50.3948 14.1266C50.4005 14.1406 49.9477 13.8666 49.8229 13.8792C49.6982 13.8919 49.2826 14.0293 49.2375 13.9808C49.1926 13.9324 49.15 13.8231 49.15 13.8231C49.15 13.8231 49.7433 13.7169 49.8795 13.7434C50.0158 13.7699 50.3459 14.0067 50.3948 14.1266Z" fill="#D8462A"/>
<path opacity="0.5" d="M48.6394 15.447C48.6394 15.447 48.9944 15.4892 49.001 15.3904C49.0077 15.2915 48.2844 15.0708 48.2331 15.1351C48.1819 15.1993 48.4876 15.3781 48.6394 15.447Z" fill="#E57E55"/>
<path d="M48.8019 13.9561C48.8019 13.9561 48.8381 14.4183 48.7607 14.5711C48.6835 14.7236 48.3046 15.0362 48.286 15.1116C48.2676 15.1871 48.6135 15.4318 48.6394 15.447C48.6653 15.4623 48.1176 15.2896 48.1605 15.1165C48.2034 14.9434 48.6867 14.5668 48.7148 14.483C48.7427 14.3992 48.8019 13.9561 48.8019 13.9561Z" fill="#E57E55"/>
<path d="M48.0046 11.9205C47.845 12.0581 46.9816 12.5124 48.015 12.6637C48.8023 12.7789 50.4126 12.3726 50.8889 12.2382C50.7755 12.4947 50.7183 13.1621 50.768 13.388C50.8586 13.8001 51.028 14.7507 51.028 14.7507C51.028 14.7507 51.2382 14.453 51.3872 14.3015C51.5362 14.1502 52.0555 14.0405 52.2602 14.6643C52.2602 14.6643 52.7519 13.7701 52.7646 13.1643C52.8008 11.4291 50.0178 10.1849 48.0046 11.9205Z" fill="#D8462A"/>
<path d="M52.8172 26.2333C52.651 25.8828 52.3243 25.5388 51.6532 25.2529C51.4068 25.1479 51.2222 25.1281 51.0939 25.1573C50.9997 25.1499 50.9315 25.1509 50.9315 25.1509C50.9315 25.1509 49.4819 25.131 49.2933 25.7288C49.1047 26.3267 49.3055 27.1013 49.3055 27.1013C49.3055 27.1013 50.0257 27.2055 50.2798 27.1046C50.4939 27.2324 50.7609 27.4102 50.9861 27.7308C51.0741 27.856 51.3277 27.8095 51.2982 27.6588C51.2469 27.3968 51.1064 27.116 50.7997 26.8189C51.0757 26.9111 51.4312 27.0442 51.7715 27.3433C51.9002 27.4565 52.1766 27.3601 52.108 27.2094C51.9649 26.8948 51.6716 26.5763 51.0732 26.2841C51.0743 26.2828 51.0755 26.2816 51.0767 26.2804C51.3633 26.3725 51.7709 26.4957 52.1594 26.8246C52.2885 26.9341 52.5643 26.8428 52.4951 26.6978C52.3866 26.4702 52.1925 26.2402 51.8501 26.0196C52.0518 26.1016 52.2714 26.2188 52.4875 26.4039C52.6217 26.5194 52.8932 26.3936 52.8172 26.2333Z" fill="#FFB072"/>
</g>
</g>
<defs>
<clipPath id="clip0_132_18964">
<rect width="60" height="60" rx="30" fill="white"/>
</clipPath>
<clipPath id="clip1_132_18964">
<rect width="14.2105" height="56.8421" fill="white" transform="matrix(-1 0 0 1 55.2632 10.2632)"/>
</clipPath>
</defs>
</svg>
