<svg width="71" height="70" viewBox="0 0 71 70" fill="none" xmlns="http://www.w3.org/2000/svg">
<rect y="46" width="14" height="21" rx="2" fill="#9CC4FF"/>
<path d="M57.6916 29.0194C57.6916 29.0194 51.0385 26.7046 36.8603 29.4716C32.4738 30.3278 26.9854 32.0597 21.0696 33.5285L17.5713 21.2628C17.6035 21.2545 17.6377 21.2457 17.6732 21.2365C19.4618 20.7746 25.4468 19.1051 32.3812 16.5179C38.6415 14.1827 45.711 11.1405 50.9112 5.24622L55.9344 22.8579L57.6916 29.0194Z" fill="#ED7D2B"/>
<path d="M55.9343 22.8579C53.6929 22.3253 47.0476 21.2532 35.5668 23.4784C31.0992 24.3443 25.5126 26.1099 19.4884 27.6019L17.6731 21.2365C19.4617 20.7746 25.4467 19.1051 32.3811 16.5179C38.6414 14.1827 45.7109 11.1405 50.9111 5.24622L55.9343 22.8579Z" fill="#F99746"/>
<path d="M58.3235 29.8413C58.1206 29.8994 57.9091 29.7817 57.8511 29.5783L50.6952 4.48858C50.6372 4.28514 50.7547 4.07302 50.9576 4.01488C51.1605 3.95666 51.372 4.07447 51.43 4.27791L58.5859 29.3676C58.6439 29.571 58.5265 29.7831 58.3235 29.8413Z" fill="#ED7D2B"/>
<path d="M13.9019 35.6059L21.0869 33.5457L17.585 21.2674L10.4001 23.3277C10.1082 23.4113 9.93775 23.7192 10.0212 24.0119L13.2196 35.2261C13.3031 35.5187 13.6101 35.6897 13.9019 35.6059Z" fill="#D66316"/>
<path d="M34.3033 42.1212L27.9231 42.1485L24.7397 35.3887L23.5635 32.8903L23.5658 32.8893L29.3843 31.0474L29.4895 31.2841L30.5703 33.7169L34.3033 42.1212Z" fill="#F99746"/>
<path d="M44.5 63L38 65L26.5 39L31 35L44.5 63Z" fill="#ED7D2B"/>
<path d="M64.1415 6.84299C64.2858 7.01942 64.2598 7.28212 64.0839 7.42676L57.9358 12.4814C57.7598 12.626 57.4978 12.6 57.3536 12.4236C57.2093 12.2472 57.2352 11.9845 57.4112 11.8398L63.5593 6.78523C63.7352 6.64059 63.9973 6.66657 64.1415 6.84299Z" fill="#F99746"/>
<path d="M67.7715 19.8173C67.7491 20.0443 67.5455 20.2116 67.3191 20.1892L59.4071 19.4043C59.1807 19.3818 59.0138 19.1777 59.0362 18.9506C59.0586 18.7236 59.2622 18.5562 59.4886 18.5787L67.4005 19.3636C67.627 19.3861 67.7939 19.5902 67.7715 19.8173Z" fill="#F99746"/>
<path d="M70.5819 13.2663C70.6226 13.4908 70.4728 13.7078 70.2489 13.7486L59.1628 15.7705C58.9389 15.8114 58.7225 15.6611 58.6817 15.4367C58.641 15.2122 58.7908 14.9952 59.0147 14.9543L70.1009 12.9324C70.3247 12.8916 70.5412 13.0418 70.5819 13.2663Z" fill="#F99746"/>
<path d="M16.7865 45.4205C15.8207 47.183 14.6022 47.9597 14.6022 47.9597L9.34302 47.984C9.34302 47.984 17.5232 44.0759 16.7865 45.4205Z" fill="#233862"/>
<path d="M13.0332 58.9836C12.8999 59.1428 12.886 59.318 12.9572 59.5034C12.9573 59.5041 12.9577 59.5052 12.9586 59.5059C13.0902 59.8488 13.5102 60.2263 13.9968 60.6019C14.0589 60.6502 14.1143 60.694 14.1625 60.7348C14.1751 60.7455 14.1878 60.7562 14.1998 60.767C14.2096 60.7752 14.219 60.7839 14.2284 60.7919C14.6832 61.1953 14.517 61.293 15.3359 62.1137C16.2697 63.0488 16.9 63.0535 17.0775 62.9631C17.2276 62.8861 16.9096 62.3867 16.5571 61.8252C16.5401 61.7981 16.5233 61.7708 16.5058 61.7433C16.4589 61.6687 16.4122 61.5929 16.3656 61.5179C15.9521 60.8419 16.0484 60.5191 16.1233 59.4995C16.184 58.671 17.3172 54.854 17.3172 54.854L15.5578 54.5863C15.5578 54.5863 15.0893 57.6171 14.5167 58.0937C14.2105 58.3479 13.8623 58.3578 13.5669 58.5475C13.546 58.5607 13.5255 58.5742 13.5055 58.5881C13.3376 58.7043 13.1669 58.8241 13.0332 58.9836Z" fill="#FFB27D"/>
<path d="M13.0332 58.9837C12.8999 59.1429 12.886 59.3181 12.9572 59.5035C12.9573 59.5043 12.9577 59.5054 12.9586 59.506C13.1182 59.848 13.5278 60.2238 13.9984 60.5984C14.0598 60.6475 14.1142 60.6926 14.1625 60.7349C14.1751 60.7456 14.1878 60.7562 14.1998 60.767C14.2096 60.7753 14.219 60.784 14.2284 60.7919C14.6832 61.1954 14.517 61.2931 15.3359 62.1138C16.2697 63.0488 16.9 63.0535 17.0775 62.9631C17.2276 62.8861 16.9096 62.3867 16.5571 61.8253C16.3777 61.7635 15.5437 61.4433 14.9024 60.6543C14.3376 59.9612 13.9523 59.0641 13.5668 58.5477C13.5459 58.5609 13.5254 58.5743 13.5054 58.5883C13.3376 58.7044 13.1669 58.8242 13.0332 58.9837Z" fill="#233862"/>
<path d="M27.1502 57.6079C27.2691 58.1476 28.0388 58.042 28.8966 57.8141C29.7544 57.5862 29.5545 57.8409 30.7786 57.6806C32.0026 57.5205 32.3652 57.0551 32.399 56.8718C32.4293 56.7091 31.822 56.6639 31.1704 56.6018C31.0885 56.5942 31.0062 56.5857 30.9238 56.5772C30.1879 56.4995 29.641 56.0358 28.9665 55.6596C28.3277 55.3032 27.3556 53.8187 27.3556 53.8187L25.6758 53.9854C25.6758 53.9854 26.5851 55.3105 26.9381 55.8874C27.1457 56.2267 27.144 56.6809 27.1259 57.032C27.1166 57.2228 27.108 57.4178 27.1502 57.6079Z" fill="#FFB27D"/>
<path d="M28.8965 57.8141C29.7543 57.5862 29.5544 57.8409 30.7785 57.6806C32.0025 57.5205 32.3651 57.0551 32.3989 56.8718C32.4292 56.7091 31.8219 56.6639 31.1703 56.6018L31.1644 56.6145C31.1644 56.6145 30.4391 57.1512 29.4184 57.1959C28.5866 57.2326 27.7003 57.0113 27.1258 57.032C27.1165 57.2227 27.1079 57.4178 27.1501 57.6078C27.2691 58.1476 28.0388 58.042 28.8965 57.8141Z" fill="#233862"/>
<path d="M20.4906 46.965L19.0014 51.2331L17.0573 56.806C17.0573 56.806 16.5011 56.8709 15.9645 56.7278C15.4705 56.5954 14.8994 56.2346 14.8994 56.2346C14.8994 56.2346 15.3524 50.2831 16.3487 46.8522C16.604 45.9716 16.8956 45.2575 17.2248 44.8524C18.8351 42.8689 20.4906 46.965 20.4906 46.965Z" fill="#233862"/>
<path d="M18.759 40.2676C17.7221 39.9553 14.7919 40.4406 11.8513 41.0775L11.2131 40.069L4.82712 39.6965C4.82712 39.6965 2.81517 44.4096 4.02578 47.3634C4.2037 47.7976 4.51741 48.0305 5.09108 48.0284C5.09134 48.0287 5.44388 48.0097 5.44413 48.01C5.44413 48.01 9.00737 47.9903 10.2397 47.966C13.4106 47.9033 16.9074 45.651 17.3635 45.5503C18.1101 45.3854 18.4395 46.8803 19.2202 48.4414C20.0008 50.0025 26.4034 55.2811 26.4034 55.2811C26.4034 55.2811 27.3713 55.2716 27.768 55.1136C28.1947 54.9438 28.3479 54.7309 28.3479 54.7309C28.3479 54.7309 21.0973 40.9722 18.759 40.2676Z" fill="#2B478B"/>
<path d="M10.1658 21.3362C9.68215 21.0608 9.21552 21.0287 8.93354 21.0434C8.73005 21.054 8.52624 21.0386 8.32376 21.0154C5.90115 20.7381 4.5163 24.282 4.45177 25.3487C4.33286 27.3151 3.30144 27.6349 1.86564 28.8932C-1.01339 31.4164 -0.0983381 34.2641 1.52344 35.2968C2.49648 35.9165 4.17696 35.2443 4.17696 35.2443C4.2012 35.2606 8.75619 32.5748 11.002 31.2782C14.3964 30.7265 11.5494 22.1243 10.1658 21.3362Z" fill="#233862"/>
<path d="M9.07824 30.2504C9.08839 30.2567 7.96883 30.6642 7.20861 30.3449C6.49337 30.0453 5.93322 28.8879 5.94375 28.8872C6.26602 28.8659 6.61451 28.5765 6.85067 26.7186L6.989 26.7653L9.31466 27.5515C9.31466 27.5515 9.16199 28.2967 9.0677 29.0051C8.9882 29.6 8.95044 30.169 9.07824 30.2504Z" fill="#FFB27D"/>
<path d="M9.31443 27.5517C9.31443 27.5517 9.16176 28.2968 9.06747 29.0053C7.73637 28.7925 7.18972 27.4797 6.98877 26.7654L9.31443 27.5517Z" fill="#ED975D"/>
<path d="M9.6728 28.2813C9.6728 28.2813 6.50494 27.9192 6.76052 25.9475C7.01611 23.9759 6.77943 22.6012 8.81283 22.7491C10.8462 22.8969 11.1409 23.7002 11.2155 24.3791C11.29 25.058 10.5034 28.3247 9.6728 28.2813Z" fill="#FFB27D"/>
<path d="M11.079 23.3037C11.079 23.3037 9.09091 25.0887 7.71792 25.2566C6.34494 25.4245 5.81543 24.9927 5.81543 24.9927C5.81543 24.9927 6.61303 24.3026 7.07953 23.2051C7.21709 22.8816 7.51653 22.6555 7.86577 22.6184C8.84642 22.5141 10.7079 22.4385 11.079 23.3037Z" fill="#233862"/>
<path d="M9.81177 23.1725C9.81177 23.1725 10.5013 23.8141 10.724 24.2957C10.9388 24.7605 11.0226 25.8805 10.8676 26.3291C10.8676 26.3291 11.8814 24.256 11.2648 23.2706C10.6111 22.2258 9.81177 23.1725 9.81177 23.1725Z" fill="#233862"/>
<path d="M11.8307 34.8578C11.8614 41.2629 11.9044 39.9235 11.2167 40.5449C11.0511 40.6945 10.5788 40.7911 9.95593 40.8447C7.99741 41.0138 4.54369 40.7584 4.40543 40.3982C3.92833 39.1516 4.24001 38.7553 3.82465 36.8405C3.78131 36.6368 3.7282 36.4165 3.66634 36.1767C3.3256 34.8627 3.01049 34.4196 4.08506 32.2766C5.05956 30.3354 6.08051 28.7553 6.1762 28.8097C8.87851 30.3444 9.0676 29.0058 9.0676 29.0058C9.0676 29.0058 11.8159 31.7335 11.8307 34.8578Z" fill="#9CC4FF"/>
<path d="M19.0014 51.2331L17.0573 56.8059C17.0573 56.8059 16.5011 56.8708 15.9645 56.7277C15.4705 56.5953 14.8994 56.2345 14.8994 56.2345C14.8994 56.2345 15.3524 50.283 16.3487 46.8521L19.0014 51.2331Z" fill="#2B478B"/>
<path d="M9.06763 29.0052C9.06763 29.0052 11.8251 29.4174 12.1713 30.5958C12.5173 31.7741 14.5539 38.7014 14.5539 38.7014C14.5539 38.7014 13.1617 38.9803 12.5035 38.3468C11.8453 37.7134 10.1394 32.3957 10.1394 32.3957L9.06763 29.0052Z" fill="#9CC4FF"/>
<path d="M9.95574 40.8446C7.99722 41.0137 4.54351 40.7584 4.40524 40.3981C3.92814 39.1515 4.23982 38.7552 3.82446 36.8404L4.71781 34.1551C4.71781 34.1551 4.61997 37.1277 5.51008 37.8915C6.3993 38.6553 9.12109 39.3284 9.5591 39.9726C9.7704 40.2818 9.91145 40.5932 9.95574 40.8446Z" fill="#7DA6EF"/>
<path d="M7.68408 39.64C7.68408 39.64 9.61031 39.1705 9.92586 39.3362C10.2414 39.502 11.0167 40.1129 11.1165 40.3288C11.2164 40.5448 10.4183 40.1772 10.1598 40.1132C9.99242 40.0718 9.55707 40.233 9.34152 40.3097C8.43447 40.6324 7.87177 40.4868 7.87177 40.4868L7.68408 39.64Z" fill="#FFB27D"/>
<path d="M6.17419 28.8082C6.17419 28.8082 3.5795 29.0198 2.705 30.2933C1.47396 32.0861 -0.888822 39.6696 0.570266 40.6459C2.21343 41.7454 7.95289 40.7962 7.95289 40.7962C7.95289 40.7962 8.12675 39.896 7.85168 39.4677C7.57662 39.0393 3.23197 38.4245 3.0281 38.2283C2.82429 38.0321 5.44969 34.2764 5.43789 33.6761C5.42603 33.0758 6.17419 28.8082 6.17419 28.8082Z" fill="#9CC4FF"/>
<path d="M10.03 39.8736C10.03 39.8736 10.4458 40.3891 10.5798 40.4489C10.714 40.5089 10.7995 40.4915 10.7995 40.4915L10.5166 40.0046L10.03 39.8736Z" fill="#FFB27D"/>
<path d="M9.92578 39.3364L11.1157 39.8861C11.1157 39.8861 11.0672 39.9692 10.9219 39.9655C10.7766 39.9617 10.408 39.8349 10.408 39.8349L9.92578 39.3364Z" fill="#FFB27D"/>
<path d="M10.5957 41.2511L19.919 41.0668L22.5859 34.0287L13.277 34.2128L10.5957 41.2511Z" fill="#F99746"/>
<path d="M20.023 40.7926L7.71167 41.036L7.717 41.308L19.9191 41.0668L20.023 40.7926Z" fill="#ED7D2B"/>
<path d="M17.4968 37.6219C17.5622 37.3751 17.4165 37.1788 17.1714 37.1837C16.9262 37.1886 16.6744 37.3925 16.6089 37.6394C16.5435 37.8862 16.6891 38.0825 16.9343 38.0776C17.1795 38.0727 17.4313 37.8687 17.4968 37.6219Z" fill="white"/>
</svg>
