<svg width="17" height="10" viewBox="0 0 17 10" fill="none" xmlns="http://www.w3.org/2000/svg">
<path d="M15.9767 4.77327C14.3681 1.79952 11.5471 0 8.42542 0C5.3037 0 2.47792 1.79952 0.883652 4.77327L0.75 4.99761L0.874105 5.22673C2.4827 8.20048 5.3037 10 8.42542 10C11.5471 10 14.3729 8.22434 15.9767 5.22673L16.1008 4.99761L15.9767 4.77327ZM8.42542 9.02148C5.73807 9.02148 3.27029 7.52267 1.83831 4.99761C3.27029 2.47255 5.73807 0.973747 8.42542 0.973747C11.1128 0.973747 13.5519 2.47733 15.0078 4.99761C13.5519 7.52267 11.108 9.02148 8.42542 9.02148Z" fill="#6B62DC"/>
<path d="M8.5638 1.73748C7.9166 1.74221 7.28532 1.93862 6.74968 2.30191C6.21404 2.66521 5.79808 3.17909 5.55433 3.77865C5.31058 4.37821 5.24998 5.03656 5.38017 5.67055C5.51036 6.30453 5.82551 6.88572 6.28582 7.3407C6.74613 7.79567 7.33095 8.10404 7.9664 8.22684C8.60186 8.34964 9.25946 8.28137 9.85614 8.03066C10.4528 7.77994 10.9618 7.35803 11.3189 6.8182C11.6759 6.27837 11.8649 5.64484 11.8621 4.99763C11.8603 4.56681 11.7734 4.1406 11.6065 3.74341C11.4396 3.34623 11.196 2.98588 10.8896 2.68302C10.5832 2.38016 10.22 2.14075 9.82091 1.97849C9.42181 1.81624 8.99461 1.73434 8.5638 1.73748ZM8.5638 7.33176C8.10664 7.32704 7.66107 7.18736 7.28304 6.93023C6.90502 6.67311 6.61139 6.31003 6.43905 5.88657C6.2667 5.46312 6.22332 4.99818 6.31435 4.55016C6.40539 4.10213 6.62677 3.69099 6.95071 3.36837C7.27464 3.04576 7.68668 2.82605 8.13508 2.73685C8.58347 2.64764 9.04823 2.69292 9.47098 2.86699C9.89372 3.04106 10.2556 3.33617 10.5112 3.71524C10.7668 4.09431 10.9046 4.54045 10.9075 4.99763C10.9087 5.30531 10.8489 5.61019 10.7315 5.89458C10.614 6.17897 10.4413 6.43721 10.2233 6.65433C10.0053 6.87145 9.74633 7.04314 9.46146 7.15942C9.17659 7.27571 8.87148 7.33429 8.5638 7.33176Z" fill="#6B62DC"/>
</svg>
