<svg width="100" height="46" viewBox="0 0 100 46" fill="none" xmlns="http://www.w3.org/2000/svg">
<path opacity="0.3" d="M19.1013 21.8567C19.1013 21.8567 17.4729 17.0801 14.0353 14.7507C10.5977 12.4213 7.67751 12.2942 7.80629 13.4293C7.93501 14.5644 12.8327 15.3653 15.1543 17.492C17.4759 19.6185 19.1013 21.8567 19.1013 21.8567Z" fill="black" fill-opacity="0.1"/>
<path opacity="0.3" d="M18.7598 23.3324C18.7598 23.3324 17.2747 19.9642 14.6294 18.4894C11.984 17.0145 9.85371 17.1074 10.0189 17.9241C10.1841 18.7409 13.7942 19.0123 15.6157 20.4106C17.4372 21.8089 18.7598 23.3324 18.7598 23.3324Z" fill="black" fill-opacity="0.1"/>
<path opacity="0.3" d="M35.2605 12.5156C35.2605 12.5156 37.0702 7.75516 40.619 5.52673C44.1677 3.2983 47.1175 3.27287 46.9479 4.41317C46.7782 5.55353 41.8103 6.18888 39.3943 8.25208C36.9782 10.3153 35.2605 12.5156 35.2605 12.5156Z" fill="black" fill-opacity="0.1"/>
<path opacity="0.3" d="M35.5532 14.0161C35.5532 14.0161 37.169 10.6712 39.8888 9.27675C42.6086 7.88231 44.754 8.05092 44.5587 8.86891C44.3634 9.68695 40.7128 9.83356 38.8267 11.1798C36.9405 12.526 35.5532 14.0161 35.5532 14.0161Z" fill="black" fill-opacity="0.1"/>
<path opacity="0.5" d="M35.1159 36.7762C35.1159 36.7762 35.1385 37.3819 34.9409 38.2911L42.8542 38.2999C42.665 38.1327 42.4382 37.9509 42.2013 37.7525C41.1168 36.8436 38.8625 37.1047 38.1926 36.7504C37.5231 36.396 38.4942 36.0282 39.8286 36.1199C41.1626 36.2112 41.8406 37.5421 43.9962 37.7298C46.1514 37.9172 47.7588 33.8425 47.7588 33.8425C46.2752 34.3177 43.6018 33.5175 43.4951 33.0044C43.3882 32.4911 47.3372 32.5093 47.9514 32.35C48.5653 32.1906 49.632 30.9478 48.9448 28.486C48.2574 26.0241 44.1102 26.83 44.1102 26.83C44.1102 26.83 41.3256 31.1718 40.5059 31.2814C39.6865 31.3913 42.1635 27.1034 42.1635 27.1034C40.5725 26.9627 36.5375 28.9499 36.5375 28.9499C36.5375 28.9499 36.836 33.9855 36.0147 33.8898C35.1934 33.7937 35.9773 29.4177 35.9773 29.4177C34.4429 29.8932 33.0218 31.7045 33.0218 31.7045C31.2517 34.6495 35.1159 36.7762 35.1159 36.7762Z" fill="black" fill-opacity="0.1"/>
<path opacity="0.6" d="M2.31164 28.966C3.14328 29.2821 8.65209 29.862 8.42513 30.5614C8.19769 31.2606 4.34815 31.9663 2.35226 31.0766C2.35226 31.0766 3.97183 37.004 7.00551 37.0731C10.0396 37.1419 11.1876 35.39 13.0616 35.4669C14.9361 35.5433 16.2343 36.2056 15.2465 36.5968C14.2588 36.9881 11.1551 36.2788 9.50448 37.3794C9.26217 37.5408 9.0271 37.6929 8.81136 37.8367C8.68144 37.9235 8.55821 38.0076 8.44451 38.0895H19.481C19.4806 37.9999 19.4815 37.9154 19.4832 37.8367C19.4932 37.3712 19.5325 37.1043 19.5325 37.1043C19.5325 37.1043 25.2443 34.7314 23.2255 30.3537C23.2255 30.3537 21.5207 27.6108 19.4535 26.7125C19.4535 26.7125 19.8791 32.9343 18.7193 32.942C17.5592 32.9501 18.7437 25.9747 18.7437 25.9747C18.7437 25.9747 13.4213 22.5853 11.1813 22.5379C11.1813 22.5379 13.9812 28.8959 12.8549 28.6173C11.7291 28.3386 8.50899 21.8585 8.50899 21.8585C8.50899 21.8585 2.84952 20.0994 1.51561 23.4263C0.181808 26.7536 1.47956 28.6498 2.31164 28.966Z" fill="black" fill-opacity="0.1"/>
<path opacity="0.3" d="M8.66774 1.90835C9.29175 -0.407079 13.1894 0.31397 13.1894 0.31397C13.1894 0.31397 15.8382 4.36363 16.6081 4.45959C17.3779 4.5556 15.0179 0.553973 15.0179 0.553973C16.5093 0.408345 20.3114 2.23869 20.3114 2.23869C20.3114 2.23869 20.0738 6.96535 20.8436 6.86841C21.6133 6.77147 20.841 2.67241 20.841 2.67241C22.2847 3.10559 23.6329 4.79276 23.6329 4.79276C25.3186 7.54083 21.7113 9.56872 21.7113 9.56872C21.7113 9.56872 21.6642 11.2085 22.6757 13.0889L22.6758 13.0889C22.6758 13.0889 22.904 13.4361 23.1362 14.0262L22.7427 14.0265C22.7104 13.9207 22.6749 13.8185 22.6357 13.7203C22.6357 13.7196 22.6354 13.7191 22.6349 13.7186C22.6343 13.7171 22.6337 13.7158 22.6331 13.7143C22.6061 13.6534 22.5674 13.5667 22.519 13.4611C22.519 13.461 22.5189 13.4608 22.5189 13.4607C22.5189 13.4605 22.5186 13.4605 22.5186 13.4602C22.3982 13.2244 22.3169 13.0502 22.2654 12.9243C22.2652 12.924 22.2651 12.9235 22.2651 12.9231C21.9044 12.1828 21.3848 11.2182 21.0386 11.0161C21.0386 11.0161 21.0821 10.9547 21.1227 10.8351C21.0959 10.8928 21.0679 10.953 21.0386 11.0161C20.3658 12.4634 16.9981 12.7066 15.1214 12.322C13.2447 11.9373 14.0623 11.4063 15.0722 10.5446C16.082 9.6829 18.1991 9.90855 18.8244 9.57057C19.4496 9.23259 18.5353 8.89559 17.2844 8.9928C16.0335 9.09002 15.4088 10.3444 13.3882 10.5386C11.3675 10.7328 9.82555 6.9236 9.82555 6.9236C11.2211 7.35677 13.7225 6.5836 13.8185 6.10119C13.9144 5.61883 10.2097 5.66938 9.63224 5.52506C9.05478 5.38063 8.04371 4.22373 8.66774 1.90835Z" fill="black" fill-opacity="0.1"/>
<path d="M89.9151 41.4662L75.9158 41.2054L52.8685 39.3311L33.9734 40.4238L19.2719 40.1497C19.2719 40.1497 16.0609 32.5579 17.9326 31.4337C19.8042 30.3095 28.7398 28.8794 32.1901 29.659C35.6405 30.4385 73.7768 29.2673 80.4345 29.659C87.0922 30.0507 92.5218 33.2244 93.1682 35.4513C93.8145 37.6779 89.9151 41.4662 89.9151 41.4662Z" fill="#101111"/>
<path d="M26.7772 31.9336C30.3524 31.9336 33.2502 34.8317 33.2502 38.4067C33.2502 41.9819 30.3524 44.8798 26.7772 44.8798C23.2024 44.8798 20.3043 41.9819 20.3043 38.4067C20.3043 34.8317 23.2024 31.9336 26.7772 31.9336Z" fill="#292A2D"/>
<path d="M82.8095 44.8788C79.2356 44.7898 76.4105 41.8204 76.4996 38.2464C76.5886 34.6725 79.558 31.8475 83.1319 31.9365C86.7058 32.0255 89.5309 34.9949 89.4418 38.5688C89.3528 42.1427 86.3834 44.9678 82.8095 44.8788Z" fill="#292A2D"/>
<path d="M82.9697 33.2844C85.7982 33.2844 88.0916 35.5778 88.0916 38.4066C88.0916 41.2351 85.7985 43.5282 82.9697 43.5282C80.1408 43.5282 77.8477 41.2351 77.8477 38.4066C77.848 35.578 80.1408 33.2844 82.9697 33.2844Z" fill="#101111"/>
<path d="M91.568 30.0722C91.568 30.0722 92.1022 38.1574 93.7406 39.6888C95.379 41.2202 99.468 39.3312 99.468 39.3312C99.468 39.3312 99.7602 32.2976 96.5901 30.5081C93.4202 28.7185 91.568 30.0722 91.568 30.0722Z" fill="#292A2D"/>
<path d="M26.7712 33.2844C29.5997 33.2844 31.8928 35.5778 31.8928 38.4066C31.8928 41.2351 29.6 43.5282 26.7712 43.5282C23.9424 43.5282 21.6493 41.2351 21.6493 38.4066C21.6495 35.578 23.9424 33.2844 26.7712 33.2844Z" fill="#101111"/>
<path d="M90.8348 30.0879C90.8348 30.0879 94.1991 30.3907 94.9644 31.1798C95.7297 31.9691 95.7253 32.9788 95.7253 32.9788L92.9076 33.093C92.9076 33.093 90.2686 31.5787 90.8348 30.0879Z" fill="#F0AD1C"/>
<path d="M70.2405 31.1159H33.2504L22.6012 22.4428C22.6012 22.4428 28.2593 18.6801 34.486 18.5526C40.7129 18.4249 55.6363 18.5526 55.6363 18.5526C55.6363 18.5526 66.1647 20.5507 72.0318 25.3339C77.8991 30.1168 75.9163 31.1159 75.9163 31.1159H70.2405Z" fill="#66CCDB"/>
<path opacity="0.5" d="M59.8584 30.8182H61.4668L55.0028 18.2236H53.3943L59.8584 30.8182Z" fill="white"/>
<path opacity="0.5" d="M62.6839 30.8182H63.488L56.827 17.9866H56.0229L62.6839 30.8182Z" fill="white"/>
<path opacity="0.5" d="M45.3513 30.8183H46.9597L40.4967 18.3047H38.8883L45.3513 30.8183Z" fill="white"/>
<path opacity="0.5" d="M21.6494 30.8182H43.814L37.0399 17.7278L27.3422 19.5379L21.6494 30.8182Z" fill="white"/>
<path opacity="0.5" d="M48.1776 30.8182H48.9817L42.2301 17.7278H41.4258L48.1776 30.8182Z" fill="white"/>
<path d="M83.5359 33.8833V36.7421C83.8094 36.8357 84.0507 36.9926 84.2456 37.1974L86.8647 36.036C86.1589 34.8767 84.9478 34.0578 83.5359 33.8833Z" fill="#D1E2E2"/>
<path d="M84.544 39.189L86.5643 41.2113C87.1688 40.4362 87.5305 39.4646 87.5305 38.4063C87.5305 37.9414 87.4597 37.4918 87.3296 37.0691L84.7201 38.2246C84.7258 38.2838 84.7296 38.345 84.7296 38.4063C84.7296 38.6879 84.6606 38.9537 84.544 39.189Z" fill="#D1E2E2"/>
<path d="M78.41 38.4065C78.41 39.4589 78.7679 40.4287 79.3667 41.1999L81.3909 39.1778C81.2763 38.9443 81.2109 38.6842 81.2109 38.4068C81.2109 38.3455 81.2148 38.2843 81.2207 38.225L78.6109 37.0696C78.4809 37.4921 78.41 37.9417 78.41 38.4065Z" fill="#D1E2E2"/>
<path d="M79.0741 36.0357L81.6951 37.1972C81.8885 36.9924 82.1315 36.8357 82.4048 36.7418V33.8833C80.9931 34.0578 79.782 34.8767 79.0741 36.0357Z" fill="#D1E2E2"/>
<path d="M80.1666 42.0013C80.9397 42.606 81.9134 42.9672 82.9696 42.9672C84.0237 42.9672 84.992 42.6097 85.7627 42.0088L83.7406 39.9867C83.5071 40.0996 83.247 40.1664 82.9696 40.1664C82.6885 40.1664 82.4243 40.0973 82.1872 39.9807L80.1666 42.0013Z" fill="#D1E2E2"/>
<path d="M27.3422 33.8833V36.7421C27.6157 36.8357 27.8588 36.9926 28.0519 37.1974L30.6731 36.036C29.9652 34.8767 28.7541 34.0578 27.3422 33.8833Z" fill="#D1E2E2"/>
<path d="M28.3509 39.1887L30.3712 41.2111C30.976 40.436 31.3372 39.4643 31.3372 38.4061C31.3372 37.9412 31.2666 37.4916 31.1365 37.0688L28.5267 38.2243C28.5327 38.2835 28.5363 38.3448 28.5363 38.4061C28.5363 38.6876 28.4675 38.9534 28.3509 39.1887Z" fill="#D1E2E2"/>
<path d="M22.881 36.0357L25.5019 37.1972C25.6953 36.9924 25.9386 36.8357 26.2117 36.7418V33.8833C24.8 34.0578 23.5889 34.8767 22.881 36.0357Z" fill="#D1E2E2"/>
<path d="M23.9732 42.0013C24.746 42.606 25.72 42.9672 26.7762 42.9672C27.8303 42.9672 28.7983 42.6097 29.5696 42.0088L27.5474 39.9867C27.314 40.0996 27.0539 40.1664 26.7764 40.1664C26.4954 40.1664 26.2312 40.0973 25.9941 39.9807L23.9732 42.0013Z" fill="#D1E2E2"/>
<path d="M22.2169 38.4063C22.2169 39.4586 22.5747 40.4284 23.1736 41.1997L25.1978 39.1776C25.083 38.9441 25.0178 38.684 25.0178 38.4066C25.0178 38.3453 25.0217 38.284 25.0274 38.2248L22.4175 37.0693C22.2878 37.4918 22.2169 37.9414 22.2169 38.4063Z" fill="#D1E2E2"/>
<path d="M94.8639 37.4592C94.8639 38.027 95.3241 38.4877 95.8922 38.4877C96.4602 38.4877 96.9204 38.0272 96.9204 37.4592C96.9204 36.8911 96.4599 36.4307 95.8922 36.4307C95.3241 36.4307 94.8639 36.8911 94.8639 37.4592Z" fill="white"/>
<path d="M5.73969 33.5691C5.73969 31.7197 7.01539 31.6556 7.01539 31.6556C8.35468 31.6556 8.41829 29.1735 8.41829 29.1735C7.71658 28.2215 8.09949 26.7452 8.09949 26.7452V24.6406C8.09949 24.6406 13.9665 23.6839 23.6604 20.0487C33.354 16.414 48.7872 16.5854 54.973 17.2432C61.1591 17.9006 68.5568 22.7275 71.7455 23.9394C74.9345 25.1512 76.2097 25.2787 76.2097 25.2787C76.2097 25.2787 94.0026 27.7659 96.4899 29.2327C97.7175 29.9566 98.9854 31.5907 99.1545 33.5133C99.2719 33.8972 99.3764 34.2879 99.4682 34.6775C100.068 34.836 99.9974 37.7421 99.9974 38.7988C99.9974 41.4133 96.1711 41.4774 96.1711 41.4774H90.4954L89.9149 41.4666C90.3279 40.5304 90.559 39.4959 90.559 38.4069C90.559 34.2155 87.1614 30.8176 82.97 30.8176C78.7786 30.8176 75.3807 34.2155 75.3807 38.4069C75.3807 39.3956 75.5718 40.3395 75.9159 41.2057L33.9735 40.4238C34.1503 39.7813 34.2468 39.1052 34.2468 38.4066C34.2468 34.2152 30.8492 30.8171 26.6575 30.8171C22.4659 30.8171 19.0685 34.2152 19.0685 38.4066C19.0685 39.0065 19.1404 39.59 19.272 40.1498L18.622 40.1376C18.622 40.1376 14.094 39.7552 9.88531 38.7983C5.67583 37.8417 5.73969 35.4185 5.73969 33.5691ZM94.5288 38.5116C94.768 39.1812 95.6051 39.3485 95.6051 39.3485C95.6051 39.3485 97.7576 39.4682 98.2837 39.3485C98.8099 39.2288 99.001 38.918 99.1447 38.4066C99.2882 37.8949 99.2882 36.8613 99.2882 36.8613L94.0988 36.3829C94.0986 36.3832 94.2896 37.8417 94.5288 38.5116ZM98.3073 33.4735C98.3073 33.4735 97.861 31.624 97.0318 31.1775C96.2027 30.731 92.7908 30.5081 92.7908 30.5081C92.7908 30.5081 93.8113 33.059 98.3073 33.4735ZM71.8376 25.9804C65.1799 22.6515 60.3967 18.4958 45.53 18.4958C30.6633 18.4958 25.5414 22.9504 25.5414 22.9504C26.0065 26.3439 71.8376 25.9804 71.8376 25.9804Z" fill="#00519B"/>
<path opacity="0.5" d="M42.6899 26.6814C42.6899 26.6814 77.893 27.8635 83.5356 28.6107C89.1779 29.3579 91.0302 30.5082 91.0302 30.5082C95.0683 34.0384 99.2713 33.8978 99.2713 33.8978C99.3889 34.282 99.376 34.2877 99.4678 34.6776L89.3137 34.2432C87.9571 32.1805 85.6234 30.8177 82.9696 30.8177C80.5491 30.8177 78.3951 31.9524 77.0054 33.7173L35.292 31.9338C24.9608 27.5855 21.0065 31.1801 15.5224 31.9338C10.0377 32.6872 8.41817 29.1738 8.41817 29.1738C7.71646 28.2218 8.09938 26.7455 8.09938 26.7455V24.6409L42.6899 26.6814ZM52.4381 29.8008H53.586C54.0876 29.8008 54.4948 29.3941 54.4948 28.8922C54.4948 28.3904 54.0879 27.9832 53.586 27.9832H52.4381C51.9362 27.9832 51.529 28.3901 51.529 28.8922C51.529 29.3941 51.936 29.8008 52.4381 29.8008ZM33.9116 29.1735H35.0593C35.5611 29.1735 35.9684 28.7666 35.9684 28.2645C35.9684 27.7629 35.5614 27.3557 35.0593 27.3557H33.9116C33.41 27.3557 33.0028 27.7626 33.0028 28.2645C33.003 28.7666 33.41 29.1735 33.9116 29.1735Z" fill="#2265A2"/>
<path d="M8.41836 29.1733C7.71666 28.2213 8.09957 26.745 8.09957 26.745V26.6812C8.38785 26.6812 8.40207 26.6812 10.3673 26.6812C12.6883 26.6812 12.052 27.5744 12.052 27.5744C12.052 27.5744 11.309 29.3101 10.4759 29.3101H8.49205C8.44215 29.2243 8.41836 29.1733 8.41836 29.1733Z" fill="#292A2D"/>
<path d="M10.3025 27.743V27.7513C10.3025 27.9752 10.121 28.1567 9.89708 28.1567H8.02957C7.98717 27.8604 7.99027 27.575 8.0094 27.3379H9.89708C10.121 27.3376 10.3025 27.5191 10.3025 27.743Z" fill="#E30006"/>
<path d="M82.0451 38.4065C82.0451 38.9172 82.4591 39.3311 82.9697 39.3311C83.4803 39.3311 83.8943 38.9172 83.8943 38.4065C83.8943 37.8956 83.4803 37.4819 82.9697 37.4819C82.4591 37.4819 82.0451 37.8956 82.0451 38.4065Z" fill="#D1E2E2"/>
<path d="M82.4672 38.4064C82.4672 38.6841 82.6921 38.9091 82.9698 38.9091C83.2475 38.9091 83.4724 38.6841 83.4724 38.4064C83.4724 38.1287 83.2475 37.9038 82.9698 37.9038C82.6921 37.9038 82.4672 38.1287 82.4672 38.4064Z" fill="#C3D1D1"/>
<path d="M83.5354 36.7421V35.447C84.3168 35.5954 84.99 36.0451 85.4319 36.671L84.2451 37.1972C84.0499 36.9924 83.8087 36.8357 83.5354 36.7421Z" fill="#C3D1D1"/>
<path d="M84.7291 38.4064C84.7291 38.3451 84.7252 38.2838 84.7196 38.2246L85.898 37.7029C85.9523 37.9291 85.9841 38.1639 85.9841 38.4067C85.9841 39.037 85.7902 39.6219 85.4593 40.1056L84.5435 39.1888C84.6601 38.9535 84.7291 38.6877 84.7291 38.4064Z" fill="#C3D1D1"/>
<path d="M81.2109 38.4064C81.2109 38.6839 81.2761 38.944 81.3909 39.1774L80.4722 40.095C80.1459 39.6134 79.9551 39.0321 79.9551 38.4064C79.9551 38.1634 79.9869 37.9284 80.0412 37.7021L81.2205 38.2244C81.2151 38.2839 81.2109 38.3452 81.2109 38.4064Z" fill="#C3D1D1"/>
<path d="M81.6948 37.1972L80.5073 36.671C80.9494 36.0448 81.6229 35.5952 82.4045 35.4468V36.7419C82.1313 36.8357 81.8882 36.9924 81.6948 37.1972Z" fill="#C3D1D1"/>
<path d="M82.9691 40.1668C83.2465 40.1668 83.5066 40.0999 83.7401 39.9871L84.658 40.9047C84.1763 41.2308 83.5953 41.4216 82.9699 41.4216C82.3395 41.4216 81.7549 41.2277 81.2712 40.897L82.187 39.9814C82.4238 40.0978 82.6881 40.1668 82.9691 40.1668Z" fill="#C3D1D1"/>
<path d="M25.8469 38.4065C25.8469 38.9172 26.2611 39.3311 26.7715 39.3311C27.2821 39.3311 27.696 38.9172 27.696 38.4065C27.696 37.8956 27.2818 37.4819 26.7715 37.4819C26.2611 37.4819 25.8469 37.8956 25.8469 38.4065Z" fill="#D1E2E2"/>
<path d="M32.7517 33.8833C37.425 38.5569 41.3286 38.3268 41.3286 38.3268L75.3808 38.4067C75.3808 39.3954 75.5719 40.3393 75.916 41.2055L33.9736 40.4239C34.1504 39.7814 34.2469 39.1053 34.2469 38.4067C34.2469 36.7116 33.691 35.1466 32.7517 33.8833Z" fill="#00519B"/>
<path d="M5.73942 33.569C5.73942 31.7196 8.07983 35.1157 10.3667 36.1499C13.254 37.3995 18.6941 37.9049 18.6941 37.9049C18.6727 38.9399 18.9263 39.8068 19.2715 40.1497L18.6215 40.1375C18.6215 40.1375 14.0935 39.7551 9.88478 38.7982C5.67556 37.8416 5.73942 35.4184 5.73942 33.569Z" fill="#00519B"/>
<path d="M90.4953 41.4772L89.9148 41.4663C90.2091 40.7992 90.4089 40.082 90.5005 39.3309C90.5007 39.3309 90.501 39.3312 90.5015 39.3312C100.1 41.0893 99.7905 38.886 99.9469 37.6775C99.9808 38.0881 99.9973 38.4666 99.9973 38.7986C99.9973 41.413 96.171 41.4772 96.171 41.4772H90.4953Z" fill="#00519B"/>
<path opacity="0.5" d="M38.7119 34.9869L69.9128 35.5616L36.0049 32.9927L38.7119 34.9869Z" fill="url(#paint0_linear_172_56801)"/>
<path d="M49.2066 26.2821H50.9932L48.9687 17.6206H47.8466L49.2066 26.2821Z" fill="#00519B"/>
<path d="M29.4886 25.3467H30.7571L29.3198 20.5327H28.5235L29.4886 25.3467Z" fill="#00519B"/>
<path opacity="0.5" d="M50.7162 28.8922C50.7162 29.0475 50.8422 29.1735 50.9976 29.1735H55.0266C55.1819 29.1735 55.3079 29.0475 55.3079 28.8922C55.3079 28.7365 55.1819 28.6106 55.0266 28.6106H50.9976C50.8422 28.6106 50.7162 28.7368 50.7162 28.8922Z" fill="url(#paint1_linear_172_56801)"/>
<path opacity="0.5" d="M32.1896 28.2645C32.1896 28.4201 32.3153 28.546 32.4709 28.546H36.4999C36.6556 28.546 36.7812 28.4201 36.7812 28.2645C36.7812 28.1091 36.6556 27.9832 36.4999 27.9832H32.4709C32.3156 27.9834 32.1896 28.1093 32.1896 28.2645Z" fill="url(#paint2_linear_172_56801)"/>
<path d="M26.274 38.4064C26.274 38.6841 26.4992 38.9091 26.7767 38.9091C27.0544 38.9091 27.2793 38.6841 27.2793 38.4064C27.2793 38.1287 27.0544 37.9038 26.7767 37.9038C26.499 37.9038 26.274 38.1287 26.274 38.4064Z" fill="#C3D1D1"/>
<path d="M27.343 36.7421V35.447C28.1244 35.5954 28.7976 36.0451 29.2395 36.671L28.0528 37.1972C27.8575 36.9924 27.6163 36.8357 27.343 36.7421Z" fill="#C3D1D1"/>
<path d="M28.5367 38.4064C28.5367 38.3451 28.5329 38.2838 28.5272 38.2246L29.7057 37.7029C29.76 37.9291 29.7917 38.1639 29.7917 38.4067C29.7917 39.037 29.5978 39.6219 29.2669 40.1056L28.3511 39.1888C28.4677 38.9535 28.5367 38.6877 28.5367 38.4064Z" fill="#C3D1D1"/>
<path d="M25.0181 38.4064C25.0181 38.6839 25.0835 38.944 25.198 39.1774L24.2794 40.095C23.9531 39.6134 23.7623 39.0321 23.7623 38.4064C23.7623 38.1634 23.7941 37.9284 23.8484 37.7021L25.0276 38.2244C25.0222 38.2839 25.0181 38.3452 25.0181 38.4064Z" fill="#C3D1D1"/>
<path d="M25.5024 37.1972L24.3149 36.671C24.757 36.0448 25.4306 35.5952 26.2122 35.4468V36.7419C25.9386 36.8357 25.6956 36.9924 25.5024 37.1972Z" fill="#C3D1D1"/>
<path d="M26.7767 40.1668C27.0541 40.1668 27.3142 40.0999 27.5477 39.9871L28.4656 40.9047C27.9839 41.2308 27.4029 41.4216 26.7775 41.4216C26.1471 41.4216 25.5626 41.2277 25.0788 40.897L25.9946 39.9814C26.2314 40.0978 26.4957 40.1668 26.7767 40.1668Z" fill="#C3D1D1"/>
<defs>
<linearGradient id="paint0_linear_172_56801" x1="52.9588" y1="35.5616" x2="52.9588" y2="32.9925" gradientUnits="userSpaceOnUse">
<stop stop-color="#0D97D3"/>
<stop offset="1"/>
</linearGradient>
<linearGradient id="paint1_linear_172_56801" x1="53.012" y1="29.1735" x2="53.012" y2="28.6107" gradientUnits="userSpaceOnUse">
<stop stop-color="#0D97D3"/>
<stop offset="1"/>
</linearGradient>
<linearGradient id="paint2_linear_172_56801" x1="34.4855" y1="28.5461" x2="34.4855" y2="27.9833" gradientUnits="userSpaceOnUse">
<stop stop-color="#0D97D3"/>
<stop offset="1"/>
</linearGradient>
</defs>
</svg>
