<svg width="60" height="60" viewBox="0 0 60 60" fill="none" xmlns="http://www.w3.org/2000/svg">
<path d="M0 30C0 13.4315 13.4315 0 30 0V0C46.5685 0 60 13.4315 60 30V30C60 46.5685 46.5685 60 30 60V60C13.4315 60 0 46.5685 0 30V30Z" fill="white"/>
<path d="M35.7903 18.3862C35.7903 18.3862 39.316 17.3667 39.7938 17.1331C40.2717 16.8994 44.339 16.2304 45.6558 19.8304C46.9726 23.4198 44.7532 27.5508 42.0664 33.827C39.3691 40.1137 37.2239 43.5226 37.2239 43.5226C37.2239 43.5226 36.162 45.5403 34.1018 45.8907C32.7425 46.1244 31.5637 45.5297 30.6398 44.9562C20.9442 38.9031 18.5548 31.2676 18.5548 31.2676C17.5034 27.9013 15.4539 21.3596 19.0964 18.1525C21.5495 15.9861 25.8185 16.018 29.9283 17.8552C29.9283 17.8552 31.3619 14.9879 32.9761 13.5437C32.7956 14.4463 35.8434 15.2215 36.9266 14.9242C35.9708 15.572 35.7903 18.3862 35.7903 18.3862Z" fill="#F24644"/>
<path d="M33.3691 13.3631C33.3691 13.3631 32.116 13.9578 33.0718 14.2658C34.0275 14.5738 36.3638 15.1684 36.3638 15.1684C36.3638 15.1684 37.2028 15.4658 36.778 14.5738C36.3532 13.6817 33.3691 13.3631 33.3691 13.3631Z" fill="#2F2D5C"/>
<path d="M37.9992 22.7402L37.5851 22.6446C38.0099 20.7012 37.4364 18.5455 37.4258 18.5242L37.8399 18.418C37.8612 18.5136 38.4453 20.7012 37.9992 22.7402Z" fill="#FF6E5F"/>
<path d="M38.6364 22.2835C38.3285 21.5295 37.9143 21.3915 37.8931 21.3809L38.0099 20.9773C38.0311 20.9879 38.6258 21.1685 39.0294 22.1242L38.6364 22.2835Z" fill="#FF6E5F"/>
<path d="M31.9143 20.9773L31.6594 20.6375C31.7019 20.6056 32.7108 19.8517 33.8364 19.9154C34.8559 19.9685 36.7674 19.5755 36.7887 19.5755L36.8736 19.9897C36.7887 20.0109 34.8878 20.4039 33.8046 20.3402C32.8488 20.2871 31.9249 20.9667 31.9143 20.9773Z" fill="#FF6E5F"/>
<path d="M34.1337 20.2446C34.1231 20.234 33.4328 19.1614 32.2646 18.9065L32.3602 18.4924C33.7089 18.7897 34.4629 19.9685 34.4947 20.0216L34.1337 20.2446Z" fill="#FF6E5F"/>
<path d="M32.955 21.5083L32.8594 21.0941C33.7089 20.8924 34.7072 19.9366 34.7178 19.926L35.0151 20.234C34.962 20.2871 33.9213 21.2853 32.955 21.5083Z" fill="#FF6E5F"/>
<path d="M34.6484 22.4707L30.7148 22.6899L30.7385 23.114L34.672 22.8948L34.6484 22.4707Z" fill="#FF6E5F"/>
<path d="M36.4716 20.6976L36.052 20.7634L36.2329 21.9174L36.6526 21.8516L36.4716 20.6976Z" fill="#FF6E5F"/>
<path d="M34.0488 29.9721L33.709 29.7172C34.3568 28.8676 34.1125 24.8216 33.9745 23.3455L34.3993 23.303C34.4524 23.8658 34.909 28.8358 34.0488 29.9721Z" fill="#FF6E5F"/>
<path d="M35.0789 26.7331C34.994 26.1384 34.1975 25.5862 34.1975 25.5756L34.4418 25.2251C34.4842 25.257 35.3975 25.8836 35.5037 26.6694L35.0789 26.7331Z" fill="#FF6E5F"/>
<path d="M31.3833 26.4358C31.362 26.4358 31.3514 26.4358 31.3302 26.4251L31.2027 26.4039L31.1709 26.2871C31.1496 26.2021 31.139 26.1703 31.2346 26.0641C31.2771 26.0216 31.3408 25.9579 31.4257 25.8623C32.0098 25.2676 33.7302 23.5048 34.3992 22.7083C34.4098 22.6977 35.6629 21.2216 36.7674 19.5437C36.8948 19.3525 36.9904 19.1932 37.0753 19.0446C37.1815 18.8747 37.2771 18.7047 37.4258 18.4924C37.4682 18.4393 37.5001 18.3755 37.532 18.3118C37.5744 18.2481 37.6063 18.1738 37.6594 18.0994L37.6806 18.0676C37.755 17.9614 37.7975 17.8977 37.7868 17.8339C37.7868 17.8233 37.7868 17.8021 37.7762 17.7915L38.1798 17.6534C38.201 17.7065 38.2116 17.749 38.2116 17.8021C38.2329 18.0251 38.116 18.1844 38.0311 18.3224L38.0098 18.3543C37.978 18.4074 37.9355 18.4711 37.9036 18.5242C37.8612 18.5986 37.8187 18.6729 37.7762 18.7472C37.6382 18.9384 37.5426 19.1083 37.4364 19.2676C37.3408 19.4163 37.2452 19.5755 37.1178 19.7773C35.9921 21.4764 34.7284 22.9632 34.7178 22.9844C34.293 23.4942 33.4434 24.3756 32.8169 25.034C32.4665 25.395 32.1479 25.7243 31.9036 25.9685C31.7231 26.149 31.6169 26.2659 31.5426 26.3296C31.5319 26.3402 31.5319 26.3402 31.5213 26.3508C31.4576 26.4145 31.4257 26.4358 31.3833 26.4358Z" fill="#FF6E5F"/>
<path d="M31.4577 44.6164C31.4152 44.5314 30.4063 42.5031 30.4276 40.4217H30.8524C30.8311 42.4075 31.8294 44.404 31.84 44.4253L31.4577 44.6164Z" fill="#FF6E5F"/>
<path d="M30.7674 42.1633C30.7462 42.1633 30.1196 42.1102 29.5461 41.2394L29.8966 41.0058C30.3532 41.6854 30.7886 41.7385 30.8099 41.7385L30.7674 42.1633Z" fill="#FF6E5F"/>
<path d="M32.2541 43.2785L32.0842 42.8855C32.1586 42.8537 33.9533 42.0784 35.0152 41.9191C35.971 41.7811 36.7356 40.9209 36.7462 40.9103L37.0648 41.1864C37.0329 41.2289 36.194 42.1634 35.0789 42.3333C34.0701 42.4926 32.2648 43.2785 32.2541 43.2785Z" fill="#FF6E5F"/>
<path d="M36.8099 43.4484C35.4294 43.4271 34.4524 42.4289 34.4099 42.3864L34.7179 42.0891L34.5692 42.2377L34.7179 42.0891C34.7285 42.0997 35.6205 43.013 36.8205 43.0236L36.8099 43.4484Z" fill="#FF6E5F"/>
<path d="M34.2081 42.5032L33.8577 42.259C33.8895 42.2059 34.7178 41.0165 35.6099 40.6023L35.7904 40.9846C34.994 41.3669 34.2187 42.4926 34.2081 42.5032Z" fill="#FF6E5F"/>
<path d="M37.456 38.5969L33.6477 39.6066L33.7566 40.0172L37.5648 39.0075L37.456 38.5969Z" fill="#FF6E5F"/>
<path d="M32.3132 40.8748L31.9155 41.0241L32.3262 42.1177L32.7239 41.9684L32.3132 40.8748Z" fill="#FF6E5F"/>
<path d="M31.2665 45.4341C31.2453 45.3916 31.2241 45.3492 31.2028 45.2961C31.1391 45.0837 31.2134 44.9031 31.2771 44.7545L31.2878 44.7226C31.309 44.6589 31.3302 44.5952 31.3515 44.5314C31.3727 44.4571 31.4046 44.3722 31.4364 44.2872C31.532 44.0642 31.5957 43.8943 31.6595 43.7031C31.7232 43.5332 31.7763 43.3633 31.8718 43.1403C32.6258 41.25 33.5603 39.5296 33.571 39.519C33.8896 38.935 34.5373 37.8942 35.0258 37.1296C35.2913 36.7049 35.5462 36.3119 35.7267 36.0252C35.8648 35.8128 35.9497 35.6854 36.0028 35.6004C36.0135 35.5898 36.0135 35.5792 36.0135 35.5792C36.0984 35.4624 36.1303 35.4624 36.194 35.4624H36.3214L36.3851 35.5686C36.4276 35.6429 36.4382 35.6748 36.3639 35.8022C36.332 35.8553 36.2896 35.9296 36.2152 36.0358H36.2046C35.7586 36.7367 34.4205 38.8181 33.9214 39.7208C33.9108 39.742 32.9869 41.4412 32.2435 43.2996C32.1586 43.512 32.0949 43.6819 32.0418 43.8518C31.978 44.0429 31.9037 44.2235 31.8081 44.4571C31.7763 44.5208 31.7656 44.5845 31.7338 44.6589C31.7125 44.7332 31.6913 44.8076 31.6595 44.8925L31.6488 44.9244C31.5957 45.0412 31.5745 45.1155 31.5957 45.1792C31.5957 45.1899 31.6064 45.2005 31.617 45.2217L31.2665 45.4341Z" fill="#FF6E5F"/>
<path d="M33.1463 40.3899C33.1251 40.3049 32.6259 38.4253 32.6366 37.3527C32.6366 36.3863 31.9144 35.5049 31.9038 35.4943L32.233 35.2182C32.2649 35.2606 33.072 36.227 33.0613 37.3527C33.0613 38.3722 33.5498 40.2624 33.5605 40.2837L33.1463 40.3899Z" fill="#FF6E5F"/>
<path d="M32.9974 38.0005L32.7532 37.65L32.8806 37.8199L32.7532 37.65C32.7638 37.6394 33.8045 36.896 33.9957 35.7173L34.4098 35.7916C34.1974 37.1509 33.0505 37.9686 32.9974 38.0005Z" fill="#FF6E5F"/>
<path d="M32.8063 38.5315C32.7638 38.489 31.7125 37.5014 31.4258 36.5456L31.8293 36.4288C32.0736 37.2677 33.0824 38.2129 33.093 38.2235L32.8063 38.5315Z" fill="#FF6E5F"/>
<path d="M37.6063 22.3898C36.3213 24.0571 35.8753 25.3845 35.8753 25.3845C34.4735 29.5367 32.3496 30.5987 33.0611 32.2978C33.2098 32.6483 33.5496 33.2111 34.4948 33.6996C34.4948 33.6996 35.0363 33.9969 35.8116 33.4023C36.5868 32.8076 40.8346 23.8978 40.8346 23.8978C40.8346 23.8978 41.1957 23.1119 40.4735 22.4535C40.2505 22.2518 39.4647 21.4447 38.6151 21.6146C38.1585 21.7102 37.8718 22.05 37.6063 22.3898Z" fill="#F9FFFB"/>
<path d="M37.3088 25.2781L38.6788 25.9578L36.6292 30.0888L35.1531 29.3135L37.3088 25.2781Z" fill="#2A214E"/>
<path d="M38.371 22.7612C38.4472 22.7612 38.509 22.6994 38.509 22.6231C38.509 22.5469 38.4472 22.4851 38.371 22.4851C38.2947 22.4851 38.2329 22.5469 38.2329 22.6231C38.2329 22.6994 38.2947 22.7612 38.371 22.7612Z" fill="#424244"/>
<path d="M39.6559 23.0373C39.7321 23.0373 39.7939 22.9755 39.7939 22.8992C39.7939 22.823 39.7321 22.7612 39.6559 22.7612C39.5796 22.7612 39.5178 22.823 39.5178 22.8992C39.5178 22.9755 39.5796 23.0373 39.6559 23.0373Z" fill="#424244"/>
<path d="M38.8805 23.3134C38.9567 23.3134 39.0185 23.2516 39.0185 23.1753C39.0185 23.0991 38.9567 23.0373 38.8805 23.0373C38.8042 23.0373 38.7424 23.0991 38.7424 23.1753C38.7424 23.2516 38.8042 23.3134 38.8805 23.3134Z" fill="#424244"/>
<path d="M38.2328 23.77C38.309 23.77 38.3708 23.7082 38.3708 23.632C38.3708 23.5557 38.309 23.4939 38.2328 23.4939C38.1565 23.4939 38.0947 23.5557 38.0947 23.632C38.0947 23.7082 38.1565 23.77 38.2328 23.77Z" fill="#424244"/>
<path d="M39.2416 24.0461C39.3178 24.0461 39.3796 23.9843 39.3796 23.9081C39.3796 23.8318 39.3178 23.77 39.2416 23.77C39.1653 23.77 39.1035 23.8318 39.1035 23.9081C39.1035 23.9843 39.1653 24.0461 39.2416 24.0461Z" fill="#424244"/>
<path d="M38.8805 24.6302C38.9567 24.6302 39.0185 24.5684 39.0185 24.4922C39.0185 24.4159 38.9567 24.3541 38.8805 24.3541C38.8042 24.3541 38.7424 24.4159 38.7424 24.4922C38.7424 24.5684 38.8042 24.6302 38.8805 24.6302Z" fill="#424244"/>
<path d="M39.7938 24.5984C39.8701 24.5984 39.9319 24.5365 39.9319 24.4603C39.9319 24.3841 39.8701 24.3223 39.7938 24.3223C39.7176 24.3223 39.6558 24.3841 39.6558 24.4603C39.6558 24.5365 39.7176 24.5984 39.7938 24.5984Z" fill="#424244"/>
<path d="M40.0699 23.9081C40.1462 23.9081 40.208 23.8463 40.208 23.77C40.208 23.6938 40.1462 23.632 40.0699 23.632C39.9937 23.632 39.9319 23.6938 39.9319 23.77C39.9319 23.8463 39.9937 23.9081 40.0699 23.9081Z" fill="#424244"/>
<path d="M34.1232 30.864C34.1994 30.864 34.2612 30.8022 34.2612 30.726C34.2612 30.6497 34.1994 30.5879 34.1232 30.5879C34.0469 30.5879 33.9851 30.6497 33.9851 30.726C33.9851 30.8022 34.0469 30.864 34.1232 30.864Z" fill="#424244"/>
<path d="M35.4081 31.1401C35.4843 31.1401 35.5461 31.0783 35.5461 31.0021C35.5461 30.9258 35.4843 30.864 35.4081 30.864C35.3318 30.864 35.27 30.9258 35.27 31.0021C35.27 31.0783 35.3318 31.1401 35.4081 31.1401Z" fill="#424244"/>
<path d="M34.6327 31.4162C34.7089 31.4162 34.7707 31.3544 34.7707 31.2782C34.7707 31.2019 34.7089 31.1401 34.6327 31.1401C34.5564 31.1401 34.4946 31.2019 34.4946 31.2782C34.4946 31.3544 34.5564 31.4162 34.6327 31.4162Z" fill="#424244"/>
<path d="M33.985 31.8729C34.0612 31.8729 34.123 31.8111 34.123 31.7348C34.123 31.6586 34.0612 31.5968 33.985 31.5968C33.9087 31.5968 33.8469 31.6586 33.8469 31.7348C33.8469 31.8111 33.9087 31.8729 33.985 31.8729Z" fill="#424244"/>
<path d="M34.9938 32.149C35.07 32.149 35.1318 32.0872 35.1318 32.011C35.1318 31.9347 35.07 31.8729 34.9938 31.8729C34.9175 31.8729 34.8557 31.9347 34.8557 32.011C34.8557 32.0872 34.9175 32.149 34.9938 32.149Z" fill="#424244"/>
<path d="M34.6327 32.7331C34.7089 32.7331 34.7707 32.6713 34.7707 32.595C34.7707 32.5188 34.7089 32.457 34.6327 32.457C34.5564 32.457 34.4946 32.5188 34.4946 32.595C34.4946 32.6713 34.5564 32.7331 34.6327 32.7331Z" fill="#424244"/>
<path d="M35.546 32.7012C35.6223 32.7012 35.6841 32.6394 35.6841 32.5632C35.6841 32.4869 35.6223 32.4251 35.546 32.4251C35.4698 32.4251 35.408 32.4869 35.408 32.5632C35.408 32.6394 35.4698 32.7012 35.546 32.7012Z" fill="#424244"/>
<path d="M35.8221 32.0109C35.8984 32.0109 35.9602 31.9491 35.9602 31.8729C35.9602 31.7966 35.8984 31.7348 35.8221 31.7348C35.7459 31.7348 35.6841 31.7966 35.6841 31.8729C35.6841 31.9491 35.7459 32.0109 35.8221 32.0109Z" fill="#424244"/>
<path d="M41.1957 18.8747C41.2719 18.8747 41.3337 18.8129 41.3337 18.7367C41.3337 18.6604 41.2719 18.5986 41.1957 18.5986C41.1194 18.5986 41.0576 18.6604 41.0576 18.7367C41.0576 18.8129 41.1194 18.8747 41.1957 18.8747Z" fill="white"/>
<path d="M42.4808 19.1508C42.5571 19.1508 42.6189 19.089 42.6189 19.0128C42.6189 18.9365 42.5571 18.8747 42.4808 18.8747C42.4046 18.8747 42.3428 18.9365 42.3428 19.0128C42.3428 19.089 42.4046 19.1508 42.4808 19.1508Z" fill="white"/>
<path d="M44.0419 20.9986C44.1181 20.9986 44.1799 20.9368 44.1799 20.8606C44.1799 20.7843 44.1181 20.7225 44.0419 20.7225C43.9656 20.7225 43.9038 20.7843 43.9038 20.8606C43.9038 20.9368 43.9656 20.9986 44.0419 20.9986Z" fill="white"/>
<path d="M40.4313 19.7455C40.5075 19.7455 40.5693 19.6837 40.5693 19.6075C40.5693 19.5312 40.5075 19.4694 40.4313 19.4694C40.355 19.4694 40.2932 19.5312 40.2932 19.6075C40.2932 19.6837 40.355 19.7455 40.4313 19.7455Z" fill="white"/>
<path d="M41.8754 20.234C41.9516 20.234 42.0134 20.1722 42.0134 20.096C42.0134 20.0197 41.9516 19.9579 41.8754 19.9579C41.7991 19.9579 41.7373 20.0197 41.7373 20.096C41.7373 20.1722 41.7991 20.234 41.8754 20.234Z" fill="white"/>
<path d="M17.9283 21.827C18.0046 21.827 18.0664 21.7652 18.0664 21.6889C18.0664 21.6127 18.0046 21.5509 17.9283 21.5509C17.8521 21.5509 17.7903 21.6127 17.7903 21.6889C17.7903 21.7652 17.8521 21.827 17.9283 21.827Z" fill="white"/>
<path d="M18.4701 21.6889C18.5463 21.6889 18.6081 21.6271 18.6081 21.5509C18.6081 21.4746 18.5463 21.4128 18.4701 21.4128C18.3938 21.4128 18.332 21.4746 18.332 21.5509C18.332 21.6271 18.3938 21.6889 18.4701 21.6889Z" fill="white"/>
<path d="M18.4701 22.2411C18.5463 22.2411 18.6081 22.1793 18.6081 22.1031C18.6081 22.0268 18.5463 21.965 18.4701 21.965C18.3938 21.965 18.332 22.0268 18.332 22.1031C18.332 22.1793 18.3938 22.2411 18.4701 22.2411Z" fill="white"/>
<path d="M43.1285 22.6234C43.2048 22.6234 43.2666 22.5616 43.2666 22.4854C43.2666 22.4091 43.2048 22.3473 43.1285 22.3473C43.0523 22.3473 42.9905 22.4091 42.9905 22.4854C42.9905 22.5616 43.0523 22.6234 43.1285 22.6234Z" fill="white"/>
<path d="M44.1798 22.3792C44.256 22.3792 44.3179 22.3174 44.3179 22.2411C44.3179 22.1649 44.256 22.1031 44.1798 22.1031C44.1036 22.1031 44.0417 22.1649 44.0417 22.2411C44.0417 22.3174 44.1036 22.3792 44.1798 22.3792Z" fill="white"/>
<path d="M43.4047 19.7455C43.4809 19.7455 43.5427 19.6837 43.5427 19.6075C43.5427 19.5312 43.4809 19.4694 43.4047 19.4694C43.3284 19.4694 43.2666 19.5312 43.2666 19.6075C43.2666 19.6837 43.3284 19.7455 43.4047 19.7455Z" fill="white"/>
<path d="M25.4149 35.3455C28.8401 35.3455 31.6167 32.5689 31.6167 29.1437C31.6167 25.7186 28.8401 22.9419 25.4149 22.9419C21.9898 22.9419 19.2131 25.7186 19.2131 29.1437C19.2131 32.5689 21.9898 35.3455 25.4149 35.3455Z" fill="#FF7156"/>
<path d="M22.8344 33.7419C22.8025 33.7419 22.7707 33.7313 22.7494 33.7207C22.6432 33.6676 22.6008 33.5402 22.6432 33.434C23.2485 32.149 24.0025 30.9278 24.8946 29.834C26.2963 28.103 27.9955 26.6481 29.9601 25.5331C30.0663 25.48 30.1937 25.5118 30.2468 25.6074C30.2999 25.7136 30.2681 25.841 30.1725 25.8941C28.261 26.9879 26.5937 28.4003 25.2238 30.0888C24.353 31.1614 23.6202 32.3508 23.0255 33.6039C22.9937 33.6995 22.9193 33.7419 22.8344 33.7419Z" fill="#EC4942"/>
<path d="M20.9865 29.9827C20.9016 29.9827 20.8273 29.9296 20.7954 29.8552C20.7529 29.749 20.7954 29.6216 20.9122 29.5791C21.6981 29.2393 22.4627 28.8251 23.1742 28.3472C23.6202 28.0393 23.8963 27.8163 24.1405 27.6039C24.3317 27.4446 24.5016 27.3065 24.7034 27.1685C25.7335 26.4676 27.114 26.1809 28.7919 26.3402C28.9087 26.3508 28.9937 26.457 28.9831 26.5738C28.9724 26.6906 28.8662 26.7756 28.7494 26.7649C27.1671 26.6269 25.8928 26.8817 24.937 27.5295C24.7459 27.657 24.5866 27.795 24.406 27.9437C24.1512 28.1561 23.8644 28.3897 23.4078 28.7083C22.6751 29.2074 21.8892 29.6322 21.0821 29.9827C21.0396 29.9827 21.0078 29.9827 20.9865 29.9827Z" fill="#EC4942"/>
<path d="M27.8467 26.7119C27.7511 26.7119 27.6661 26.6482 27.6449 26.542C27.6343 26.4889 27.3157 25.1721 26.0201 25.0553C24.3847 24.896 24.3104 23.9614 24.3104 23.919C24.2998 23.8021 24.3953 23.7066 24.5121 23.696C24.629 23.696 24.7245 23.7809 24.7352 23.8977C24.7352 23.9296 24.8201 24.5243 26.0626 24.6411C27.6768 24.7898 28.0591 26.4464 28.0697 26.4676C28.0909 26.5845 28.0272 26.6907 27.9104 26.7225C27.8785 26.7119 27.8573 26.7119 27.8467 26.7119Z" fill="#EC4942"/>
<path d="M24.6928 25.7774C24.5866 25.7774 24.491 25.6925 24.4804 25.5863C24.4698 25.4694 24.5547 25.3632 24.6715 25.3526C24.6822 25.3526 25.5636 25.2571 26.1477 24.7261C26.2326 24.6517 26.3707 24.6517 26.445 24.7473C26.5193 24.8323 26.5193 24.9703 26.4238 25.0447C25.7229 25.6606 24.7459 25.7668 24.7034 25.7774C24.7034 25.7774 24.7034 25.7774 24.6928 25.7774Z" fill="#EC4942"/>
<path d="M25.3935 24.9385C25.3192 24.9385 25.2449 24.896 25.2024 24.8217C25.0749 24.588 25.2236 24.1102 25.2873 23.919C25.3298 23.8128 25.4466 23.7491 25.5634 23.7916C25.6696 23.834 25.7334 23.9509 25.6909 24.0677C25.6059 24.2907 25.5528 24.5668 25.5847 24.6411C25.6378 24.7473 25.5953 24.8748 25.4997 24.9279C25.4679 24.9279 25.4254 24.9385 25.3935 24.9385Z" fill="#EC4942"/>
<path d="M25.6168 27.1261C25.6062 27.1261 25.6062 27.1261 25.5955 27.1261C25.5743 27.1261 23.7265 26.9349 23.0469 26.9031C22.9938 26.9031 22.9407 26.8924 22.8982 26.8924C22.1973 26.7969 21.4221 26.3827 21.3902 26.3615C21.284 26.3084 21.2522 26.1809 21.3053 26.0747C21.3584 25.9685 21.4858 25.9367 21.592 25.9898C21.6026 25.9898 22.3353 26.3933 22.9513 26.4677C22.9938 26.4783 23.0362 26.4783 23.0787 26.4783C23.769 26.5208 25.5743 26.7013 25.6486 26.7119C25.7655 26.7225 25.8504 26.8287 25.8398 26.9455C25.8186 27.0411 25.723 27.1261 25.6168 27.1261Z" fill="#EC4942"/>
<path d="M21.2838 28.1242C21.1989 28.1242 21.1246 28.0711 21.0927 27.9968C21.0502 27.8906 21.0927 27.7631 21.1989 27.7207C21.2095 27.7207 22.3564 27.2109 22.898 26.5419C22.9724 26.4463 23.1104 26.4357 23.1954 26.51C23.2909 26.5844 23.3016 26.7224 23.2272 26.8074C22.6219 27.5614 21.4219 28.0817 21.3688 28.103C21.3369 28.1242 21.3051 28.1242 21.2838 28.1242Z" fill="#EC4942"/>
<path d="M23.7902 26.9454C23.7795 26.9454 23.7795 26.9454 23.7689 26.9454C23.6733 26.9348 23.3972 26.9136 22.8556 25.6499C22.8132 25.5437 22.8556 25.4162 22.9618 25.3737C23.068 25.3313 23.1955 25.3737 23.2379 25.4799C23.4503 25.9684 23.7158 26.4463 23.8326 26.5313C23.9388 26.5525 24.0025 26.6481 23.9919 26.7543C23.9919 26.8711 23.907 26.9454 23.7902 26.9454Z" fill="#EC4942"/>
<path d="M22.3988 30.4394C22.367 30.4394 22.3351 30.4288 22.3032 30.4182C22.1971 30.3651 22.1546 30.2377 22.2077 30.1315L23.0891 28.4217C23.1422 28.3155 23.2696 28.273 23.3758 28.3261C23.482 28.3792 23.5245 28.5067 23.4714 28.6129L22.59 30.3226C22.5475 30.397 22.4732 30.4394 22.3988 30.4394Z" fill="#EC4942"/>
<path d="M22.3989 32.1385C22.3245 32.1385 22.2502 32.096 22.2183 32.0323C22.1652 31.9261 22.1971 31.7987 22.3033 31.7456L24.5971 30.4606C24.7033 30.4075 24.8307 30.4394 24.8838 30.5456C24.9369 30.6518 24.9051 30.7792 24.7989 30.8323L22.5051 32.1172C22.4732 32.1279 22.4307 32.1385 22.3989 32.1385Z" fill="#EC4942"/>
<path d="M25.0643 32.935C25.0324 32.935 25.0112 32.9244 24.9793 32.9137C24.8731 32.8713 24.82 32.7438 24.8731 32.6376C24.8837 32.6164 25.5953 30.9704 25.7439 30.1845C25.9032 29.3562 26.4979 28.05 26.5192 27.9863C26.5722 27.8801 26.6891 27.827 26.7953 27.8801C26.9015 27.9332 26.9546 28.05 26.9015 28.1562C26.8908 28.1668 26.3068 29.473 26.1475 30.2589C25.9882 31.0872 25.2767 32.7226 25.2448 32.7969C25.2236 32.8925 25.1386 32.935 25.0643 32.935Z" fill="#EC4942"/>
<path d="M28.1653 31.8837H28.1547C28.0378 31.8731 27.9529 31.7775 27.9529 31.6607C28.1334 28.6872 30.406 26.8288 30.5016 26.7545C30.5971 26.6802 30.7246 26.6908 30.7989 26.7863C30.8733 26.8819 30.8626 27.0094 30.7671 27.0837C30.7458 27.1049 28.5476 28.9103 28.3777 31.6926C28.367 31.7881 28.2715 31.8837 28.1653 31.8837Z" fill="#EC4942"/>
<path d="M29.9813 31.7349L29.5777 31.5969L29.7795 31.6712L29.5777 31.5969C29.5777 31.5863 30.0875 30.0783 29.0786 28.634L29.4291 28.3898C30.5653 30.0146 30.0025 31.6712 29.9813 31.7349Z" fill="#EC4942"/>
<path d="M25.4151 36.5243C21.3372 36.5243 18.0239 33.211 18.0239 29.1331C18.0239 25.0552 21.3372 21.7419 25.4151 21.7419C29.493 21.7419 32.8063 25.0552 32.8063 29.1331C32.8063 33.211 29.493 36.5243 25.4151 36.5243ZM25.4151 23.4516C22.2824 23.4516 19.7231 26.0003 19.7231 29.1437C19.7231 32.2871 22.2717 34.8358 25.4151 34.8358C28.5479 34.8358 31.1072 32.2871 31.1072 29.1437C31.1072 26.0003 28.5479 23.4516 25.4151 23.4516Z" fill="#2E1F4B"/>
<path d="M10.3672 45.7845L10.1973 46.8039H10.8344L11.2592 45.7101L10.3672 45.7845Z" fill="#FFC19B"/>
<path d="M10.1973 46.634V47.1968C10.1973 47.1968 10.1973 47.3986 10.4097 47.3986C10.622 47.3986 11.5459 47.3986 11.5459 47.3986C11.5459 47.3986 12.0769 47.3667 11.7052 47.1437C11.3336 46.9207 10.9513 46.7508 10.93 46.5915C10.6645 46.5915 10.1973 46.634 10.1973 46.634Z" fill="#16122B"/>
<path d="M15.4116 45.3278C15.4966 45.6889 15.5815 46.0606 15.6665 46.4216C15.8683 46.3898 16.07 46.3685 16.2612 46.3367C16.2293 46.2093 16.1868 46.0181 16.1975 45.7739C16.2081 45.519 16.2824 45.3278 16.3355 45.2004C16.0382 45.2535 15.7196 45.296 15.4116 45.3278Z" fill="#FFC19B"/>
<path d="M15.5391 46.0924V46.6765C15.5391 46.6765 15.5391 46.8782 15.7515 46.8782C15.9638 46.8782 16.9302 46.8782 16.9302 46.8782C16.9302 46.8782 17.4824 46.8358 17.1001 46.6128C16.7178 46.3791 16.3249 46.1986 16.293 46.0393C16.0276 46.0499 15.5391 46.0924 15.5391 46.0924Z" fill="#16122B"/>
<path d="M12.077 26.2444C12.077 26.2444 11.2699 26.1594 10.654 26.8709C10.038 27.5931 7.26635 30.6302 7.1814 36.609C7.80795 36.3117 8.74247 35.9082 8.74247 35.9082C8.74247 35.9082 9.09291 31.3842 10.1973 30.2373C9.87876 31.8515 9.47521 36.8533 9.8469 39.3064C10.4947 39.3276 11.8434 39.3064 11.8434 39.3064L12.077 26.2444Z" fill="#3DC8CA"/>
<path d="M13.5958 26.5949L13.4471 25.5754C13.4471 25.5754 14.6683 24.2055 13.1922 23.6426C11.6524 23.3878 12.332 26.6798 12.332 26.6798L13.5958 26.5949Z" fill="#FFC19B"/>
<path d="M12.5656 26.8604C12.5656 26.8604 12.6294 25.4268 12.4594 24.8745C12.2895 24.3117 12.5656 23.8763 13.1179 23.8975C13.6807 23.9188 13.84 24.6728 13.5957 25.2781C14.1055 25.0976 13.7975 24.6728 14.1161 24.2905C14.4347 23.8975 13.9249 23.8975 13.9249 23.8975C13.9249 23.8975 14.6152 23.5471 14.2223 23.4409C13.8294 23.3347 13.8931 23.271 13.7763 23.1542C13.6594 23.0374 11.9497 22.8037 11.4293 24.0675C11.2063 24.6622 12.0028 25.2037 11.2063 25.6922C10.4099 26.1807 11.4293 26.5737 11.0895 27.2639C10.7497 27.9542 12.5656 26.8604 12.5656 26.8604Z" fill="#EF7C74"/>
<path d="M12.8841 24.6622C12.9487 24.6622 13.001 24.6099 13.001 24.5454C13.001 24.4809 12.9487 24.4286 12.8841 24.4286C12.8196 24.4286 12.7673 24.4809 12.7673 24.5454C12.7673 24.6099 12.8196 24.6622 12.8841 24.6622Z" fill="#5E341E"/>
<path d="M13.5001 24.5454C13.5646 24.5454 13.6169 24.4931 13.6169 24.4286C13.6169 24.364 13.5646 24.3117 13.5001 24.3117C13.4356 24.3117 13.3833 24.364 13.3833 24.4286C13.3833 24.4931 13.4356 24.5454 13.5001 24.5454Z" fill="#5E341E"/>
<path d="M12.9797 25.2038L13.4151 25.087C13.4151 25.087 13.4364 25.448 12.9797 25.2038Z" fill="#D9386E"/>
<path d="M13.2678 24.9173C13.2911 24.9145 13.3049 24.8697 13.2986 24.8173C13.2923 24.7649 13.2684 24.7247 13.2451 24.7275C13.2218 24.7303 13.208 24.775 13.2143 24.8274C13.2206 24.8799 13.2445 24.9201 13.2678 24.9173Z" fill="#5E341E"/>
<path d="M11.0789 26.4782C11.3868 27.8056 11.6948 29.1224 12.0028 30.4499C12.024 29.0481 12.0559 27.6463 12.0771 26.2339C11.9284 26.2339 11.716 26.2445 11.4824 26.3189C11.3231 26.3614 11.1851 26.4251 11.0789 26.4782Z" fill="#2AA4B3"/>
<path d="M13.5001 26.0853C12.9161 30.4286 12.332 34.772 11.7373 39.1154C13.617 38.7756 15.5072 38.4464 17.3869 38.1066C17.3869 38.1066 16.8028 31.618 15.2948 29.7596C16.2187 30.503 17.0577 32.6587 17.0577 32.6587L17.8648 31.8835C17.8648 31.8835 15.8046 26.9561 14.4559 26.0853C13.5001 26.0853 13.5001 26.0853 13.5001 26.0853Z" fill="#3DC8CA"/>
<path d="M13.5 26.0853C13.7018 27.3384 13.9035 28.5915 14.0947 29.8446C14.2434 28.5915 14.392 27.3384 14.5407 26.0853C14.3708 26.0853 14.1903 26.0853 14.0204 26.0853C13.8504 26.0853 13.6805 26.0853 13.5 26.0853Z" fill="#2AA4B3"/>
<path d="M10.8345 30.7473C10.9518 30.7473 11.0469 30.6522 11.0469 30.5349C11.0469 30.4176 10.9518 30.3225 10.8345 30.3225C10.7172 30.3225 10.6221 30.4176 10.6221 30.5349C10.6221 30.6522 10.7172 30.7473 10.8345 30.7473Z" fill="#29224B"/>
<path d="M11.7053 30.5349C11.8226 30.5349 11.9177 30.4398 11.9177 30.3225C11.9177 30.2052 11.8226 30.1101 11.7053 30.1101C11.588 30.1101 11.4929 30.2052 11.4929 30.3225C11.4929 30.4398 11.588 30.5349 11.7053 30.5349Z" fill="#29224B"/>
<path d="M14.6257 28.8251C14.743 28.8251 14.8381 28.7301 14.8381 28.6128C14.8381 28.4955 14.743 28.4004 14.6257 28.4004C14.5084 28.4004 14.4133 28.4955 14.4133 28.6128C14.4133 28.7301 14.5084 28.8251 14.6257 28.8251Z" fill="#29224B"/>
<path d="M10.7282 30.5561C10.7176 30.5137 10.5158 29.5791 11.1955 28.8145L11.2273 28.772H11.2804C11.7902 28.8145 11.8114 30.0676 11.8114 30.3119H11.599C11.599 29.8234 11.5034 29.1013 11.3017 28.9951C10.7494 29.6747 10.93 30.4924 10.93 30.503L10.7282 30.5561Z" fill="#2E1F4B"/>
<path d="M11.4101 26.3608L11.0916 26.363L11.1086 28.8904L11.4272 28.8883L11.4101 26.3608Z" fill="#2E1F4B"/>
<path d="M14.5118 26.0687L14.3003 26.0875L14.5257 28.6154L14.7372 28.5966L14.5118 26.0687Z" fill="#2E1F4B"/>
<path d="M11.1001 31.4269C11.1001 31.5224 11.0257 31.5968 10.9302 31.5968C10.8346 31.5968 10.7603 31.5224 10.7603 31.4269C10.7603 31.3313 10.8346 31.257 10.9302 31.257C11.0257 31.257 11.1001 31.3313 11.1001 31.4269Z" fill="white"/>
<path d="M10.9302 32.0747C11.024 32.0747 11.1001 31.9986 11.1001 31.9047C11.1001 31.8109 11.024 31.7348 10.9302 31.7348C10.8363 31.7348 10.7603 31.8109 10.7603 31.9047C10.7603 31.9986 10.8363 32.0747 10.9302 32.0747Z" fill="white"/>
<path d="M10.9302 32.5525C11.024 32.5525 11.1001 32.4765 11.1001 32.3826C11.1001 32.2888 11.024 32.2127 10.9302 32.2127C10.8363 32.2127 10.7603 32.2888 10.7603 32.3826C10.7603 32.4765 10.8363 32.5525 10.9302 32.5525Z" fill="white"/>
<path d="M12.077 26.2339L13.5 26.0853L14.1478 30.1207L12.0027 30.3224L12.077 26.2339Z" fill="white"/>
<path d="M11.9176 30.3223C12.0769 30.1843 12.3955 29.94 12.8628 29.8126C13.5424 29.6427 14.1052 29.8444 14.2964 29.9188C14.5513 30.6091 14.7955 31.3312 15.0185 32.0639C16.4946 36.9383 16.8345 41.5259 16.6752 45.4445C15.6557 45.6038 15.3371 45.6888 15.3371 45.6888C15.3371 45.6888 14.4345 33.4657 13.7867 32.563C13.1283 31.6604 13.2238 32.0639 13.2238 32.2232C13.2238 32.3825 13.107 42.6941 11.2486 46.0286C10.5689 45.9861 10.1335 46.0286 10.1335 46.0286L11.5459 32.5099C11.6628 31.7878 11.7902 31.0551 11.9176 30.3223Z" fill="#F3D651"/>
<path d="M19.7123 32.9668L7.10693 38.3828C6.75649 38.5314 6.36356 38.3722 6.20427 38.0217L6.0556 37.6713C5.90692 37.3208 6.06622 36.9279 6.41666 36.7686L19.022 31.3526C19.3725 31.204 19.7654 31.3633 19.9247 31.7137L20.0734 32.0641C20.222 32.4146 20.0628 32.8181 19.7123 32.9668Z" fill="#2E1F4B"/>
<path d="M7.48926 36.4499L7.71227 38.3402H7.7866V37.8305L8.08395 38.3402L8.15829 38.2659V37.8836L8.47687 38.011V37.703C8.47687 37.703 8.48749 36.9597 8.61493 37.2251C8.74236 37.5013 8.74236 37.5012 8.74236 37.5012L8.8167 37.0871L8.49811 35.9827L7.48926 36.4499Z" fill="#FFB1A1"/>
<path d="M16.4521 33.4234L16.4946 33.3596L16.9406 33.6145L16.6433 33.1048L16.7495 33.0729L17.0787 33.2641L17.1318 32.9242L17.3973 33.0835C17.3973 33.0835 18.0451 33.4446 17.8752 33.2003C17.7053 32.9561 17.7053 32.9561 17.7053 32.9561L18.0982 33.0941C18.1831 33.2534 18.2575 33.4127 18.3424 33.572C17.9707 33.7207 17.6097 33.8694 17.238 34.0287C16.9725 33.8269 16.707 33.6251 16.4521 33.4234Z" fill="#FFB1A1"/>
<path d="M7.19202 36.0782L7.1814 36.6092L8.74247 35.9508L8.77433 35.5897L7.19202 36.0782Z" fill="#3DC8CA"/>
<path d="M48.4383 23.4518C48.4383 23.4518 47.663 24.0358 47.8967 25.4907C48.1303 26.9456 48.7144 25.427 48.7993 25.1084C48.8737 24.7898 48.9799 23.0164 48.4383 23.4518Z" fill="#FFB1A1"/>
<path d="M47.8859 24.5456C47.8859 24.5456 46.7921 23.3137 48.5337 22.8464C48.8629 22.3792 49.3833 22.5066 49.4895 22.9526C49.5957 23.3986 49.7231 25.1084 49.7231 25.1084L48.8098 25.0234C48.8098 25.0234 48.9585 23.6429 48.6399 23.3986C48.3107 23.1438 47.8859 24.5456 47.8859 24.5456Z" fill="#153441"/>
<path d="M47.2488 30.365H45.9851L46.4736 28.0181L47.3656 27.8164L47.2488 30.365Z" fill="#EFD36B"/>
<path d="M45.6876 45.6148H45.146V46.4325H45.6876V45.6148Z" fill="#FCB69E"/>
<path d="M43.9885 47.1865H45.8469V46.4325L45.146 46.2945C45.146 46.2945 44.4876 46.7724 44.169 46.8573C43.8504 46.9317 43.9885 47.1865 43.9885 47.1865Z" fill="#2A1E3F"/>
<path d="M53.0058 44.617L52.552 44.9126L52.9983 45.5978L53.4521 45.3022L53.0058 44.617Z" fill="#FCB69E"/>
<path d="M52.0911 46.7511C52.3991 46.7511 52.7177 46.7511 53.0256 46.7511C53.1849 46.6874 53.461 46.56 53.7053 46.2945C53.854 46.1352 53.9389 45.9759 54.0026 45.8485C53.992 45.7741 53.9602 45.6786 53.9071 45.5724C53.8115 45.3812 53.6734 45.2644 53.5885 45.2113C53.3655 45.2963 53.1425 45.3918 52.9301 45.4768C52.8982 45.7317 52.8133 45.9016 52.6964 46.0078C52.4628 46.2308 52.1548 46.1671 52.0487 46.3688C51.9849 46.4963 52.038 46.6449 52.0911 46.7511Z" fill="#2A1E3F"/>
<path d="M46.2082 30.2164C46.2082 30.2164 43.8719 36.6518 44.955 45.8058C45.6135 45.9014 46.1338 45.8908 46.1338 45.8908L47.1745 36.4607L48.0772 36.5987V37.0978C48.0772 37.0978 49.6276 42.4819 52.3887 45.2961C52.9834 44.8182 53.4507 44.4572 53.4507 44.4572C53.4507 44.4572 51.2206 41.5687 50.9976 36.4819C50.7746 31.3951 49.2241 28.9208 49.2241 28.9208L47.4931 30.3544L46.2082 30.2164Z" fill="#161131"/>
<path d="M39.6664 27.5827L38.2859 26.7119C38.2859 26.7119 38.3708 26.4889 38.3921 26.5102C38.4027 26.5208 38.3921 26.2978 38.3921 26.2978H38.5195L38.6363 26.1279L38.9655 26.2978L38.9549 26.0323L38.9868 25.8305C38.9868 25.8305 39.3903 26.4783 39.9638 26.7119C39.8682 26.9668 39.6664 27.5827 39.6664 27.5827Z" fill="#FFB1A1"/>
<path d="M47.8753 25.3633C47.8753 25.3633 48.1408 25.5119 49.0753 25.0978C49.3089 25.5756 49.6063 26.2234 49.893 27.0093C50.0417 27.4341 50.4664 28.6341 50.7956 30.4819C51.0293 31.8305 51.2735 33.8376 51.1886 36.3757C50.1372 36.6518 48.9054 36.8642 47.5248 36.9492C46.6646 37.0023 46.1974 36.9704 46.1974 36.9704L47.3762 28.2093C47.3762 28.2093 42.9372 30.5456 39.592 27.8376C39.7938 27.2748 39.9637 26.7119 39.9637 26.7119C40.6434 26.9456 42.7142 27.604 44.8487 27.1367C45.5071 26.988 46.6328 26.7438 47.5461 25.788C47.6841 25.6075 47.8009 25.4588 47.8753 25.3633Z" fill="#3BC8CF"/>
<path d="M48.1726 24.2163C48.2078 24.2163 48.2363 24.1878 48.2363 24.1526C48.2363 24.1174 48.2078 24.0889 48.1726 24.0889C48.1374 24.0889 48.1089 24.1174 48.1089 24.1526C48.1089 24.1878 48.1374 24.2163 48.1726 24.2163Z" fill="#153441"/>
<path d="M48.6188 24.1526C48.6481 24.1526 48.6719 24.1289 48.6719 24.0995C48.6719 24.0702 48.6481 24.0464 48.6188 24.0464C48.5894 24.0464 48.5657 24.0702 48.5657 24.0995C48.5657 24.1289 48.5894 24.1526 48.6188 24.1526Z" fill="#153441"/>
<path d="M48.2151 24.5562L48.5018 24.6093C48.5018 24.6093 48.3744 24.8641 48.2151 24.5562Z" fill="#F24644"/>
<path d="M48.3744 24.45C48.3803 24.45 48.385 24.3977 48.385 24.3332C48.385 24.2686 48.3803 24.2163 48.3744 24.2163C48.3685 24.2163 48.3638 24.2686 48.3638 24.3332C48.3638 24.3977 48.3685 24.45 48.3744 24.45Z" fill="#153441"/>
</svg>
