<svg width="350" height="70" viewBox="0 0 350 70" fill="none" xmlns="http://www.w3.org/2000/svg">
<path d="M53.4127 39.853C53.4127 43.4833 53.396 47.1137 53.396 50.7441C53.396 51.7813 53.4127 52.8353 53.396 53.8725C53.396 54.2239 53.4963 54.3577 53.8477 54.3242C54.199 54.2908 54.5503 54.3075 54.9184 54.3242C55.688 54.3577 56.056 54.7425 56.0393 55.5121C56.0058 57.0345 55.4203 58.2892 54.3328 59.3432C54.2157 59.4603 54.0819 59.5607 53.9648 59.6778C53.9648 59.6778 53.9648 59.7112 53.9815 59.8116C54.7344 59.8116 55.4872 59.8116 56.24 59.8116C56.675 59.8116 57.2104 59.7614 57.1936 60.4139C57.1769 61.0496 56.6583 60.9827 56.2066 60.9827C40.514 60.9827 24.8382 60.9827 9.1457 60.9827C8.40959 60.9827 7.69021 60.9827 6.9541 60.9827C6.56931 60.9827 6.21799 60.8656 6.21799 60.4139C6.20126 59.912 6.56932 59.8116 6.98756 59.8116C7.35561 59.8116 7.72367 59.8116 8.24229 59.8116C7.4058 59.0922 6.80353 58.3896 6.43548 57.5196C6.1678 56.8839 6.0005 56.2147 6.0005 55.5121C5.98377 54.7592 6.38529 54.3577 7.13813 54.3242C7.20505 54.3242 7.25524 54.3242 7.32216 54.3242C8.66054 54.3075 8.66054 54.3075 8.66054 53.0026C8.66054 46.7289 8.66054 40.4385 8.66054 34.1649C8.66054 33.847 8.64381 33.5459 8.62708 33.228C8.47651 32.9938 8.42632 32.7261 8.42632 32.4584C8.42632 30.752 8.40959 29.0455 8.44305 27.3224C8.47651 25.8836 9.12897 24.93 10.2666 24.5452C10.6012 24.4281 10.9525 24.3947 11.3206 24.3947C12.1905 24.3947 13.0772 24.3947 13.9471 24.3947C14.6331 24.3779 14.7 24.3277 14.7 23.6251C14.7 20.413 14.7167 17.2009 14.7 13.9887C14.7 13.3363 14.8171 12.7173 14.884 12.0648C15.0346 11.0778 15.5867 10.442 16.5403 10.1576C16.6239 10.1242 16.7076 10.1242 16.7912 10.1242C20.6391 9.95687 24.5036 10.0071 28.3515 10.0071C33.8723 10.0071 39.4099 10.0071 44.9307 10.0071C45.5832 10.0071 46.1687 10.1242 46.6539 10.5926C47.1892 11.0945 47.39 11.7135 47.39 12.4496C47.3732 15.9461 47.39 19.4594 47.39 22.9559C47.39 23.1399 47.39 23.324 47.39 23.5247C47.39 24.3779 47.4234 24.4114 48.2599 24.4114C48.2934 24.4114 48.3436 24.4114 48.377 24.4114C50.2006 24.3947 49.9831 24.5954 50.669 22.9726C51.1207 21.9354 52.0409 21.5841 53.0948 22.0023C54.6172 22.5879 56.1062 23.2236 57.6119 23.8593C58.9837 24.4449 59.3518 25.2813 58.7997 26.6699C57.9967 28.6775 57.1434 30.6683 56.307 32.6759C55.5207 34.5831 54.7176 36.4903 53.9313 38.3975C53.6971 38.8492 53.6636 39.3846 53.4127 39.853Z" fill="#092D4B"/>
<path d="M14.8337 12.0648C14.8337 16.08 14.8337 20.1118 14.8504 24.127C14.8504 24.495 14.7333 24.5787 14.382 24.5787C13.3615 24.562 12.341 24.562 11.3205 24.5787C9.59729 24.5787 8.62696 25.549 8.62696 27.3056C8.61023 29.2798 8.61023 31.2706 8.5935 33.2447C8.24218 33.0272 8.10834 32.6759 7.94104 32.3078C7.50607 31.3375 7.1882 30.3337 6.98745 29.3132C6.78669 28.3262 6.53574 27.3056 6.68631 26.2684C6.70304 26.168 6.71977 26.0676 6.71977 25.9673C6.58593 24.5452 7.05436 23.2403 7.37223 21.8852C7.75702 20.2457 8.72734 18.9575 9.64748 17.6526C10.9022 15.8792 12.4748 14.3903 14.198 13.0853C14.5493 12.7842 14.7333 12.4663 14.8337 12.0648Z" fill="#F4F4F4"/>
<path d="M60.6735 60.9994C60.0713 60.9994 59.469 60.9994 58.8667 60.9994C58.4987 60.9994 58.1975 60.8489 58.1808 60.4306C58.1641 59.9789 58.4819 59.8283 58.8835 59.8283C60.1215 59.8283 61.3427 59.8283 62.5807 59.8283C62.9823 59.8283 63.3169 59.9622 63.3001 60.4139C63.2834 60.8489 62.9655 60.9994 62.564 60.9994C61.9116 60.9994 61.2925 60.9994 60.6735 60.9994Z" fill="#0D304E"/>
<path d="M42.4046 43.1153C42.0198 43.9852 42.1369 44.9054 42.1871 45.8255C42.2875 47.6993 42.3879 49.573 42.5217 51.4467C42.5552 51.9152 42.4213 52.0323 41.9529 52.0323C33.5044 52.0155 25.0558 52.0155 16.624 52.0323C16.0887 52.0323 15.9883 51.865 15.9883 51.3631C16.005 38.5146 16.005 25.6661 16.005 12.8177C16.005 11.5127 16.2225 11.2952 17.5274 11.2952C26.5782 11.2952 35.629 11.2952 44.6799 11.2952C45.7673 11.2952 46.035 11.5462 46.035 12.6671C46.035 19.7772 46.035 26.8874 46.035 33.9976C46.035 34.1983 46.0517 34.4325 45.968 34.6166C44.9475 37.0758 43.9103 39.5184 42.8898 41.9777C42.7225 42.1282 42.5217 42.1784 42.3042 42.1617C40.397 42.078 38.4731 42.1617 36.5659 42.1282C35.4617 42.1115 34.3576 42.1115 33.2534 42.1282C31.8983 42.145 30.5432 42.1784 29.2048 42.1115C28.2847 42.078 27.3645 42.078 26.4611 42.1115C24.4703 42.1617 22.4627 42.0446 20.4719 42.145C20.0703 42.1617 19.6856 42.1617 19.284 42.0948C19.0331 42.0613 18.7822 42.0446 18.5312 42.1115C18.3305 42.1617 18.0795 42.1784 18.0628 42.4461C18.0628 42.7305 18.297 42.7974 18.5479 42.8476C18.8323 42.8978 19.1335 42.8811 19.4179 42.8811C26.7121 42.8811 34.023 42.8811 41.3172 42.8811C41.6852 42.9145 42.07 42.8309 42.4046 43.1153Z" fill="#EFF0F1"/>
<path d="M8.84421 58.7576C7.89062 58.0884 7.38872 57.1516 7.18796 56.014C7.12105 55.5957 7.2047 55.4953 7.63967 55.4953C10.6678 55.5121 13.6791 55.4953 16.7072 55.4953C28.853 55.4953 41.0156 55.4953 53.1614 55.4953C53.3622 55.4953 53.5796 55.5121 53.7804 55.5121C53.9812 55.8968 53.7637 56.198 53.5964 56.4991C52.6595 58.1052 51.2207 58.9082 49.3972 59.0588C49.1128 59.0922 48.8117 59.0755 48.5273 59.0755C35.913 59.0755 23.2987 59.0755 10.6845 59.0755C10.032 59.0922 9.42976 59.0588 8.84421 58.7576Z" fill="#EFF0F1"/>
<path d="M52.2418 42.2621C52.2418 46.0597 52.2251 49.8574 52.2585 53.6551C52.2585 54.2071 52.1247 54.3577 51.5559 54.3577C40.8488 54.341 30.1585 54.341 19.4514 54.341C16.4401 54.341 13.4454 54.3242 10.4341 54.3577C9.94891 54.3577 9.79834 54.2573 9.79834 53.7387C9.81507 44.9221 9.81507 36.0888 9.81507 27.2722C9.81507 26.1513 10.25 25.7331 11.3709 25.7331C12.3747 25.7331 13.3785 25.7665 14.3823 25.7163C14.8842 25.6996 14.834 25.984 14.8507 26.3019C14.8675 26.6532 14.8507 26.8874 14.3656 26.8707C13.5124 26.8372 12.6591 26.8539 11.8059 26.8539C11.12 26.8539 10.9527 27.0212 10.9527 27.7072C10.9527 35.9048 10.9527 44.1023 10.9527 52.2999C10.9527 53.0695 11.0531 53.1699 11.8896 53.1699C18.9328 53.1699 25.9928 53.1699 33.036 53.1699C38.7074 53.1699 44.3788 53.1699 50.0502 53.1699C50.9871 53.1699 51.054 53.103 51.054 52.1661C51.054 49.9912 51.1042 47.8331 51.0373 45.6582C51.0038 44.3533 51.7232 43.3495 52.0912 42.2119C52.1414 42.2286 52.1916 42.2453 52.2418 42.2621Z" fill="#59A5F3"/>
<path d="M51.9073 28.1254C53.0784 28.6106 54.2495 29.1125 55.4373 29.5642C55.9057 29.7482 55.9726 29.9322 55.7719 30.3839C54.0822 34.4158 52.4092 38.4477 50.7362 42.4963C50.251 43.6506 49.7659 44.7883 49.3142 45.9594C49.1636 46.3274 48.9127 46.478 48.5781 46.5114C48.1933 46.5449 48.1933 46.1936 48.0929 45.9761C47.7416 45.2065 47.4739 45.0559 46.6876 45.4073C46.2192 45.6248 45.9348 45.5578 45.8177 45.0392C45.734 44.7213 45.55 44.4871 45.2823 44.2864C45.115 44.002 45.2656 43.751 45.366 43.5168C47.3903 38.6484 49.4146 33.7801 51.4221 28.9117C51.5225 28.6106 51.6229 28.3094 51.9073 28.1254Z" fill="#F05C4F"/>
<path d="M8.84448 58.7576C9.99884 58.9751 11.1699 58.8747 12.3243 58.8747C24.6039 58.8747 36.8836 58.8747 49.18 58.8747C51.3214 58.8747 53.2119 57.4862 53.7639 55.5121C55.0354 55.4284 55.0521 55.4619 54.6506 56.6831C54.0651 58.49 52.4757 59.6276 50.4682 59.6276C41.752 59.6276 33.0357 59.6276 24.3195 59.6276C20.0367 59.6276 15.7706 59.6276 11.4878 59.6276C10.5175 59.6443 9.61405 59.4101 8.84448 58.7576Z" fill="#D6D6D6"/>
<path d="M13.596 51.9821C12.0903 52.0825 12.0903 52.0825 12.0903 50.627C12.0903 43.383 12.0903 36.1222 12.0903 28.8782C12.0903 28.0585 12.0903 28.0418 12.9101 28.0418C13.1443 28.0418 13.3618 28.0585 13.596 28.0752C13.7968 28.3262 13.7968 28.6106 13.7968 28.9117C13.7968 36.323 13.7968 43.751 13.7968 51.1623C13.7968 51.4467 13.8302 51.7479 13.596 51.9821Z" fill="#EFF0F1"/>
<path d="M51.907 28.1254C50.4013 31.739 48.8956 35.3527 47.4067 38.9663C46.6873 40.7229 45.9679 42.4963 45.2652 44.2696C44.9139 44.1693 44.6128 44.3366 44.3116 44.4537C44.1276 44.5206 43.8934 44.7548 43.6926 44.4871C43.5086 44.2362 43.3246 44.0187 43.4919 43.6506C44.0105 42.4461 44.4957 41.2416 44.9976 40.0203C46.6538 36.0051 48.3435 32.0067 49.983 27.9916C50.1838 27.4729 50.4013 27.4228 50.8363 27.657C51.1709 27.841 51.5389 27.9748 51.907 28.1254Z" fill="#ED4536"/>
<path d="M13.5959 51.9821C13.5959 44.0187 13.5959 36.0386 13.5959 28.0752C14.834 27.9581 14.8507 27.9581 14.8507 29.1794C14.8507 36.507 14.8507 43.8514 14.8507 51.179C14.8507 52.0155 14.8507 52.0155 14.0477 51.9988C13.8971 51.9988 13.7465 51.9988 13.5959 51.9821Z" fill="#FDFDFD"/>
<path d="M42.4045 43.1153C34.575 43.1153 26.7287 43.1153 18.8992 43.1153C18.7151 43.1153 18.5144 43.1488 18.3303 43.0986C17.9957 43.0316 17.7448 42.8309 17.7615 42.4628C17.7615 42.145 18.0125 42.0613 18.2969 41.9609C18.849 41.7769 19.3676 42.0279 19.9029 41.9777C21.2581 41.8271 22.6299 41.9275 23.985 41.9275C25.3401 41.9275 26.712 41.9442 28.0671 41.9442C29.188 41.9275 30.3423 41.9275 31.4632 41.9442C32.8016 41.9442 34.14 41.9609 35.4784 41.9442C36.6495 41.9442 37.8373 41.9442 38.9916 41.9442C40.2798 41.9442 41.5847 41.8104 42.8897 41.9944C42.7726 42.3792 42.622 42.764 42.4045 43.1153Z" fill="#D7D7D7"/>
<path d="M53.7808 23.7422C54.9352 24.2106 56.0728 24.6791 57.2272 25.1475C57.6287 25.3148 57.7625 25.5658 57.5785 25.984C57.2439 26.787 56.8926 27.5901 56.5747 28.3931C56.4743 28.6273 56.374 28.711 56.123 28.6106C54.8683 28.0752 53.6135 27.5399 52.3588 27.0045C52.2417 26.7201 52.3923 26.4692 52.4926 26.235C52.7436 25.5992 52.9945 24.9635 53.2789 24.3445C53.3793 24.0768 53.463 23.8091 53.7808 23.7422Z" fill="#7ABD5D"/>
<path d="M44.9978 46.1099C45.4495 46.662 46.0183 46.8795 46.7042 46.6118C46.9385 46.5114 47.089 46.5282 47.1727 46.7958C47.2061 46.8962 47.2396 47.0133 47.3233 47.0635C48.143 47.6156 47.5575 47.9167 47.1392 48.2848C46.3362 48.9707 45.5499 49.6734 44.7469 50.376C44.429 50.2924 44.4792 50.0247 44.4959 49.8239C44.6298 48.7867 44.5294 47.716 44.7134 46.6787C44.7469 46.4612 44.6967 46.1936 44.9978 46.1099Z" fill="#FDD69F"/>
<path d="M44.9975 46.1099C44.847 46.9631 44.7131 47.8164 44.7968 48.6696C44.847 49.2384 44.4789 49.7905 44.7466 50.3593C44.4287 50.6604 44.0941 50.9616 43.6592 51.3631C43.5588 49.4893 43.4584 47.7662 43.3748 46.043C43.3748 45.9593 43.3915 45.8255 43.4249 45.8088C43.8097 45.7084 44.228 45.7419 44.6295 45.6248C44.8804 45.5578 44.8804 45.9426 44.9975 46.1099Z" fill="#FDC576"/>
<path d="M53.7807 23.7422C53.1617 24.7627 52.8103 25.9003 52.3586 27.0045C50.5853 26.4692 50.5853 26.4692 51.3047 24.7962C51.472 24.3947 51.6225 23.9932 51.8066 23.5916C51.9739 23.2069 52.2248 23.0396 52.643 23.257C53.0111 23.4243 53.3959 23.5749 53.7807 23.7422Z" fill="#41A600"/>
<path d="M48.2601 48.8703C48.7788 48.3684 49.2974 47.8833 49.8997 47.2977C49.8997 48.8536 49.8997 50.2756 49.8997 51.6977C49.8997 51.9486 49.7993 52.0155 49.5651 52.0155C49.2137 51.9988 48.8624 51.9988 48.5111 51.9821C48.2267 51.2292 48.2936 50.4429 48.2434 49.6734C48.2434 49.4057 48.2769 49.138 48.2601 48.8703Z" fill="#EEEFF0"/>
<path d="M48.2599 48.8703C48.4272 48.9372 48.561 49.0711 48.5108 49.2551C48.2599 50.1753 48.6614 51.0787 48.5275 51.9988C47.1892 52.0825 47.2728 52.0824 47.1557 50.811C47.0553 49.8072 47.5907 49.3388 48.2599 48.8703Z" fill="#FBFBFB"/>
<path d="M47.1723 31.4044C47.1723 30.4676 47.189 29.5307 47.1556 28.5938C47.1388 28.1756 47.256 28.0083 47.7077 28.025C48.6947 28.0418 48.6947 28.025 48.3267 28.9284C47.9753 29.7649 47.624 30.6014 47.2894 31.4379C47.2392 31.4212 47.2058 31.4044 47.1723 31.4044Z" fill="#F7F8F9"/>
<path d="M49.6318 25.7163C49.4645 26.1346 49.4478 26.7034 49.1132 26.787C48.5444 26.9209 47.9086 26.9041 47.3231 26.8038C47.0052 26.7536 47.2227 26.3019 47.1893 26.0175C47.1558 25.8167 47.2729 25.7163 47.4904 25.7163C48.1763 25.7331 48.8622 25.7163 49.6318 25.7163Z" fill="#58A4F1"/>
<path d="M45.9681 50.8612C46.0685 52.2665 46.1856 51.9988 44.7134 51.9821C45.1651 51.5806 45.5331 51.246 45.9681 50.8612Z" fill="#EAECEE"/>
<path d="M30.9615 38.0964C26.9129 38.0964 22.881 38.0964 18.8324 38.0964C18.6651 38.0964 18.4978 38.1131 18.3305 38.0796C18.0127 38.0294 17.7952 37.8287 17.745 37.5108C17.6948 37.193 17.9457 37.0424 18.1967 36.9253C18.3974 36.8249 18.5982 36.8416 18.8157 36.8416C26.9464 36.8416 35.077 36.8416 43.191 36.8416C43.2746 36.8416 43.3583 36.8416 43.4419 36.8416C43.8267 36.8918 44.245 37.0089 44.2282 37.4606C44.2115 37.9291 43.8434 38.0796 43.3917 38.0796C39.2595 38.0964 35.1105 38.0964 30.9615 38.0964Z" fill="#D8D8D8"/>
<path d="M31.0114 33.0942C26.9628 33.0942 22.9309 33.0942 18.8823 33.0942C18.3972 33.0942 17.8618 33.1109 17.7447 32.4919C17.6611 32.1071 18.1462 31.8394 18.8991 31.8394C27.013 31.8394 35.1102 31.8394 43.2242 31.8394C43.3413 31.8394 43.4751 31.8227 43.5922 31.8394C43.9603 31.8896 44.2447 32.0904 44.2279 32.4752C44.2112 32.8432 43.9435 33.0607 43.5588 33.0942C43.3915 33.1109 43.2242 33.0942 43.0569 33.0942C39.0584 33.0942 35.0433 33.0942 31.0114 33.0942Z" fill="#D8D8D8"/>
<path d="M31.0449 26.8372C35.1103 26.8372 39.1756 26.8372 43.2409 26.8372C43.358 26.8372 43.4919 26.8205 43.609 26.8372C43.9603 26.8707 44.1945 27.0882 44.2447 27.4228C44.2949 27.7741 44.0105 27.9414 43.7261 28.025C43.5588 28.0919 43.358 28.0752 43.174 28.0919C35.0433 28.0919 26.9127 28.0919 18.7987 28.0919C18.7151 28.0919 18.6314 28.0919 18.5478 28.0919C18.163 28.0418 17.7447 27.9246 17.7615 27.4729C17.7782 27.0045 18.1463 26.8539 18.598 26.8539C22.7469 26.8372 26.8959 26.8372 31.0449 26.8372Z" fill="#D8D8D8"/>
<path d="M27.8161 24.0266C26.2936 24.1437 26.2435 24.1605 25.7416 22.8221C25.4906 22.1696 25.1728 21.8852 24.4366 21.9521C23.483 22.0358 22.5127 22.0023 21.5591 21.9521C21.1241 21.9354 20.9234 22.1027 20.7895 22.4875C20.639 22.9225 20.4215 23.324 20.2542 23.7422C20.1705 23.9597 20.0534 24.0601 19.8025 24.0768C18.4474 24.1772 18.4474 24.1772 18.9995 22.9392C20.1036 20.5134 21.2078 18.1043 22.2785 15.6617C22.496 15.1766 22.7971 15.1933 23.1986 15.1766C23.6002 15.1598 23.8511 15.2435 24.0519 15.6617C25.2062 18.2716 26.394 20.848 27.5651 23.4411C27.6488 23.6251 27.7157 23.7924 27.8161 24.0266Z" fill="#092D4B"/>
<path d="M36.6828 24.0768C34.6753 24.0768 32.6844 24.0768 30.6768 24.0768C30.2084 24.0768 29.7734 23.9597 29.7734 23.4578C29.7734 22.9392 30.2419 22.8388 30.6936 22.8388C34.7255 22.8388 38.7741 22.8388 42.8059 22.8388C43.2744 22.8388 43.5922 23.0228 43.6257 23.4913C43.6592 24.0601 43.2074 24.0768 42.7892 24.0768C40.7649 24.0935 38.7239 24.0768 36.6828 24.0768Z" fill="#D8D8D8"/>
<path d="M24.7044 48.1175C22.6968 48.1175 20.706 48.1175 18.6984 48.1175C18.4475 48.1175 18.1965 48.1677 17.9958 47.9502C17.8619 47.7996 17.6779 47.6658 17.7783 47.4148C17.8619 47.1974 17.979 47.0301 18.2635 46.9966C18.6482 46.9464 19.0498 46.9966 19.4345 46.9966C21.7265 46.9297 24.0352 46.9966 26.3272 46.9631C27.8496 46.9464 29.3888 46.9464 30.9279 46.9966C31.3461 47.0133 31.5971 47.1806 31.5971 47.5654C31.5971 47.9 31.3127 48.1175 30.9614 48.1342C30.3591 48.151 29.7568 48.1342 29.1545 48.1342C27.6656 48.1175 26.1766 48.1175 24.7044 48.1175Z" fill="#D7D7D7"/>
<path d="M36.683 19.0746C38.724 19.0746 40.765 19.0746 42.8061 19.0746C43.241 19.0746 43.6426 19.1081 43.6258 19.6601C43.6091 20.1788 43.2243 20.1955 42.8228 20.1955C38.7742 20.1955 34.7256 20.1955 30.6937 20.1955C30.5933 20.1955 30.4762 20.2122 30.3758 20.1955C30.0412 20.1286 29.7736 19.9445 29.7903 19.5932C29.807 19.2419 30.0412 19.0746 30.426 19.0746C32.1157 19.0913 33.8054 19.0746 35.4951 19.0746C35.8967 19.0746 36.2814 19.0746 36.683 19.0746Z" fill="#D7D7D7"/>
<path d="M36.6827 16.3309C34.6584 16.3309 32.6341 16.3309 30.6098 16.3309C30.1916 16.3309 29.79 16.2975 29.79 15.8123C29.79 15.3271 30.1748 15.1933 30.6265 15.1933C34.7086 15.1933 38.8074 15.1933 42.8895 15.1933C43.291 15.1933 43.6256 15.2602 43.6423 15.7287C43.659 16.2473 43.3077 16.3142 42.8895 16.3142C40.815 16.3142 38.7405 16.3309 36.6827 16.3309Z" fill="#D7D7D7"/>
<path d="M21.5762 20.7308C22.1283 19.4594 22.6301 18.2716 23.1655 17.0336C23.5168 17.5355 23.6674 18.0541 23.8849 18.5392C24.1526 19.1248 24.3868 19.7271 24.6545 20.3126C24.8217 20.6639 24.7046 20.7308 24.37 20.7308C23.4666 20.7141 22.5632 20.7308 21.5762 20.7308Z" fill="#EEEFF0"/>
<path d="M106.542 17.8612C101.528 17.8612 98.7824 22.935 98.0362 25.4718C98.0362 27.1134 94.4548 28.1579 92.2163 27.2626C87.7203 25.4641 90.4703 14.8108 98.0362 10.6983C112.837 2.65328 123.106 14.2798 123.106 25.4718C123.106 29.9487 119.563 37.2796 115.944 39.7977C108.848 44.7343 111.4 50.9777 107.885 53.2282C104.371 55.4787 95.8651 53.2282 104.371 41.6005C109.296 36.2283 112.429 34.4376 114.668 27.7224C115.835 24.2201 112.81 17.8612 106.542 17.8612Z" fill="#638A99"/>
<ellipse cx="104.819" cy="59.5079" rx="4.02915" ry="3.13378" fill="#638A99"/>
<ellipse cx="118.249" cy="25.9316" rx="1.34305" ry="0.895367" fill="white" stroke="black" stroke-width="0.5"/>
<path d="M118.697 32.1992C117.623 32.1992 117.056 31.0054 116.906 30.4085C116.608 30.8561 116.011 32.0201 116.011 33.0946C116.727 33.8109 117.802 33.9899 118.249 33.9899C118.996 33.8407 120.846 33.5422 122.279 33.5422C123.174 34.4376 124.069 33.5422 124.517 33.0946C125.86 32.6469 124.069 32.1992 123.174 32.1992C123.174 31.1248 121.98 31.7515 121.383 32.1992H118.697Z" fill="#B5EAFF" stroke="black" stroke-width="0.3" stroke-linecap="round"/>
<path d="M105.714 29.9608C106.46 29.6623 108.4 29.9608 108.4 29.9608C108.4 30.11 108.187 30.7666 107.337 32.1992C105.411 31.1248 103.96 32.3484 103.476 33.0946V33.9899H102.58C102.282 34.2884 101.595 34.7958 101.237 34.4376C100.342 33.9899 101.237 32.1992 103.028 32.1992C103.386 31.1248 104.968 30.2593 105.714 29.9608Z" fill="#B5EAFF" stroke="black" stroke-width="0.3" stroke-linecap="round"/>
<path d="M101.17 17.8612C96.1561 17.8612 93.4103 22.935 92.6642 25.4718C92.6642 27.1134 89.0827 28.1579 86.8443 27.2626C82.3483 25.4641 85.0982 14.8108 92.6642 10.6983C107.465 2.65328 117.734 14.2798 117.734 25.4718C117.734 29.9487 114.191 37.2796 110.571 39.7977C103.476 44.7343 106.027 50.9777 102.513 53.2282C98.999 55.4787 90.493 53.2282 98.999 41.6006C103.923 36.2283 107.057 34.4376 109.296 27.7224C110.463 24.2201 107.438 17.8612 101.17 17.8612Z" fill="#B5EAFF"/>
<path fill-rule="evenodd" clip-rule="evenodd" d="M111.149 10.3376C115.754 13.7777 118.401 19.6911 118.401 25.4718C118.401 27.8531 117.469 30.9105 116.108 33.6645C114.748 36.4142 112.896 38.9922 110.952 40.3445C107.576 42.6931 106.505 45.3265 105.841 47.6998C105.734 48.0805 105.635 48.4695 105.537 48.856C105.335 49.6473 105.135 50.4283 104.881 51.1076C104.488 52.1612 103.918 53.12 102.873 53.7891C101.86 54.4377 100.525 54.7449 99.242 54.6606C97.9577 54.5762 96.6434 54.0916 95.7453 53.0548C94.8319 52.0001 94.4386 50.4782 94.8113 48.515C95.1808 46.5692 96.3046 44.156 98.4617 41.2073L98.4834 41.1776L98.5083 41.1505C99.6986 39.852 100.773 38.7698 101.749 37.7869C104.885 34.6297 107.002 32.4975 108.664 27.5117C109.165 26.0092 108.782 23.7603 107.472 21.8558C106.184 19.9818 104.054 18.5273 101.17 18.5273C98.9117 18.5273 97.1396 19.6643 95.8153 21.1572C94.5141 22.6241 93.6908 24.3885 93.3273 25.5802C93.2902 26.2029 92.9361 26.7084 92.501 27.0778C92.0403 27.469 91.4321 27.7615 90.7863 27.9562C89.5049 28.3427 87.8897 28.398 86.5972 27.881C85.2049 27.324 84.4254 26.0898 84.1394 24.6213C83.8558 23.1645 84.0384 21.419 84.596 19.6482C85.7111 16.1066 88.39 12.2636 92.3464 10.1131C99.9487 5.9808 106.5 6.8646 111.149 10.3376ZM110.351 11.4048C106.165 8.27771 100.181 7.37076 92.9826 11.2835C89.373 13.2455 86.8939 16.7854 85.8666 20.0482C85.3529 21.6796 85.2182 23.1917 85.447 24.3667C85.6735 25.53 86.2363 26.3019 87.092 26.6441C88.0379 27.0225 89.3327 27.0032 90.4016 26.6808C90.931 26.5212 91.358 26.3007 91.6388 26.0623C91.9202 25.8234 91.9984 25.62 91.9984 25.4718V25.3759L92.0255 25.2839C92.4211 23.9387 93.3363 21.9444 94.8187 20.2732C96.3074 18.595 98.4151 17.1952 101.17 17.1952C104.555 17.1952 107.071 18.9201 108.57 21.1011C110.049 23.2517 110.594 25.9333 109.928 27.933C108.16 33.2359 105.796 35.6134 102.598 38.8301C101.646 39.7872 100.621 40.8186 99.5152 42.0234C97.4341 44.8743 96.4372 47.0932 96.1201 48.7635C95.8052 50.4223 96.1632 51.5025 96.7523 52.1826C97.3568 52.8806 98.2963 53.2634 99.3294 53.3313C100.364 53.3994 101.41 53.144 102.154 52.6673C102.867 52.2112 103.295 51.5456 103.633 50.6413C103.863 50.0269 104.031 49.367 104.22 48.6244C104.322 48.2227 104.431 47.7967 104.558 47.3407C105.271 44.7956 106.472 41.839 110.191 39.251C111.867 38.0851 113.596 35.7387 114.913 33.0741C116.229 30.414 117.069 27.5675 117.069 25.4718C117.069 20.0606 114.581 14.5646 110.351 11.4048Z" fill="black"/>
<path fill-rule="evenodd" clip-rule="evenodd" d="M112.435 22.2766C112.476 22.0327 112.707 21.8679 112.951 21.9086C113.407 21.9847 114.114 22.1214 114.756 22.2858C115.077 22.3678 115.39 22.459 115.651 22.5557C115.782 22.604 115.906 22.6563 116.016 22.7126C116.119 22.7662 116.235 22.8364 116.327 22.929C116.502 23.1038 116.502 23.3873 116.327 23.5621C116.153 23.7369 115.869 23.7369 115.694 23.5621C115.695 23.5626 115.695 23.5625 115.694 23.5618C115.689 23.5582 115.665 23.539 115.605 23.5081C115.539 23.4741 115.451 23.4361 115.341 23.3954C115.121 23.3139 114.841 23.2316 114.534 23.1532C113.923 22.9968 113.242 22.8649 112.803 22.7918C112.56 22.7511 112.395 22.5205 112.435 22.2766Z" fill="black"/>
<path fill-rule="evenodd" clip-rule="evenodd" d="M113.643 29.3816C113.641 29.3827 113.64 29.383 113.641 29.382C113.467 29.5568 113.183 29.5568 113.008 29.3819C112.833 29.2071 112.833 28.9236 113.008 28.7488C113.239 28.5184 113.575 28.4532 113.831 28.4306C114.111 28.4059 114.423 28.4231 114.712 28.452C114.988 28.4796 115.262 28.5199 115.489 28.5534C115.503 28.5555 115.517 28.5575 115.53 28.5595C115.786 28.597 115.94 28.6177 116.011 28.6177C116.258 28.6177 116.459 28.8181 116.459 29.0654C116.459 29.3126 116.258 29.5131 116.011 29.5131C115.861 29.5131 115.63 29.4791 115.413 29.4472L115.4 29.4453C115.388 29.4435 115.375 29.4417 115.363 29.4398C115.132 29.4059 114.877 29.3683 114.623 29.343C114.353 29.316 114.106 29.3052 113.91 29.3225C113.724 29.3389 113.656 29.375 113.643 29.3816Z" fill="black"/>
<path fill-rule="evenodd" clip-rule="evenodd" d="M113.325 25.0363C113.325 24.789 113.525 24.5886 113.773 24.5886H116.011C116.258 24.5886 116.459 24.789 116.459 25.0363C116.459 25.2835 116.258 25.4839 116.011 25.4839H113.773C113.525 25.4839 113.325 25.2835 113.325 25.0363Z" fill="black"/>
<path d="M103.476 59.5079C103.476 61.2386 101.672 62.6417 99.4466 62.6417C97.2214 62.6417 95.4175 61.2386 95.4175 59.5079C95.4175 57.7772 97.2214 56.3741 99.4466 56.3741C101.672 56.3741 103.476 57.7772 103.476 59.5079Z" fill="#B5EAFF"/>
<path fill-rule="evenodd" clip-rule="evenodd" d="M99.4466 61.3095C101.267 61.3095 102.144 60.2108 102.144 59.5079C102.144 58.805 101.267 57.7062 99.4466 57.7062C97.6261 57.7062 96.7496 58.805 96.7496 59.5079C96.7496 60.2108 97.6261 61.3095 99.4466 61.3095ZM99.4466 62.6417C101.672 62.6417 103.476 61.2386 103.476 59.5079C103.476 57.7772 101.672 56.3741 99.4466 56.3741C97.2214 56.3741 95.4175 57.7772 95.4175 59.5079C95.4175 61.2386 97.2214 62.6417 99.4466 62.6417Z" fill="black"/>
<rect x="153.685" y="7.32236" width="38.0041" height="48.2254" transform="rotate(3.51123 153.685 7.32236)" fill="#B9B7B7"/>
<rect x="152.578" y="7.14397" width="37.721" height="48.4042" fill="white"/>
<rect x="162.075" y="12.024" width="8.70484" height="2.24215" fill="#D9D9D9"/>
<rect x="172.362" y="12.024" width="8.70484" height="2.24215" fill="#D9D9D9"/>
<rect x="162.075" y="17.1678" width="22.2897" height="1.31891" fill="#D9D9D9"/>
<rect x="163.394" y="39.1937" width="22.2897" height="1.31891" fill="#D9D9D9"/>
<rect x="173.021" y="35.8964" width="11.8702" height="1.18702" fill="#D9D9D9"/>
<rect x="158.25" y="17.1678" width="1.18702" height="1.31891" fill="#D9D9D9"/>
<rect x="162.075" y="20.7289" width="22.2897" height="1.31891" fill="#D9D9D9"/>
<rect x="163.394" y="42.7548" width="22.2897" height="1.31891" fill="#D9D9D9"/>
<rect x="158.25" y="20.7289" width="1.18702" height="1.31891" fill="#D9D9D9"/>
<rect x="162.075" y="24.29" width="22.2897" height="1.31891" fill="#D9D9D9"/>
<rect x="163.394" y="46.3158" width="22.2897" height="1.31891" fill="#D9D9D9"/>
<rect x="158.25" y="24.29" width="1.18702" height="1.31891" fill="#D9D9D9"/>
<rect x="162.075" y="27.851" width="22.2897" height="1.31891" fill="#D9D9D9"/>
<rect x="158.25" y="27.851" width="1.18702" height="1.31891" fill="#D9D9D9"/>
<circle cx="158.645" cy="43.678" r="2.90161" fill="#809BCC"/>
<path fill-rule="evenodd" clip-rule="evenodd" d="M161.062 41.6669L159.013 44.2229C158.956 44.2945 158.871 44.3389 158.78 44.3455C158.688 44.3521 158.598 44.3204 158.531 44.2579L157.46 43.2595L157.909 42.7771L158.721 43.5332L160.548 41.2544L161.062 41.6669Z" fill="white"/>
<path d="M176.517 46.6455C173.984 45.4321 175.462 43.7219 176.517 43.0184L177.506 42.6887L180.671 38.732H183.045L190.431 42.8865L189.442 49.0854C186.892 49.4591 181.436 50.2329 180.012 50.3384C178.231 50.4703 178.099 48.8876 178.495 48.1622C177.374 48.1622 176.517 47.3049 176.517 46.6455Z" fill="#D1A594"/>
<path d="M184.892 56.6033C186.422 57.2891 187.002 58.8674 187.068 59.373L189.046 57.9881C186.848 55.2404 182.003 50.0219 180.21 49.0195C181.265 53.3719 182.979 55.746 184.892 56.6033Z" fill="#E8A88C"/>
<path d="M177.374 36.4898C177.48 35.804 178.297 35.4567 178.693 35.3687C180.639 35.745 187.262 38.2368 189.178 39.2595C189.974 39.6841 190.365 40.0948 190.431 40.3147C191.289 41.5457 193.161 44.2187 193.795 45.0628C194.428 45.9069 194.63 47.0411 194.652 47.5027V55.0206L194.916 55.4822L188.321 58.4497C188.101 57.9002 187.451 56.7351 186.606 56.4714C185.762 56.2076 184.364 54.8227 183.771 54.1633L180.605 50.2065C179.88 48.7997 178.152 45.5903 177.044 44.0076C175.66 42.0293 175.857 40.8422 176.847 39.919C177.638 39.1804 179.287 39.875 180.012 40.3147C181.199 43.2383 184.074 49.0986 186.079 49.1514C188.084 49.2041 188.277 47.4588 188.123 46.5795L186.738 42.359C185.266 41.7215 182.135 40.341 181.397 39.919C180.474 39.3914 177.242 37.3471 177.374 36.4898Z" fill="#FFC0A4"/>
<path d="M194.586 54.9546L195.311 56.1416C192.497 57.4606 186.817 60.1116 186.606 60.1643C186.395 60.2171 186.255 59.7467 186.211 59.5049L194.586 54.9546Z" fill="#6067F5"/>
<path d="M180.078 41.8314C179.498 43.3086 178.078 43.59 177.44 43.546C177.308 43.3042 176.952 42.6228 176.583 41.8314C176.266 39.8267 178.034 39.8091 178.957 40.0509C179.177 40.4026 179.709 41.2511 180.078 41.8314Z" fill="#FFE5DA"/>
<path d="M179.023 36.292C180.025 36.9251 181.594 36.6877 182.254 36.4898L178.825 35.3687L178.231 35.6985C178.231 35.7424 178.389 35.9227 179.023 36.292Z" fill="#FFE5DA"/>
<path d="M174.077 35.7643L173.417 34.3135L175.66 36.4237L175.396 36.6216C175.286 36.5996 175.013 36.5292 174.802 36.4237C174.591 36.3182 174.231 35.9401 174.077 35.7643Z" fill="#FFDB33"/>
<path d="M175.039 34.7621L173.549 34.1958L175.797 36.2999L175.978 36.0241C175.949 35.9158 175.862 35.6482 175.743 35.4443C175.624 35.2404 175.224 34.9045 175.039 34.7621Z" fill="#FFDB33"/>
<path d="M175.57 37.6905L177.038 36.1212L189.766 48.0328C190.199 48.4383 190.222 49.1184 189.816 49.5518C189.411 49.9851 188.731 50.0076 188.297 49.6021L175.57 37.6905Z" fill="#514B4B"/>
<rect x="184.365" y="45.9065" width="2.14932" height="0.410975" transform="rotate(-46.8967 184.365 45.9065)" fill="#FFDB33"/>
<rect width="1.54409" height="1.1058" transform="matrix(0.69544 -0.718585 -0.718585 -0.69544 175.875 37.5695)" fill="#514B4B"/>
<rect x="176.517" y="38.5766" width="2.14932" height="0.410975" transform="rotate(-46.8967 176.517 38.5766)" fill="#FFDB33"/>
<path d="M186.211 60.2303L195.773 55.8119L199.268 63H187.134L186.211 60.2303Z" fill="#56567A"/>
<path d="M239 60.5H251C264.255 60.5 274.5 53.2548 274.5 40H215.5C215.5 53.2548 225.745 60.5 239 60.5Z" fill="#FBD6DD"/>
<path d="M219.5 45H270" stroke="black" stroke-linecap="round"/>
<path d="M227 58.5C241 64 258.5 62.5 268.5 54.5C252.5 61 234.5 51 230 48C226.165 45.4429 223 46 221.5 49.5C219.786 53.5 222.604 56.7731 227 58.5Z" fill="#FABCC7"/>
<path fill-rule="evenodd" clip-rule="evenodd" d="M263.182 7.53438C263.439 7.635 263.566 7.92504 263.466 8.1822L261.826 12.3728C261.725 12.6299 261.435 12.7568 261.178 12.6562C260.921 12.5556 260.794 12.2655 260.895 12.0084L262.095 8.94191L223.2 25.9581C222.947 26.0688 222.653 25.9534 222.542 25.7004C222.431 25.4474 222.547 25.1526 222.8 25.0419L261.694 8.02575L258.627 6.82582C258.37 6.7252 258.243 6.43516 258.344 6.178C258.444 5.92085 258.735 5.79396 258.992 5.89458L263.182 7.53438Z" fill="black"/>
<path fill-rule="evenodd" clip-rule="evenodd" d="M213.5 40C213.5 39.7239 213.724 39.5 214 39.5H217.5C217.776 39.5 218 39.7239 218 40C218 40.2761 217.776 40.5 217.5 40.5H214C213.724 40.5 213.5 40.2761 213.5 40Z" fill="black"/>
<path fill-rule="evenodd" clip-rule="evenodd" d="M220 40C220 39.7239 220.224 39.5 220.5 39.5H276C276.276 39.5 276.5 39.7239 276.5 40C276.5 40.2761 276.276 40.5 276 40.5H220.5C220.224 40.5 220 40.2761 220 40Z" fill="black"/>
<path d="M223 31.5C223 30.9477 223.448 30.5 224 30.5H231C231.552 30.5 232 30.9477 232 31.5V44.5C232 45.0523 231.552 45.5 231 45.5H224C223.448 45.5 223 45.0523 223 44.5V31.5Z" fill="#F77752"/>
<path fill-rule="evenodd" clip-rule="evenodd" d="M231 31.5H224V44.5H231V31.5ZM224 30.5C223.448 30.5 223 30.9477 223 31.5V44.5C223 45.0523 223.448 45.5 224 45.5H231C231.552 45.5 232 45.0523 232 44.5V31.5C232 30.9477 231.552 30.5 231 30.5H224Z" fill="black"/>
<path d="M230 28.5C230 27.9477 230.448 27.5 231 27.5H239C239.552 27.5 240 27.9477 240 28.5V44.5C240 45.0523 239.552 45.5 239 45.5H231C230.448 45.5 230 45.0523 230 44.5V28.5Z" fill="#2EC5CC"/>
<path fill-rule="evenodd" clip-rule="evenodd" d="M239 28.5H231V44.5H239V28.5ZM231 27.5C230.448 27.5 230 27.9477 230 28.5V44.5C230 45.0523 230.448 45.5 231 45.5H239C239.552 45.5 240 45.0523 240 44.5V28.5C240 27.9477 239.552 27.5 239 27.5H231Z" fill="black"/>
<path d="M236 24.5C236 23.9477 236.448 23.5 237 23.5H245C245.552 23.5 246 23.9477 246 24.5V44.5C246 45.0523 245.552 45.5 245 45.5H237C236.448 45.5 236 45.0523 236 44.5V24.5Z" fill="#F77752"/>
<path fill-rule="evenodd" clip-rule="evenodd" d="M245 24.5H237V44.5H245V24.5ZM237 23.5C236.448 23.5 236 23.9477 236 24.5V44.5C236 45.0523 236.448 45.5 237 45.5H245C245.552 45.5 246 45.0523 246 44.5V24.5C246 23.9477 245.552 23.5 245 23.5H237Z" fill="black"/>
<path d="M244 21.5C244 20.9477 244.448 20.5 245 20.5H253C253.552 20.5 254 20.9477 254 21.5V44.5C254 45.0523 253.552 45.5 253 45.5H245C244.448 45.5 244 45.0523 244 44.5V21.5Z" fill="#2EC5CC"/>
<path fill-rule="evenodd" clip-rule="evenodd" d="M253 21.5H245V44.5H253V21.5ZM245 20.5C244.448 20.5 244 20.9477 244 21.5V44.5C244 45.0523 244.448 45.5 245 45.5H253C253.552 45.5 254 45.0523 254 44.5V21.5C254 20.9477 253.552 20.5 253 20.5H245Z" fill="black"/>
<path d="M251 18.5C251 17.9477 251.448 17.5 252 17.5H261C261.552 17.5 262 17.9477 262 18.5V44.5C262 45.0523 261.552 45.5 261 45.5H252C251.448 45.5 251 45.0523 251 44.5V18.5Z" fill="#F77752"/>
<path fill-rule="evenodd" clip-rule="evenodd" d="M261 18.5H252V44.5H261V18.5ZM252 17.5C251.448 17.5 251 17.9477 251 18.5V44.5C251 45.0523 251.448 45.5 252 45.5H261C261.552 45.5 262 45.0523 262 44.5V18.5C262 17.9477 261.552 17.5 261 17.5H252Z" fill="black"/>
<path d="M266 15H260C259.724 15 259.5 15.2239 259.5 15.5V44.5C259.5 44.7761 259.724 45 260 45H266C266.276 45 266.5 44.7761 266.5 44.5V15.5C266.5 15.2239 266.276 15 266 15Z" fill="#2EC5CC" stroke="black"/>
<g clip-path="url(#clip0_613_116567)">
<rect x="280" y="46" width="14" height="21" rx="2" fill="#9CC4FF"/>
<path d="M337.692 29.0194C337.692 29.0194 331.039 26.7046 316.86 29.4716C312.474 30.3278 306.986 32.0597 301.07 33.5285L297.571 21.2628C297.604 21.2545 297.638 21.2457 297.673 21.2365C299.462 20.7746 305.447 19.1051 312.381 16.5179C318.642 14.1827 325.711 11.1405 330.911 5.24622L335.934 22.8579L337.692 29.0194Z" fill="#ED7D2B"/>
<path d="M335.934 22.8579C333.693 22.3253 327.048 21.2532 315.567 23.4784C311.099 24.3443 305.513 26.1099 299.489 27.6019L297.673 21.2365C299.462 20.7746 305.447 19.1051 312.381 16.5179C318.642 14.1827 325.711 11.1405 330.911 5.24622L335.934 22.8579Z" fill="#F99746"/>
<path d="M338.323 29.8413C338.121 29.8994 337.909 29.7817 337.851 29.5783L330.695 4.48858C330.637 4.28514 330.755 4.07302 330.957 4.01488C331.16 3.95666 331.372 4.07447 331.43 4.27791L338.586 29.3676C338.644 29.571 338.526 29.7831 338.323 29.8413Z" fill="#ED7D2B"/>
<path d="M293.902 35.6059L301.087 33.5457L297.585 21.2674L290.4 23.3277C290.108 23.4113 289.938 23.7192 290.021 24.0119L293.22 35.2261C293.303 35.5187 293.61 35.6897 293.902 35.6059Z" fill="#D66316"/>
<path d="M314.303 42.1212L307.923 42.1485L304.74 35.3887L303.563 32.8903L303.566 32.8893L309.384 31.0474L309.489 31.2841L310.57 33.7169L314.303 42.1212Z" fill="#F99746"/>
<path d="M324.5 63L318 65L306.5 39L311 35L324.5 63Z" fill="#ED7D2B"/>
<path d="M344.141 6.84299C344.286 7.01942 344.26 7.28212 344.084 7.42676L337.936 12.4814C337.76 12.626 337.498 12.6 337.353 12.4236C337.209 12.2472 337.235 11.9845 337.411 11.8398L343.559 6.78523C343.735 6.64059 343.997 6.66657 344.141 6.84299Z" fill="#F99746"/>
<path d="M347.771 19.8173C347.749 20.0443 347.545 20.2116 347.319 20.1892L339.407 19.4043C339.181 19.3818 339.014 19.1777 339.036 18.9506C339.058 18.7236 339.262 18.5562 339.489 18.5787L347.4 19.3636C347.627 19.3861 347.794 19.5902 347.771 19.8173Z" fill="#F99746"/>
<path d="M350.582 13.2663C350.622 13.4908 350.473 13.7078 350.249 13.7486L339.163 15.7705C338.939 15.8114 338.722 15.6611 338.681 15.4367C338.641 15.2122 338.791 14.9952 339.014 14.9543L350.101 12.9324C350.324 12.8916 350.541 13.0418 350.582 13.2663Z" fill="#F99746"/>
<path d="M296.786 45.4205C295.821 47.183 294.602 47.9597 294.602 47.9597L289.343 47.984C289.343 47.984 297.523 44.0759 296.786 45.4205Z" fill="#233862"/>
<path d="M293.033 58.9836C292.9 59.1428 292.886 59.318 292.957 59.5034C292.957 59.5041 292.958 59.5052 292.959 59.5059C293.09 59.8488 293.51 60.2263 293.997 60.6019C294.059 60.6502 294.114 60.694 294.163 60.7348C294.175 60.7455 294.188 60.7562 294.2 60.767C294.21 60.7752 294.219 60.7839 294.229 60.7919C294.683 61.1953 294.517 61.293 295.336 62.1137C296.27 63.0488 296.9 63.0535 297.078 62.9631C297.228 62.8861 296.91 62.3867 296.557 61.8252C296.54 61.7981 296.523 61.7708 296.506 61.7433C296.459 61.6687 296.412 61.5929 296.366 61.5179C295.952 60.8419 296.049 60.5191 296.123 59.4995C296.184 58.671 297.317 54.854 297.317 54.854L295.558 54.5863C295.558 54.5863 295.089 57.6171 294.517 58.0937C294.211 58.3479 293.862 58.3578 293.567 58.5475C293.546 58.5607 293.526 58.5742 293.506 58.5881C293.338 58.7043 293.167 58.8241 293.033 58.9836Z" fill="#FFB27D"/>
<path d="M293.033 58.9837C292.9 59.1429 292.886 59.3181 292.957 59.5035C292.957 59.5043 292.958 59.5054 292.959 59.506C293.118 59.848 293.528 60.2238 293.998 60.5984C294.06 60.6475 294.114 60.6926 294.163 60.7349C294.175 60.7456 294.188 60.7562 294.2 60.767C294.21 60.7753 294.219 60.784 294.229 60.7919C294.683 61.1954 294.517 61.2931 295.336 62.1138C296.27 63.0488 296.9 63.0535 297.078 62.9631C297.228 62.8861 296.91 62.3867 296.557 61.8253C296.378 61.7635 295.544 61.4433 294.903 60.6543C294.338 59.9612 293.952 59.0641 293.567 58.5477C293.546 58.5609 293.526 58.5743 293.506 58.5883C293.338 58.7044 293.167 58.8242 293.033 58.9837Z" fill="#233862"/>
<path d="M307.15 57.6079C307.269 58.1476 308.039 58.042 308.897 57.8141C309.754 57.5862 309.555 57.8409 310.779 57.6806C312.003 57.5205 312.365 57.0551 312.399 56.8718C312.429 56.7091 311.822 56.6639 311.17 56.6018C311.088 56.5942 311.006 56.5857 310.924 56.5772C310.188 56.4995 309.641 56.0358 308.967 55.6596C308.328 55.3032 307.356 53.8187 307.356 53.8187L305.676 53.9854C305.676 53.9854 306.585 55.3105 306.938 55.8874C307.146 56.2267 307.144 56.6809 307.126 57.032C307.117 57.2228 307.108 57.4178 307.15 57.6079Z" fill="#FFB27D"/>
<path d="M308.897 57.8141C309.754 57.5862 309.554 57.8409 310.778 57.6806C312.003 57.5205 312.365 57.0551 312.399 56.8718C312.429 56.7091 311.822 56.6639 311.17 56.6018L311.164 56.6145C311.164 56.6145 310.439 57.1512 309.418 57.1959C308.587 57.2326 307.7 57.0113 307.126 57.032C307.116 57.2227 307.108 57.4178 307.15 57.6078C307.269 58.1476 308.039 58.042 308.897 57.8141Z" fill="#233862"/>
<path d="M300.491 46.965L299.001 51.2331L297.057 56.806C297.057 56.806 296.501 56.8709 295.965 56.7278C295.47 56.5954 294.899 56.2346 294.899 56.2346C294.899 56.2346 295.352 50.2831 296.349 46.8522C296.604 45.9716 296.896 45.2575 297.225 44.8524C298.835 42.8689 300.491 46.965 300.491 46.965Z" fill="#233862"/>
<path d="M298.759 40.2676C297.722 39.9553 294.792 40.4406 291.851 41.0775L291.213 40.069L284.827 39.6965C284.827 39.6965 282.815 44.4096 284.026 47.3634C284.204 47.7976 284.517 48.0305 285.091 48.0284C285.091 48.0287 285.444 48.0097 285.444 48.01C285.444 48.01 289.007 47.9903 290.24 47.966C293.41 47.9033 296.907 45.651 297.363 45.5503C298.11 45.3854 298.439 46.8803 299.22 48.4414C300.001 50.0025 306.403 55.2811 306.403 55.2811C306.403 55.2811 307.371 55.2716 307.768 55.1136C308.195 54.9438 308.348 54.7309 308.348 54.7309C308.348 54.7309 301.097 40.9722 298.759 40.2676Z" fill="#2B478B"/>
<path d="M290.166 21.3362C289.682 21.0608 289.216 21.0287 288.934 21.0434C288.73 21.054 288.526 21.0386 288.324 21.0154C285.901 20.7381 284.516 24.282 284.452 25.3487C284.333 27.3151 283.301 27.6349 281.866 28.8932C278.987 31.4164 279.902 34.2641 281.523 35.2968C282.496 35.9165 284.177 35.2443 284.177 35.2443C284.201 35.2606 288.756 32.5748 291.002 31.2782C294.396 30.7265 291.549 22.1243 290.166 21.3362Z" fill="#233862"/>
<path d="M289.078 30.2504C289.088 30.2567 287.969 30.6642 287.208 30.3449C286.493 30.0453 285.933 28.8879 285.944 28.8872C286.266 28.8659 286.614 28.5765 286.851 26.7186L286.989 26.7653L289.315 27.5515C289.315 27.5515 289.162 28.2967 289.068 29.0051C288.988 29.6 288.95 30.169 289.078 30.2504Z" fill="#FFB27D"/>
<path d="M289.314 27.5517C289.314 27.5517 289.162 28.2968 289.067 29.0053C287.736 28.7925 287.19 27.4797 286.989 26.7654L289.314 27.5517Z" fill="#ED975D"/>
<path d="M289.673 28.2813C289.673 28.2813 286.505 27.9192 286.761 25.9475C287.016 23.9759 286.779 22.6012 288.813 22.7491C290.846 22.8969 291.141 23.7002 291.215 24.3791C291.29 25.058 290.503 28.3247 289.673 28.2813Z" fill="#FFB27D"/>
<path d="M291.079 23.3037C291.079 23.3037 289.091 25.0887 287.718 25.2566C286.345 25.4245 285.815 24.9927 285.815 24.9927C285.815 24.9927 286.613 24.3026 287.08 23.2051C287.217 22.8816 287.517 22.6555 287.866 22.6184C288.846 22.5141 290.708 22.4385 291.079 23.3037Z" fill="#233862"/>
<path d="M289.812 23.1725C289.812 23.1725 290.501 23.8141 290.724 24.2957C290.939 24.7605 291.023 25.8805 290.868 26.3291C290.868 26.3291 291.881 24.256 291.265 23.2706C290.611 22.2258 289.812 23.1725 289.812 23.1725Z" fill="#233862"/>
<path d="M291.831 34.8578C291.861 41.2629 291.904 39.9235 291.217 40.5449C291.051 40.6945 290.579 40.7911 289.956 40.8447C287.997 41.0138 284.544 40.7584 284.405 40.3982C283.928 39.1516 284.24 38.7553 283.825 36.8405C283.781 36.6368 283.728 36.4165 283.666 36.1767C283.325 34.8627 283.01 34.4196 284.085 32.2766C285.059 30.3354 286.08 28.7553 286.176 28.8097C288.878 30.3444 289.067 29.0058 289.067 29.0058C289.067 29.0058 291.816 31.7335 291.831 34.8578Z" fill="#9CC4FF"/>
<path d="M299.001 51.2331L297.057 56.8059C297.057 56.8059 296.501 56.8708 295.965 56.7277C295.47 56.5953 294.899 56.2345 294.899 56.2345C294.899 56.2345 295.352 50.283 296.349 46.8521L299.001 51.2331Z" fill="#2B478B"/>
<path d="M289.068 29.0052C289.068 29.0052 291.825 29.4174 292.171 30.5958C292.517 31.7741 294.554 38.7014 294.554 38.7014C294.554 38.7014 293.162 38.9803 292.503 38.3468C291.845 37.7134 290.139 32.3957 290.139 32.3957L289.068 29.0052Z" fill="#9CC4FF"/>
<path d="M289.956 40.8446C287.997 41.0137 284.544 40.7584 284.405 40.3981C283.928 39.1515 284.24 38.7552 283.824 36.8404L284.718 34.1551C284.718 34.1551 284.62 37.1277 285.51 37.8915C286.399 38.6553 289.121 39.3284 289.559 39.9726C289.77 40.2818 289.911 40.5932 289.956 40.8446Z" fill="#7DA6EF"/>
<path d="M287.684 39.64C287.684 39.64 289.61 39.1705 289.926 39.3362C290.241 39.502 291.017 40.1129 291.117 40.3288C291.216 40.5448 290.418 40.1772 290.16 40.1132C289.992 40.0718 289.557 40.233 289.342 40.3097C288.434 40.6324 287.872 40.4868 287.872 40.4868L287.684 39.64Z" fill="#FFB27D"/>
<path d="M286.174 28.8082C286.174 28.8082 283.58 29.0198 282.705 30.2933C281.474 32.0861 279.111 39.6696 280.57 40.6459C282.214 41.7454 287.953 40.7962 287.953 40.7962C287.953 40.7962 288.127 39.896 287.852 39.4677C287.577 39.0393 283.232 38.4245 283.028 38.2283C282.824 38.0321 285.45 34.2764 285.438 33.6761C285.426 33.0758 286.174 28.8082 286.174 28.8082Z" fill="#9CC4FF"/>
<path d="M290.03 39.8736C290.03 39.8736 290.446 40.3891 290.58 40.449C290.714 40.5089 290.8 40.4915 290.8 40.4915L290.517 40.0046L290.03 39.8736Z" fill="#FFB27D"/>
<path d="M289.926 39.3364L291.116 39.8861C291.116 39.8861 291.067 39.9692 290.922 39.9655C290.777 39.9617 290.408 39.8349 290.408 39.8349L289.926 39.3364Z" fill="#FFB27D"/>
<path d="M290.596 41.2511L299.919 41.0668L302.586 34.0287L293.277 34.2128L290.596 41.2511Z" fill="#F99746"/>
<path d="M300.023 40.7926L287.712 41.036L287.717 41.308L299.919 41.0668L300.023 40.7926Z" fill="#ED7D2B"/>
<path d="M297.497 37.6219C297.562 37.3751 297.417 37.1788 297.171 37.1837C296.926 37.1886 296.675 37.3925 296.609 37.6394C296.544 37.8862 296.689 38.0825 296.934 38.0776C297.18 38.0727 297.431 37.8687 297.497 37.6219Z" fill="white"/>
</g>
<defs>
<clipPath id="clip0_613_116567">
<rect width="70" height="70" fill="white" transform="translate(280)"/>
</clipPath>
</defs>
</svg>
