<svg width="10" height="14" viewBox="0 0 10 14" fill="none" xmlns="http://www.w3.org/2000/svg">
<path d="M10 3.49988C10 3.71408 9.91682 3.91952 9.76877 4.07098C9.62071 4.22245 9.41991 4.30754 9.21053 4.30754H7.36842C7.36668 5.44943 6.92251 6.54403 6.13326 7.35147C5.34401 8.15891 4.27406 8.61331 3.15789 8.61509H2.82895L7.11184 12.5928C7.26611 12.738 7.35816 12.9396 7.36801 13.1539C7.37787 13.3681 7.30473 13.5776 7.16447 13.737C7.02254 13.8948 6.82548 13.989 6.61608 13.9991C6.40668 14.0092 6.20185 13.9344 6.04605 13.7909L0.256579 8.40644C0.13975 8.29612 0.0578872 8.15254 0.021538 7.99419C-0.0148113 7.83585 -0.00398162 7.67 0.0526315 7.51801C0.109047 7.365 0.209893 7.23332 0.341616 7.14068C0.473339 7.04803 0.629626 6.99885 0.789474 6.99976H3.15789C3.85583 6.99976 4.52519 6.71611 5.0187 6.21123C5.51222 5.70634 5.78947 5.02156 5.78947 4.30754H0.789474C0.580092 4.30754 0.379286 4.22245 0.231231 4.07098C0.0831764 3.91952 0 3.71408 0 3.49988C0 3.28567 0.0831764 3.08024 0.231231 2.92877C0.379286 2.77731 0.580092 2.69221 0.789474 2.69221H5.26316C5.01803 2.35785 4.70018 2.08647 4.33477 1.89955C3.96936 1.71264 3.56643 1.61533 3.15789 1.61533H0.789474C0.580092 1.61533 0.379286 1.53024 0.231231 1.37877C0.0831764 1.2273 0 1.02187 0 0.807664C0 0.593458 0.0831764 0.388026 0.231231 0.236559C0.379286 0.085093 0.580092 0 0.789474 0H9.21053C9.41991 0 9.62071 0.085093 9.76877 0.236559C9.91682 0.388026 10 0.593458 10 0.807664C10 1.02187 9.91682 1.2273 9.76877 1.37877C9.62071 1.53024 9.41991 1.61533 9.21053 1.61533H6.44079C6.69924 1.94005 6.90777 2.30318 7.05921 2.69221H9.21053C9.41991 2.69221 9.62071 2.77731 9.76877 2.92877C9.91682 3.08024 10 3.28567 10 3.49988Z" fill="white"/>
</svg>
