<svg width="9" height="12" viewBox="0 0 9 12" fill="none" xmlns="http://www.w3.org/2000/svg">
<path d="M8.57143 2.9999C8.57143 3.1835 8.50013 3.35959 8.37323 3.48941C8.24633 3.61924 8.07421 3.69218 7.89474 3.69218H6.31579C6.3143 4.67094 5.93358 5.60917 5.25708 6.30126C4.58058 6.99335 3.66348 7.38283 2.70677 7.38436H2.42481L6.09586 10.7939C6.22809 10.9183 6.30699 11.0911 6.31544 11.2747C6.32389 11.4584 6.26119 11.638 6.14098 11.7746C6.01932 11.9099 5.85041 11.9906 5.67093 11.9992C5.49144 12.0079 5.31587 11.9437 5.18233 11.8207L0.219925 7.20552C0.119786 7.11096 0.0496176 6.98789 0.0184611 6.85217C-0.0126954 6.71644 -0.00341282 6.57429 0.0451127 6.44401C0.0934686 6.31286 0.179908 6.19999 0.292813 6.12058C0.405719 6.04117 0.53968 5.99902 0.676692 5.99979H2.70677C3.305 5.99979 3.87873 5.75667 4.30174 5.32391C4.72476 4.89115 4.96241 4.3042 4.96241 3.69218H0.676692C0.497222 3.69218 0.325103 3.61924 0.198198 3.48941C0.071294 3.35959 0 3.1835 0 2.9999C0 2.81629 0.071294 2.64021 0.198198 2.51038C0.325103 2.38055 0.497222 2.30761 0.676692 2.30761H4.51128C4.30117 2.02102 4.02873 1.7884 3.71552 1.62819C3.40231 1.46798 3.05694 1.38457 2.70677 1.38457H0.676692C0.497222 1.38457 0.325103 1.31163 0.198198 1.1818C0.071294 1.05197 0 0.875889 0 0.692284C0 0.508679 0.071294 0.332594 0.198198 0.202765C0.325103 0.0729369 0.497222 0 0.676692 0H7.89474C8.07421 0 8.24633 0.0729369 8.37323 0.202765C8.50013 0.332594 8.57143 0.508679 8.57143 0.692284C8.57143 0.875889 8.50013 1.05197 8.37323 1.1818C8.24633 1.31163 8.07421 1.38457 7.89474 1.38457H5.52068C5.7422 1.6629 5.92095 1.97415 6.05075 2.30761H7.89474C8.07421 2.30761 8.24633 2.38055 8.37323 2.51038C8.50013 2.64021 8.57143 2.81629 8.57143 2.9999Z" fill="black"/>
</svg>
