<svg width="45" height="25" viewBox="0 0 45 25" fill="none" xmlns="http://www.w3.org/2000/svg">
<path d="M17.9978 2.80835C17.2802 2.80835 16.8019 3.2867 16.8019 4.00424V5.20012H15.0081L13.3338 1.61246C13.2142 1.37328 13.0946 1.1341 12.8555 1.01451C12.2575 0.416568 11.3008 0.296979 10.4637 0.655746L9.62656 0.894924L8.78944 0.536157C7.95231 0.17739 6.9956 0.296979 6.39766 0.894924C6.15848 1.1341 6.03889 1.37328 5.9193 1.61246L4.24506 5.20012H2.45123V4.00424C2.45123 3.2867 1.97287 2.80835 1.25534 2.80835C0.537804 2.80835 0.0594482 3.2867 0.0594482 4.00424V5.20012C0.0594482 6.5156 1.13575 7.5919 2.45123 7.5919H16.8019C18.1174 7.5919 19.1937 6.5156 19.1937 5.20012V4.00424C19.1937 3.40629 18.7153 2.80835 17.9978 2.80835ZM0.0594482 24.3344V20.7467C0.0594482 17.5537 6.43353 15.9631 9.62656 15.9631C12.8196 15.9631 19.1937 17.5537 19.1937 20.7467V24.3344H0.0594482ZM16.9215 22.0622V20.7467C16.9215 19.9813 13.1783 18.2353 9.62656 18.2353C6.07477 18.2353 2.33164 19.9813 2.33164 20.7467V22.0622H16.9215ZM14.4101 8.78779V9.98368C14.4101 12.6266 12.2695 14.7672 9.62656 14.7672C6.98364 14.7672 4.843 12.6266 4.843 9.98368V8.78779H7.23478V9.98368C7.23478 10.618 7.48677 11.2264 7.93532 11.6749C8.38386 12.1235 8.99222 12.3755 9.62656 12.3755C10.2609 12.3755 10.8693 12.1235 11.3178 11.6749C11.7663 11.2264 12.0183 10.618 12.0183 9.98368V8.78779H14.4101Z" fill="black"/>
<path d="M37.9516 16.3343C37.79 16.3351 37.6299 16.3036 37.4806 16.2416C37.3314 16.1797 37.196 16.0885 37.0824 15.9735L31.3916 10.2335C31.2417 10.0023 31.1738 9.72754 31.1987 9.45316C31.2236 9.17878 31.3399 8.92071 31.529 8.7203C31.718 8.5199 31.9689 8.38877 32.2414 8.34794C32.5138 8.3071 32.7921 8.35893 33.0316 8.4951L37.9516 13.4151L42.8717 8.4951C43.1112 8.35893 43.3895 8.3071 43.6619 8.34794C43.9344 8.38877 44.1852 8.5199 44.3743 8.7203C44.5634 8.92071 44.6797 9.17878 44.7046 9.45316C44.7295 9.72754 44.6616 10.0023 44.5117 10.2335L38.7716 15.9735C38.5543 16.194 38.261 16.3231 37.9516 16.3343Z" fill="#6B62DC"/>
</svg>
