<svg width="16" height="70" viewBox="0 0 16 70" fill="none" xmlns="http://www.w3.org/2000/svg">
<path fill-rule="evenodd" clip-rule="evenodd" d="M7.06906 1.72394L0.92941 66.7979C0.795955 67.1379 0.778652 67.5032 0.879942 67.8426C0.981232 68.182 1.19602 68.4783 1.49413 68.69C1.79225 68.9018 2.15871 69.0182 2.54203 69.023C2.92536 69.0277 3.30629 68.9206 3.63131 68.7167L8.0619 67.4106L12.4888 68.3431C12.8133 68.5201 13.1943 68.5954 13.578 68.5584C13.9617 68.5214 14.329 68.374 14.628 68.1369C14.927 67.8997 15.1428 67.5848 15.2449 67.2365C15.3471 66.8882 15.3305 66.5239 15.1975 66.195L9.23088 1.63214C9.15168 1.03587 8.5082 0.764303 8.18624 0.777924C7.71935 0.797681 7.0698 1.17314 7.06906 1.72394Z" fill="#555555"/>
</svg>
