<svg width="60" height="60" viewBox="0 0 60 60" fill="none" xmlns="http://www.w3.org/2000/svg">
<path d="M0 30C0 13.4315 13.4315 0 30 0V0C46.5685 0 60 13.4315 60 30V30C60 46.5685 46.5685 60 30 60V60C13.4315 60 0 46.5685 0 30V30Z" fill="white"/>
<path d="M44.4353 21.4381C37.9664 21.9665 33.122 18.1724 31.5085 16.2093C27.867 20.9097 21.3366 21.6537 18.5266 21.4381V33.9461C18.5266 36.6156 21.1807 43.2893 31.5222 46C41.8857 43.3471 44.4491 36.8587 44.4353 33.9461V21.4381Z" fill="#FDB302"/>
<path fill-rule="evenodd" clip-rule="evenodd" d="M29.4492 14.2251C29.5454 14.2237 29.637 14.2662 29.6981 14.3405C31.3414 16.3387 36.3137 20.2309 42.9431 19.6897C43.0312 19.6825 43.1183 19.7125 43.1833 19.7724C43.2482 19.8322 43.2852 19.9166 43.2852 20.0049V33.0736C43.2999 36.2821 40.5011 43.1731 29.5465 45.9757C29.4945 45.989 29.4399 45.9889 29.388 45.9753C18.4574 43.1118 15.5648 36.0278 15.5648 33.0743V20.0049C15.5648 19.9168 15.6016 19.8327 15.6662 19.7729C15.7308 19.713 15.8175 19.6828 15.9053 19.6896C17.3369 19.7993 19.7385 19.6649 22.2489 18.8969C24.7581 18.1293 27.3521 16.7363 29.2038 14.3476C29.2627 14.2716 29.353 14.2265 29.4492 14.2251ZM29.4626 15.0362C27.528 17.3743 24.92 18.7414 22.434 19.5019C20.0309 20.237 17.7214 20.412 16.1974 20.3411V33.0743C16.1974 35.693 18.8415 42.528 29.4691 45.3424C40.1171 42.5886 42.6661 35.9471 42.6526 33.0758L42.6526 33.0743V20.3445C36.2336 20.7313 31.372 17.1615 29.4626 15.0362Z" fill="black"/>
<path fill-rule="evenodd" clip-rule="evenodd" d="M38.673 25.9172L28.0766 36.5137C27.9939 36.5964 27.8811 36.642 27.7642 36.6399C27.6472 36.6379 27.5361 36.5885 27.4562 36.5029L24.25 33.0666L24.8807 32.4781L27.7824 35.5879L38.0631 25.3073L38.673 25.9172Z" fill="white"/>
<path fill-rule="evenodd" clip-rule="evenodd" d="M36.8757 25.112L26.2793 35.7085C26.1965 35.7912 26.0838 35.8368 25.9668 35.8347C25.8498 35.8327 25.7387 35.7833 25.6589 35.6977L22.4526 32.2614L23.0834 31.6729L25.985 34.7827L36.2657 24.502L36.8757 25.112Z" fill="black"/>
</svg>
