<svg width="100" height="100" viewBox="0 0 100 100" fill="none" xmlns="http://www.w3.org/2000/svg">
<path opacity="0.3" d="M50 50.7778C52.5196 50.7778 54.9359 49.7944 56.7175 48.0441C58.4991 46.2938 59.5 43.9198 59.5 41.4444C59.5 38.9691 58.4991 36.5951 56.7175 34.8448C54.9359 33.0944 52.5196 32.1111 50 32.1111C47.4804 32.1111 45.0641 33.0944 43.2825 34.8448C41.5009 36.5951 40.5 38.9691 40.5 41.4444C40.5 43.9198 41.5009 46.2938 43.2825 48.0441C45.0641 49.7944 47.4804 50.7778 50 50.7778V50.7778ZM50 53.8889C46.6406 53.8889 43.4188 52.5778 41.0433 50.244C38.6679 47.9102 37.3333 44.7449 37.3333 41.4444C37.3333 38.144 38.6679 34.9787 41.0433 32.6449C43.4188 30.3111 46.6406 29 50 29C53.3594 29 56.5812 30.3111 58.9567 32.6449C61.3321 34.9787 62.6667 38.144 62.6667 41.4444C62.6667 44.7449 61.3321 47.9102 58.9567 50.244C56.5812 52.5778 53.3594 53.8889 50 53.8889ZM65.8333 69.4444V64.7778C65.8333 63.5401 65.3329 62.3531 64.4421 61.4779C63.5513 60.6028 62.3431 60.1111 61.0833 60.1111H38.9167C37.6569 60.1111 36.4487 60.6028 35.5579 61.4779C34.6671 62.3531 34.1667 63.5401 34.1667 64.7778V69.4444C34.1667 69.857 33.9999 70.2527 33.7029 70.5444C33.406 70.8361 33.0033 71 32.5833 71C32.1634 71 31.7607 70.8361 31.4637 70.5444C31.1668 70.2527 31 69.857 31 69.4444V64.7778C31 62.715 31.8341 60.7367 33.3187 59.2781C34.8034 57.8194 36.817 57 38.9167 57H61.0833C63.183 57 65.1966 57.8194 66.6813 59.2781C68.1659 60.7367 69 62.715 69 64.7778V69.4444C69 69.857 68.8332 70.2527 68.5363 70.5444C68.2393 70.8361 67.8366 71 67.4167 71C66.9967 71 66.594 70.8361 66.2971 70.5444C66.0001 70.2527 65.8333 69.857 65.8333 69.4444Z" fill="black"/>
</svg>
