<svg width="18" height="11" viewBox="0 0 18 11" fill="none" xmlns="http://www.w3.org/2000/svg">
<path d="M4.83329 2.5H0.666626V0.833333H4.83329V2.5ZM4.83329 5H0.666626V6.66667H4.83329V5ZM16.1583 10.8333L12.9666 7.64167C12.3 8.075 11.5166 8.33333 10.6666 8.33333C8.36663 8.33333 6.49996 6.46667 6.49996 4.16667C6.49996 1.86667 8.36663 0 10.6666 0C12.9666 0 14.8333 1.86667 14.8333 4.16667C14.8333 5.01667 14.575 5.8 14.1416 6.45833L17.3333 9.65833L16.1583 10.8333ZM13.1666 4.16667C13.1666 2.79167 12.0416 1.66667 10.6666 1.66667C9.29163 1.66667 8.16663 2.79167 8.16663 4.16667C8.16663 5.54167 9.29163 6.66667 10.6666 6.66667C12.0416 6.66667 13.1666 5.54167 13.1666 4.16667ZM0.666626 10.8333H8.99996V9.16667H0.666626V10.8333Z" fill="#585858"/>
</svg>
