<svg width="1100" height="50" viewBox="0 0 1100 50" fill="none" xmlns="http://www.w3.org/2000/svg">
<path d="M22.2348 34H28.4696M22.2348 34H20.1565C19.0542 34 17.9969 33.5621 17.2174 32.7826C16.4379 32.0031 16 30.9458 16 29.8435V23.3052C16 22.5905 16.1843 21.8879 16.535 21.2652C16.8858 20.6425 17.3912 20.1207 18.0024 19.7503L23.1981 16.6017C23.8477 16.2081 24.5927 16 25.3522 16C26.1118 16 26.8568 16.2081 27.5064 16.6017L32.702 19.7503C33.3131 20.1206 33.8184 20.6422 34.1692 21.2647C34.5199 21.8872 34.7043 22.5896 34.7044 23.3042V29.8435C34.7044 30.9458 34.2665 32.0031 33.487 32.7826C32.7075 33.5621 31.6503 34 30.5479 34H28.4696H22.2348ZM22.2348 34V29.8435C22.2348 29.0167 22.5633 28.2237 23.1479 27.6391C23.7325 27.0545 24.5254 26.726 25.3522 26.726V26.726C26.179 26.726 26.9719 27.0545 27.5566 27.6391C28.1412 28.2237 28.4696 29.0167 28.4696 29.8435V34H22.2348Z" stroke="black" stroke-width="1.5" stroke-linecap="round" stroke-linejoin="round"/>
<path d="M79.4146 25.7444C79.2199 25.7444 79.0332 25.8218 78.8955 25.9594C78.7579 26.0971 78.6806 26.2838 78.6806 26.4785C78.6806 26.6731 78.7579 26.8599 78.8955 26.9975C79.0332 27.1352 79.2199 27.2125 79.4146 27.2125H82.0571C82.2518 27.2125 82.4385 27.1352 82.5761 26.9975C82.7138 26.8599 82.7911 26.6731 82.7911 26.4785C82.7911 26.2838 82.7138 26.0971 82.5761 25.9594C82.4385 25.8218 82.2518 25.7444 82.0571 25.7444H79.4146ZM64 16.3489V31.4699C64 32.4432 64.3867 33.3768 65.075 34.065C65.7632 34.7533 66.6968 35.14 67.6701 35.14H82.0571C83.0305 35.14 83.964 34.7533 84.6523 34.065C85.3405 33.3768 85.7272 32.4432 85.7272 31.4699V21.1935C85.7272 20.3475 85.4349 19.5274 84.8999 18.872C84.3649 18.2167 83.62 17.7662 82.7911 17.5967V16.4957C82.7911 15.8338 82.5282 15.199 82.0601 14.731C81.5921 14.2629 80.9573 14 80.2954 14H66.4957C65.8592 13.9999 65.2467 14.2431 64.7835 14.6797C64.3204 15.1164 64.0416 15.7135 64.0041 16.3489H64ZM81.3231 16.4957V17.5233H66.4957C66.2231 17.5233 65.9618 17.4151 65.769 17.2223C65.5763 17.0296 65.4681 16.7682 65.4681 16.4957C65.4681 16.2231 65.5763 15.9618 65.769 15.769C65.9618 15.5763 66.2231 15.4681 66.4957 15.4681H80.2954C80.8633 15.4681 81.3231 15.9284 81.3231 16.4957ZM65.4681 18.9914H82.0571C82.6411 18.9914 83.2012 19.2234 83.6142 19.6364C84.0272 20.0493 84.2592 20.6094 84.2592 21.1935V31.4699C84.2592 32.0539 84.0272 32.614 83.6142 33.027C83.2012 33.4399 82.6411 33.6719 82.0571 33.6719H67.6701C67.0861 33.6719 66.526 33.4399 66.113 33.027C65.7001 32.614 65.4681 32.0539 65.4681 31.4699V18.9914Z" fill="black"/>
<path d="M136.333 28.6667C136.332 26.4398 135.687 24.2609 134.475 22.3925L133.272 23.5967C134.185 25.1302 134.667 26.8819 134.667 28.6667H136.333ZM134.667 19.845L133.488 18.6667L126.349 25.8058C125.841 25.4997 125.26 25.3365 124.667 25.3333C124.007 25.3333 123.363 25.5288 122.815 25.8951C122.267 26.2614 121.839 26.782 121.587 27.3911C121.335 28.0002 121.269 28.6704 121.397 29.317C121.526 29.9636 121.843 30.5575 122.31 31.0237C122.776 31.4899 123.37 31.8073 124.016 31.936C124.663 32.0646 125.333 31.9986 125.942 31.7463C126.551 31.494 127.072 31.0667 127.438 30.5186C127.804 29.9704 128 29.3259 128 28.6667C127.997 28.0732 127.834 27.4917 127.527 26.9833L134.667 19.845ZM124.667 30.3333C124.337 30.3333 124.015 30.2356 123.741 30.0525C123.467 29.8693 123.253 29.609 123.127 29.3045C123.001 28.9999 122.968 28.6648 123.032 28.3415C123.096 28.0182 123.255 27.7213 123.488 27.4882C123.721 27.2551 124.018 27.0963 124.342 27.032C124.665 26.9677 125 27.0007 125.304 27.1269C125.609 27.253 125.869 27.4666 126.052 27.7407C126.236 28.0148 126.333 28.337 126.333 28.6667C126.333 29.1086 126.157 29.5322 125.845 29.8447C125.532 30.1572 125.109 30.3329 124.667 30.3333ZM124.667 18.6667C126.451 18.6675 128.202 19.1494 129.736 20.0617L130.947 18.8509C129.187 17.7185 127.153 17.0817 125.061 17.0073C122.969 16.933 120.895 17.424 119.059 18.4285C117.222 19.4331 115.69 20.9141 114.624 22.7158C113.557 24.5174 112.997 26.5732 113 28.6667H114.667C114.67 26.0155 115.724 23.4737 117.599 21.599C119.474 19.7243 122.015 18.6698 124.667 18.6667Z" fill="black"/>
<path d="M171.143 16.4286C171.849 16.4286 172.54 16.638 173.127 17.0305C173.714 17.4229 174.172 17.9807 174.442 18.6333C174.713 19.2859 174.783 20.004 174.646 20.6968C174.508 21.3895 174.168 22.0259 173.668 22.5254C173.169 23.0249 172.532 23.365 171.84 23.5028C171.147 23.6406 170.429 23.5699 169.776 23.2996C169.124 23.0293 168.566 22.5715 168.173 21.9842C167.781 21.3969 167.571 20.7064 167.571 20C167.571 19.0528 167.948 18.1444 168.617 17.4746C169.287 16.8048 170.196 16.4286 171.143 16.4286ZM171.143 15C170.154 15 169.187 15.2932 168.365 15.8427C167.543 16.3921 166.902 17.173 166.523 18.0866C166.145 19.0002 166.046 20.0055 166.239 20.9755C166.432 21.9454 166.908 22.8363 167.607 23.5355C168.307 24.2348 169.198 24.711 170.167 24.9039C171.137 25.0969 172.143 24.9978 173.056 24.6194C173.97 24.241 174.751 23.6001 175.3 22.7779C175.85 21.9556 176.143 20.9889 176.143 20C176.143 18.6739 175.616 17.4021 174.678 16.4645C173.741 15.5268 172.469 15 171.143 15ZM178.286 35H176.857V31.4286C176.857 30.4814 176.481 29.573 175.811 28.9032C175.141 28.2334 174.233 27.8571 173.286 27.8571H169C168.053 27.8571 167.144 28.2334 166.475 28.9032C165.805 29.573 165.429 30.4814 165.429 31.4286V35H164V31.4286C164 30.1025 164.527 28.8307 165.464 27.893C166.402 26.9554 167.674 26.4286 169 26.4286H173.286C174.612 26.4286 175.884 26.9554 176.821 27.893C177.759 28.8307 178.286 30.1025 178.286 31.4286V35ZM178.286 16.4286H185.429V17.8571H178.286V16.4286ZM178.286 20H185.429V21.4286H178.286V20ZM178.286 23.5714H183.286V25H178.286V23.5714Z" fill="black"/>
<path d="M231.731 24.0473C231.866 23.9083 231.94 23.7222 231.938 23.529C231.937 23.3358 231.859 23.151 231.722 23.0143C231.586 22.8777 231.401 22.8002 231.208 22.7986C231.015 22.7969 230.829 22.8711 230.69 23.0054L225.316 28.3792L222.889 25.9527C222.75 25.8185 222.564 25.7442 222.371 25.7459C222.178 25.7476 221.993 25.8251 221.856 25.9617C221.72 26.0983 221.642 26.2831 221.641 26.4763C221.639 26.6695 221.713 26.8557 221.847 26.9946L225.316 30.4629L231.731 24.0473Z" fill="black"/>
<path fill-rule="evenodd" clip-rule="evenodd" d="M235.632 18.3684V33.8421C235.632 34.4284 235.399 34.9906 234.984 35.4052C234.57 35.8197 234.007 36.0526 233.421 36.0526H220.158C219.572 36.0526 219.01 35.8197 218.595 35.4052C218.18 34.9906 217.948 34.4284 217.948 33.8421V13.2105C217.948 12.6243 218.18 12.062 218.595 11.6474C219.01 11.2329 219.572 11 220.158 11H228.263L235.632 18.3684ZM228.263 19.1053C228.068 19.1053 227.88 19.0276 227.742 18.8894C227.604 18.7513 227.526 18.5638 227.526 18.3684V12.4737H220.158C219.963 12.4737 219.775 12.5513 219.637 12.6895C219.499 12.8277 219.421 13.0151 219.421 13.2105V33.8421C219.421 34.0375 219.499 34.2249 219.637 34.3631C219.775 34.5013 219.963 34.5789 220.158 34.5789H233.421C233.617 34.5789 233.804 34.5013 233.942 34.3631C234.08 34.2249 234.158 34.0375 234.158 33.8421V19.1053H228.263ZM229 13.8206L232.811 17.6316H229V13.8206Z" fill="black"/>
<path d="M216.474 15.4211V35.3158C216.474 35.9021 216.707 36.4643 217.121 36.8789C217.536 37.2934 218.098 37.5263 218.684 37.5263H232.684V39H218.684C217.707 39 216.77 38.6118 216.079 37.9209C215.388 37.23 215 36.2929 215 35.3158V15.4211H216.474Z" fill="black"/>
<path d="M284 35H266.5C264.5 35 264 33.3337 264 32.5V17.5C264 16.837 264.263 16.2011 264.732 15.7322C265.201 15.2634 265.837 15 266.5 15H279C279.663 15 280.299 15.2634 280.768 15.7322C281.237 16.2011 281.5 16.837 281.5 17.5V25M284 35C283.166 35 281.5 34.5 281.5 32.5V25M284 35C286 35 286.5 33.3337 286.5 32.5V25H281.5" stroke="black" stroke-width="1.5" stroke-linecap="round" stroke-linejoin="round"/>
<path d="M269 30H276.5M275.25 22.5C275.25 23.163 274.987 23.7989 274.518 24.2678C274.049 24.7366 273.413 25 272.75 25C272.087 25 271.451 24.7366 270.982 24.2678C270.513 23.7989 270.25 23.163 270.25 22.5C270.25 21.837 270.513 21.2011 270.982 20.7322C271.451 20.2634 272.087 20 272.75 20C273.413 20 274.049 20.2634 274.518 20.7322C274.987 21.2011 275.25 21.837 275.25 22.5V22.5Z" stroke="black" stroke-width="1.5" stroke-linecap="round" stroke-linejoin="round"/>
<path d="M330 23H333M336 23H333M333 23V20M333 23V26M314 33V32C314 30.1435 314.737 28.363 316.05 27.0503C317.363 25.7375 319.143 25 321 25V25C322.857 25 324.637 25.7375 325.95 27.0503C327.263 28.363 328 30.1435 328 32V33M321 25C322.061 25 323.078 24.5786 323.828 23.8284C324.579 23.0783 325 22.0609 325 21C325 19.9391 324.579 18.9217 323.828 18.1716C323.078 17.4214 322.061 17 321 17C319.939 17 318.922 17.4214 318.172 18.1716C317.421 18.9217 317 19.9391 317 21C317 22.0609 317.421 23.0783 318.172 23.8284C318.922 24.5786 319.939 25 321 25V25Z" stroke="black" stroke-width="1.5" stroke-linecap="round" stroke-linejoin="round"/>
<path d="M372.967 19.327C372.478 19.4226 371.943 19.7394 371.523 20.4822C371.478 20.5602 371.419 20.6288 371.348 20.6839C371.277 20.739 371.197 20.7796 371.11 20.8035C371.024 20.8273 370.933 20.8339 370.844 20.8228C370.755 20.8117 370.669 20.7832 370.591 20.739C370.513 20.6947 370.445 20.6354 370.39 20.5647C370.335 20.4939 370.294 20.413 370.27 20.3265C370.246 20.24 370.24 20.1497 370.251 20.0606C370.262 19.9716 370.29 19.8857 370.335 19.8077C370.937 18.748 371.793 18.1649 372.705 17.9874C373.554 17.8271 374.432 18.0039 375.152 18.4803C375.813 18.9173 376.347 19.6315 376.363 20.4877C376.381 21.3821 375.838 22.1892 374.835 22.7818C374.155 23.1833 373.89 23.4564 373.777 23.638C373.681 23.7909 373.66 23.9302 373.66 24.2416C373.66 24.4227 373.588 24.5963 373.46 24.7244C373.332 24.8524 373.158 24.9243 372.977 24.9243C372.796 24.9243 372.622 24.8524 372.494 24.7244C372.366 24.5963 372.294 24.4227 372.294 24.2416C372.294 23.8701 372.313 23.4086 372.618 22.917C372.904 22.4568 373.395 22.0471 374.14 21.6061C374.871 21.1732 375.003 20.7622 374.999 20.5164C374.992 20.2337 374.805 19.8882 374.398 19.6192C373.977 19.3405 373.464 19.2357 372.967 19.327ZM373.318 28.3382C373.59 28.3382 373.85 28.2303 374.042 28.0382C374.235 27.8462 374.342 27.5857 374.342 27.314C374.342 27.0424 374.235 26.7819 374.042 26.5899C373.85 26.3978 373.59 26.2899 373.318 26.2899C373.047 26.2899 372.786 26.3978 372.594 26.5899C372.402 26.7819 372.294 27.0424 372.294 27.314C372.294 27.5857 372.402 27.8462 372.594 28.0382C372.786 28.2303 373.047 28.3382 373.318 28.3382ZM372.977 14C371.429 13.9996 369.908 14.4041 368.565 15.1731C367.221 15.9422 366.103 17.0492 365.319 18.3842C364.536 19.7192 364.115 21.2359 364.099 22.7836C364.083 24.3314 364.472 25.8565 365.227 27.2075L364.142 30.0506C364.051 30.2869 364.029 30.5437 364.076 30.7923C364.123 31.0409 364.238 31.2716 364.408 31.4585C364.579 31.6454 364.798 31.7813 365.041 31.851C365.284 31.9207 365.542 31.9214 365.786 31.8531L369.182 30.9013C370.385 31.4697 371.7 31.7604 373.031 31.7519C374.362 31.7433 375.673 31.4357 376.869 30.8519C378.064 30.268 379.113 29.4229 379.938 28.3789C380.763 27.3349 381.343 26.1188 381.634 24.8205C381.926 23.5223 381.922 22.1752 381.622 20.8787C381.323 19.5823 380.736 18.3698 379.905 17.3308C379.073 16.2919 378.019 15.4531 376.82 14.8766C375.621 14.3 374.307 14.0004 372.977 14ZM365.466 22.876C365.467 21.2393 366.002 19.6476 366.991 18.3431C367.979 17.0386 369.367 16.0926 370.942 15.6492C372.518 15.2058 374.195 15.2892 375.719 15.8866C377.242 16.4841 378.529 17.563 379.383 18.9591C380.238 20.3552 380.612 21.9921 380.451 23.6208C380.289 25.2495 379.6 26.7808 378.488 27.9817C377.376 29.1826 375.902 29.9874 374.29 30.2736C372.679 30.5598 371.018 30.3117 369.56 29.5672L369.323 29.4443L365.417 30.5381L366.74 27.0751L366.566 26.7883C365.845 25.6108 365.464 24.2566 365.466 22.876ZM377.023 35.8487C375.745 35.8501 374.482 35.575 373.321 35.0423C372.16 34.5096 371.127 33.7319 370.295 32.7626C371.079 32.975 371.886 33.0928 372.698 33.1135C373.963 34.0069 375.474 34.4855 377.023 34.4831C378.255 34.4831 379.415 34.1868 380.44 33.6638L380.677 33.5409L384.583 34.6347L383.259 31.1717L383.434 30.8849C384.131 29.7461 384.533 28.4078 384.533 26.9727C384.536 25.4563 384.076 23.9751 383.217 22.7258C383.206 21.9135 383.098 21.1053 382.896 20.3184C383.841 21.1503 384.598 22.1742 385.115 23.3216C385.633 24.4691 385.9 25.7138 385.899 26.9727C385.899 28.5444 385.489 30.0219 384.771 31.3042L385.858 34.1472C385.948 34.3834 385.971 34.64 385.924 34.8885C385.877 35.1369 385.762 35.3674 385.592 35.5543C385.421 35.7412 385.202 35.8771 384.959 35.9469C384.716 36.0167 384.459 36.0177 384.215 35.9497L380.818 34.9979C379.667 35.5442 378.379 35.8487 377.022 35.8487H377.023Z" fill="black"/>
<path d="M420.408 24.8892C421.603 24.8478 422.732 24.3378 423.553 23.4695C424.374 22.6012 424.82 21.4446 424.794 20.25C424.82 19.6498 424.726 19.0504 424.519 18.4864C424.313 17.9224 423.996 17.4048 423.589 16.9634C423.181 16.522 422.69 16.1655 422.145 15.9144C421.599 15.6632 421.009 15.5224 420.408 15.5C419.807 15.5204 419.215 15.6597 418.667 15.9099C418.12 16.1602 417.627 16.5164 417.218 16.958C416.809 17.3996 416.491 17.9178 416.283 18.4829C416.075 19.0479 415.981 19.6485 416.007 20.25C415.985 21.4461 416.435 22.6027 417.258 23.4705C418.082 24.3383 419.213 24.8478 420.408 24.8892ZM420.408 17.495C420.748 17.515 421.081 17.6026 421.387 17.7525C421.692 17.9023 421.965 18.1116 422.189 18.3681C422.413 18.6245 422.584 18.923 422.691 19.2461C422.799 19.5692 422.841 19.9105 422.815 20.25C422.837 20.9189 422.599 21.5702 422.15 22.0665C421.7 22.5628 421.076 22.8652 420.408 22.91C419.741 22.8652 419.116 22.5628 418.667 22.0665C418.218 21.5702 417.98 20.9189 418.002 20.25C417.976 19.9105 418.018 19.5692 418.126 19.2461C418.233 18.923 418.404 18.6245 418.628 18.3681C418.852 18.1116 419.125 17.9023 419.43 17.7525C419.736 17.6026 420.069 17.515 420.408 17.495ZM431.793 25.4908C432.791 25.4537 433.734 25.0233 434.416 24.2937C435.098 23.564 435.464 22.5943 435.434 21.5958C435.469 20.5947 435.104 19.6209 434.422 18.8878C433.739 18.1547 432.794 17.7221 431.793 17.685C430.794 17.7262 429.853 18.1605 429.174 18.8932C428.495 19.6258 428.133 20.5973 428.167 21.5958C428.137 22.5916 428.501 23.5591 429.179 24.2883C429.858 25.0175 430.797 25.4496 431.793 25.4908ZM431.793 19.6642C432.267 19.7046 432.707 19.9295 433.018 20.2907C433.329 20.6518 433.486 21.1204 433.455 21.5958C433.482 22.0687 433.323 22.5332 433.012 22.8909C432.702 23.2485 432.265 23.4712 431.793 23.5117C431.318 23.4751 430.876 23.2541 430.563 22.896C430.249 22.5379 430.088 22.0712 430.114 21.5958C430.084 21.1178 430.243 20.647 430.557 20.2855C430.871 19.9239 431.315 19.7007 431.793 19.6642ZM431.682 27.47C430.742 27.4669 429.814 27.6811 428.971 28.0958C428.128 28.5106 427.392 29.1146 426.821 29.8608C426.041 28.9176 425.061 28.1596 423.952 27.6421C422.843 27.1245 421.632 26.8602 420.408 26.8683C418.33 26.8254 416.318 27.6018 414.807 29.0297C413.296 30.4576 412.408 32.4225 412.333 34.5H414.313C414.374 32.9431 415.051 31.4742 416.193 30.4148C417.336 29.3554 418.851 28.7918 420.408 28.8475C421.964 28.7919 423.478 29.3559 424.618 30.4158C425.758 31.4756 426.431 32.9445 426.488 34.5H428.468C428.472 33.5838 428.3 32.6752 427.961 31.8242C428.282 31.1086 428.805 30.5025 429.466 30.0806C430.128 29.6586 430.898 29.4391 431.682 29.4492C432.701 29.4105 433.695 29.7768 434.445 30.4679C435.196 31.1591 435.642 32.1191 435.688 33.1383V34.5H437.667V33.1383C437.621 31.5942 436.966 30.131 435.844 29.0687C434.723 28.0065 433.226 27.4317 431.682 27.47Z" fill="black"/>
<path fill-rule="evenodd" clip-rule="evenodd" d="M475.578 31.5H477.528C482.514 31.5 486.556 27.4584 486.556 22.4722C486.556 17.486 482.514 13.4444 477.528 13.4444H472.472C467.486 13.4444 463.444 17.486 463.444 22.4722C463.444 28.2933 466.764 31.7744 470.255 33.8732C472.007 34.9262 473.772 35.6066 475.105 36.0233C475.27 36.0746 475.428 36.1222 475.578 36.1656V31.5ZM477.022 38C477.022 38 476.47 37.9068 475.578 37.6656C471.815 36.6458 462 32.9806 462 22.4722C462 16.6887 466.689 12 472.472 12H477.528C483.311 12 488 16.6887 488 22.4722C488 28.2558 483.311 32.9444 477.528 32.9444H477.022V38Z" fill="black"/>
<path fill-rule="evenodd" clip-rule="evenodd" d="M477.666 16.6814C478.41 17.1754 478.97 17.9764 478.97 19.0503C478.97 20.19 478.511 21.0278 477.766 21.5406C477.472 21.7396 477.148 21.8894 476.805 21.984V23.0904C476.805 23.3778 476.691 23.6533 476.488 23.8565C476.285 24.0596 476.009 24.1738 475.722 24.1738C475.435 24.1738 475.159 24.0596 474.956 23.8565C474.753 23.6533 474.639 23.3778 474.639 23.0904V21.0704C474.639 20.7955 474.743 20.5309 474.931 20.3302C475.119 20.1294 475.376 20.0075 475.65 19.9892C476.05 19.9625 476.353 19.8831 476.536 19.7567C476.61 19.7076 476.67 19.6398 476.709 19.5602C476.753 19.4736 476.803 19.319 476.803 19.0496C476.803 18.8236 476.715 18.6509 476.466 18.4848C476.183 18.2971 475.728 18.1584 475.181 18.1411C474.641 18.1237 474.116 18.2292 473.73 18.4162C473.342 18.604 473.2 18.8149 473.16 18.9702C473.125 19.108 473.063 19.2375 472.977 19.3512C472.892 19.465 472.785 19.5609 472.663 19.6333C472.54 19.7057 472.405 19.7533 472.264 19.7734C472.123 19.7934 471.979 19.7855 471.842 19.7502C471.704 19.7148 471.574 19.6526 471.461 19.5672C471.347 19.4818 471.251 19.3748 471.178 19.2523C471.106 19.1299 471.058 18.9943 471.038 18.8535C471.018 18.7126 471.026 18.5692 471.062 18.4314C471.311 17.4629 472.035 16.8302 472.785 16.4669C473.536 16.1022 474.419 15.9484 475.25 15.9751C476.075 16.0011 476.956 16.2091 477.666 16.6814Z" fill="black"/>
<path d="M477.167 27.1667C477.167 27.5498 477.015 27.9172 476.744 28.188C476.473 28.4589 476.105 28.6111 475.722 28.6111C475.339 28.6111 474.972 28.4589 474.701 28.188C474.43 27.9172 474.278 27.5498 474.278 27.1667C474.278 26.7836 474.43 26.4162 474.701 26.1453C474.972 25.8744 475.339 25.7222 475.722 25.7222C476.105 25.7222 476.473 25.8744 476.744 26.1453C477.015 26.4162 477.167 26.7836 477.167 27.1667Z" fill="black"/>
<path d="M525.71 34.7182L532.508 27.857H531.073C530.897 27.857 530.725 27.8356 530.558 27.7941L525.037 33.3683L519.519 27.7941C519.349 27.836 519.176 27.8571 519.001 27.857H517.571L524.364 34.7182C524.736 35.0939 525.338 35.0939 525.71 34.7182ZM534.607 16.8759C535.462 17.7411 536.049 18.8352 536.297 20.0265C536.545 21.2178 536.443 22.4553 536.004 23.59C535.908 23.5773 535.812 23.5711 535.715 23.5714H534.445C534.925 22.6547 535.1 21.6094 534.947 20.5864C534.793 19.5634 534.318 18.6157 533.591 17.8801C533.153 17.432 532.63 17.0755 532.053 16.8314C531.476 16.5873 530.856 16.4605 530.229 16.4584C529.603 16.4562 528.982 16.5788 528.403 16.819C527.825 17.0592 527.299 17.4121 526.858 17.8573L525.5 19.233C525.433 19.3001 525.354 19.3534 525.267 19.3898C525.18 19.4262 525.086 19.445 524.992 19.445C524.898 19.445 524.804 19.4262 524.717 19.3898C524.63 19.3534 524.551 19.3001 524.484 19.233L523.113 17.8473C522.675 17.4 522.153 17.0441 521.577 16.8005C521.001 16.5568 520.382 16.4303 519.756 16.4282C519.131 16.426 518.511 16.5484 517.933 16.7881C517.355 17.0278 516.831 17.3801 516.39 17.8244C514.857 19.3729 514.592 21.73 515.602 23.5714H514.287C514.202 23.5714 514.116 23.5771 514.03 23.5857C513.57 22.4498 513.452 21.2041 513.691 20.0019C513.93 18.7998 514.515 17.6938 515.374 16.8202C515.948 16.2415 516.63 15.7827 517.382 15.4702C518.134 15.1577 518.941 14.9979 519.755 15C520.57 15.0021 521.376 15.1662 522.126 15.4826C522.877 15.799 523.557 16.2614 524.127 16.843L524.991 17.7144L525.843 16.853C526.417 16.2735 527.1 15.814 527.853 15.501C528.606 15.1881 529.414 15.028 530.229 15.0301C531.045 15.0322 531.852 15.1965 532.603 15.5134C533.355 15.8303 534.036 16.2934 534.607 16.8759ZM522.09 19.7244C522.036 19.5944 521.945 19.4833 521.828 19.4049C521.711 19.3265 521.574 19.2844 521.433 19.2838C521.293 19.2832 521.155 19.3241 521.037 19.4015C520.92 19.4788 520.828 19.5892 520.773 19.7187L518.53 24.9999H514.287C514.098 24.9999 513.916 25.0752 513.782 25.2091C513.648 25.3431 513.573 25.5248 513.573 25.7142C513.573 25.9036 513.648 26.0853 513.782 26.2193C513.916 26.3532 514.098 26.4285 514.287 26.4285H519.001C519.141 26.4285 519.278 26.3873 519.395 26.3101C519.512 26.2329 519.604 26.123 519.659 25.9942L521.423 21.8414L524.341 28.8455C524.392 28.9667 524.474 29.0717 524.58 29.149C524.686 29.2262 524.812 29.2728 524.942 29.2836C525.073 29.2943 525.204 29.2689 525.322 29.21C525.439 29.1511 525.538 29.0611 525.607 28.9498L528.668 24.0514L530.535 26.1842C530.602 26.2608 530.685 26.3223 530.778 26.3644C530.87 26.4065 530.971 26.4284 531.073 26.4285H535.715C535.905 26.4285 536.086 26.3532 536.22 26.2193C536.354 26.0853 536.43 25.9036 536.43 25.7142C536.43 25.5248 536.354 25.3431 536.22 25.2091C536.086 25.0752 535.905 24.9999 535.715 24.9999H531.397L529.111 22.3857C529.038 22.3017 528.946 22.236 528.842 22.194C528.739 22.152 528.627 22.1349 528.516 22.1439C528.404 22.1529 528.297 22.1879 528.201 22.246C528.106 22.3042 528.026 22.3838 527.967 22.4786L525.128 27.0199L522.09 19.7258V19.7244Z" fill="black"/>
<path d="M571.846 24.3077C570.928 24.3077 570.048 23.943 569.398 23.2938C568.749 22.6447 568.385 21.7642 568.385 20.8462V18.0769C568.385 17.8933 568.458 17.7172 568.587 17.5874C568.717 17.4576 568.893 17.3846 569.077 17.3846H569.769C569.953 17.3846 570.129 17.3117 570.259 17.1818C570.389 17.052 570.462 16.8759 570.462 16.6923C570.462 16.5087 570.389 16.3326 570.259 16.2028C570.129 16.0729 569.953 16 569.769 16H569.077C568.526 16 567.998 16.2188 567.608 16.6083C567.219 16.9978 567 17.5261 567 18.0769V20.8462C567.001 21.6283 567.192 22.3985 567.556 23.0907C567.92 23.7828 568.447 24.3763 569.091 24.82C569.71 25.3656 570.211 26.0308 570.566 26.7757C570.921 27.5206 571.121 28.3296 571.154 29.1538C571.154 30.4391 571.664 31.6718 572.573 32.5806C573.482 33.4894 574.715 34 576 34C577.285 34 578.518 33.4894 579.427 32.5806C580.336 31.6718 580.846 30.4391 580.846 29.1538V28.3646C581.499 28.1961 582.068 27.7954 582.446 27.2375C582.824 26.6797 582.986 26.003 582.901 25.3344C582.816 24.6657 582.49 24.051 581.984 23.6055C581.479 23.1599 580.828 22.9141 580.154 22.9141C579.48 22.9141 578.829 23.1599 578.323 23.6055C577.817 24.051 577.492 24.6657 577.407 25.3344C577.322 26.003 577.484 26.6797 577.862 27.2375C578.24 27.7954 578.809 28.1961 579.462 28.3646V29.1538C579.462 30.0719 579.097 30.9524 578.448 31.6015C577.799 32.2507 576.918 32.6154 576 32.6154C575.082 32.6154 574.201 32.2507 573.552 31.6015C572.903 30.9524 572.538 30.0719 572.538 29.1538C572.574 28.3285 572.776 27.5189 573.133 26.774C573.49 26.0291 573.994 25.3643 574.615 24.82C575.257 24.3747 575.781 23.7806 576.143 23.0886C576.504 22.3965 576.693 21.6271 576.692 20.8462V18.0769C576.692 17.5261 576.473 16.9978 576.084 16.6083C575.694 16.2188 575.166 16 574.615 16H573.923C573.739 16 573.563 16.0729 573.434 16.2028C573.304 16.3326 573.231 16.5087 573.231 16.6923C573.231 16.8759 573.304 17.052 573.434 17.1818C573.563 17.3117 573.739 17.3846 573.923 17.3846H574.615C574.799 17.3846 574.975 17.4576 575.105 17.5874C575.235 17.7172 575.308 17.8933 575.308 18.0769V20.8462C575.308 21.3007 575.218 21.7509 575.044 22.1708C574.87 22.5908 574.615 22.9724 574.294 23.2938C573.972 23.6153 573.591 23.8702 573.171 24.0442C572.751 24.2182 572.301 24.3077 571.846 24.3077ZM580.154 27.0769C579.787 27.0769 579.434 26.931 579.175 26.6714C578.915 26.4117 578.769 26.0595 578.769 25.6923C578.769 25.3251 578.915 24.9729 579.175 24.7132C579.434 24.4536 579.787 24.3077 580.154 24.3077C580.521 24.3077 580.873 24.4536 581.133 24.7132C581.393 24.9729 581.538 25.3251 581.538 25.6923C581.538 26.0595 581.393 26.4117 581.133 26.6714C580.873 26.931 580.521 27.0769 580.154 27.0769Z" fill="black"/>
<path d="M634.451 19.1909C634.419 19.1163 634.372 19.049 634.313 18.9933C634.254 18.9377 634.184 18.8948 634.108 18.8675C634.032 18.8393 633.951 18.8265 633.87 18.8299C633.79 18.8333 633.71 18.8527 633.637 18.8871C633.582 18.9177 633.532 18.9575 633.49 19.0047L629.6 22.8954L627.522 22.474L627.101 20.3963L630.991 16.5057C631.041 16.4623 631.081 16.4088 631.109 16.3489C631.143 16.2776 631.163 16.1999 631.167 16.1206C631.17 16.0414 631.157 15.9623 631.128 15.8883C631.101 15.8119 631.058 15.742 631.003 15.6829C630.947 15.6239 630.88 15.577 630.805 15.5453C629.528 15.0033 628.117 14.8612 626.757 15.1376C625.398 15.4141 624.154 16.0962 623.191 17.094C622.227 18.0917 621.588 19.3582 621.359 20.7263C621.13 22.0945 621.321 23.5 621.906 24.7574L615.889 29.9515L615.86 29.9809C615.309 30.5321 615 31.2794 615 32.0585C615 32.8376 615.309 33.5848 615.86 34.1361C616.132 34.4099 616.456 34.6272 616.812 34.7754C617.169 34.9237 617.551 35 617.937 35C618.324 35 618.706 34.9237 619.062 34.7754C619.419 34.6272 619.743 34.4099 620.015 34.1361L620.044 34.1067L625.239 28.0894C626.496 28.6753 627.901 28.8662 629.27 28.6369C630.638 28.4077 631.904 27.769 632.902 26.8053C633.9 25.8415 634.582 24.5979 634.858 23.2385C635.135 21.8791 634.993 20.4679 634.451 19.1909ZM632.148 25.8844C631.276 26.7508 630.149 27.313 628.932 27.4878C627.716 27.6626 626.476 27.4405 625.395 26.8546C625.277 26.7838 625.138 26.7568 625.002 26.7783C624.865 26.7998 624.741 26.8684 624.651 26.9722L619.172 33.3227C618.841 33.6541 618.391 33.8403 617.923 33.8403C617.454 33.8403 617.005 33.6541 616.673 33.3227C616.342 32.9913 616.156 32.5418 616.156 32.0732C616.156 31.6045 616.342 31.1551 616.673 30.8237L623.024 25.3454C623.125 25.2555 623.193 25.1337 623.216 25.0002C623.239 24.8666 623.216 24.7292 623.151 24.6104C622.618 23.6426 622.378 22.5404 622.462 21.4386C622.545 20.3368 622.948 19.2831 623.62 18.4066C624.293 17.53 625.207 16.8685 626.25 16.5031C627.292 16.1376 628.419 16.0841 629.492 16.3489L626.052 19.7887C625.985 19.8578 625.935 19.9417 625.906 20.0336C625.877 20.1255 625.87 20.2228 625.885 20.3179L626.444 23.0914C626.467 23.205 626.523 23.3093 626.605 23.3913C626.687 23.4732 626.791 23.5291 626.905 23.552L629.678 24.1106C629.773 24.126 629.87 24.119 629.962 24.0901C630.054 24.0611 630.138 24.0111 630.207 23.944L633.647 20.5041C633.885 21.454 633.872 22.4494 633.609 23.3927C633.347 24.336 632.843 25.1947 632.148 25.8844Z" fill="black"/>
<path d="M677.032 14.5C677.187 14.5 677.338 14.5504 677.463 14.6439C677.589 14.7375 677.682 14.8693 677.729 15.0205L678.536 17.584C678.874 17.7535 679.198 17.944 679.508 18.1585L682.082 17.5915C682.233 17.5583 682.392 17.5753 682.533 17.64C682.675 17.7047 682.793 17.8138 682.87 17.9515L684.902 21.55C684.98 21.6876 685.012 21.8469 684.996 22.0049C684.979 22.1629 684.914 22.3114 684.81 22.429L683.043 24.424C683.069 24.8065 683.069 25.1905 683.043 25.573L684.81 27.571C684.914 27.6886 684.979 27.8371 684.996 27.9951C685.012 28.1531 684.98 28.3124 684.902 28.45L682.87 32.05C682.793 32.1874 682.675 32.2962 682.533 32.3606C682.391 32.425 682.233 32.4418 682.082 32.4085L679.508 31.8415C679.2 32.0545 678.874 32.2465 678.537 32.416L677.729 34.9795C677.682 35.1307 677.589 35.2625 677.463 35.3561C677.338 35.4496 677.187 35.5 677.032 35.5H672.968C672.813 35.5 672.662 35.4496 672.537 35.3561C672.411 35.2625 672.318 35.1307 672.271 34.9795L671.466 32.4175C671.128 32.2485 670.802 32.0555 670.491 31.84L667.918 32.4085C667.767 32.4417 667.608 32.4247 667.467 32.36C667.325 32.2953 667.207 32.1862 667.13 32.0485L665.098 28.45C665.02 28.3124 664.988 28.1531 665.004 27.9951C665.021 27.8371 665.086 27.6886 665.19 27.571L666.957 25.573C666.931 25.1914 666.931 24.8086 666.957 24.427L665.19 22.429C665.086 22.3114 665.021 22.1629 665.004 22.0049C664.988 21.8469 665.02 21.6876 665.098 21.55L667.13 17.95C667.207 17.8126 667.325 17.7038 667.467 17.6394C667.609 17.575 667.767 17.5582 667.918 17.5915L670.491 18.16C670.802 17.9455 671.127 17.752 671.466 17.5825L672.272 15.0205C672.319 14.8698 672.412 14.7383 672.537 14.6448C672.662 14.5513 672.812 14.5006 672.967 14.5H677.03H677.032ZM676.495 16H673.505L672.672 18.6505L672.111 18.931C671.835 19.0692 671.568 19.2266 671.313 19.402L670.794 19.762L668.132 19.174L666.637 21.826L668.462 23.893L668.418 24.529C668.397 24.8426 668.397 25.1574 668.418 25.471L668.462 26.107L666.634 28.174L668.131 30.826L670.793 30.2395L671.312 30.598C671.567 30.7734 671.833 30.9308 672.109 31.069L672.671 31.3495L673.505 34H676.498L677.334 31.348L677.894 31.069C678.169 30.9311 678.435 30.7737 678.69 30.598L679.207 30.2395L681.871 30.826L683.366 28.174L681.539 26.107L681.583 25.471C681.604 25.1569 681.604 24.8416 681.583 24.5275L681.539 23.8915L683.367 21.826L681.871 19.174L679.207 19.759L678.69 19.402C678.435 19.2262 678.169 19.0688 677.894 18.931L677.334 18.652L676.497 16H676.495ZM675 20.5C676.166 20.5 677.285 20.9741 678.11 21.818C678.934 22.6619 679.398 23.8065 679.398 25C679.398 26.1935 678.934 27.3381 678.11 28.182C677.285 29.0259 676.166 29.5 675 29.5C673.834 29.5 672.715 29.0259 671.89 28.182C671.066 27.3381 670.602 26.1935 670.602 25C670.602 23.8065 671.066 22.6619 671.89 21.818C672.715 20.9741 673.834 20.5 675 20.5ZM675 22C674.222 22 673.477 22.3161 672.927 22.8787C672.377 23.4413 672.068 24.2044 672.068 25C672.068 25.7956 672.377 26.5587 672.927 27.1213C673.477 27.6839 674.222 28 675 28C675.778 28 676.523 27.6839 677.073 27.1213C677.623 26.5587 677.932 25.7956 677.932 25C677.932 24.2044 677.623 23.4413 677.073 22.8787C676.523 22.3161 675.778 22 675 22Z" fill="black"/>
<path d="M725 15C721.648 15 718.913 17.7348 718.913 21.087C718.913 23.1557 719.965 24.9861 721.549 26.087C717.979 27.48 715.435 30.9583 715.435 35H717.174C717.174 31.1757 719.949 27.9791 723.587 27.3096L724.13 28.913H725.87L726.413 27.3096C730.051 27.9791 732.826 31.1757 732.826 35H734.565C734.565 30.9583 732.021 27.48 728.451 26.087C730.034 24.9861 731.087 23.1557 731.087 21.087C731.087 17.7348 728.352 15 725 15ZM725 16.7391C727.411 16.7391 729.348 18.6757 729.348 21.087C729.348 23.4983 727.411 25.4348 725 25.4348C722.589 25.4348 720.652 23.4983 720.652 21.087C720.652 18.6757 722.589 16.7391 725 16.7391ZM724.13 29.7826L723.261 35H726.739L725.87 29.7826H724.13Z" fill="black"/>
<path d="M770.286 26.5714H776.571V28.1429H770.286V26.5714ZM770.286 22.6429H779.714V24.2143H770.286V22.6429ZM770.286 30.5H774.214V32.0714H770.286V30.5Z" fill="black"/>
<path d="M782.071 16.3571H779.714V15.5714C779.714 15.1547 779.549 14.755 779.254 14.4603C778.959 14.1656 778.56 14 778.143 14H771.857C771.44 14 771.041 14.1656 770.746 14.4603C770.451 14.755 770.286 15.1547 770.286 15.5714V16.3571H767.929C767.512 16.3571 767.112 16.5227 766.817 16.8174C766.523 17.1121 766.357 17.5118 766.357 17.9286V34.4286C766.357 34.8453 766.523 35.245 766.817 35.5397C767.112 35.8344 767.512 36 767.929 36H782.071C782.488 36 782.888 35.8344 783.183 35.5397C783.477 35.245 783.643 34.8453 783.643 34.4286V17.9286C783.643 17.5118 783.477 17.1121 783.183 16.8174C782.888 16.5227 782.488 16.3571 782.071 16.3571ZM771.857 15.5714H778.143V18.7143H771.857V15.5714ZM782.071 34.4286H767.929V17.9286H770.286V20.2857H779.714V17.9286H782.071V34.4286Z" fill="black"/>
<path d="M832.381 25.2902C832.381 25.0867 832.462 24.8915 832.606 24.7475C832.75 24.6036 832.945 24.5227 833.149 24.5227C833.352 24.5227 833.547 24.6036 833.691 24.7475C833.835 24.8915 833.916 25.0867 833.916 25.2902V33.7325C833.916 33.9361 833.835 34.1313 833.691 34.2752C833.547 34.4191 833.352 34.5 833.149 34.5H816.264C816.061 34.5 815.865 34.4191 815.721 34.2752C815.577 34.1313 815.497 33.9361 815.497 33.7325V16.848C815.497 16.6444 815.577 16.4492 815.721 16.3053C815.865 16.1613 816.061 16.0805 816.264 16.0805H824.706C824.91 16.0805 825.105 16.1613 825.249 16.3053C825.393 16.4492 825.474 16.6444 825.474 16.848C825.474 17.0515 825.393 17.2467 825.249 17.3906C825.105 17.5346 824.91 17.6154 824.706 17.6154H817.032V32.965H832.381V25.2902Z" fill="black"/>
<path d="M823.698 26.3033L824.964 26.1222L832.743 18.3446C832.817 18.2738 832.875 18.1891 832.915 18.0954C832.955 18.0018 832.977 17.9011 832.977 17.7992C832.978 17.6973 832.959 17.5962 832.92 17.5019C832.882 17.4076 832.825 17.3219 832.753 17.2498C832.681 17.1778 832.595 17.1208 832.501 17.0822C832.406 17.0436 832.305 17.0242 832.203 17.0251C832.101 17.026 832.001 17.0471 831.907 17.0873C831.813 17.1276 831.729 17.186 831.658 17.2593L823.877 25.037L823.696 26.3033H823.698ZM833.828 16.1726C834.042 16.3864 834.212 16.6403 834.328 16.9197C834.444 17.1992 834.503 17.4987 834.503 17.8012C834.503 18.1037 834.444 18.4032 834.328 18.6826C834.212 18.9621 834.042 19.216 833.828 19.4298L825.87 27.3885C825.752 27.5063 825.6 27.5828 825.435 27.6065L822.903 27.9687C822.785 27.9857 822.664 27.9749 822.551 27.9372C822.438 27.8996 822.335 27.8361 822.251 27.7518C822.166 27.6674 822.103 27.5646 822.065 27.4515C822.028 27.3384 822.017 27.218 822.034 27.1L822.396 24.5673C822.419 24.4029 822.495 24.2505 822.612 24.1329L830.573 16.1741C831.005 15.7425 831.59 15.5 832.201 15.5C832.811 15.5 833.397 15.7425 833.828 16.1741V16.1726Z" fill="black"/>
<path d="M883.843 18.8275L876.278 15.2918C875.867 15.0997 875.419 15.0001 874.965 15C874.511 14.9999 874.063 15.0993 873.652 15.2912L866.158 18.7886C865.945 18.8884 865.764 19.0471 865.637 19.2462C865.51 19.4453 865.443 19.6764 865.443 19.9125C865.442 20.1485 865.51 20.3797 865.636 20.5788C865.763 20.7779 865.944 20.9368 866.158 21.0367L873.723 24.5724C874.134 24.7646 874.582 24.8643 875.036 24.8645C875.489 24.8646 875.937 24.7653 876.348 24.5735L883.842 21.0756C884.056 20.9758 884.237 20.8171 884.364 20.618C884.491 20.4189 884.558 20.1878 884.558 19.9517C884.558 19.7157 884.491 19.4845 884.364 19.2854C884.237 19.0862 884.056 18.9274 883.843 18.8275V18.8275Z" stroke="black" stroke-width="1.3" stroke-linecap="round" stroke-linejoin="round"/>
<path d="M869.177 22.4475L866.159 23.8562C865.945 23.956 865.763 24.1147 865.636 24.3139C865.51 24.513 865.442 24.7442 865.442 24.9804C865.442 25.2165 865.509 25.4478 865.636 25.647C865.763 25.8462 865.944 26.005 866.158 26.1049L873.723 29.6401C874.134 29.8322 874.582 29.9319 875.036 29.9321C875.489 29.9323 875.937 29.833 876.348 29.6412L883.842 26.1438C884.056 26.044 884.237 25.8852 884.364 25.6862C884.491 25.4871 884.558 25.256 884.558 25.0199C884.558 24.7839 884.491 24.5527 884.364 24.3536C884.237 24.1544 884.056 23.9956 883.843 23.8957L880.824 22.4848" stroke="black" stroke-width="1.3" stroke-linecap="round" stroke-linejoin="round"/>
<path d="M869.177 27.5157L866.159 28.9244C865.945 29.0242 865.763 29.1829 865.636 29.3821C865.51 29.5812 865.442 29.8124 865.442 30.0486C865.442 30.2847 865.509 30.516 865.636 30.7152C865.763 30.9144 865.944 31.0732 866.158 31.1731L873.723 34.7083C874.134 34.9004 874.582 34.9999 875.036 35C875.489 35.0001 875.937 34.9007 876.348 34.7088L883.842 31.2115C884.056 31.1117 884.237 30.9529 884.364 30.7538C884.491 30.5547 884.558 30.3236 884.558 30.0876C884.558 29.8515 884.491 29.6204 884.364 29.4212C884.237 29.2221 884.056 29.0632 883.843 28.9633L880.824 27.5525" stroke="black" stroke-width="1.3" stroke-linecap="round" stroke-linejoin="round"/>
<path d="M930 15H923.125C922.435 15 921.875 15.5597 921.875 16.25H928.75V21.25H933.75V31.25H929.375V32.5H933.75C934.44 32.5 935 31.9403 935 31.25V20.0003L930 15ZM930 20V16.7675L933.232 20H930ZM916.25 17.5C915.56 17.5 915 18.0597 915 18.75V33.75C915 34.4403 915.56 35 916.25 35H926.875C927.565 35 928.125 34.4403 928.125 33.75V22.5003L923.125 17.5H916.25ZM926.875 33.75H916.25V18.75H921.875V23.75H926.875V33.75ZM923.125 22.5V19.2675L926.357 22.5H923.125Z" fill="black"/>
<path d="M974.921 24.3485C977.061 24.3485 978.725 22.6047 978.725 20.4646C978.725 18.3246 976.982 16.6601 974.842 16.6601C972.701 16.6601 971.037 18.4038 971.037 20.4646C971.037 22.6047 972.781 24.3485 974.921 24.3485ZM974.842 18.2453C974.921 18.2453 974.921 18.2453 974.842 18.2453C976.11 18.2453 977.14 19.2757 977.14 20.5439C977.14 21.8121 976.11 22.7632 974.842 22.7632C973.573 22.7632 972.622 21.7328 972.622 20.5439C972.622 19.2757 973.653 18.2453 974.842 18.2453Z" fill="black"/>
<path d="M986.652 23.8729C985.146 22.5254 983.164 21.8121 981.103 21.8913H980.469C980.311 22.5254 980.073 23.0803 979.756 23.5558C980.231 23.4766 980.628 23.4766 981.103 23.4766C982.609 23.3973 984.115 23.8729 985.304 24.7448V30.4516H986.889V24.1107L986.652 23.8729Z" fill="black"/>
<path d="M979.28 16.8186C979.676 15.8675 980.786 15.3919 981.816 15.7882C982.768 16.1845 983.243 17.2942 982.847 18.3246C982.53 19.0379 981.816 19.5135 981.103 19.5135C980.945 19.5135 980.707 19.5135 980.548 19.4343C980.628 19.8306 980.628 20.2269 980.628 20.5439V21.0195C980.786 21.0195 980.945 21.0988 981.103 21.0988C983.085 21.0988 984.67 19.5135 984.67 17.6112C984.67 15.6297 983.085 14.0444 981.182 14.0444C979.914 14.0444 978.805 14.6785 978.17 15.7882C978.567 16.026 978.963 16.343 979.28 16.8186Z" fill="black"/>
<path d="M970.244 23.6351C969.927 23.1595 969.689 22.6047 969.531 21.9706H968.897C966.836 21.8913 964.854 22.6047 963.349 23.8729L963.111 24.1107V30.4516H964.696V24.7448C965.964 23.8729 967.391 23.3973 968.897 23.4766C969.372 23.4766 969.848 23.5558 970.244 23.6351Z" fill="black"/>
<path d="M968.897 21.0195C969.055 21.0195 969.214 21.0195 969.372 20.9402V20.4646C969.372 20.0683 969.372 19.672 969.452 19.355C969.293 19.4342 969.055 19.4342 968.897 19.4342C967.867 19.4342 966.995 18.5623 966.995 17.5319C966.995 16.5015 967.867 15.6296 968.897 15.6296C969.69 15.6296 970.403 16.1052 970.72 16.8186C971.037 16.4223 971.513 16.026 971.909 15.7089C970.878 14.0444 968.738 13.4896 967.074 14.52C965.409 15.5504 964.855 17.6905 965.885 19.355C966.519 20.3854 967.629 21.0195 968.897 21.0195Z" fill="black"/>
<path d="M981.42 28.6286L981.262 28.3909C979.676 26.6471 977.457 25.6167 975.079 25.6959C972.701 25.6167 970.403 26.6471 968.818 28.3909L968.659 28.6286V34.6526C968.659 35.3659 969.214 36 970.007 36H980.152C980.865 36 981.5 35.3659 981.5 34.6526V28.6286H981.42ZM979.835 34.4148H970.244V29.1835C971.512 27.9153 973.256 27.2812 975.079 27.2812C976.823 27.2019 978.567 27.9153 979.835 29.1835V34.4148Z" fill="black"/>
</svg>
