<svg width="504" height="24" viewBox="0 0 504 24" fill="none" xmlns="http://www.w3.org/2000/svg">
<path d="M12 10.5C12.1326 10.5 12.2598 10.5527 12.3536 10.6464C12.4473 10.7402 12.5 10.8674 12.5 11V12.5H14C14.1326 12.5 14.2598 12.5527 14.3536 12.6464C14.4473 12.7402 14.5 12.8674 14.5 13C14.5 13.1326 14.4473 13.2598 14.3536 13.3536C14.2598 13.4473 14.1326 13.5 14 13.5H12.5V15C12.5 15.1326 12.4473 15.2598 12.3536 15.3536C12.2598 15.4473 12.1326 15.5 12 15.5C11.8674 15.5 11.7402 15.4473 11.6464 15.3536C11.5527 15.2598 11.5 15.1326 11.5 15V13.5H10C9.86739 13.5 9.74021 13.4473 9.64645 13.3536C9.55268 13.2598 9.5 13.1326 9.5 13C9.5 12.8674 9.55268 12.7402 9.64645 12.6464C9.74021 12.5527 9.86739 12.5 10 12.5H11.5V11C11.5 10.8674 11.5527 10.7402 11.6464 10.6464C11.7402 10.5527 11.8674 10.5 12 10.5V10.5Z" fill="white"/>
<path d="M18 8.5V18C18 18.5304 17.7893 19.0391 17.4142 19.4142C17.0391 19.7893 16.5304 20 16 20H8C7.46957 20 6.96086 19.7893 6.58579 19.4142C6.21071 19.0391 6 18.5304 6 18V6C6 5.46957 6.21071 4.96086 6.58579 4.58579C6.96086 4.21071 7.46957 4 8 4H13.5L18 8.5ZM15 8.5C14.6022 8.5 14.2206 8.34196 13.9393 8.06066C13.658 7.77936 13.5 7.39782 13.5 7V5H8C7.73478 5 7.48043 5.10536 7.29289 5.29289C7.10536 5.48043 7 5.73478 7 6V18C7 18.2652 7.10536 18.5196 7.29289 18.7071C7.48043 18.8946 7.73478 19 8 19H16C16.2652 19 16.5196 18.8946 16.7071 18.7071C16.8946 18.5196 17 18.2652 17 18V8.5H15Z" fill="white"/>
<path d="M36.0002 9.08337C36.1549 9.08337 36.3032 9.14483 36.4126 9.25423C36.522 9.36362 36.5835 9.512 36.5835 9.66671V11.4167H38.3335C38.4882 11.4167 38.6366 11.4782 38.746 11.5876C38.8554 11.697 38.9168 11.8453 38.9168 12C38.9168 12.1548 38.8554 12.3031 38.746 12.4125C38.6366 12.5219 38.4882 12.5834 38.3335 12.5834H36.5835V14.3334C36.5835 14.4881 36.522 14.6365 36.4126 14.7459C36.3032 14.8552 36.1549 14.9167 36.0002 14.9167C35.8455 14.9167 35.6971 14.8552 35.5877 14.7459C35.4783 14.6365 35.4168 14.4881 35.4168 14.3334V12.5834H33.6668C33.5121 12.5834 33.3637 12.5219 33.2544 12.4125C33.145 12.3031 33.0835 12.1548 33.0835 12C33.0835 11.8453 33.145 11.697 33.2544 11.5876C33.3637 11.4782 33.5121 11.4167 33.6668 11.4167H35.4168V9.66671C35.4168 9.512 35.4783 9.36362 35.5877 9.25423C35.6971 9.14483 35.8455 9.08337 36.0002 9.08337V9.08337Z" fill="white"/>
<circle cx="36" cy="12" r="6.5" stroke="white"/>
<path d="M58.6 7.39024H61.4C61.4 7.028 61.2525 6.68059 60.9899 6.42444C60.7274 6.16829 60.3713 6.02439 60 6.02439C59.6287 6.02439 59.2726 6.16829 59.0101 6.42444C58.7475 6.68059 58.6 7.028 58.6 7.39024V7.39024ZM57.55 7.39024C57.55 7.07635 57.6134 6.76554 57.7365 6.47554C57.8596 6.18554 58.0401 5.92204 58.2676 5.70009C58.4951 5.47813 58.7652 5.30207 59.0624 5.18195C59.3597 5.06183 59.6783 5 60 5C60.3217 5 60.6403 5.06183 60.9376 5.18195C61.2348 5.30207 61.5049 5.47813 61.7324 5.70009C61.9599 5.92204 62.1404 6.18554 62.2635 6.47554C62.3866 6.76554 62.45 7.07635 62.45 7.39024H66.475C66.6142 7.39024 66.7478 7.44421 66.8462 7.54026C66.9447 7.63632 67 7.7666 67 7.90244C67 8.03828 66.9447 8.16856 66.8462 8.26462C66.7478 8.36067 66.6142 8.41463 66.475 8.41463H65.551L64.732 16.6856C64.6692 17.3193 64.3666 17.9075 63.8834 18.3354C63.4001 18.7633 62.7708 19.0002 62.1182 19H57.8818C57.2293 19.0001 56.6002 18.7631 56.1171 18.3352C55.634 17.9073 55.3315 17.3192 55.2687 16.6856L54.449 8.41463H53.525C53.3858 8.41463 53.2522 8.36067 53.1538 8.26462C53.0553 8.16856 53 8.03828 53 7.90244C53 7.7666 53.0553 7.63632 53.1538 7.54026C53.2522 7.44421 53.3858 7.39024 53.525 7.39024H57.55ZM58.95 10.6341C58.95 10.4983 58.8947 10.368 58.7962 10.272C58.6978 10.1759 58.5642 10.122 58.425 10.122C58.2858 10.122 58.1522 10.1759 58.0538 10.272C57.9553 10.368 57.9 10.4983 57.9 10.6341V15.7561C57.9 15.8919 57.9553 16.0222 58.0538 16.1183C58.1522 16.2143 58.2858 16.2683 58.425 16.2683C58.5642 16.2683 58.6978 16.2143 58.7962 16.1183C58.8947 16.0222 58.95 15.8919 58.95 15.7561V10.6341ZM61.575 10.122C61.7142 10.122 61.8478 10.1759 61.9462 10.272C62.0447 10.368 62.1 10.4983 62.1 10.6341V15.7561C62.1 15.8919 62.0447 16.0222 61.9462 16.1183C61.8478 16.2143 61.7142 16.2683 61.575 16.2683C61.4358 16.2683 61.3022 16.2143 61.2038 16.1183C61.1053 16.0222 61.05 15.8919 61.05 15.7561V10.6341C61.05 10.4983 61.1053 10.368 61.2038 10.272C61.3022 10.1759 61.4358 10.122 61.575 10.122ZM56.3138 16.5872C56.3516 16.9674 56.5331 17.3202 56.823 17.5769C57.1128 17.8335 57.4903 17.9757 57.8818 17.9756H62.1182C62.5097 17.9757 62.8872 17.8335 63.177 17.5769C63.4669 17.3202 63.6484 16.9674 63.6862 16.5872L64.4968 8.41463H55.5032L56.3138 16.5872Z" fill="white"/>
<path d="M90.5337 9.58468V9.41154C90.4968 7.94582 89.8816 6.55421 88.8222 5.54051C87.7629 4.52682 86.3456 3.97337 84.8797 4.00099C83.7879 3.99208 82.7169 4.29885 81.7954 4.88438C80.8739 5.46992 80.1412 6.30927 79.6855 7.30143C78.4026 7.44454 77.2168 8.05358 76.3531 9.01301C75.4894 9.97243 75.0079 11.2155 75 12.5064C75.0014 13.1904 75.1376 13.8674 75.4009 14.4987C75.6641 15.13 76.0492 15.7032 76.5341 16.1856C77.019 16.668 77.5942 17.0501 78.2269 17.31C78.8595 17.57 79.5372 17.7026 80.2212 17.7005H82.2501V16.6184H80.2212C79.1754 16.5618 78.19 16.1109 77.4635 15.3565C76.737 14.6021 76.3235 13.6004 76.3064 12.5532C76.2892 11.506 76.6696 10.4913 77.371 9.71348C78.0724 8.9357 79.0426 8.45272 80.0859 8.36189H80.4484L80.5729 8.02103C80.9084 7.14946 81.5035 6.40191 82.2776 5.8794C83.0517 5.35689 83.9675 5.0846 84.9013 5.09933C86.0803 5.07163 87.2225 5.51105 88.0788 6.32184C88.9352 7.13262 89.4364 8.24904 89.4732 9.42777C89.4807 9.57196 89.4807 9.71643 89.4732 9.86062L89.43 10.2502L89.7816 10.4125C90.4618 10.7189 91.0157 11.2503 91.3501 11.9172C91.6845 12.5841 91.779 13.3458 91.6177 14.0742C91.4564 14.8026 91.0492 15.4532 90.4645 15.9166C89.8798 16.3799 89.1533 16.6278 88.4074 16.6184H85.4965V17.7005H88.4074C89.3696 17.7074 90.3067 17.3935 91.0706 16.8083C91.8345 16.2231 92.3816 15.4001 92.6255 14.4692C92.8694 13.5383 92.7962 12.5528 92.4173 11.6682C92.0385 10.7836 91.3757 10.0505 90.5337 9.58468V9.58468Z" fill="white"/>
<path d="M86.1887 14.3731C86.2966 14.3748 86.4026 14.3442 86.493 14.2852C86.5834 14.2262 86.6541 14.1416 86.696 14.0421C86.7379 13.9426 86.749 13.8329 86.7281 13.727C86.7071 13.6211 86.6549 13.5239 86.5783 13.4479L83.873 10.7426L81.1677 13.4479C81.0791 13.5514 81.0327 13.6845 81.038 13.8207C81.0433 13.9569 81.0997 14.0861 81.1961 14.1824C81.2924 14.2788 81.4216 14.3352 81.5578 14.3405C81.6939 14.3457 81.8271 14.2994 81.9306 14.2108L83.3319 12.8311V19.459C83.3319 19.6025 83.3889 19.7401 83.4904 19.8416C83.5919 19.9431 83.7295 20.0001 83.873 20.0001C84.0165 20.0001 84.1541 19.9431 84.2556 19.8416C84.357 19.7401 84.414 19.6025 84.414 19.459V12.8311L85.8045 14.2216C85.9075 14.3209 86.0457 14.3754 86.1887 14.3731Z" fill="white"/>
<path d="M107.5 7C106.854 7 106.303 7.422 106.094 8H102V9H106.094C106.302 9.578 106.854 10 107.5 10C108.146 10 108.697 9.578 108.906 9H114V8H108.906C108.698 7.422 108.147 7 107.5 7ZM107.5 8C107.782 8 108 8.219 108 8.5C108 8.7815 107.781 9 107.5 9C107.218 9 107 8.781 107 8.5C107 8.2185 107.219 8 107.5 8ZM111 11C110.354 11 109.803 11.422 109.594 12H102V13H109.594C109.802 13.578 110.354 14 111 14C111.646 14 112.197 13.578 112.406 13H114V12H112.406C112.198 11.422 111.646 11 111 11ZM111 12C111.282 12 111.5 12.219 111.5 12.5C111.5 12.7815 111.281 13 111 13C110.718 13 110.5 12.781 110.5 12.5C110.5 12.2185 110.719 12 111 12ZM105.5 15C104.854 15 104.303 15.422 104.094 16H102V17H104.094C104.302 17.578 104.854 18 105.5 18C106.146 18 106.697 17.578 106.906 17H114V16H106.906C106.698 15.422 106.146 15 105.5 15ZM105.5 16C105.782 16 106 16.219 106 16.5C106 16.7815 105.781 17 105.5 17C105.218 17 105 16.781 105 16.5C105 16.2185 105.219 16 105.5 16Z" fill="white"/>
<path d="M134 15.7553H132.677V11.4286C132.677 11.35 132.612 11.2857 132.534 11.2857H131.462C131.384 11.2857 131.319 11.35 131.319 11.4286V15.7553H130C129.88 15.7553 129.814 15.8928 129.887 15.9857L131.887 18.5161C131.901 18.5331 131.918 18.5469 131.937 18.5564C131.957 18.5659 131.978 18.5709 132 18.5709C132.022 18.5709 132.043 18.5659 132.062 18.5564C132.082 18.5469 132.099 18.5331 132.112 18.5161L134.112 15.9857C134.186 15.8928 134.119 15.7553 134 15.7553V15.7553Z" fill="white"/>
<path d="M137.346 9.69107C136.529 7.53393 134.445 6 132.004 6C129.563 6 127.479 7.53214 126.661 9.68929C125.13 10.0911 124 11.4857 124 13.1429C124 15.1161 125.598 16.7143 127.57 16.7143H128.286C128.364 16.7143 128.429 16.65 128.429 16.5714V15.5C128.429 15.4214 128.364 15.3571 128.286 15.3571H127.57C126.968 15.3571 126.402 15.1179 125.98 14.6839C125.561 14.2518 125.338 13.6696 125.357 13.0661C125.373 12.5946 125.534 12.1518 125.825 11.7786C126.123 11.3982 126.541 11.1214 127.005 10.9982L127.682 10.8214L127.93 10.1679C128.084 9.76071 128.298 9.38036 128.568 9.03571C128.834 8.69412 129.149 8.39384 129.504 8.14464C130.238 7.62857 131.102 7.35536 132.004 7.35536C132.905 7.35536 133.77 7.62857 134.504 8.14464C134.859 8.39464 135.173 8.69464 135.439 9.03571C135.709 9.38036 135.923 9.7625 136.077 10.1679L136.323 10.8196L136.998 10.9982C137.966 11.2589 138.643 12.1393 138.643 13.1429C138.643 13.7339 138.413 14.2911 137.995 14.7089C137.79 14.915 137.546 15.0785 137.277 15.1897C137.009 15.301 136.721 15.3579 136.43 15.3571H135.714C135.636 15.3571 135.571 15.4214 135.571 15.5V16.5714C135.571 16.65 135.636 16.7143 135.714 16.7143H136.43C138.402 16.7143 140 15.1161 140 13.1429C140 11.4875 138.873 10.0946 137.346 9.69107Z" fill="white"/>
<path d="M163 7H149C148.735 7 148.48 7.10034 148.293 7.27895C148.105 7.45755 148 7.69979 148 7.95238V17.4762C148 17.7288 148.105 17.971 148.293 18.1496C148.48 18.3282 148.735 18.4286 149 18.4286H163C163.265 18.4286 163.52 18.3282 163.707 18.1496C163.895 17.971 164 17.7288 164 17.4762V7.95238C164 7.69979 163.895 7.45755 163.707 7.27895C163.52 7.10034 163.265 7 163 7V7ZM162.23 17.4762H149.83L153.33 14.0286L152.61 13.3667L149 16.9238V8.67619L155.215 14.5667C155.402 14.744 155.656 14.8436 155.92 14.8436C156.184 14.8436 156.438 14.744 156.625 14.5667L163 8.52857V16.8619L159.32 13.3571L158.615 14.0286L162.23 17.4762ZM149.655 7.95238H162.19L155.92 13.8905L149.655 7.95238Z" fill="white"/>
<path fill-rule="evenodd" clip-rule="evenodd" d="M180.247 4.94118C178.844 4.94118 177.706 6.0789 177.706 7.48235C177.706 8.88581 178.844 10.0235 180.247 10.0235C181.65 10.0235 182.788 8.88581 182.788 7.48235C182.788 6.0789 181.65 4.94118 180.247 4.94118ZM176.765 7.48235C176.765 5.5591 178.324 4 180.247 4C182.17 4 183.729 5.5591 183.729 7.48235C183.729 9.4056 182.17 10.9647 180.247 10.9647C178.324 10.9647 176.765 9.4056 176.765 7.48235Z" fill="white"/>
<path fill-rule="evenodd" clip-rule="evenodd" d="M173 19.5294C173 15.527 176.245 12.2823 180.247 12.2823C184.249 12.2823 187.494 15.527 187.494 19.5294C187.494 19.7893 187.283 20 187.024 20H173.471C173.211 20 173 19.7893 173 19.5294ZM180.718 19.0588H186.536C186.295 15.796 183.571 13.2235 180.247 13.2235C176.923 13.2235 174.199 15.796 173.958 19.0588H179.776V18.1176H178.365C178.105 18.1176 177.894 17.907 177.894 17.6471C177.894 17.3872 178.105 17.1765 178.365 17.1765H179.776V15.7647C179.776 15.5048 179.987 15.2941 180.247 15.2941C180.507 15.2941 180.718 15.5048 180.718 15.7647V17.1765H182.129C182.389 17.1765 182.6 17.3872 182.6 17.6471C182.6 17.907 182.389 18.1176 182.129 18.1176H180.718V19.0588Z" fill="white"/>
<path d="M204.273 20H202.818V4H204.273V20ZM201.364 17.0909H198.455V6.90909H201.364V5.45455H198.455C197.647 5.45455 197 6.10182 197 6.90909V17.0909C197 17.4767 197.153 17.8466 197.426 18.1194C197.699 18.3922 198.069 18.5455 198.455 18.5455H201.364V17.0909ZM208.636 8.36364V9.81818H210.091V8.36364H208.636ZM208.636 6.90909H210.091C210.091 6.52332 209.938 6.15335 209.665 5.88057C209.392 5.60779 209.022 5.45455 208.636 5.45455V6.90909ZM210.091 14.1818H208.636V15.6364H210.091V14.1818ZM208.636 11.2727V12.7273H210.091V11.2727H208.636ZM207.182 5.45455H205.727V6.90909H207.182V5.45455ZM208.636 18.5455C209.444 18.5455 210.091 17.8982 210.091 17.0909H208.636V18.5455ZM207.182 17.0909H205.727V18.5455H207.182V17.0909Z" fill="white"/>
<path d="M232.812 7C233.393 7 233.949 7.22287 234.359 7.61958C234.77 8.01629 235 8.55435 235 9.11538V15.8846C235 16.4457 234.77 16.9837 234.359 17.3804C233.949 17.7771 233.393 18 232.812 18H223.188C222.607 18 222.051 17.7771 221.641 17.3804C221.23 16.9837 221 16.4457 221 15.8846V9.11538C221 8.55435 221.23 8.01629 221.641 7.61958C222.051 7.22287 222.607 7 223.188 7H232.812ZM234.125 10.3516L228.222 13.7108C228.166 13.7425 228.104 13.7618 228.04 13.7674C227.975 13.773 227.91 13.7646 227.85 13.743L227.778 13.7108L221.875 10.3533V15.8846C221.875 16.2212 222.013 16.5441 222.259 16.7821C222.506 17.0201 222.839 17.1538 223.188 17.1538H232.812C233.161 17.1538 233.494 17.0201 233.741 16.7821C233.987 16.5441 234.125 16.2212 234.125 15.8846V10.3516ZM232.812 7.84615H223.188C222.839 7.84615 222.506 7.97988 222.259 8.2179C222.013 8.45593 221.875 8.77876 221.875 9.11538V9.37092L228 12.8554L234.125 9.36923V9.11538C234.125 8.77876 233.987 8.45593 233.741 8.2179C233.494 7.97988 233.161 7.84615 232.812 7.84615V7.84615Z" fill="white"/>
<path fill-rule="evenodd" clip-rule="evenodd" d="M255.665 6.12854C255.87 6.04368 256.09 6 256.311 6C256.533 6 256.753 6.04368 256.958 6.12854C257.162 6.2134 257.349 6.33779 257.505 6.4946C257.662 6.6514 257.787 6.83756 257.871 7.04244C257.956 7.24732 258 7.4669 258 7.68866C258 7.91042 257.956 8.13 257.871 8.33488C257.787 8.53976 257.662 8.72592 257.505 8.88272L253.791 12.5976C253.531 12.8575 253.2 13.0342 252.84 13.1062C252.84 13.1062 252.84 13.1062 252.84 13.1062L251.123 13.45C250.963 13.4819 250.798 13.432 250.683 13.317C250.568 13.202 250.518 13.0371 250.55 12.8776L250.893 11.16C250.965 10.8 251.143 10.469 251.402 10.2094M251.402 10.2094L255.117 6.4946C255.274 6.33779 255.46 6.21341 255.665 6.12854M256.311 6.97298C256.217 6.97298 256.124 6.99149 256.037 7.02746C255.951 7.06343 255.872 7.11614 255.805 7.1826L255.103 7.88516L256.115 8.89704L256.817 8.19472C256.884 8.12826 256.937 8.04937 256.972 7.96254C257.008 7.87571 257.027 7.78265 257.027 7.68866C257.027 7.59467 257.008 7.50161 256.972 7.41478C256.937 7.32795 256.884 7.24906 256.817 7.1826C256.751 7.11614 256.672 7.06343 256.585 7.02746C256.498 6.99149 256.405 6.97298 256.311 6.97298ZM255.427 9.58505L254.415 8.57316L252.09 10.8974C251.966 11.0212 251.882 11.1791 251.847 11.3508C251.847 11.3509 251.847 11.3508 251.847 11.3508L251.647 12.3527L252.649 12.1521C252.821 12.1177 252.978 12.0336 253.103 11.9096L255.427 9.58505Z" fill="white"/>
<path fill-rule="evenodd" clip-rule="evenodd" d="M247.784 8.27022C247.569 8.27022 247.363 8.35565 247.21 8.50771C247.058 8.65976 246.973 8.866 246.973 9.08104V16.2162C246.973 16.4313 247.058 16.6375 247.21 16.7896C247.363 16.9416 247.569 17.0271 247.784 17.0271H254.919C255.134 17.0271 255.34 16.9416 255.492 16.7896C255.644 16.6375 255.73 16.4313 255.73 16.2162V14.2703C255.73 14.0016 255.948 13.7838 256.216 13.7838C256.485 13.7838 256.703 14.0016 256.703 14.2703V16.2162C256.703 16.6893 256.515 17.1431 256.18 17.4776C255.846 17.8121 255.392 18 254.919 18H247.784C247.311 18 246.857 17.8121 246.522 17.4776C246.188 17.1431 246 16.6893 246 16.2162V9.08104C246 8.60795 246.188 8.15423 246.522 7.8197C246.857 7.48518 247.311 7.29724 247.784 7.29724H249.73C249.998 7.29724 250.216 7.51505 250.216 7.78373C250.216 8.05241 249.998 8.27022 249.73 8.27022H247.784Z" fill="white"/>
<path d="M282.971 11.9745C282.422 10.5548 281.47 9.327 280.231 8.44292C278.992 7.55884 277.521 7.0572 276 7C274.479 7.0572 273.008 7.55884 271.769 8.44292C270.529 9.327 269.577 10.5548 269.028 11.9745C268.991 12.077 268.991 12.1893 269.028 12.2918C269.577 13.7115 270.529 14.9393 271.769 15.8234C273.008 16.7074 274.479 17.2091 276 17.2663C277.521 17.2091 278.992 16.7074 280.231 15.8234C281.47 14.9393 282.422 13.7115 282.971 12.2918C283.008 12.1893 283.008 12.077 282.971 11.9745V11.9745ZM276 16.333C273.526 16.333 270.913 14.4991 269.966 12.1331C270.913 9.76723 273.526 7.9333 276 7.9333C278.473 7.9333 281.086 9.76723 282.033 12.1331C281.086 14.4991 278.473 16.333 276 16.333Z" fill="white"/>
<path d="M276 9.33337C275.446 9.33337 274.905 9.49759 274.444 9.80524C273.984 10.1129 273.625 10.5502 273.413 11.0618C273.201 11.5734 273.145 12.1364 273.254 12.6795C273.362 13.2226 273.628 13.7215 274.02 14.1131C274.411 14.5047 274.91 14.7713 275.453 14.8794C275.996 14.9874 276.559 14.932 277.071 14.72C277.583 14.5081 278.02 14.1492 278.328 13.6888C278.635 13.2284 278.799 12.687 278.799 12.1333C278.799 11.3907 278.505 10.6785 277.979 10.1534C277.454 9.62836 276.742 9.33337 276 9.33337ZM276 13.9999C275.63 13.9999 275.27 13.8904 274.963 13.6853C274.656 13.4802 274.416 13.1887 274.275 12.8476C274.134 12.5065 274.097 12.1312 274.169 11.7691C274.241 11.407 274.419 11.0744 274.68 10.8134C274.941 10.5523 275.273 10.3746 275.635 10.3025C275.998 10.2305 276.373 10.2675 276.714 10.4088C277.055 10.55 277.347 10.7893 277.552 11.0962C277.757 11.4032 277.866 11.7641 277.866 12.1333C277.866 12.6283 277.67 13.1031 277.319 13.4532C276.969 13.8032 276.495 13.9999 276 13.9999Z" fill="white"/>
<path fill-rule="evenodd" clip-rule="evenodd" d="M302.472 7.93319C300.23 7.03648 297.51 7.54781 295.929 9.28898L295.929 9.28912C295.151 10.1459 294.662 11.2264 294.534 12.3767C294.406 13.5271 294.643 14.6887 295.213 15.696C295.783 16.7034 296.657 17.5052 297.709 17.9874C298.761 18.4695 299.939 18.6074 301.074 18.3813L301.074 18.3812C303.359 17.927 305.061 15.8618 305.515 13.5897C305.597 13.1836 305.992 12.9202 306.398 13.0014C306.804 13.0826 307.067 13.4777 306.986 13.8839C306.441 16.6118 304.373 19.2547 301.367 19.8524C299.922 20.1401 298.424 19.9647 297.084 19.3511C295.745 18.7374 294.633 17.7169 293.908 16.4348C293.182 15.1527 292.88 13.6743 293.043 12.2103C293.207 10.7462 293.828 9.37112 294.818 8.28069M294.819 8.28055C296.866 6.02583 300.271 5.4372 303.029 6.54047C303.414 6.69431 303.601 7.13079 303.447 7.51537C303.293 7.89996 302.857 8.08702 302.472 7.93319" fill="white"/>
<path fill-rule="evenodd" clip-rule="evenodd" d="M306.759 8.18572C307.064 8.46667 307.083 8.94116 306.802 9.24553L300.802 15.7455C300.663 15.8955 300.47 15.9826 300.266 15.9867C300.062 15.9908 299.865 15.9115 299.72 15.7672L297.22 13.2672C296.928 12.9743 296.928 12.4994 297.22 12.2065C297.513 11.9136 297.988 11.9136 298.281 12.2065L300.229 14.1545L305.7 8.22811C305.981 7.92374 306.455 7.90476 306.759 8.18572Z" fill="white"/>
<path fill-rule="evenodd" clip-rule="evenodd" d="M321.22 9.21967C321.513 8.92678 321.987 8.92678 322.28 9.21967L324 10.9393L325.72 9.21967C326.013 8.92678 326.487 8.92678 326.78 9.21967C327.073 9.51256 327.073 9.98744 326.78 10.2803L325.061 12L326.78 13.7197C327.073 14.0126 327.073 14.4874 326.78 14.7803C326.487 15.0732 326.013 15.0732 325.72 14.7803L324 13.0607L322.28 14.7803C321.987 15.0732 321.513 15.0732 321.22 14.7803C320.927 14.4874 320.927 14.0126 321.22 13.7197L322.939 12L321.22 10.2803C320.927 9.98744 320.927 9.51256 321.22 9.21967Z" fill="white"/>
<path fill-rule="evenodd" clip-rule="evenodd" d="M324 6.5C320.962 6.5 318.5 8.96243 318.5 12C318.5 15.0376 320.962 17.5 324 17.5C327.038 17.5 329.5 15.0376 329.5 12C329.5 8.96243 327.038 6.5 324 6.5ZM317 12C317 8.13401 320.134 5 324 5C327.866 5 331 8.13401 331 12C331 15.866 327.866 19 324 19C320.134 19 317 15.866 317 12Z" fill="white"/>
<path d="M352.236 7.7625C351.681 7.20364 351.02 6.76017 350.293 6.45767C349.565 6.15518 348.784 5.99963 347.996 6C344.679 6 342 8.685 342 12C342 15.315 344.679 18 347.996 18C350.795 18 353.129 16.0875 353.797 13.5H352.236C351.927 14.3771 351.353 15.1368 350.594 15.6741C349.834 16.2115 348.927 16.5 347.996 16.5C345.512 16.5 343.493 14.4825 343.493 12C343.493 9.5175 345.512 7.5 347.996 7.5C349.242 7.5 350.353 8.0175 351.163 8.835L348.747 11.25H354V6L352.236 7.7625Z" fill="white"/>
<path d="M378.483 8.25242L376.431 6.20047C376.368 6.13681 376.292 6.08633 376.209 6.05192C376.126 6.01752 376.037 5.99987 375.947 6H367.737C367.647 5.99987 367.558 6.01752 367.475 6.05192C367.392 6.08633 367.317 6.13681 367.253 6.20047L365.201 8.25242C365.137 8.31583 365.087 8.3913 365.052 8.47446C365.017 8.55762 365 8.6468 365 8.73684V17.6316C365 18.3863 365.614 19 366.368 19H377.316C378.07 19 378.684 18.3863 378.684 17.6316V8.73684C378.684 8.6468 378.667 8.55762 378.632 8.47446C378.598 8.3913 378.547 8.31583 378.483 8.25242ZM368.02 7.36842H375.664L376.348 8.05263H367.336L368.02 7.36842ZM366.368 17.6316V9.42105H377.316L377.317 17.6316H366.368Z" fill="white"/>
<path d="M373.211 10.7895H370.474V12.8421H368.421L371.842 16.2632L375.263 12.8421H373.211V10.7895Z" fill="white"/>
<path d="M395.637 18.384C395.743 18.459 395.87 18.4993 396 18.4993C396.13 18.4993 396.256 18.459 396.362 18.384C396.552 18.2484 401.018 15.0247 401 10.9999C401 8.24306 398.757 6 396 6C393.243 6 391 8.24306 391 10.9974C390.982 15.0247 395.447 18.2484 395.637 18.384ZM396 7.24996C398.068 7.24996 399.75 8.93179 399.75 11.0024C399.763 13.776 397.007 16.2666 396 17.0841C394.993 16.2666 392.237 13.776 392.25 10.9999C392.25 8.93179 393.932 7.24996 396 7.24996Z" fill="white"/>
<path d="M395.5 14H396.5V12.5H398V11.5H396.5V10H395.5V11.5H394V12.5H395.5V14Z" fill="white"/>
</svg>
