<svg width="128" height="32" viewBox="0 0 128 32" fill="none" xmlns="http://www.w3.org/2000/svg">
<path d="M16 16H10M16 22V16V22ZM16 16V10V16ZM16 16H22H16Z" stroke="black" stroke-width="2"/>
<path d="M47.9999 14.3333C49.4727 14.3333 50.6666 13.1394 50.6666 11.6667C50.6666 10.1939 49.4727 9 47.9999 9C46.5272 9 45.3333 10.1939 45.3333 11.6667C45.3333 13.1394 46.5272 14.3333 47.9999 14.3333Z" stroke="black" stroke-width="1.5" stroke-linecap="round" stroke-linejoin="round"/>
<path d="M54 20.3333C54 17.0197 51.3137 14.3333 48 14.3333C44.6863 14.3333 42 17.0197 42 20.3333" stroke="black" stroke-width="1.5" stroke-linecap="round" stroke-linejoin="round"/>
<path d="M50 20.3333L47.3333 23L46 21.6667" stroke="black" stroke-width="1.5" stroke-linecap="round" stroke-linejoin="round"/>
<path d="M85.7142 16C85.7141 15.0806 85.4906 14.175 85.0628 13.3612L84.2085 14.216C84.4486 14.7801 84.5721 15.387 84.5714 16H85.7142ZM84.2365 12.5715L83.4285 11.7635L80.7342 14.4572C80.5054 14.3456 80.2545 14.287 79.9999 14.2857C79.6609 14.2857 79.3294 14.3863 79.0475 14.5746C78.7656 14.763 78.5459 15.0307 78.4161 15.344C78.2864 15.6572 78.2524 16.0019 78.3186 16.3345C78.3847 16.667 78.548 16.9725 78.7878 17.2122C79.0275 17.452 79.333 17.6152 79.6655 17.6814C79.998 17.7475 80.3427 17.7136 80.656 17.5838C80.9692 17.4541 81.2369 17.2343 81.4253 16.9524C81.6137 16.6705 81.7142 16.3391 81.7142 16C81.7129 15.7455 81.6543 15.4945 81.5428 15.2657L84.2365 12.5715ZM79.9999 16.5714C79.8869 16.5714 79.7764 16.5379 79.6825 16.4751C79.5885 16.4124 79.5153 16.3231 79.472 16.2187C79.4288 16.1143 79.4174 15.9994 79.4395 15.8885C79.4615 15.7777 79.516 15.6759 79.5959 15.596C79.6758 15.516 79.7776 15.4616 79.8885 15.4396C79.9993 15.4175 80.1142 15.4288 80.2186 15.4721C80.323 15.5153 80.4123 15.5886 80.4751 15.6826C80.5379 15.7765 80.5714 15.887 80.5714 16C80.5712 16.1515 80.511 16.2968 80.4038 16.4039C80.2967 16.511 80.1514 16.5713 79.9999 16.5714ZM79.9999 11.4286C80.613 11.428 81.2198 11.5514 81.7839 11.7915L82.6388 10.9366C81.7685 10.4809 80.7952 10.2576 79.8133 10.2884C78.8314 10.3191 77.8741 10.6029 77.034 11.1121C76.1939 11.6214 75.4995 12.3389 75.018 13.1952C74.5365 14.0515 74.2842 15.0176 74.2857 16H75.4285C75.43 14.7881 75.9121 13.6262 76.7691 12.7692C77.6261 11.9122 78.788 11.4301 79.9999 11.4286Z" fill="black"/>
<path d="M80 24C78.4178 24 76.871 23.5308 75.5554 22.6518C74.2398 21.7727 73.2145 20.5233 72.609 19.0615C72.0035 17.5997 71.845 15.9911 72.1537 14.4393C72.4624 12.8874 73.2243 11.462 74.3431 10.3431C75.462 9.22433 76.8874 8.4624 78.4393 8.15372C79.9911 7.84504 81.5997 8.00347 83.0615 8.60897C84.5233 9.21447 85.7727 10.2398 86.6518 11.5554C87.5308 12.871 88 14.4178 88 16C87.9976 18.121 87.1539 20.1544 85.6542 21.6542C84.1544 23.1539 82.121 23.9976 80 24ZM80 9.14286C78.6438 9.14286 77.318 9.54502 76.1904 10.2985C75.0627 11.052 74.1838 12.1229 73.6648 13.3759C73.1458 14.6289 73.01 16.0076 73.2746 17.3378C73.5392 18.6679 74.1923 19.8897 75.1513 20.8487C76.1103 21.8077 77.3321 22.4608 78.6622 22.7254C79.9924 22.99 81.3711 22.8542 82.6241 22.3352C83.8771 21.8162 84.948 20.9373 85.7015 19.8096C86.455 18.682 86.8571 17.3562 86.8571 16C86.855 14.182 86.1319 12.4391 84.8464 11.1536C83.5609 9.8681 81.818 9.14498 80 9.14286Z" fill="black"/>
<path d="M112 11.7238C111.563 11.7238 111.136 11.8533 110.773 12.0959C110.41 12.3385 110.127 12.6834 109.96 13.0868C109.793 13.4903 109.749 13.9342 109.834 14.3626C109.919 14.7909 110.13 15.1843 110.438 15.4931C110.747 15.8019 111.141 16.0122 111.569 16.0974C111.997 16.1826 112.441 16.1388 112.845 15.9717C113.248 15.8046 113.593 15.5216 113.836 15.1585C114.078 14.7954 114.208 14.3685 114.208 13.9318C114.207 13.3464 113.974 12.7852 113.56 12.3713C113.146 11.9573 112.585 11.7245 112 11.7238ZM112 15.0358C111.781 15.0358 111.568 14.971 111.386 14.8497C111.205 14.7284 111.063 14.556 110.98 14.3543C110.896 14.1526 110.874 13.9306 110.917 13.7164C110.96 13.5023 111.065 13.3056 111.219 13.1512C111.373 12.9968 111.57 12.8916 111.784 12.849C111.999 12.8064 112.22 12.8283 112.422 12.9118C112.624 12.9954 112.796 13.1369 112.918 13.3185C113.039 13.5 113.104 13.7135 113.104 13.9318C113.103 14.2245 112.987 14.5051 112.78 14.7121C112.573 14.919 112.292 15.0355 112 15.0358Z" fill="black"/>
<path d="M116.243 9.68568C115.194 8.6369 113.793 8.01388 112.312 7.93687C110.83 7.85986 109.373 8.33431 108.221 9.26865C107.069 10.203 106.304 11.531 106.073 12.9964C105.842 14.4617 106.163 15.9605 106.972 17.2036L111.144 23.6072C111.236 23.7497 111.363 23.8667 111.513 23.9478C111.662 24.0288 111.83 24.0712 112 24.0712C112.17 24.0712 112.337 24.0288 112.487 23.9478C112.636 23.8667 112.763 23.7497 112.856 23.6072L117.027 17.2036C117.778 16.0505 118.11 14.6742 117.968 13.3055C117.825 11.9368 117.216 10.6588 116.243 9.68568ZM116.102 16.6009L112 22.8989L107.897 16.6009C106.641 14.6731 106.911 12.0932 108.538 10.4663C108.992 10.0116 109.532 9.65097 110.126 9.4049C110.72 9.15884 111.357 9.03219 112 9.03219C112.643 9.03219 113.279 9.15884 113.873 9.4049C114.468 9.65097 115.007 10.0116 115.462 10.4663C117.089 12.0932 117.358 14.6731 116.102 16.6009Z" fill="black"/>
</svg>
