<svg width="100" height="46" viewBox="0 0 100 46" fill="none" xmlns="http://www.w3.org/2000/svg">
<path d="M55.0808 33.7344C55.0808 39.956 60.1062 44.9996 66.3053 44.9996C72.5044 44.9996 77.5298 39.9561 77.5298 33.7344C77.5298 27.5129 72.5044 22.4692 66.3053 22.4692C60.1062 22.4693 55.0808 27.5129 55.0808 33.7344ZM58.8493 33.7344C58.8493 29.6016 62.1874 26.2514 66.3053 26.2514C70.4232 26.2514 73.7613 29.6016 73.7613 33.7344C73.7613 37.8672 70.4232 41.2175 66.3053 41.2175C62.1874 41.2176 58.8493 37.8673 58.8493 33.7344Z" fill="black"/>
<path d="M66.3055 25.9565C62.0254 25.9565 58.5557 29.4389 58.5557 33.7345C58.5557 38.0302 62.0254 41.5125 66.3055 41.5125C70.5857 41.5125 74.0554 38.0302 74.0554 33.7345C74.0554 29.4389 70.5857 25.9565 66.3055 25.9565ZM66.3055 40.7252C62.4587 40.7252 59.3402 37.5954 59.3402 33.7345C59.3402 29.8737 62.4587 26.744 66.3055 26.744C70.1524 26.744 73.2709 29.8737 73.2709 33.7345C73.2709 37.5954 70.1524 40.7252 66.3055 40.7252Z" fill="#808285"/>
<path d="M66.3053 37.7091C68.4924 37.7091 70.2654 35.9297 70.2654 33.7347C70.2654 31.5397 68.4924 29.7603 66.3053 29.7603C64.1182 29.7603 62.3452 31.5397 62.3452 33.7347C62.3452 35.9297 64.1182 37.7091 66.3053 37.7091Z" fill="#808285"/>
<path d="M69.2316 34.9491C69.9006 33.3281 69.1336 31.4696 67.5185 30.7982C65.9033 30.1267 64.0516 30.8965 63.3825 32.5175C62.7135 34.1385 63.4805 35.997 65.0957 36.6684C66.7108 37.3399 68.5626 36.5701 69.2316 34.9491Z" fill="black"/>
<path d="M12.9833 22.4697C6.78418 22.4697 1.75879 27.5133 1.75879 33.7349C1.75879 39.9565 6.78418 45.0001 12.9833 45.0001C19.1823 45.0001 24.2077 39.9566 24.2077 33.7349C24.2077 27.5133 19.1823 22.4697 12.9833 22.4697ZM12.9833 41.218C8.86539 41.218 5.52724 37.8677 5.52724 33.7349C5.52724 29.6021 8.86539 26.2518 12.9833 26.2518C17.1011 26.2518 20.4393 29.6021 20.4393 33.7349C20.4393 37.8677 17.1011 41.218 12.9833 41.218Z" fill="black"/>
<path d="M12.9835 25.957C8.70338 25.957 5.23364 29.4394 5.23364 33.735C5.23364 38.0307 8.70338 41.513 12.9835 41.513C17.2637 41.513 20.7334 38.0307 20.7334 33.735C20.7334 29.4394 17.2637 25.957 12.9835 25.957ZM12.9835 40.7257C9.13668 40.7257 6.01813 37.5959 6.01813 33.735C6.01813 29.8742 9.1366 26.7444 12.9835 26.7444C16.8304 26.7444 19.9489 29.8742 19.9489 33.735C19.9489 37.5959 16.8304 40.7257 12.9835 40.7257Z" fill="#808285"/>
<path d="M12.984 37.7091C15.1711 37.7091 16.9441 35.9297 16.9441 33.7347C16.9441 31.5397 15.1711 29.7603 12.984 29.7603C10.7969 29.7603 9.02393 31.5397 9.02393 33.7347C9.02393 35.9297 10.7969 37.7091 12.984 37.7091Z" fill="#808285"/>
<path d="M16.0626 34.4788C16.4715 32.7729 15.425 31.0572 13.7253 30.6468C12.0255 30.2364 10.316 31.2867 9.90714 32.9927C9.49823 34.6986 10.5447 36.4142 12.2445 36.8246C13.9443 37.235 15.6537 36.1847 16.0626 34.4788Z" fill="black"/>
<path d="M45.3323 16.7202H55.8413V15.2609L45.3323 15.2609V16.7202Z" fill="black"/>
<path d="M45.3323 15.8247L55.8413 15.8247V15.2609L45.3323 15.2609V15.8247Z" fill="#808285"/>
<path d="M28.9073 39.2418H48.6695C50.2921 39.2418 51.6122 37.917 51.6122 36.2886V29.4686C51.6122 27.84 50.2921 26.5151 48.6695 26.5151H44.6622C44.2782 26.5151 43.9668 26.8275 43.9668 27.213C43.9668 27.5985 44.2782 27.9109 44.6622 27.9109H48.6695C49.5253 27.9109 50.2214 28.6096 50.2214 29.4687V36.2887C50.2214 37.1474 49.5253 37.8461 48.6695 37.8461H28.9073C28.5233 37.8461 28.2119 38.1585 28.2119 38.544C28.2119 38.9294 28.5233 39.2418 28.9073 39.2418Z" fill="black"/>
<path d="M26.89 23.9006H33.7635C34.1708 22.9953 35.0761 22.3643 36.1301 22.3643H48.2693C48.9588 22.3643 49.5177 22.9252 49.5177 23.6172V32.828C49.5177 35.3292 47.4973 37.3569 45.0052 37.3569H34.868C34.1303 37.3569 33.5325 36.7568 33.5325 36.0166V29.6634H27.5935C26.0078 29.6634 24.019 28.3733 24.019 26.782C24.019 25.1907 25.3044 23.9006 26.89 23.9006Z" fill="black"/>
<path d="M22.2871 27.6979C23.1975 29.5309 24.9395 30.8438 26.9468 31.2105L30.0892 31.7844C30.0729 32.0781 30.0626 32.3722 30.0626 32.6668V37.392C30.0626 39.4382 31.7215 41.1031 33.7603 41.1031H43.9333C45.5106 41.1031 46.9984 40.4093 48.0156 39.1997L51.166 35.4537C52.6898 33.6417 53.5289 31.3381 53.5289 28.9672V19.14C53.5289 18.4009 54.128 17.7998 54.8644 17.7998H56.7367C57.1209 17.7998 57.4321 17.4874 57.4321 17.1019C57.4321 16.7164 57.1209 16.404 56.7367 16.404H54.8644C53.3613 16.404 52.1381 17.6313 52.1381 19.1399V28.967C52.1381 31.0089 51.4154 32.993 50.103 34.5534L46.9527 38.2994C46.2002 39.1941 45.0999 39.7072 43.9333 39.7072H33.7603C32.4882 39.7072 31.4534 38.6686 31.4534 37.3919V32.6668C31.4534 31.3312 31.6366 30.0023 31.998 28.7172L34.1166 21.1815L54.1708 12.8219C54.5256 12.6742 54.6935 12.2658 54.5462 11.9098C54.399 11.5535 53.9924 11.3842 53.6373 11.533L23.6506 24.0328C22.9707 24.316 22.4332 24.8757 22.1755 25.5679C21.9179 26.2601 21.9586 27.0365 22.2871 27.6979ZM23.4784 26.0562C23.6034 25.7201 23.854 25.4594 24.1841 25.3218L32.4798 21.8637L30.6595 28.3382C30.4698 29.0128 30.3263 29.6985 30.2268 30.3906L27.196 29.8371C25.6174 29.5489 24.2477 28.5165 23.532 27.0752C23.3723 26.7541 23.3535 26.3923 23.4784 26.0562Z" fill="black"/>
<path d="M22.0257 26.7823C22.0489 26.5597 22.0964 26.339 22.1754 26.1266C22.4331 25.4344 22.9707 24.8748 23.6505 24.5915L53.6372 12.0917C53.9882 11.9445 54.3884 12.109 54.5398 12.4568C54.6131 12.2888 54.6217 12.0926 54.5461 11.9098C54.3988 11.5535 53.9922 11.3842 53.6372 11.533L23.6506 24.0329C22.9707 24.3161 22.4332 24.8758 22.1755 25.568C22.0303 25.958 21.9834 26.3744 22.0257 26.7823ZM31.4534 37.3921V37.9508C31.4534 39.2274 32.4883 40.266 33.7603 40.266H43.9333C45.1 40.266 46.2003 39.753 46.9527 38.8582L50.1031 35.1122C51.4155 33.5518 52.1382 31.5677 52.1382 29.5258V28.9672C52.1382 31.0091 51.4155 32.9932 50.1031 34.5536L46.9527 38.2996C46.2003 39.1943 45.0999 39.7074 43.9333 39.7074H33.7603C32.4883 39.7074 31.4534 38.6688 31.4534 37.3921ZM30.0726 32.34C30.0699 32.4491 30.0626 32.5578 30.0626 32.6668V33.2255C30.0626 32.931 30.0729 32.6367 30.0892 32.3431L30.0726 32.34ZM52.1382 19.6987C52.1382 18.19 53.3613 16.9627 54.8645 16.9627H56.7368C57.0217 16.9627 57.2659 17.1351 57.3734 17.3813C57.4107 17.2957 57.4322 17.2015 57.4322 17.102C57.4322 16.7165 57.1209 16.4041 56.7368 16.4041H54.8645C53.3613 16.4041 52.1382 17.6314 52.1382 19.14V19.6987ZM23.4328 26.7899C23.3699 27.0742 23.3996 27.3678 23.5319 27.634C24.2476 29.0753 25.6174 30.1077 27.1959 30.3958L30.2267 30.9493C30.3262 30.2572 30.4699 29.5715 30.6594 28.8969L32.4797 22.4225L32.3018 22.4966L30.6594 28.3383C30.4698 29.0128 30.3262 29.6986 30.2267 30.3907L27.1959 29.8372C25.6174 29.549 24.2476 28.5166 23.5319 27.0753C23.4861 26.9832 23.4553 26.8872 23.4328 26.7899Z" fill="#808285"/>
<path d="M8.32935 33.7353C8.32935 36.2452 10.4553 38.2256 12.9492 38.039L33.5221 36.4995C34.9637 36.3916 36.0787 35.1862 36.0787 33.7353C36.0787 32.2844 34.9638 31.079 33.5221 30.9712L12.9492 29.4316C10.4553 29.2449 8.32935 31.2254 8.32935 33.7353ZM9.81801 33.7353C9.81801 32.1197 11.1863 30.8451 12.7916 30.9652L26.033 31.9562C26.9609 32.0256 27.6784 32.8014 27.6784 33.7353C27.6784 34.6691 26.9609 35.4449 26.033 35.5144L12.7916 36.5053C11.1863 36.6254 9.81801 35.3508 9.81801 33.7353Z" fill="black"/>
<path d="M8.32935 33.7349C8.32935 33.8294 8.33813 33.9214 8.34399 34.0142C8.49554 31.6393 10.5491 29.8102 12.9492 29.9898L33.5221 31.5293C34.87 31.6302 35.932 32.6907 36.0642 34.0141C36.0735 33.9222 36.0787 33.8291 36.0787 33.7348C36.0787 32.2839 34.9638 31.0785 33.5221 30.9707L12.9492 29.4311C10.4553 29.2446 8.32935 31.225 8.32935 33.7349ZM9.83281 34.0142C9.82356 34.1061 9.81801 34.1991 9.81801 34.2936C9.81801 35.9091 11.1863 37.1837 12.7916 37.0636L26.033 36.0727C26.9609 36.0032 27.6784 35.2274 27.6784 34.2936C27.6784 34.1984 27.6692 34.1056 27.6547 34.0142C27.5282 34.8189 26.8663 35.4517 26.033 35.5141L12.7915 36.5049C11.2802 36.6181 9.97973 35.4944 9.83281 34.0142Z" fill="#808285"/>
<path d="M46.7094 20.181L48.5161 20.841C48.876 20.9725 49.17 21.2409 49.3345 21.588L50.2144 23.4451C50.3821 23.7992 50.4013 24.206 50.2677 24.5743L49.9606 25.4212C49.9003 25.5873 49.8106 25.7411 49.6957 25.8751L46.2465 29.8992C45.8509 30.3608 45.2119 30.5284 44.642 30.3202L43.6063 29.9419C43.0362 29.7337 42.6541 29.1931 42.6467 28.5844L42.5817 23.2765C42.5795 23.0997 42.6092 22.9239 42.6695 22.7578L42.9766 21.911C43.1102 21.5426 43.3855 21.2433 43.7408 21.0803L45.6043 20.2253C45.9525 20.0655 46.3495 20.0496 46.7094 20.181Z" fill="black"/>
<path d="M43.2915 23.0637L49.5527 25.3508L49.8152 24.627C49.8159 24.6251 49.8162 24.6232 49.8169 24.6212L43.556 22.3342C43.3992 22.2769 43.3184 22.1029 43.3754 21.9455C43.4325 21.7881 43.6059 21.707 43.7628 21.7642L49.8966 24.0049C49.882 23.8307 49.8381 23.6587 49.7619 23.4979L48.882 21.6407C48.7175 21.2935 48.4236 21.0253 48.0636 20.8937L46.257 20.2338C46.1161 20.1823 45.9695 20.1542 45.8222 20.1477C46.1126 20.0672 46.4225 20.0768 46.7092 20.1816L48.5159 20.8416C48.8758 20.9731 49.1698 21.2414 49.3343 21.5886L50.2141 23.4458C50.3819 23.7998 50.4011 24.2066 50.2675 24.575L49.9604 25.4219C49.9001 25.5881 49.8105 25.7419 49.6955 25.8758L46.2462 29.9C45.9491 30.2467 45.5147 30.4274 45.0752 30.4077C45.3486 30.3321 45.6006 30.178 45.7941 29.9523L46.3909 29.2561L43.169 28.0792C43.0122 28.0219 42.9313 27.8479 42.9884 27.6905C43.0454 27.5331 43.2189 27.452 43.3756 27.5093L46.8122 28.7646L47.3515 28.1355L43.1994 26.6189C43.0426 26.5615 42.9617 26.3875 43.0188 26.2302C43.0759 26.0728 43.2493 25.9917 43.4061 26.049L47.7727 27.6441L48.3119 27.0149L43.2448 25.1639C43.088 25.1066 43.0072 24.9327 43.0643 24.7753C43.1213 24.618 43.2947 24.5368 43.4515 24.5941L48.7333 26.5235L49.2433 25.9284C49.2528 25.9172 49.2612 25.9051 49.2705 25.8936L43.0849 23.6341C42.9281 23.5768 42.8472 23.4027 42.9043 23.2454C42.9613 23.0875 43.1348 23.0063 43.2915 23.0637Z" fill="#808285"/>
<path d="M35.9025 20.8416L37.7092 20.1816C38.0691 20.05 38.4662 20.066 38.8145 20.2258L40.678 21.0809C41.0332 21.2439 41.3084 21.5432 41.442 21.9115L41.7491 22.7583C41.8094 22.9244 41.8392 23.1002 41.837 23.277L41.772 28.5848C41.7645 29.1936 41.3824 29.7341 40.8125 29.9424L39.7768 30.3207C39.2067 30.5289 38.5678 30.3613 38.1722 29.8998L34.7229 25.8757C34.6081 25.7417 34.5183 25.5879 34.4581 25.4218L34.151 24.5749C34.0174 24.2065 34.0366 23.7997 34.2043 23.4457L35.0841 21.5885C35.2486 21.2413 35.5426 20.973 35.9025 20.8416Z" fill="black"/>
<path d="M35.1302 25.2539L41.3913 22.9667L41.1288 22.243C41.1281 22.2411 41.1272 22.2393 41.1264 22.2373L34.8655 24.5244C34.7087 24.5816 34.5353 24.5005 34.4782 24.3432C34.4212 24.1858 34.5021 24.0118 34.6589 23.9544L40.7927 21.7138C40.6699 21.5898 40.5262 21.4864 40.3648 21.4123L38.5013 20.5572C38.153 20.3974 37.756 20.3815 37.396 20.513L35.5893 21.1729C35.4484 21.2243 35.3181 21.2974 35.2011 21.3873C35.372 21.1383 35.6156 20.9458 35.9022 20.8411L37.709 20.1811C38.0689 20.0496 38.4659 20.0655 38.8143 20.2253L40.6777 21.0804C41.0329 21.2434 41.3082 21.5426 41.4418 21.9109L41.7489 22.7578C41.8092 22.924 41.8389 23.0996 41.8368 23.2764L41.7717 28.5843C41.7662 29.0415 41.5491 29.4602 41.1997 29.7286C41.3608 29.4944 41.4551 29.2137 41.4587 28.916L41.47 27.9977L38.2481 29.1746C38.0913 29.2319 37.9179 29.1507 37.8607 28.9933C37.8037 28.836 37.8845 28.6619 38.0413 28.6047L41.4779 27.3493L41.488 26.5195L37.336 28.0362C37.1792 28.0934 37.0058 28.0124 36.9487 27.855C36.8917 27.6976 36.9726 27.5237 37.1293 27.4663L41.496 25.8712L41.5061 25.0414L36.439 26.8924C36.2822 26.9497 36.1088 26.8685 36.0518 26.7111C35.9947 26.5537 36.0754 26.3797 36.2323 26.3225L41.5141 24.3931L41.5236 23.6082C41.5238 23.5934 41.5225 23.5788 41.5222 23.564L35.3366 25.8235C35.1798 25.8808 35.0064 25.7996 34.9493 25.6423C34.8925 25.4852 34.9734 25.3112 35.1302 25.2539Z" fill="#808285"/>
<path d="M45.5593 39.0909C48.2753 38.5938 50.0756 35.9811 49.5803 33.2552C49.085 30.5293 46.4817 28.7225 43.7657 29.2196C41.0497 29.7167 39.2494 32.3294 39.7447 35.0553C40.24 37.7812 42.8432 39.588 45.5593 39.0909Z" fill="black"/>
<path d="M44.6625 29.9677C42.7995 29.9677 41.1411 30.837 40.0605 32.1911C40.8214 30.395 42.5952 29.1353 44.6625 29.1353C46.7299 29.1353 48.5037 30.395 49.2646 32.1912C48.184 30.8372 46.5256 29.9677 44.6625 29.9677Z" fill="#808285"/>
<path d="M44.6624 37.6992C46.1061 37.6992 47.3913 37.0255 48.2287 35.9762C47.6391 37.3681 46.2644 38.3444 44.6624 38.3444C43.0602 38.3444 41.6856 37.3681 41.0959 35.9761C41.9334 37.0254 43.2186 37.6992 44.6624 37.6992Z" fill="#808285"/>
<path d="M35.8779 39.0991C38.6014 38.6461 40.4433 36.063 39.9919 33.3297C39.5406 30.5963 36.9668 28.7477 34.2433 29.2007C31.5198 29.6537 29.6779 32.2368 30.1293 34.9702C30.5807 37.7036 33.1544 39.5522 35.8779 39.0991Z" fill="black"/>
<path d="M35.0614 29.9677C33.1985 29.9677 31.54 30.837 30.4595 32.1911C31.2203 30.395 32.9941 29.1353 35.0614 29.1353C37.1289 29.1353 38.9027 30.395 39.6636 32.1912C38.5829 30.8372 36.9245 29.9677 35.0614 29.9677Z" fill="#808285"/>
<path d="M35.062 37.6987C36.5057 37.6987 37.791 37.025 38.6283 35.9757C38.0387 37.3676 36.6641 38.3439 35.062 38.3439C33.4599 38.3439 32.0852 37.3676 31.4956 35.9756C32.333 37.025 33.6182 37.6987 35.062 37.6987Z" fill="#808285"/>
<path d="M51.1636 2.51131H52.958C53.1956 2.51131 53.3883 2.31798 53.3883 2.07939C53.3883 1.84087 53.1957 1.64746 52.958 1.64746H51.1636V2.51131Z" fill="black"/>
<path d="M52.006 2.07922C52.006 1.0389 51.6305 0.19462 51.1636 0.171875V3.98656C51.6304 3.96382 52.006 3.11946 52.006 2.07922Z" fill="black"/>
<path d="M51.9981 2.32314C52.0027 2.26667 52.006 2.20949 52.006 2.15108C52.006 1.41705 51.6305 0.821268 51.1636 0.805176V1.14929C51.5932 1.16415 51.9448 1.67042 51.9981 2.32314Z" fill="white"/>
<path d="M51.2206 0H50.8887V4.15896H51.2206V0Z" fill="black"/>
<path d="M51.2206 0.453125H50.8887V1.02825H51.2206V0.453125Z" fill="white"/>
<path d="M52.4878 9.99561H52.7605V2.07952H52.4878V9.99561Z" fill="black"/>
<path d="M53.0305 10.4485C53.0305 8.44889 55.151 6.82594 57.7874 6.78223V14.1147C55.151 14.071 53.0305 12.4481 53.0305 10.4485Z" fill="black"/>
<path d="M53.0747 10.9173C53.0485 10.8088 53.0305 10.6989 53.0305 10.5866C53.0305 9.17561 55.151 8.03038 57.7873 7.99951V8.66098C55.3609 8.68945 53.3762 9.66262 53.0747 10.9173Z" fill="white"/>
<path d="M57.4659 14.4453H59.3403V6.45109H57.4659V14.4453Z" fill="black"/>
<path d="M59.3396 7.32227H57.4651V8.4278H59.3396V7.32227Z" fill="white"/>
<path d="M12.9836 23.3902C11.3033 23.3902 9.71454 23.7832 8.30342 24.4827C6.15761 25.5463 3.82148 26.1678 1.42823 26.1678H0C2.65303 21.7556 7.47453 18.8047 12.9837 18.8047C17.9696 18.8047 22.3922 21.2216 25.1539 24.9512C25.5256 25.4532 25.1623 26.1678 24.539 26.1678C22.1459 26.1678 19.8097 25.5463 17.664 24.4827C16.2527 23.7833 14.664 23.3902 12.9836 23.3902Z" fill="black"/>
<path opacity="0.5" d="M3.35229 22.2736C5.97064 20.1071 9.32483 18.8047 12.9834 18.8047C14.2348 18.8047 15.4506 18.9573 16.6137 19.2444C16.6137 19.8098 16.0868 20.2334 15.5404 20.0962C14.3653 19.8012 13.1365 19.6427 11.8702 19.6427C8.71139 19.6426 5.77985 20.6141 3.35229 22.2736Z" fill="white"/>
<path d="M5.22522 23.904C5.22522 23.3284 4.61486 22.8612 3.85596 22.8486V24.9592C4.61486 24.9467 5.22522 24.4796 5.22522 23.904Z" fill="black"/>
<path d="M5.21242 24.0386C5.21997 24.0073 5.22514 23.9758 5.22514 23.9434C5.22514 23.5372 4.61478 23.2076 3.85596 23.1987V23.3891C4.55435 23.3973 5.12562 23.6775 5.21242 24.0386Z" fill="white"/>
<path d="M2.30908 23.904C2.30908 23.3284 2.91944 22.8612 3.67834 22.8486V24.9592C2.91944 24.9467 2.30908 24.4796 2.30908 23.904Z" fill="#F7941D"/>
<path opacity="0.5" d="M2.3218 24.0386C2.31425 24.0073 2.30908 23.9758 2.30908 23.9434C2.30908 23.5372 2.91944 23.2076 3.67826 23.1987V23.3891C2.97987 23.3973 2.40852 23.6775 2.3218 24.0386Z" fill="white"/>
<path d="M3.94845 22.7534H3.40894V25.0545H3.94845V22.7534Z" fill="black"/>
<path d="M3.94845 23.0039H3.40894V23.3221H3.94845V23.0039Z" fill="white"/>
<path d="M8.41349 18.5119C8.41349 17.6223 7.851 16.9003 7.15161 16.8809V20.143C7.851 20.1235 8.41349 19.4015 8.41349 18.5119Z" fill="black"/>
<path d="M8.40177 18.7205C8.40871 18.6722 8.41349 18.6233 8.41349 18.5733C8.41349 17.9456 7.851 17.4361 7.15161 17.4224V17.7167C7.79535 17.7293 8.32184 18.1623 8.40177 18.7205Z" fill="white"/>
<path d="M5.23413 18.5119C5.23413 17.6223 5.96698 16.9003 6.8782 16.8809V20.143C5.96698 20.1236 5.23413 19.4015 5.23413 18.5119Z" fill="#ED1C24"/>
<path opacity="0.5" d="M5.24939 18.72C5.24037 18.6717 5.23413 18.6228 5.23413 18.5728C5.23413 17.9451 5.96698 17.4356 6.8782 17.4219V17.7162C6.03951 17.7288 5.35354 18.1617 5.24939 18.72Z" fill="white"/>
<path d="M7.2946 16.7334H6.46069V20.9629H7.2946V16.7334Z" fill="black"/>
<path d="M7.2946 17.1206H6.46069V17.6125H7.2946V17.1206Z" fill="white"/>
<path d="M66.3055 21.3105C68.1844 21.3105 69.9647 21.7328 71.56 22.4848C71.5581 22.5048 71.5562 22.5248 71.5542 22.5447C71.4198 23.9105 70.0683 24.7779 68.7458 24.4286C67.9667 24.2229 67.1489 24.1132 66.3054 24.1132C61.9169 24.1132 58.2194 27.0734 57.0826 31.1125C56.7094 32.4386 55.2534 33.155 54.0094 32.5721L53.9834 32.5599C54.5732 26.2495 59.8638 21.3105 66.3055 21.3105Z" fill="#00519B"/>
<path opacity="0.5" d="M66.1074 22.2679C60.3134 22.2679 55.4529 26.2644 54.1045 31.6598C55.0886 25.7867 60.1742 21.3105 66.3058 21.3105C68.1847 21.3105 69.965 21.7328 71.5603 22.4848C71.5583 22.5048 71.5565 22.5247 71.5546 22.5447C71.5234 22.8619 71.4242 23.1506 71.2774 23.405C69.7036 22.6774 67.9537 22.2679 66.1074 22.2679Z" fill="white"/>
<path d="M66.3061 34.1529C66.3768 34.1529 66.4485 34.1349 66.5143 34.0967C66.7139 33.9811 66.7821 33.7251 66.667 33.5248L51.6801 7.47268C51.1032 6.47004 50.1718 5.75248 49.0574 5.45293C47.943 5.15306 46.7791 5.30679 45.7799 5.88609L40.0968 9.17903C39.8973 9.29461 39.829 9.55061 39.9441 9.75099C40.0592 9.95136 40.3144 10.0203 40.5141 9.90417L46.1972 6.61131C47.0033 6.14434 47.9425 6.02001 48.8415 6.26185C49.7406 6.50362 50.492 7.08238 50.9574 7.89153L65.9443 33.9436C66.0216 34.0779 66.1618 34.1529 66.3061 34.1529Z" fill="black"/>
<path d="M66.3061 33.8736C66.3297 33.8736 66.3536 33.8676 66.3755 33.8548C66.442 33.8164 66.4649 33.731 66.4265 33.6643L51.4396 7.61217C50.8998 6.67382 50.0284 6.00291 48.9858 5.72239C47.9431 5.44218 46.8541 5.58584 45.9194 6.12778L40.2363 9.42064C40.1698 9.45909 40.147 9.54442 40.1853 9.61119C40.2239 9.67772 40.3087 9.70086 40.3753 9.66217L46.0584 6.36923C46.9288 5.86489 47.9428 5.73183 48.9138 5.99193C49.8847 6.25311 50.6961 6.8779 51.1986 7.75166L66.1855 33.8037C66.2113 33.8485 66.258 33.8736 66.3061 33.8736Z" fill="#D1D3D4"/>
<path d="M40.8862 10.1827L44.1771 8.27585C44.5486 8.06062 44.6758 7.5839 44.4614 7.21116C44.2469 6.83834 43.772 6.71061 43.4006 6.92584L40.1097 8.83272C39.7382 9.04794 39.6109 9.52466 39.8254 9.89741C40.0398 10.2702 40.5147 10.398 40.8862 10.1827Z" fill="#808285"/>
<path d="M44.4561 7.20459C44.4575 7.20707 44.4595 7.20892 44.461 7.2114C44.6754 7.58422 44.5481 8.06086 44.1767 8.27609L40.8858 10.183C40.5144 10.3982 40.0394 10.2705 39.8249 9.89772C39.8235 9.89525 39.8229 9.89262 39.8215 9.89006L44.4561 7.20459Z" fill="black"/>
<path d="M39.8251 9.89783C40.0396 10.2707 40.5146 10.3984 40.886 10.1831C41.2574 9.96785 41.3847 9.49113 41.1702 9.11838C40.9558 8.74557 40.4808 8.61784 40.1094 8.83306C39.7379 9.04837 39.6107 9.52501 39.8251 9.89783Z" fill="#414042"/>
<path d="M40.0776 9.75135C40.2116 9.98437 40.5085 10.0642 40.7406 9.92968C40.9728 9.79514 41.0524 9.49721 40.9183 9.26419C40.7843 9.03117 40.4874 8.95133 40.2553 9.08586C40.0231 9.2204 39.9435 9.51833 40.0776 9.75135Z" fill="#808285"/>
<path d="M66.3068 34.5722C66.4484 34.5722 66.5918 34.5359 66.7232 34.4596C67.1223 34.2285 67.2591 33.7162 67.0287 33.3157L52.3463 7.79251C52.1159 7.39207 51.6053 7.25436 51.2064 7.48607C50.8074 7.71724 50.6706 8.22947 50.901 8.62998L65.5834 34.1532C65.7379 34.4217 66.0185 34.5722 66.3068 34.5722Z" fill="#00519B"/>
<path d="M52.3444 7.79144L50.8992 8.62891L57.1806 19.5478L58.6259 18.7104L52.3444 7.79144Z" fill="black"/>
<path opacity="0.5" d="M66.8396 34.3757L51.3372 7.427C51.7109 7.28883 52.1404 7.43459 52.3464 7.79255L67.0289 33.3158C67.2348 33.6738 67.1457 34.1197 66.8396 34.3757Z" fill="white"/>
<path d="M12.2614 33.3156L17.905 23.5048C18.13 23.1138 18.6232 22.9722 19.0202 23.1845C19.4367 23.4072 19.5864 23.932 19.3504 24.3423L13.7067 34.1531C13.5521 34.4219 13.2717 34.5721 12.9832 34.5721C12.8416 34.5721 12.6983 34.5358 12.5668 34.4596C12.1678 34.2283 12.0309 33.7161 12.2614 33.3156Z" fill="#00519B"/>
<path d="M15.8521 27.0733L17.6701 23.9131L19.1181 24.7458L17.2974 27.9108L15.8521 27.0733Z" fill="#012D54"/>
<path opacity="0.5" d="M12.4066 34.3353C12.1372 34.0746 12.0659 33.6558 12.2616 33.3159L17.9054 23.5051C18.1004 23.1659 18.4976 23.0151 18.8586 23.1196L12.4066 34.3353Z" fill="white"/>
<path d="M24.4745 23.8483C24.4745 23.8483 33.7155 20.815 33.7155 19.2263C33.7155 18.7902 33.3126 18.4666 32.8887 18.5622L26.2353 20.0624C24.9145 20.3603 23.5314 20.184 22.3266 19.5645L18.5847 17.6404C18.118 17.4005 17.5637 17.7405 17.5637 18.2667V19.0393C17.5637 20.3326 23.2396 24.4256 24.4745 23.8483Z" fill="black"/>
<path opacity="0.5" d="M18.5855 17.6407L22.3273 19.5647C23.5321 20.1843 24.9153 20.3604 26.2361 20.0626L31.6839 18.8342L25.1229 20.6213C23.8019 20.9191 22.419 20.7429 21.2141 20.1234L18.132 18.5386C17.5978 18.2639 17.9167 17.4069 18.4858 17.5984C18.5193 17.6096 18.5526 17.6237 18.5855 17.6407Z" fill="white"/>
<path d="M34.5665 20.6244H46.2787C49.0718 20.6244 51.3362 18.2416 51.3362 15.3021V13.8219C51.3362 9.60642 41.4696 10.3161 33.7324 19.7467C33.7324 20.2315 34.1058 20.6244 34.5665 20.6244Z" fill="black"/>
<path d="M35.302 19.5863H46.2076C48.8084 19.5863 50.9168 17.4703 50.9168 14.86V13.5454C50.9168 9.80199 41.7297 10.4322 34.5254 18.8069C34.5255 19.2374 34.8731 19.5863 35.302 19.5863Z" fill="#00519B"/>
<path opacity="0.5" d="M50.082 15.9774V14.6628C50.082 11.066 41.6011 11.5111 34.5462 18.98C34.5334 18.9242 34.5254 18.8666 34.5254 18.8069C41.7297 10.4322 50.9168 9.80201 50.9168 13.5454V14.8599C50.9168 16.1742 50.3815 17.3624 49.5189 18.219C49.8778 17.552 50.082 16.7888 50.082 15.9774Z" fill="white"/>
<path d="M26.2661 38.5626H28.7505C29.1651 38.5626 29.5012 38.2253 29.5012 37.8091C29.5012 37.393 29.1651 37.0557 28.7505 37.0557H26.2661C25.8515 37.0557 25.5154 37.393 25.5154 37.8091C25.5154 38.2252 25.8515 38.5626 26.2661 38.5626Z" fill="black"/>
<path d="M26.2661 37.0552H28.7503C29.01 37.0552 29.2388 37.1876 29.3736 37.3887C29.2388 37.5898 29.01 37.7222 28.7503 37.7222H26.2661C26.0064 37.7222 25.7776 37.5898 25.6428 37.3887C25.7776 37.1876 26.0064 37.0552 26.2661 37.0552Z" fill="#808285"/>
<path d="M5.97614 40.0059H21.0916V35.6097H5.97614V40.0059Z" fill="#BCBEC0"/>
<path d="M5.97614 40.0059H21.0916V37.8078H5.97614V40.0059Z" fill="#939598"/>
<path opacity="0.5" d="M5.97614 36.6714H21.0916V35.6097H5.97614V36.6714Z" fill="white"/>
<path d="M26.7214 38.6401L21.0913 40.0064V35.6104L26.7214 36.9767V38.6401Z" fill="#BCBEC0"/>
<path d="M26.7214 38.6403L21.0913 40.0066V37.8086H26.7214V38.6403Z" fill="#939598"/>
<path opacity="0.5" d="M26.7214 37.3784L21.0913 36.672V35.6104L26.7214 36.9767V37.3784Z" fill="white"/>
<path d="M26.7214 38.6401L21.0913 40.0064V35.6104L26.7214 36.9767V38.6401Z" fill="#BCBEC0"/>
<path d="M5.20776 38.6401L5.97607 40.0064V35.6104L5.20776 36.9767V38.6401Z" fill="#BCBEC0"/>
<path d="M5.20776 38.6398L5.97607 40.0061V37.8081H5.20776V38.6398Z" fill="#939598"/>
<path opacity="0.5" d="M5.20776 37.3784L5.97607 36.672V35.6104L5.20776 36.9767V37.3784Z" fill="white"/>
<path d="M5.20776 38.6401L5.97607 40.0064V35.6104L5.20776 36.9767V38.6401Z" fill="#BCBEC0"/>
</svg>
