<svg width="10" height="16" viewBox="0 0 10 16" fill="none" xmlns="http://www.w3.org/2000/svg">
<path d="M4.05141 15.92V0.879999H5.36341V15.92H4.05141ZM4.54741 14.16C3.67274 14.16 2.83541 14.0373 2.03541 13.792C1.23541 13.536 0.600745 13.2107 0.131411 12.816L0.851411 11.2C1.29941 11.552 1.85408 11.8453 2.51541 12.08C3.17674 12.3147 3.85408 12.432 4.54741 12.432C5.13408 12.432 5.60874 12.368 5.97141 12.24C6.33408 12.112 6.60074 11.9413 6.77141 11.728C6.94208 11.504 7.02741 11.2533 7.02741 10.976C7.02741 10.6347 6.90474 10.3627 6.65941 10.16C6.41408 9.94667 6.09408 9.78133 5.69941 9.664C5.31541 9.536 4.88341 9.41867 4.40341 9.312C3.93408 9.20533 3.45941 9.08267 2.97941 8.944C2.51008 8.79467 2.07808 8.608 1.68341 8.384C1.29941 8.14933 0.984745 7.84 0.739411 7.456C0.494078 7.072 0.371411 6.58133 0.371411 5.984C0.371411 5.376 0.531411 4.82133 0.851411 4.32C1.18208 3.808 1.67808 3.40267 2.33941 3.104C3.01141 2.79467 3.85941 2.64 4.88341 2.64C5.55541 2.64 6.22208 2.72533 6.88341 2.896C7.54475 3.06667 8.12075 3.312 8.61141 3.632L7.95541 5.248C7.45408 4.94933 6.93674 4.73067 6.40341 4.592C5.87008 4.44267 5.35808 4.368 4.86741 4.368C4.29141 4.368 3.82208 4.43733 3.45941 4.576C3.10741 4.71467 2.84608 4.896 2.67541 5.12C2.51541 5.344 2.43541 5.6 2.43541 5.888C2.43541 6.22933 2.55274 6.50667 2.78741 6.72C3.03274 6.92267 3.34741 7.08267 3.73141 7.2C4.12608 7.31733 4.56341 7.43467 5.04341 7.552C5.52341 7.65867 5.99808 7.78133 6.46741 7.92C6.94741 8.05867 7.37941 8.24 7.76341 8.464C8.15808 8.688 8.47274 8.992 8.70741 9.376C8.95275 9.76 9.07541 10.2453 9.07541 10.832C9.07541 11.4293 8.91008 11.984 8.57941 12.496C8.25941 12.9973 7.76341 13.4027 7.09141 13.712C6.41941 14.0107 5.57141 14.16 4.54741 14.16Z" fill="black"/>
</svg>
