<svg width="160" height="40" viewBox="0 0 160 40" fill="none" xmlns="http://www.w3.org/2000/svg">
<path fill-rule="evenodd" clip-rule="evenodd" d="M25.4977 11.1928C25.805 11.0655 26.1344 11 26.4671 11C26.7997 11 27.1291 11.0655 27.4364 11.1928C27.7437 11.3201 28.0229 11.5067 28.2582 11.7419C28.4934 11.9771 28.6799 12.2563 28.8072 12.5637C28.9345 12.871 29 13.2004 29 13.533C29 13.8656 28.9345 14.195 28.8072 14.5023C28.6799 14.8096 28.4934 15.0889 28.2582 15.3241L22.6859 20.8964C22.2959 21.2863 21.8003 21.5512 21.2603 21.6593C21.2603 21.6593 21.2604 21.6592 21.2603 21.6593L18.6839 22.1749C18.4446 22.2228 18.1973 22.148 18.0248 21.9755C17.8522 21.803 17.7773 21.5557 17.8251 21.3164L18.3398 18.74C18.4481 18.1999 18.714 17.7034 19.1037 17.3142M19.1037 17.3142L24.676 11.7419C24.9112 11.5067 25.1904 11.3201 25.4977 11.1928M26.4671 12.4595C26.3261 12.4595 26.1865 12.4872 26.0562 12.5412C25.926 12.5951 25.8077 12.6742 25.708 12.7739L24.6541 13.8277L26.1727 15.3456L27.2262 14.2921C27.3258 14.1924 27.4049 14.0741 27.4589 13.9438C27.5128 13.8136 27.5406 13.674 27.5406 13.533C27.5406 13.392 27.5128 13.2524 27.4589 13.1222C27.4049 12.9919 27.3258 12.8736 27.2262 12.7739C27.1265 12.6742 27.0081 12.5951 26.8779 12.5412C26.7476 12.4872 26.608 12.4595 26.4671 12.4595ZM25.1407 16.3776L23.6221 14.8597L20.1357 18.3462C19.9498 18.5318 19.8226 18.7687 19.7709 19.0262C19.7709 19.0263 19.7709 19.0262 19.7709 19.0262L19.4707 20.529L20.9739 20.2282C21.2317 20.1766 21.4679 20.0504 21.6539 19.8644L25.1407 16.3776Z" fill="white"/>
<path fill-rule="evenodd" clip-rule="evenodd" d="M13.6757 14.4053C13.3531 14.4053 13.0438 14.5334 12.8157 14.7615C12.5876 14.9896 12.4595 15.2989 12.4595 15.6215V26.3243C12.4595 26.6469 12.5876 26.9562 12.8157 27.1843C13.0438 27.4124 13.3531 27.5405 13.6757 27.5405H24.3785C24.7011 27.5405 25.0104 27.4124 25.2385 27.1843C25.4666 26.9562 25.5947 26.6469 25.5947 26.3243V23.4054C25.5947 23.0023 25.9214 22.6756 26.3245 22.6756C26.7275 22.6756 27.0542 23.0023 27.0542 23.4054V26.3243C27.0542 27.0339 26.7723 27.7145 26.2705 28.2163C25.7687 28.7181 25.0881 29 24.3785 29H13.6757C12.9661 29 12.2855 28.7181 11.7837 28.2163C11.2819 27.7145 11 27.0339 11 26.3243V15.6215C11 14.9119 11.2819 14.2313 11.7837 13.7295C12.2855 13.2277 12.9661 12.9458 13.6757 12.9458H16.5946C16.9977 12.9458 17.3244 13.2725 17.3244 13.6755C17.3244 14.0786 16.9977 14.4053 16.5946 14.4053H13.6757Z" fill="white"/>
<path d="M60 17.75C60.1989 17.75 60.3897 17.829 60.5303 17.9697C60.671 18.1103 60.75 18.3011 60.75 18.5V20.75H63C63.1989 20.75 63.3897 20.829 63.5303 20.9697C63.671 21.1103 63.75 21.3011 63.75 21.5C63.75 21.6989 63.671 21.8897 63.5303 22.0303C63.3897 22.171 63.1989 22.25 63 22.25H60.75V24.5C60.75 24.6989 60.671 24.8897 60.5303 25.0303C60.3897 25.171 60.1989 25.25 60 25.25C59.8011 25.25 59.6103 25.171 59.4697 25.0303C59.329 24.8897 59.25 24.6989 59.25 24.5V22.25H57C56.8011 22.25 56.6103 22.171 56.4697 22.0303C56.329 21.8897 56.25 21.6989 56.25 21.5C56.25 21.3011 56.329 21.1103 56.4697 20.9697C56.6103 20.829 56.8011 20.75 57 20.75H59.25V18.5C59.25 18.3011 59.329 18.1103 59.4697 17.9697C59.6103 17.829 59.8011 17.75 60 17.75Z" fill="white"/>
<path d="M69 14.75V29C69 29.7956 68.6839 30.5587 68.1213 31.1213C67.5587 31.6839 66.7956 32 66 32H54C53.2044 32 52.4413 31.6839 51.8787 31.1213C51.3161 30.5587 51 29.7956 51 29V11C51 10.2044 51.3161 9.44129 51.8787 8.87868C52.4413 8.31607 53.2044 8 54 8H62.25L69 14.75ZM64.5 14.75C63.9033 14.75 63.331 14.5129 62.909 14.091C62.4871 13.669 62.25 13.0967 62.25 12.5V9.5H54C53.6022 9.5 53.2206 9.65804 52.9393 9.93934C52.658 10.2206 52.5 10.6022 52.5 11V29C52.5 29.3978 52.658 29.7794 52.9393 30.0607C53.2206 30.342 53.6022 30.5 54 30.5H66C66.3978 30.5 66.7794 30.342 67.0607 30.0607C67.342 29.7794 67.5 29.3978 67.5 29V14.75H64.5Z" fill="white"/>
<path d="M103 25.6331H101.015V19.1429C101.015 19.025 100.919 18.9286 100.801 18.9286H99.1936C99.0758 18.9286 98.9793 19.025 98.9793 19.1429V25.6331H96.9999C96.8204 25.6331 96.7213 25.8393 96.8311 25.9786L99.8311 29.7741C99.8512 29.7997 99.8768 29.8204 99.906 29.8347C99.9353 29.8489 99.9674 29.8563 99.9999 29.8563C100.032 29.8563 100.064 29.8489 100.094 29.8347C100.123 29.8204 100.149 29.7997 100.169 29.7741L103.169 25.9786C103.278 25.8393 103.179 25.6331 103 25.6331Z" fill="white"/>
<path d="M108.02 16.5366C106.793 13.3009 103.667 11 100.005 11C96.3438 11 93.2179 13.2982 91.9911 16.5339C89.6955 17.1366 88 19.2286 88 21.7143C88 24.6741 90.3973 27.0714 93.3545 27.0714H94.4286C94.5464 27.0714 94.6429 26.975 94.6429 26.8571V25.25C94.6429 25.1321 94.5464 25.0357 94.4286 25.0357H93.3545C92.4518 25.0357 91.6027 24.6768 90.9705 24.0259C90.3411 23.3777 90.0062 22.5045 90.0357 21.5991C90.0598 20.892 90.3009 20.2277 90.7375 19.6679C91.1848 19.0973 91.8116 18.6821 92.508 18.4973L93.5232 18.2321L93.8955 17.2518C94.1259 16.6411 94.4473 16.0705 94.8518 15.5536C95.2511 15.0412 95.7241 14.5908 96.2554 14.217C97.3563 13.4429 98.6527 13.033 100.005 13.033C101.358 13.033 102.654 13.4429 103.755 14.217C104.288 14.592 104.76 15.042 105.159 15.5536C105.563 16.0705 105.885 16.6437 106.115 17.2518L106.485 18.2295L107.497 18.4973C108.949 18.8884 109.964 20.2089 109.964 21.7143C109.964 22.6009 109.619 23.4366 108.992 24.0634C108.685 24.3726 108.319 24.6177 107.916 24.7846C107.513 24.9515 107.082 25.0369 106.646 25.0357H105.571C105.454 25.0357 105.357 25.1321 105.357 25.25V26.8571C105.357 26.975 105.454 27.0714 105.571 27.0714H106.646C109.603 27.0714 112 24.6741 112 21.7143C112 19.2312 110.31 17.142 108.02 16.5366Z" fill="white"/>
<path fill-rule="evenodd" clip-rule="evenodd" d="M139.871 9.41176C137.765 9.41176 136.059 11.1183 136.059 13.2235C136.059 15.3287 137.765 17.0353 139.871 17.0353C141.976 17.0353 143.682 15.3287 143.682 13.2235C143.682 11.1183 141.976 9.41176 139.871 9.41176ZM134.647 13.2235C134.647 10.3387 136.986 8 139.871 8C142.755 8 145.094 10.3387 145.094 13.2235C145.094 16.1084 142.755 18.4471 139.871 18.4471C136.986 18.4471 134.647 16.1084 134.647 13.2235Z" fill="white"/>
<path fill-rule="evenodd" clip-rule="evenodd" d="M129 31.2941C129 25.2905 133.867 20.4235 139.871 20.4235C145.874 20.4235 150.741 25.2905 150.741 31.2941C150.741 31.6839 150.425 31.9999 150.035 31.9999H129.706C129.316 31.9999 129 31.6839 129 31.2941ZM140.576 30.5882H149.303C148.942 25.6939 144.857 21.8352 139.871 21.8352C134.884 21.8352 130.799 25.6939 130.438 30.5882H139.165V29.1764H137.047C136.657 29.1764 136.341 28.8604 136.341 28.4705C136.341 28.0807 136.657 27.7646 137.047 27.7646H139.165V25.647C139.165 25.2571 139.481 24.9411 139.871 24.9411C140.26 24.9411 140.576 25.2571 140.576 25.647V27.7646H142.694C143.084 27.7646 143.4 28.0807 143.4 28.4705C143.4 28.8604 143.084 29.1764 142.694 29.1764H140.576V30.5882Z" fill="white"/>
</svg>
