<svg width="231" height="180" viewBox="0 0 231 180" fill="none" xmlns="http://www.w3.org/2000/svg">
<g opacity="0.3">
<path d="M230.003 12.6478C229.948 12.6478 229.902 12.6043 229.902 12.5513C229.902 12.4984 229.948 12.4548 230.003 12.4548C230.058 12.4548 230.104 12.4984 230.104 12.5513C230.104 12.6043 230.058 12.6478 230.003 12.6478Z" fill="white"/>
<path d="M211.922 13.1739C211.561 13.1739 211.269 12.8937 211.269 12.5482C211.269 12.2026 211.561 11.9225 211.922 11.9225C212.283 11.9225 212.576 12.2026 212.576 12.5482C212.572 12.8969 212.28 13.1739 211.922 13.1739Z" fill="white"/>
<path d="M193.838 13.753C193.145 13.753 192.583 13.215 192.583 12.5514C192.583 11.8877 193.145 11.3497 193.838 11.3497C194.531 11.3497 195.093 11.8877 195.093 12.5514C195.093 13.215 194.531 13.753 193.838 13.753Z" fill="white"/>
<path d="M175.757 14.2791C174.761 14.2791 173.953 13.5055 173.953 12.5513C173.953 11.5971 174.761 10.8236 175.757 10.8236C176.754 10.8236 177.561 11.5971 177.561 12.5513C177.561 13.5055 176.754 14.2791 175.757 14.2791Z" fill="white"/>
<path d="M157.673 14.8083C156.373 14.8083 155.316 13.7966 155.316 12.5514C155.316 11.3062 156.373 10.2944 157.673 10.2944C158.974 10.2944 160.03 11.3062 160.03 12.5514C160.03 13.7966 158.974 14.8083 157.673 14.8083Z" fill="white"/>
<path d="M139.589 15.3344C137.983 15.3344 136.68 14.0861 136.68 12.5482C136.68 11.0104 137.983 9.76208 139.589 9.76208C141.195 9.76208 142.499 11.0104 142.499 12.5482C142.499 14.0861 141.195 15.3344 139.589 15.3344Z" fill="white"/>
<path d="M121.508 15.8169C119.626 15.8169 118.098 14.3538 118.098 12.5513C118.098 10.7489 119.626 9.28577 121.508 9.28577C123.391 9.28577 124.918 10.7489 124.918 12.5513C124.918 14.3538 123.391 15.8169 121.508 15.8169Z" fill="white"/>
<path d="M103.424 16.2496C101.291 16.2496 99.5624 14.5938 99.5624 12.5513C99.5624 10.5088 101.291 8.85303 103.424 8.85303C105.557 8.85303 107.286 10.5088 107.286 12.5513C107.286 14.5938 105.557 16.2496 103.424 16.2496Z" fill="white"/>
<path d="M85.3435 16.6324C82.9898 16.6324 81.0817 14.8053 81.0817 12.5513C81.0817 10.2973 82.9898 8.47009 85.3435 8.47009C87.6972 8.47009 89.6052 10.2973 89.6052 12.5513C89.6052 14.8053 87.6972 16.6324 85.3435 16.6324Z" fill="white"/>
<path d="M67.2595 16.8722C64.7661 16.8722 62.7474 14.9359 62.7474 12.5514C62.7474 10.1668 64.7694 8.23047 67.2595 8.23047C69.7496 8.23047 71.7715 10.1637 71.7715 12.5514C71.7715 14.939 69.7528 16.8722 67.2595 16.8722Z" fill="white"/>
<path d="M49.1786 17.0154C46.6041 17.0154 44.517 15.0168 44.517 12.5514C44.517 10.0859 46.6041 8.08728 49.1786 8.08728C51.7531 8.08728 53.8402 10.0859 53.8402 12.5514C53.8402 15.0168 51.7531 17.0154 49.1786 17.0154Z" fill="white"/>
<path d="M31.0946 16.9189C28.5752 16.9189 26.5305 14.9608 26.5305 12.5482C26.5305 10.1356 28.572 8.17749 31.0946 8.17749C33.6172 8.17749 35.6587 10.1325 35.6587 12.5482C35.6587 14.9639 33.6139 16.9189 31.0946 16.9189Z" fill="white"/>
<path d="M13.0138 16.6793C10.631 16.6793 8.70004 14.8301 8.70004 12.5483C8.70004 10.2664 10.631 8.42041 13.0138 8.42041C15.3966 8.42041 17.3243 10.2695 17.3243 12.5483C17.3243 14.8301 15.3934 16.6793 13.0138 16.6793Z" fill="white"/>
<path d="M230.003 30.1056C229.863 30.1056 229.753 29.9998 229.753 29.8659C229.753 29.7321 229.866 29.6262 230.003 29.6262C230.139 29.6262 230.253 29.7352 230.253 29.8659C230.253 29.9998 230.143 30.1056 230.003 30.1056Z" fill="white"/>
<path d="M211.922 30.6349C211.479 30.6349 211.119 30.2906 211.119 29.866C211.119 29.4413 211.479 29.097 211.922 29.097C212.366 29.097 212.725 29.4413 212.725 29.866C212.725 30.2906 212.366 30.6349 211.922 30.6349Z" fill="white"/>
<path d="M193.838 31.2108C193.062 31.2108 192.434 30.6087 192.434 29.866C192.434 29.1232 193.062 28.5211 193.838 28.5211C194.614 28.5211 195.242 29.1232 195.242 29.866C195.242 30.6087 194.614 31.2108 193.838 31.2108Z" fill="white"/>
<path d="M175.757 31.7868C174.65 31.7868 173.752 30.9268 173.752 29.8661C173.752 28.8053 174.65 27.9453 175.757 27.9453C176.865 27.9453 177.763 28.8053 177.763 29.8661C177.763 30.9268 176.865 31.7868 175.757 31.7868Z" fill="white"/>
<path d="M157.673 32.3627C156.233 32.3627 155.066 31.2451 155.066 29.866C155.066 28.487 156.233 27.3694 157.673 27.3694C159.113 27.3694 160.28 28.487 160.28 29.866C160.28 31.2451 159.113 32.3627 157.673 32.3627Z" fill="white"/>
<path d="M139.589 32.8918C137.843 32.8918 136.429 31.5376 136.429 29.866C136.429 28.1943 137.843 26.8401 139.589 26.8401C141.335 26.8401 142.749 28.1943 142.749 29.866C142.749 31.5376 141.335 32.8918 139.589 32.8918Z" fill="white"/>
<path d="M121.508 33.4211C119.46 33.4211 117.799 31.8303 117.799 29.8691C117.799 27.9079 119.46 26.3171 121.508 26.3171C123.556 26.3171 125.218 27.9079 125.218 29.8691C125.218 31.8303 123.556 33.4211 121.508 33.4211Z" fill="white"/>
<path d="M103.424 33.9471C101.071 33.9471 99.1626 32.1199 99.1626 29.866C99.1626 27.612 101.071 25.7848 103.424 25.7848C105.778 25.7848 107.686 27.612 107.686 29.866C107.686 32.1199 105.778 33.9471 103.424 33.9471Z" fill="white"/>
<path d="M85.3435 34.4298C82.7136 34.4298 80.5811 32.3876 80.5811 29.8692C80.5811 27.3507 82.7136 25.3086 85.3435 25.3086C87.9733 25.3086 90.1058 27.3507 90.1058 29.8692C90.1058 32.3876 87.9733 34.4298 85.3435 34.4298Z" fill="white"/>
<path d="M67.2594 34.7659C64.4345 34.7659 62.146 32.5743 62.146 29.8691C62.146 27.1639 64.4345 24.9723 67.2594 24.9723C70.0844 24.9723 72.3729 27.1639 72.3729 29.8691C72.3762 32.5712 70.0844 34.7659 67.2594 34.7659Z" fill="white"/>
<path d="M49.1786 34.9091C46.2702 34.9091 43.9124 32.6512 43.9124 29.866C43.9124 27.0808 46.2702 24.8229 49.1786 24.8229C52.0871 24.8229 54.4449 27.0808 54.4449 29.866C54.4449 32.6512 52.0871 34.9091 49.1786 34.9091Z" fill="white"/>
<path d="M31.0946 34.7659C28.2697 34.7659 25.9811 32.5743 25.9811 29.8691C25.9811 27.1639 28.2697 24.9723 31.0946 24.9723C33.9195 24.9723 36.2081 27.1639 36.2081 29.8691C36.2113 32.5712 33.9195 34.7659 31.0946 34.7659Z" fill="white"/>
<path d="M13.0137 34.4298C10.3839 34.4298 8.25136 32.3876 8.25136 29.8692C8.25136 27.3507 10.3839 25.3086 13.0137 25.3086C15.6436 25.3086 17.7761 27.3507 17.7761 29.8692C17.7761 32.3876 15.6436 34.4298 13.0137 34.4298Z" fill="white"/>
<path d="M230.003 47.4701C229.837 47.4701 229.701 47.3425 229.701 47.1806C229.701 47.0219 229.834 46.8911 230.003 46.8911C230.169 46.8911 230.305 47.0219 230.305 47.1806C230.305 47.3425 230.169 47.4701 230.003 47.4701Z" fill="white"/>
<path d="M211.922 48.046C211.425 48.046 211.018 47.66 211.018 47.1806C211.018 46.7043 211.422 46.3152 211.922 46.3152C212.42 46.3152 212.826 46.7012 212.826 47.1806C212.823 47.66 212.42 48.046 211.922 48.046Z" fill="white"/>
<path d="M193.838 48.6718C192.98 48.6718 192.284 48.0056 192.284 47.1838C192.284 46.362 192.98 45.6958 193.838 45.6958C194.696 45.6958 195.392 46.362 195.392 47.1838C195.392 48.0056 194.696 48.6718 193.838 48.6718Z" fill="white"/>
<path d="M175.757 49.2477C174.567 49.2477 173.602 48.3232 173.602 47.1838C173.602 46.0444 174.567 45.1199 175.757 45.1199C176.947 45.1199 177.913 46.0444 177.913 47.1838C177.913 48.3232 176.947 49.2477 175.757 49.2477Z" fill="white"/>
<path d="M157.673 49.8236C156.152 49.8236 154.917 48.6407 154.917 47.1838C154.917 45.7269 156.152 44.5439 157.673 44.5439C159.198 44.5439 160.43 45.7269 160.43 47.1838C160.43 48.6407 159.198 49.8236 157.673 49.8236Z" fill="white"/>
<path d="M139.589 50.3995C137.735 50.3995 136.231 48.9598 136.231 47.1838C136.231 45.4078 137.735 43.968 139.589 43.968C141.444 43.968 142.947 45.4078 142.947 47.1838C142.947 48.9598 141.444 50.3995 139.589 50.3995Z" fill="white"/>
<path d="M121.508 50.9754C119.321 50.9754 117.546 49.2757 117.546 47.1806C117.546 45.0856 119.321 43.3859 121.508 43.3859C123.696 43.3859 125.471 45.0856 125.471 47.1806C125.471 49.2757 123.696 50.9754 121.508 50.9754Z" fill="white"/>
<path d="M103.424 51.5047C100.931 51.5047 98.9123 49.5715 98.9123 47.1838C98.9123 44.7961 100.931 42.8629 103.424 42.8629C105.918 42.8629 107.936 44.7961 107.936 47.1838C107.936 49.5715 105.918 51.5047 103.424 51.5047Z" fill="white"/>
<path d="M85.3435 52.0806C82.5194 52.0806 80.23 49.8882 80.23 47.1838C80.23 44.4794 82.5194 42.287 85.3435 42.287C88.1676 42.287 90.457 44.4794 90.457 47.1838C90.457 49.8882 88.1676 52.0806 85.3435 52.0806Z" fill="white"/>
<path d="M67.2594 52.5599C64.1582 52.5599 61.6421 50.1535 61.6421 47.1806C61.6421 44.2107 64.1549 41.8013 67.2594 41.8013C70.3639 41.8013 72.8768 44.2107 72.8768 47.1806C72.8768 50.1535 70.3607 52.5599 67.2594 52.5599Z" fill="white"/>
<path d="M49.1786 52.8027C45.938 52.8027 43.311 50.287 43.311 47.1837C43.311 44.0804 45.938 41.5647 49.1786 41.5647C52.4192 41.5647 55.0463 44.0804 55.0463 47.1837C55.0463 50.287 52.4192 52.8027 49.1786 52.8027Z" fill="white"/>
<path d="M31.0946 52.5631C27.9922 52.5631 25.4772 50.1547 25.4772 47.1838C25.4772 44.2128 27.9922 41.8044 31.0946 41.8044C34.1969 41.8044 36.7119 44.2128 36.7119 47.1838C36.7119 50.1547 34.1969 52.5631 31.0946 52.5631Z" fill="white"/>
<path d="M13.0138 52.1273C10.1596 52.1273 7.8483 49.914 7.8483 47.1807C7.8483 44.4475 10.1596 42.2341 13.0138 42.2341C15.8647 42.2341 18.1793 44.4475 18.1793 47.1807C18.1793 49.914 15.8647 52.1273 13.0138 52.1273Z" fill="white"/>
<path d="M230.003 64.8346C229.808 64.8346 229.652 64.6852 229.652 64.4984C229.652 64.3117 229.808 64.1622 230.003 64.1622C230.198 64.1622 230.354 64.3148 230.354 64.4984C230.354 64.6852 230.198 64.8346 230.003 64.8346Z" fill="white"/>
<path d="M211.922 65.4105C211.396 65.4105 210.97 65.0027 210.97 64.4984C210.97 63.9941 211.396 63.5863 211.922 63.5863C212.449 63.5863 212.875 63.9941 212.875 64.4984C212.875 65.0027 212.446 65.4105 211.922 65.4105Z" fill="white"/>
<path d="M193.838 66.0363C192.951 66.0363 192.232 65.3477 192.232 64.4984C192.232 63.6491 192.951 62.9606 193.838 62.9606C194.725 62.9606 195.444 63.6491 195.444 64.4984C195.444 65.3477 194.725 66.0363 193.838 66.0363Z" fill="white"/>
<path d="M175.757 66.6123C174.538 66.6123 173.55 65.6659 173.55 64.4985C173.55 63.3311 174.538 62.3848 175.757 62.3848C176.976 62.3848 177.965 63.3311 177.965 64.4985C177.961 65.6659 176.973 66.6123 175.757 66.6123Z" fill="white"/>
<path d="M157.673 67.1882C156.122 67.1882 154.865 65.984 154.865 64.4985C154.865 63.013 156.122 61.8088 157.673 61.8088C159.224 61.8088 160.482 63.013 160.482 64.4985C160.482 65.984 159.224 67.1882 157.673 67.1882Z" fill="white"/>
<path d="M139.589 67.7641C137.706 67.7641 136.179 66.302 136.179 64.4985C136.179 62.695 137.706 61.2329 139.589 61.2329C141.473 61.2329 142.999 62.695 142.999 64.4985C142.999 66.302 141.473 67.7641 139.589 67.7641Z" fill="white"/>
<path d="M121.508 68.3399C119.295 68.3399 117.497 66.6184 117.497 64.4985C117.497 62.3785 119.291 60.657 121.508 60.657C123.725 60.657 125.52 62.3785 125.52 64.4985C125.52 66.6184 123.722 68.3399 121.508 68.3399Z" fill="white"/>
<path d="M103.424 68.9626C100.85 68.9626 98.7627 66.964 98.7627 64.4985C98.7627 62.0331 100.85 60.0344 103.424 60.0344C105.999 60.0344 108.086 62.0331 108.086 64.4985C108.086 66.964 105.999 68.9626 103.424 68.9626Z" fill="white"/>
<path d="M85.3435 69.5415C82.435 69.5415 80.0772 67.2837 80.0772 64.4984C80.0772 61.7132 82.435 59.4553 85.3435 59.4553C88.252 59.4553 90.6097 61.7132 90.6097 64.4984C90.6097 67.2837 88.252 69.5415 85.3435 69.5415Z" fill="white"/>
<path d="M67.2594 70.1174C64.0188 70.1174 61.3918 67.6017 61.3918 64.4984C61.3918 61.3951 64.0188 58.8794 67.2594 58.8794C70.5 58.8794 73.1271 61.3951 73.1271 64.4984C73.1271 67.6017 70.5 70.1174 67.2594 70.1174Z" fill="white"/>
<path d="M49.1787 70.5004C45.7172 70.5004 42.9112 67.8133 42.9112 64.4985C42.9112 61.1837 45.7172 58.4966 49.1787 58.4966C52.6401 58.4966 55.4462 61.1837 55.4462 64.4985C55.4462 67.8133 52.6401 70.5004 49.1787 70.5004Z" fill="white"/>
<path d="M31.0946 70.1174C27.854 70.1174 25.2269 67.6017 25.2269 64.4984C25.2269 61.3951 27.854 58.8794 31.0946 58.8794C34.3352 58.8794 36.9622 61.3951 36.9622 64.4984C36.9622 67.6017 34.3352 70.1174 31.0946 70.1174Z" fill="white"/>
<path d="M13.0138 69.5883C10.0784 69.5883 7.69878 67.3095 7.69878 64.4985C7.69878 61.6875 10.0784 59.4087 13.0138 59.4087C15.9492 59.4087 18.3288 61.6875 18.3288 64.4985C18.3288 67.3095 15.9492 69.5883 13.0138 69.5883Z" fill="white"/>
<path d="M230.003 82.1026C229.837 82.1026 229.701 81.9749 229.701 81.8131C229.701 81.6543 229.834 81.5236 230.003 81.5236C230.169 81.5236 230.305 81.6512 230.305 81.8131C230.305 81.9749 230.169 82.1026 230.003 82.1026Z" fill="white"/>
<path d="M211.922 82.6816C211.425 82.6816 211.018 82.2956 211.018 81.8162C211.018 81.3399 211.422 80.9508 211.922 80.9508C212.42 80.9508 212.826 81.3368 212.826 81.8162C212.823 82.2925 212.42 82.6816 211.922 82.6816Z" fill="white"/>
<path d="M193.838 83.3042C192.98 83.3042 192.284 82.638 192.284 81.8162C192.284 80.9943 192.98 80.3281 193.838 80.3281C194.696 80.3281 195.392 80.9943 195.392 81.8162C195.392 82.638 194.696 83.3042 193.838 83.3042Z" fill="white"/>
<path d="M175.757 83.8801C174.567 83.8801 173.602 82.9555 173.602 81.8161C173.602 80.6768 174.567 79.7522 175.757 79.7522C176.947 79.7522 177.913 80.6768 177.913 81.8161C177.913 82.9555 176.947 83.8801 175.757 83.8801Z" fill="white"/>
<path d="M157.673 84.4561C156.152 84.4561 154.917 83.2731 154.917 81.8162C154.917 80.3562 156.152 79.1764 157.673 79.1764C159.198 79.1764 160.43 80.3593 160.43 81.8162C160.43 83.2731 159.198 84.4561 157.673 84.4561Z" fill="white"/>
<path d="M139.589 85.032C137.733 85.032 136.231 83.5907 136.231 81.8162C136.231 80.0387 137.736 78.6005 139.589 78.6005C141.445 78.6005 142.95 80.0418 142.95 81.8162C142.95 83.5938 141.445 85.032 139.589 85.032Z" fill="white"/>
<path d="M121.508 85.6079C119.321 85.6079 117.546 83.9082 117.546 81.8131C117.546 79.718 119.321 78.0183 121.508 78.0183C123.696 78.0183 125.471 79.718 125.471 81.8131C125.468 83.9113 123.696 85.6079 121.508 85.6079Z" fill="white"/>
<path d="M103.424 86.1869C100.905 86.1869 98.8602 84.232 98.8602 81.8163C98.8602 79.4037 100.902 77.4456 103.424 77.4456C105.947 77.4456 107.988 79.4005 107.988 81.8163C107.988 84.2289 105.944 86.1869 103.424 86.1869Z" fill="white"/>
<path d="M85.3435 86.713C82.5186 86.713 80.23 84.5215 80.23 81.8162C80.23 79.111 82.5186 76.9194 85.3435 76.9194C88.1684 76.9194 90.457 79.111 90.457 81.8162C90.457 84.5215 88.1684 86.713 85.3435 86.713Z" fill="white"/>
<path d="M67.2594 87.1925C64.1582 87.1925 61.6421 84.7861 61.6421 81.8131C61.6421 78.8433 64.1549 76.4338 67.2594 76.4338C70.3639 76.4338 72.8768 78.8402 72.8768 81.8131C72.8768 84.7861 70.3607 87.1925 67.2594 87.1925Z" fill="white"/>
<path d="M49.1786 87.4353C45.938 87.4353 43.311 84.9196 43.311 81.8163C43.311 78.713 45.938 76.1973 49.1786 76.1973C52.4192 76.1973 55.0463 78.713 55.0463 81.8163C55.0463 84.9196 52.4192 87.4353 49.1786 87.4353Z" fill="white"/>
<path d="M31.0946 87.2423C27.9653 87.2423 25.4285 84.813 25.4285 81.8163C25.4285 78.8196 27.9653 76.3903 31.0946 76.3903C34.2239 76.3903 36.7607 78.8196 36.7607 81.8163C36.7607 84.813 34.2239 87.2423 31.0946 87.2423Z" fill="white"/>
<path d="M13.0138 86.7628C10.1596 86.7628 7.8483 84.5495 7.8483 81.8162C7.8483 79.0861 10.1596 76.8696 13.0138 76.8696C15.8647 76.8696 18.1793 79.083 18.1793 81.8162C18.176 84.5464 15.8647 86.7628 13.0138 86.7628Z" fill="white"/>
<path d="M230.003 99.3737C229.863 99.3737 229.753 99.2647 229.753 99.134C229.753 99.0001 229.866 98.8943 230.003 98.8943C230.139 98.8943 230.253 99.0033 230.253 99.134C230.253 99.2647 230.143 99.3737 230.003 99.3737Z" fill="white"/>
<path d="M211.922 99.8998C211.479 99.8998 211.119 99.5555 211.119 99.1309C211.119 98.7062 211.479 98.3619 211.922 98.3619C212.366 98.3619 212.725 98.7062 212.725 99.1309C212.725 99.5555 212.366 99.8998 211.922 99.8998Z" fill="white"/>
<path d="M193.838 100.522C193.036 100.522 192.385 99.8994 192.385 99.1309C192.385 98.3624 193.036 97.7394 193.838 97.7394C194.641 97.7394 195.291 98.3624 195.291 99.1309C195.291 99.8994 194.641 100.522 193.838 100.522Z" fill="white"/>
<path d="M175.757 101.052C174.65 101.052 173.752 100.192 173.752 99.1308C173.752 98.07 174.65 97.2101 175.757 97.2101C176.865 97.2101 177.763 98.07 177.763 99.1308C177.763 100.192 176.865 101.052 175.757 101.052Z" fill="white"/>
<path d="M157.673 101.628C156.233 101.628 155.066 100.51 155.066 99.1309C155.066 97.7521 156.233 96.6343 157.673 96.6343C159.113 96.6343 160.28 97.7521 160.28 99.1309C160.28 100.51 159.113 101.628 157.673 101.628Z" fill="white"/>
<path d="M139.589 102.203C137.817 102.203 136.381 100.828 136.381 99.1309C136.381 97.434 137.817 96.0583 139.589 96.0583C141.361 96.0583 142.798 97.434 142.798 99.1309C142.798 100.828 141.361 102.203 139.589 102.203Z" fill="white"/>
<path d="M121.508 102.733C119.431 102.733 117.747 101.12 117.747 99.1308C117.747 97.1416 119.431 95.5291 121.508 95.5291C123.586 95.5291 125.27 97.1416 125.27 99.1308C125.27 101.12 123.586 102.733 121.508 102.733Z" fill="white"/>
<path d="M103.424 103.262C101.041 103.262 99.1137 101.413 99.1137 99.134C99.1137 96.8521 101.045 95.0061 103.424 95.0061C105.807 95.0061 107.738 96.8553 107.738 99.134C107.738 101.413 105.807 103.262 103.424 103.262Z" fill="white"/>
<path d="M85.3435 103.695C82.7136 103.695 80.5811 101.652 80.5811 99.134C80.5811 96.6155 82.7136 94.5734 85.3435 94.5734C87.9733 94.5734 90.1058 96.6155 90.1058 99.134C90.1058 101.652 87.9733 103.695 85.3435 103.695Z" fill="white"/>
<path d="M67.2594 104.078C64.4085 104.078 62.094 101.864 62.094 99.1309C62.094 96.4008 64.4053 94.1843 67.2594 94.1843C70.1104 94.1843 72.4249 96.3977 72.4249 99.1309C72.4249 101.864 70.1136 104.078 67.2594 104.078Z" fill="white"/>
<path d="M49.1786 104.221C46.2432 104.221 43.8636 101.942 43.8636 99.1308C43.8636 96.3198 46.2432 94.041 49.1786 94.041C52.1141 94.041 54.4937 96.3198 54.4937 99.1308C54.4937 101.942 52.1141 104.221 49.1786 104.221Z" fill="white"/>
<path d="M31.0946 104.078C28.2437 104.078 25.9291 101.864 25.9291 99.1309C25.9291 96.4008 28.2404 94.1843 31.0946 94.1843C33.9488 94.1843 36.2601 96.3977 36.2601 99.1309C36.2601 101.864 33.9488 104.078 31.0946 104.078Z" fill="white"/>
<path d="M13.0138 103.741C10.3546 103.741 8.1994 101.677 8.1994 99.1309C8.1994 96.5845 10.3546 94.5205 13.0138 94.5205C15.6729 94.5205 17.8282 96.5845 17.8282 99.1309C17.8249 101.677 15.6729 103.741 13.0138 103.741Z" fill="white"/>
<path d="M230.003 116.592C229.918 116.592 229.853 116.526 229.853 116.449C229.853 116.371 229.922 116.305 230.003 116.305C230.084 116.305 230.152 116.371 230.152 116.449C230.152 116.53 230.087 116.592 230.003 116.592Z" fill="white"/>
<path d="M211.922 117.071C211.563 117.071 211.272 116.793 211.272 116.449C211.272 116.105 211.563 115.826 211.922 115.826C212.281 115.826 212.572 116.105 212.572 116.449C212.572 116.793 212.281 117.071 211.922 117.071Z" fill="white"/>
<path d="M193.838 117.65C193.145 117.65 192.583 117.112 192.583 116.449C192.583 115.785 193.145 115.247 193.838 115.247C194.531 115.247 195.093 115.785 195.093 116.449C195.093 117.112 194.531 117.65 193.838 117.65Z" fill="white"/>
<path d="M175.757 118.176C174.761 118.176 173.953 117.403 173.953 116.449C173.953 115.494 174.761 114.721 175.757 114.721C176.754 114.721 177.561 115.494 177.561 116.449C177.561 117.403 176.754 118.176 175.757 118.176Z" fill="white"/>
<path d="M157.673 118.706C156.373 118.706 155.316 117.694 155.316 116.449C155.316 115.203 156.373 114.192 157.673 114.192C158.974 114.192 160.03 115.203 160.03 116.449C160.03 117.694 158.974 118.706 157.673 118.706Z" fill="white"/>
<path d="M139.589 119.235C137.983 119.235 136.68 117.986 136.68 116.449C136.68 114.911 137.983 113.662 139.589 113.662C141.195 113.662 142.499 114.911 142.499 116.449C142.499 117.986 141.195 119.235 139.589 119.235Z" fill="white"/>
<path d="M121.508 119.714C119.626 119.714 118.098 118.251 118.098 116.449C118.098 114.646 119.626 113.183 121.508 113.183C123.391 113.183 124.918 114.646 124.918 116.449C124.918 118.251 123.391 119.714 121.508 119.714Z" fill="white"/>
<path d="M103.424 120.194C101.266 120.194 99.5136 118.516 99.5136 116.449C99.5136 114.382 101.266 112.704 103.424 112.704C105.586 112.704 107.335 114.382 107.335 116.449C107.338 118.516 105.586 120.194 103.424 120.194Z" fill="white"/>
<path d="M85.3435 120.577C82.9607 120.577 81.033 118.727 81.033 116.446C81.033 114.164 82.964 112.318 85.3435 112.318C87.7231 112.318 89.6541 114.167 89.6541 116.446C89.6541 118.731 87.7231 120.577 85.3435 120.577Z" fill="white"/>
<path d="M67.2595 120.819C64.7401 120.819 62.6954 118.861 62.6954 116.449C62.6954 114.036 64.7401 112.078 67.2595 112.078C69.7788 112.078 71.8235 114.033 71.8235 116.449C71.8235 118.864 69.7788 120.819 67.2595 120.819Z" fill="white"/>
<path d="M49.1786 120.913C46.6041 120.913 44.517 118.914 44.517 116.449C44.517 113.983 46.6041 111.985 49.1786 111.985C51.7531 111.985 53.8402 113.983 53.8402 116.449C53.8402 118.914 51.7531 120.913 49.1786 120.913Z" fill="white"/>
<path d="M31.0946 120.819C28.5752 120.819 26.5305 118.861 26.5305 116.449C26.5305 114.036 28.572 112.078 31.0946 112.078C33.6172 112.078 35.6587 114.033 35.6587 116.449C35.6587 118.864 33.6139 120.819 31.0946 120.819Z" fill="white"/>
<path d="M13.0138 120.577C10.631 120.577 8.70004 118.727 8.70004 116.446C8.70004 114.164 10.631 112.318 13.0138 112.318C15.3966 112.318 17.3243 114.167 17.3243 116.446C17.3243 118.731 15.3934 120.577 13.0138 120.577Z" fill="white"/>
<path d="M230.003 133.814C229.973 133.814 229.95 133.792 229.95 133.767C229.95 133.739 229.973 133.72 230.003 133.72C230.032 133.72 230.052 133.742 230.052 133.767C230.052 133.792 230.032 133.814 230.003 133.814Z" fill="white"/>
<path d="M211.922 134.196C211.672 134.196 211.47 134.003 211.47 133.763C211.47 133.524 211.672 133.331 211.922 133.331C212.172 133.331 212.374 133.524 212.374 133.763C212.371 134.003 212.169 134.196 211.922 134.196Z" fill="white"/>
<path d="M193.838 134.722C193.285 134.722 192.837 134.293 192.837 133.763C192.837 133.234 193.285 132.805 193.838 132.805C194.391 132.805 194.839 133.234 194.839 133.763C194.839 134.293 194.391 134.722 193.838 134.722Z" fill="white"/>
<path d="M175.757 135.254C174.899 135.254 174.203 134.588 174.203 133.766C174.203 132.945 174.899 132.278 175.757 132.278C176.615 132.278 177.311 132.945 177.311 133.766C177.311 134.585 176.615 135.254 175.757 135.254Z" fill="white"/>
<path d="M157.673 135.734C156.539 135.734 155.619 134.853 155.619 133.766C155.619 132.68 156.539 131.799 157.673 131.799C158.808 131.799 159.728 132.68 159.728 133.766C159.728 134.853 158.808 135.734 157.673 135.734Z" fill="white"/>
<path d="M139.589 136.213C138.178 136.213 137.031 135.117 137.031 133.763C137.031 132.412 138.175 131.313 139.589 131.313C141.003 131.313 142.148 132.409 142.148 133.763C142.148 135.117 141.003 136.213 139.589 136.213Z" fill="white"/>
<path d="M121.508 136.693C119.818 136.693 118.449 135.382 118.449 133.763C118.449 132.145 119.818 130.834 121.508 130.834C123.199 130.834 124.567 132.145 124.567 133.763C124.567 135.382 123.196 136.693 121.508 136.693Z" fill="white"/>
<path d="M103.424 137.076C101.514 137.076 99.9655 135.593 99.9655 133.763C99.9655 131.934 101.514 130.451 103.424 130.451C105.335 130.451 106.883 131.934 106.883 133.763C106.883 135.593 105.335 137.076 103.424 137.076Z" fill="white"/>
<path d="M85.3435 137.365C83.2662 137.365 81.5823 135.753 81.5823 133.763C81.5823 131.774 83.2662 130.162 85.3435 130.162C87.4207 130.162 89.1046 131.774 89.1046 133.763C89.1046 135.753 87.4207 137.365 85.3435 137.365Z" fill="white"/>
<path d="M67.2594 137.605C65.0456 137.605 63.248 135.886 63.248 133.763C63.248 131.64 65.0456 129.922 67.2594 129.922C69.4732 129.922 71.2709 131.64 71.2709 133.763C71.2709 135.886 69.4764 137.605 67.2594 137.605Z" fill="white"/>
<path d="M49.1786 137.651C46.9362 137.651 45.1184 135.911 45.1184 133.763C45.1184 131.616 46.9362 129.875 49.1786 129.875C51.421 129.875 53.2388 131.616 53.2388 133.763C53.2388 135.911 51.421 137.651 49.1786 137.651Z" fill="white"/>
<path d="M31.0946 137.605C28.8808 137.605 27.0831 135.886 27.0831 133.763C27.0831 131.64 28.8808 129.922 31.0946 129.922C33.3083 129.922 35.106 131.64 35.106 133.763C35.106 135.886 33.3116 137.605 31.0946 137.605Z" fill="white"/>
<path d="M13.0137 137.415C10.9105 137.415 9.20385 135.781 9.20385 133.766C9.20385 131.752 10.9105 130.118 13.0137 130.118C15.117 130.118 16.8237 131.752 16.8237 133.766C16.8237 135.781 15.117 137.415 13.0137 137.415Z" fill="white"/>
<path d="M211.922 151.274C211.811 151.274 211.721 151.188 211.721 151.081C211.721 150.975 211.811 150.888 211.922 150.888C212.033 150.888 212.124 150.975 212.124 151.081C212.124 151.188 212.033 151.274 211.922 151.274Z" fill="white"/>
<path d="M193.838 151.754C193.451 151.754 193.136 151.452 193.136 151.081C193.136 150.711 193.451 150.409 193.838 150.409C194.225 150.409 194.54 150.711 194.54 151.081C194.54 151.452 194.225 151.754 193.838 151.754Z" fill="white"/>
<path d="M175.757 152.233C175.093 152.233 174.555 151.717 174.555 151.081C174.555 150.445 175.093 149.929 175.757 149.929C176.422 149.929 176.96 150.445 176.96 151.081C176.96 151.717 176.422 152.233 175.757 152.233Z" fill="white"/>
<path d="M157.673 152.712C156.731 152.712 155.97 151.981 155.97 151.081C155.97 150.178 156.734 149.45 157.673 149.45C158.616 149.45 159.38 150.181 159.38 151.081C159.377 151.984 158.616 152.712 157.673 152.712Z" fill="white"/>
<path d="M139.589 153.145C138.399 153.145 137.434 152.221 137.434 151.081C137.434 149.941 138.399 149.017 139.589 149.017C140.779 149.017 141.744 149.941 141.744 151.081C141.744 152.221 140.779 153.145 139.589 153.145Z" fill="white"/>
<path d="M121.508 153.531C120.098 153.531 118.95 152.435 118.95 151.081C118.95 149.73 120.094 148.631 121.508 148.631C122.919 148.631 124.067 149.727 124.067 151.081C124.067 152.432 122.919 153.531 121.508 153.531Z" fill="white"/>
<path d="M103.424 153.914C101.789 153.914 100.466 152.647 100.466 151.081C100.466 149.515 101.789 148.248 103.424 148.248C105.059 148.248 106.383 149.518 106.383 151.081C106.383 152.647 105.059 153.914 103.424 153.914Z" fill="white"/>
<path d="M85.3435 154.154C83.5715 154.154 82.135 152.778 82.135 151.081C82.135 149.384 83.5715 148.009 85.3435 148.009C87.1155 148.009 88.552 149.384 88.552 151.081C88.552 152.778 87.1155 154.154 85.3435 154.154Z" fill="white"/>
<path d="M67.2595 154.347C65.3773 154.347 63.8494 152.884 63.8494 151.081C63.8494 149.279 65.3773 147.816 67.2595 147.816C69.1417 147.816 70.6696 149.279 70.6696 151.081C70.6696 152.884 69.1449 154.347 67.2595 154.347Z" fill="white"/>
<path d="M49.1786 154.393C47.2684 154.393 45.7198 152.91 45.7198 151.081C45.7198 149.252 47.2684 147.769 49.1786 147.769C51.0889 147.769 52.6375 149.252 52.6375 151.081C52.6375 152.91 51.0889 154.393 49.1786 154.393Z" fill="white"/>
<path d="M31.0946 154.347C29.2113 154.347 27.6845 152.885 27.6845 151.081C27.6845 149.278 29.2113 147.816 31.0946 147.816C32.9779 147.816 34.5046 149.278 34.5046 151.081C34.5046 152.885 32.9779 154.347 31.0946 154.347Z" fill="white"/>
<path d="M13.0138 154.154C11.2418 154.154 9.80527 152.778 9.80527 151.081C9.80527 149.384 11.2418 148.009 13.0138 148.009C14.7858 148.009 16.2223 149.384 16.2223 151.081C16.2223 152.778 14.7858 154.154 13.0138 154.154Z" fill="white"/>
<path d="M211.922 168.446C211.892 168.446 211.873 168.424 211.873 168.399C211.873 168.374 211.896 168.352 211.922 168.352C211.948 168.352 211.971 168.374 211.971 168.399C211.971 168.424 211.948 168.446 211.922 168.446Z" fill="white"/>
<path d="M193.838 168.732C193.644 168.732 193.487 168.581 193.487 168.396C193.487 168.21 193.644 168.06 193.838 168.06C194.032 168.06 194.189 168.21 194.189 168.396C194.189 168.581 194.032 168.732 193.838 168.732Z" fill="white"/>
<path d="M175.757 169.214C175.286 169.214 174.906 168.85 174.906 168.399C174.906 167.947 175.286 167.583 175.757 167.583C176.229 167.583 176.609 167.947 176.609 168.399C176.609 168.847 176.225 169.214 175.757 169.214Z" fill="white"/>
<path d="M157.673 169.647C156.955 169.647 156.37 169.087 156.37 168.399C156.37 167.711 156.955 167.151 157.673 167.151C158.395 167.151 158.977 167.711 158.977 168.399C158.977 169.087 158.392 169.647 157.673 169.647Z" fill="white"/>
<path d="M139.589 170.03C138.646 170.03 137.886 169.299 137.886 168.396C137.886 167.493 138.65 166.765 139.589 166.765C140.532 166.765 141.293 167.496 141.293 168.396C141.296 169.299 140.532 170.03 139.589 170.03Z" fill="white"/>
<path d="M121.508 170.363C120.374 170.363 119.454 169.482 119.454 168.396C119.454 167.309 120.374 166.428 121.508 166.428C122.643 166.428 123.563 167.309 123.563 168.396C123.563 169.482 122.643 170.363 121.508 170.363Z" fill="white"/>
<path d="M103.424 170.699C102.096 170.699 101.019 169.668 101.019 168.396C101.019 167.123 102.096 166.092 103.424 166.092C104.753 166.092 105.83 167.123 105.83 168.396C105.83 169.668 104.753 170.699 103.424 170.699Z" fill="white"/>
<path d="M85.3435 170.892C83.9036 170.892 82.7364 169.775 82.7364 168.396C82.7364 167.017 83.9036 165.899 85.3435 165.899C86.7834 165.899 87.9506 167.017 87.9506 168.396C87.9506 169.775 86.7834 170.892 85.3435 170.892Z" fill="white"/>
<path d="M67.2594 171.085C65.7083 171.085 64.4508 169.881 64.4508 168.396C64.4508 166.91 65.7083 165.706 67.2594 165.706C68.8106 165.706 70.0681 166.91 70.0681 168.396C70.0681 169.881 68.8106 171.085 67.2594 171.085Z" fill="white"/>
<path d="M49.1786 171.132C47.6005 171.132 46.3212 169.907 46.3212 168.396C46.3212 166.885 47.6005 165.659 49.1786 165.659C50.7568 165.659 52.0361 166.885 52.0361 168.396C52.0361 169.907 50.7568 171.132 49.1786 171.132Z" fill="white"/>
<path d="M31.0946 171.085C29.5434 171.085 28.2859 169.881 28.2859 168.396C28.2859 166.91 29.5434 165.706 31.0946 165.706C32.6458 165.706 33.9033 166.91 33.9033 168.396C33.9033 169.881 32.6458 171.085 31.0946 171.085Z" fill="white"/>
<path d="M13.0137 170.939C11.5469 170.939 10.3578 169.8 10.3578 168.396C10.3578 166.991 11.5469 165.852 13.0137 165.852C14.4805 165.852 15.6696 166.991 15.6696 168.396C15.6696 169.8 14.4805 170.939 13.0137 170.939Z" fill="white"/>
</g>
</svg>
