<svg width="231" height="238" viewBox="0 0 231 238" fill="none" xmlns="http://www.w3.org/2000/svg">
<g opacity="0.3">
<path d="M0.997075 12.6478C1.05234 12.6478 1.09785 12.6043 1.09785 12.5513C1.09785 12.4984 1.05234 12.4548 0.997075 12.4548C0.941812 12.4548 0.896301 12.4984 0.896301 12.5513C0.896301 12.6043 0.941812 12.6478 0.997075 12.6478Z" fill="white"/>
<path d="M19.0779 13.1739C19.4387 13.1739 19.7313 12.8938 19.7313 12.5482C19.7313 12.2027 19.4387 11.9225 19.0779 11.9225C18.717 11.9225 18.4245 12.2027 18.4245 12.5482C18.4277 12.8969 18.7203 13.1739 19.0779 13.1739Z" fill="white"/>
<path d="M37.1619 13.753C37.8549 13.753 38.4167 13.215 38.4167 12.5513C38.4167 11.8877 37.8549 11.3497 37.1619 11.3497C36.4689 11.3497 35.9071 11.8877 35.9071 12.5513C35.9071 13.215 36.4689 13.753 37.1619 13.753Z" fill="white"/>
<path d="M55.2427 14.2791C56.2391 14.2791 57.0469 13.5055 57.0469 12.5513C57.0469 11.5971 56.2391 10.8236 55.2427 10.8236C54.2463 10.8236 53.4385 11.5971 53.4385 12.5513C53.4385 13.5055 54.2463 14.2791 55.2427 14.2791Z" fill="white"/>
<path d="M73.3268 14.8083C74.6271 14.8083 75.6836 13.7966 75.6836 12.5514C75.6836 11.3061 74.6271 10.2944 73.3268 10.2944C72.0265 10.2944 70.97 11.3061 70.97 12.5514C70.97 13.7966 72.0265 14.8083 73.3268 14.8083Z" fill="white"/>
<path d="M91.4108 15.3344C93.0167 15.3344 94.3203 14.086 94.3203 12.5482C94.3203 11.0104 93.0167 9.76206 91.4108 9.76206C89.805 9.76206 88.5014 11.0104 88.5014 12.5482C88.5014 14.086 89.805 15.3344 91.4108 15.3344Z" fill="white"/>
<path d="M109.492 15.8169C111.374 15.8169 112.902 14.3538 112.902 12.5513C112.902 10.7489 111.374 9.28577 109.492 9.28577C107.609 9.28577 106.082 10.7489 106.082 12.5513C106.082 14.3538 107.609 15.8169 109.492 15.8169Z" fill="white"/>
<path d="M127.576 16.2496C129.709 16.2496 131.438 14.5938 131.438 12.5513C131.438 10.5088 129.709 8.85307 127.576 8.85307C125.443 8.85307 123.714 10.5088 123.714 12.5513C123.714 14.5938 125.443 16.2496 127.576 16.2496Z" fill="white"/>
<path d="M145.657 16.6325C148.01 16.6325 149.918 14.8053 149.918 12.5513C149.918 10.2974 148.01 8.47015 145.657 8.47015C143.303 8.47015 141.395 10.2974 141.395 12.5513C141.395 14.8053 143.303 16.6325 145.657 16.6325Z" fill="white"/>
<path d="M163.741 16.8722C166.234 16.8722 168.253 14.9359 168.253 12.5513C168.253 10.1667 166.231 8.23043 163.741 8.23043C161.25 8.23043 159.228 10.1636 159.228 12.5513C159.228 14.939 161.247 16.8722 163.741 16.8722Z" fill="white"/>
<path d="M181.821 17.0154C184.396 17.0154 186.483 15.0168 186.483 12.5513C186.483 10.0859 184.396 8.08725 181.821 8.08725C179.247 8.08725 177.16 10.0859 177.16 12.5513C177.16 15.0168 179.247 17.0154 181.821 17.0154Z" fill="white"/>
<path d="M199.905 16.9189C202.425 16.9189 204.469 14.9608 204.469 12.5482C204.469 10.1356 202.428 8.17751 199.905 8.17751C197.383 8.17751 195.341 10.1325 195.341 12.5482C195.341 14.9639 197.386 16.9189 199.905 16.9189Z" fill="white"/>
<path d="M217.986 16.6792C220.369 16.6792 222.3 14.8301 222.3 12.5482C222.3 10.2664 220.369 8.42034 217.986 8.42034C215.603 8.42034 213.676 10.2695 213.676 12.5482C213.676 14.8301 215.607 16.6792 217.986 16.6792Z" fill="white"/>
<path d="M0.997075 30.1057C1.13686 30.1057 1.24738 29.9999 1.24738 29.866C1.24738 29.7321 1.13361 29.6263 0.997075 29.6263C0.860542 29.6263 0.746765 29.7352 0.746765 29.866C0.746765 29.9999 0.857291 30.1057 0.997075 30.1057Z" fill="white"/>
<path d="M19.0779 30.6349C19.5213 30.6349 19.8808 30.2907 19.8808 29.866C19.8808 29.4413 19.5213 29.0971 19.0779 29.0971C18.6344 29.0971 18.2749 29.4413 18.2749 29.866C18.2749 30.2907 18.6344 30.6349 19.0779 30.6349Z" fill="white"/>
<path d="M37.162 31.2108C37.9376 31.2108 38.5663 30.6087 38.5663 29.866C38.5663 29.1233 37.9376 28.5211 37.162 28.5211C36.3864 28.5211 35.7576 29.1233 35.7576 29.866C35.7576 30.6087 36.3864 31.2108 37.162 31.2108Z" fill="white"/>
<path d="M55.2427 31.7867C56.3505 31.7867 57.2485 30.9268 57.2485 29.866C57.2485 28.8052 56.3505 27.9453 55.2427 27.9453C54.135 27.9453 53.237 28.8052 53.237 29.866C53.237 30.9268 54.135 31.7867 55.2427 31.7867Z" fill="white"/>
<path d="M73.3268 32.3626C74.7669 32.3626 75.9339 31.2451 75.9339 29.866C75.9339 28.4869 74.7669 27.3693 73.3268 27.3693C71.8867 27.3693 70.7197 28.4869 70.7197 29.866C70.7197 31.2451 71.8867 32.3626 73.3268 32.3626Z" fill="white"/>
<path d="M91.4109 32.8918C93.1565 32.8918 94.5706 31.5377 94.5706 29.866C94.5706 28.1943 93.1565 26.8401 91.4109 26.8401C89.6652 26.8401 88.2511 28.1943 88.2511 29.866C88.2511 31.5377 89.6652 32.8918 91.4109 32.8918Z" fill="white"/>
<path d="M109.492 33.4211C111.54 33.4211 113.201 31.8303 113.201 29.8691C113.201 27.9079 111.54 26.3171 109.492 26.3171C107.444 26.3171 105.783 27.9079 105.783 29.8691C105.783 31.8303 107.444 33.4211 109.492 33.4211Z" fill="white"/>
<path d="M127.576 33.9472C129.929 33.9472 131.837 32.12 131.837 29.866C131.837 27.612 129.929 25.7848 127.576 25.7848C125.222 25.7848 123.314 27.612 123.314 29.866C123.314 32.12 125.222 33.9472 127.576 33.9472Z" fill="white"/>
<path d="M145.657 34.4297C148.286 34.4297 150.419 32.3876 150.419 29.8691C150.419 27.3507 148.286 25.3085 145.657 25.3085C143.027 25.3085 140.894 27.3507 140.894 29.8691C140.894 32.3876 143.027 34.4297 145.657 34.4297Z" fill="white"/>
<path d="M163.741 34.7659C166.565 34.7659 168.854 32.5743 168.854 29.8691C168.854 27.1639 166.565 24.9723 163.741 24.9723C160.916 24.9723 158.627 27.1639 158.627 29.8691C158.624 32.5712 160.916 34.7659 163.741 34.7659Z" fill="white"/>
<path d="M181.821 34.9091C184.73 34.9091 187.088 32.6512 187.088 29.866C187.088 27.0808 184.73 24.8229 181.821 24.8229C178.913 24.8229 176.555 27.0808 176.555 29.866C176.555 32.6512 178.913 34.9091 181.821 34.9091Z" fill="white"/>
<path d="M199.905 34.7659C202.73 34.7659 205.019 32.5743 205.019 29.8691C205.019 27.1639 202.73 24.9723 199.905 24.9723C197.08 24.9723 194.792 27.1639 194.792 29.8691C194.789 32.5712 197.08 34.7659 199.905 34.7659Z" fill="white"/>
<path d="M217.986 34.4297C220.616 34.4297 222.749 32.3876 222.749 29.8691C222.749 27.3507 220.616 25.3085 217.986 25.3085C215.356 25.3085 213.224 27.3507 213.224 29.8691C213.224 32.3876 215.356 34.4297 217.986 34.4297Z" fill="white"/>
<path d="M0.997085 47.4702C1.16287 47.4702 1.29941 47.3426 1.29941 47.1807C1.29941 47.0219 1.16613 46.8912 0.997085 46.8912C0.831296 46.8912 0.694763 47.0219 0.694763 47.1807C0.694763 47.3426 0.831296 47.4702 0.997085 47.4702Z" fill="white"/>
<path d="M19.0779 48.0461C19.5752 48.0461 19.9816 47.66 19.9816 47.1806C19.9816 46.7043 19.5785 46.3152 19.0779 46.3152C18.5805 46.3152 18.1742 46.7012 18.1742 47.1806C18.1774 47.66 18.5805 48.0461 19.0779 48.0461Z" fill="white"/>
<path d="M37.162 48.6718C38.0201 48.6718 38.7158 48.0056 38.7158 47.1838C38.7158 46.362 38.0201 45.6957 37.162 45.6957C36.3038 45.6957 35.6081 46.362 35.6081 47.1838C35.6081 48.0056 36.3038 48.6718 37.162 48.6718Z" fill="white"/>
<path d="M55.2427 49.2477C56.4325 49.2477 57.398 48.3231 57.398 47.1838C57.398 46.0444 56.4325 45.1198 55.2427 45.1198C54.0529 45.1198 53.0875 46.0444 53.0875 47.1838C53.0875 48.3231 54.0529 49.2477 55.2427 49.2477Z" fill="white"/>
<path d="M73.3268 49.8236C74.8482 49.8236 76.0835 48.6407 76.0835 47.1838C76.0835 45.7269 74.8482 44.5439 73.3268 44.5439C71.8022 44.5439 70.5702 45.7269 70.5702 47.1838C70.5702 48.6407 71.8022 49.8236 73.3268 49.8236Z" fill="white"/>
<path d="M91.4108 50.3995C93.2654 50.3995 94.7689 48.9598 94.7689 47.1838C94.7689 45.4078 93.2654 43.968 91.4108 43.968C89.5562 43.968 88.0528 45.4078 88.0528 47.1838C88.0528 48.9598 89.5562 50.3995 91.4108 50.3995Z" fill="white"/>
<path d="M109.492 50.9754C111.679 50.9754 113.454 49.2757 113.454 47.1806C113.454 45.0856 111.679 43.3859 109.492 43.3859C107.304 43.3859 105.529 45.0856 105.529 47.1806C105.529 49.2757 107.304 50.9754 109.492 50.9754Z" fill="white"/>
<path d="M127.576 51.5046C130.069 51.5046 132.088 49.5715 132.088 47.1838C132.088 44.7961 130.069 42.8629 127.576 42.8629C125.082 42.8629 123.064 44.7961 123.064 47.1838C123.064 49.5715 125.082 51.5046 127.576 51.5046Z" fill="white"/>
<path d="M145.657 52.0805C148.481 52.0805 150.77 49.8882 150.77 47.1838C150.77 44.4793 148.481 42.287 145.657 42.287C142.832 42.287 140.543 44.4793 140.543 47.1838C140.543 49.8882 142.832 52.0805 145.657 52.0805Z" fill="white"/>
<path d="M163.741 52.56C166.842 52.56 169.358 50.1536 169.358 47.1806C169.358 44.2108 166.845 41.8013 163.741 41.8013C160.636 41.8013 158.123 44.2108 158.123 47.1806C158.123 50.1536 160.639 52.56 163.741 52.56Z" fill="white"/>
<path d="M181.821 52.8028C185.062 52.8028 187.689 50.2871 187.689 47.1838C187.689 44.0805 185.062 41.5648 181.821 41.5648C178.581 41.5648 175.954 44.0805 175.954 47.1838C175.954 50.2871 178.581 52.8028 181.821 52.8028Z" fill="white"/>
<path d="M199.905 52.5631C203.008 52.5631 205.523 50.1547 205.523 47.1838C205.523 44.2129 203.008 41.8045 199.905 41.8045C196.803 41.8045 194.288 44.2129 194.288 47.1838C194.288 50.1547 196.803 52.5631 199.905 52.5631Z" fill="white"/>
<path d="M217.986 52.1273C220.84 52.1273 223.152 49.9139 223.152 47.1807C223.152 44.4474 220.84 42.2341 217.986 42.2341C215.135 42.2341 212.821 44.4474 212.821 47.1807C212.821 49.9139 215.135 52.1273 217.986 52.1273Z" fill="white"/>
<path d="M0.99708 64.8346C1.19213 64.8346 1.34816 64.6852 1.34816 64.4984C1.34816 64.3117 1.19213 64.1622 0.99708 64.1622C0.802033 64.1622 0.645996 64.3148 0.645996 64.4984C0.645996 64.6852 0.802033 64.8346 0.99708 64.8346Z" fill="white"/>
<path d="M19.0779 65.4105C19.6045 65.4105 20.0303 65.0027 20.0303 64.4984C20.0303 63.9941 19.6045 63.5863 19.0779 63.5863C18.5512 63.5863 18.1254 63.9941 18.1254 64.4984C18.1254 65.0027 18.5545 65.4105 19.0779 65.4105Z" fill="white"/>
<path d="M37.1619 66.0363C38.0488 66.0363 38.7678 65.3478 38.7678 64.4984C38.7678 63.6491 38.0488 62.9606 37.1619 62.9606C36.275 62.9606 35.5561 63.6491 35.5561 64.4984C35.5561 65.3478 36.275 66.0363 37.1619 66.0363Z" fill="white"/>
<path d="M55.2427 66.6122C56.4618 66.6122 57.45 65.6658 57.45 64.4985C57.45 63.3311 56.4618 62.3847 55.2427 62.3847C54.0237 62.3847 53.0355 63.3311 53.0355 64.4985C53.0387 65.6658 54.027 66.6122 55.2427 66.6122Z" fill="white"/>
<path d="M73.3268 67.1881C74.878 67.1881 76.1355 65.9839 76.1355 64.4984C76.1355 63.013 74.878 61.8088 73.3268 61.8088C71.7756 61.8088 70.5181 63.013 70.5181 64.4984C70.5181 65.9839 71.7756 67.1881 73.3268 67.1881Z" fill="white"/>
<path d="M91.4108 67.764C93.2941 67.764 94.8209 66.302 94.8209 64.4985C94.8209 62.6949 93.2941 61.2329 91.4108 61.2329C89.5275 61.2329 88.0008 62.6949 88.0008 64.4985C88.0008 66.302 89.5275 67.764 91.4108 67.764Z" fill="white"/>
<path d="M109.492 68.3399C111.705 68.3399 113.503 66.6184 113.503 64.4984C113.503 62.3784 111.709 60.6569 109.492 60.6569C107.275 60.6569 105.48 62.3784 105.48 64.4984C105.48 66.6184 107.278 68.3399 109.492 68.3399Z" fill="white"/>
<path d="M127.576 68.9625C130.15 68.9625 132.237 66.9639 132.237 64.4985C132.237 62.033 130.15 60.0344 127.576 60.0344C125.001 60.0344 122.914 62.033 122.914 64.4985C122.914 66.9639 125.001 68.9625 127.576 68.9625Z" fill="white"/>
<path d="M145.656 69.5415C148.565 69.5415 150.923 67.2837 150.923 64.4984C150.923 61.7132 148.565 59.4553 145.656 59.4553C142.748 59.4553 140.39 61.7132 140.39 64.4984C140.39 67.2837 142.748 69.5415 145.656 69.5415Z" fill="white"/>
<path d="M163.741 70.1174C166.981 70.1174 169.608 67.6017 169.608 64.4984C169.608 61.3951 166.981 58.8794 163.741 58.8794C160.5 58.8794 157.873 61.3951 157.873 64.4984C157.873 67.6017 160.5 70.1174 163.741 70.1174Z" fill="white"/>
<path d="M181.821 70.5004C185.283 70.5004 188.089 67.8132 188.089 64.4984C188.089 61.1837 185.283 58.4965 181.821 58.4965C178.36 58.4965 175.554 61.1837 175.554 64.4984C175.554 67.8132 178.36 70.5004 181.821 70.5004Z" fill="white"/>
<path d="M199.905 70.1174C203.146 70.1174 205.773 67.6017 205.773 64.4984C205.773 61.3951 203.146 58.8794 199.905 58.8794C196.665 58.8794 194.038 61.3951 194.038 64.4984C194.038 67.6017 196.665 70.1174 199.905 70.1174Z" fill="white"/>
<path d="M217.986 69.5882C220.922 69.5882 223.301 67.3095 223.301 64.4984C223.301 61.6874 220.922 59.4086 217.986 59.4086C215.051 59.4086 212.671 61.6874 212.671 64.4984C212.671 67.3095 215.051 69.5882 217.986 69.5882Z" fill="white"/>
<path d="M0.997085 82.1026C1.16287 82.1026 1.29941 81.975 1.29941 81.8131C1.29941 81.6543 1.16613 81.5236 0.997085 81.5236C0.831296 81.5236 0.694763 81.6512 0.694763 81.8131C0.694763 81.975 0.831296 82.1026 0.997085 82.1026Z" fill="white"/>
<path d="M19.0779 82.6816C19.5752 82.6816 19.9816 82.2956 19.9816 81.8162C19.9816 81.3399 19.5785 80.9508 19.0779 80.9508C18.5805 80.9508 18.1742 81.3368 18.1742 81.8162C18.1774 82.2925 18.5805 82.6816 19.0779 82.6816Z" fill="white"/>
<path d="M37.162 83.3042C38.0202 83.3042 38.7158 82.6381 38.7158 81.8162C38.7158 80.9944 38.0202 80.3282 37.162 80.3282C36.3038 80.3282 35.6081 80.9944 35.6081 81.8162C35.6081 82.6381 36.3038 83.3042 37.162 83.3042Z" fill="white"/>
<path d="M55.2427 83.8801C56.4325 83.8801 57.398 82.9556 57.398 81.8162C57.398 80.6768 56.4325 79.7523 55.2427 79.7523C54.0529 79.7523 53.0875 80.6768 53.0875 81.8162C53.0875 82.9556 54.0529 83.8801 55.2427 83.8801Z" fill="white"/>
<path d="M73.3268 84.4561C74.8482 84.4561 76.0835 83.2731 76.0835 81.8162C76.0835 80.3562 74.8482 79.1764 73.3268 79.1764C71.8022 79.1764 70.5702 80.3593 70.5702 81.8162C70.5702 83.2731 71.8022 84.4561 73.3268 84.4561Z" fill="white"/>
<path d="M91.4109 85.0319C93.2671 85.0319 94.7689 83.5906 94.7689 81.8162C94.7689 80.0387 93.2638 78.6004 91.4109 78.6004C89.5547 78.6004 88.0496 80.0418 88.0496 81.8162C88.0496 83.5937 89.5547 85.0319 91.4109 85.0319Z" fill="white"/>
<path d="M109.492 85.6079C111.679 85.6079 113.454 83.9082 113.454 81.8131C113.454 79.718 111.679 78.0183 109.492 78.0183C107.304 78.0183 105.529 79.718 105.529 81.8131C105.532 83.9113 107.304 85.6079 109.492 85.6079Z" fill="white"/>
<path d="M127.576 86.1869C130.095 86.1869 132.14 84.2319 132.14 81.8162C132.14 79.4036 130.098 77.4455 127.576 77.4455C125.053 77.4455 123.012 79.4005 123.012 81.8162C123.012 84.2288 125.056 86.1869 127.576 86.1869Z" fill="white"/>
<path d="M145.657 86.713C148.481 86.713 150.77 84.5214 150.77 81.8162C150.77 79.111 148.481 76.9194 145.657 76.9194C142.832 76.9194 140.543 79.111 140.543 81.8162C140.543 84.5214 142.832 86.713 145.657 86.713Z" fill="white"/>
<path d="M163.741 87.1924C166.842 87.1924 169.358 84.786 169.358 81.8131C169.358 78.8433 166.845 76.4338 163.741 76.4338C160.636 76.4338 158.123 78.8401 158.123 81.8131C158.123 84.786 160.639 87.1924 163.741 87.1924Z" fill="white"/>
<path d="M181.821 87.4353C185.062 87.4353 187.689 84.9196 187.689 81.8163C187.689 78.713 185.062 76.1972 181.821 76.1972C178.581 76.1972 175.954 78.713 175.954 81.8163C175.954 84.9196 178.581 87.4353 181.821 87.4353Z" fill="white"/>
<path d="M199.905 87.2422C203.035 87.2422 205.572 84.8129 205.572 81.8162C205.572 78.8195 203.035 76.3902 199.905 76.3902C196.776 76.3902 194.239 78.8195 194.239 81.8162C194.239 84.8129 196.776 87.2422 199.905 87.2422Z" fill="white"/>
<path d="M217.986 86.7628C220.84 86.7628 223.152 84.5494 223.152 81.8162C223.152 79.0861 220.84 76.8696 217.986 76.8696C215.135 76.8696 212.821 79.083 212.821 81.8162C212.824 84.5463 215.135 86.7628 217.986 86.7628Z" fill="white"/>
<path d="M0.997075 99.3737C1.13686 99.3737 1.24738 99.2647 1.24738 99.134C1.24738 99.0001 1.13361 98.8943 0.997075 98.8943C0.860542 98.8943 0.746765 99.0033 0.746765 99.134C0.746765 99.2647 0.857291 99.3737 0.997075 99.3737Z" fill="white"/>
<path d="M19.0779 99.8998C19.5213 99.8998 19.8808 99.5555 19.8808 99.1309C19.8808 98.7062 19.5213 98.3619 19.0779 98.3619C18.6344 98.3619 18.2749 98.7062 18.2749 99.1309C18.2749 99.5555 18.6344 99.8998 19.0779 99.8998Z" fill="white"/>
<path d="M37.162 100.522C37.9645 100.522 38.6151 99.8994 38.6151 99.1309C38.6151 98.3624 37.9645 97.7393 37.162 97.7393C36.3594 97.7393 35.7089 98.3624 35.7089 99.1309C35.7089 99.8994 36.3594 100.522 37.162 100.522Z" fill="white"/>
<path d="M55.2427 101.052C56.3505 101.052 57.2485 100.192 57.2485 99.1309C57.2485 98.0701 56.3505 97.2101 55.2427 97.2101C54.135 97.2101 53.237 98.0701 53.237 99.1309C53.237 100.192 54.135 101.052 55.2427 101.052Z" fill="white"/>
<path d="M73.3268 101.628C74.7667 101.628 75.9339 100.51 75.9339 99.1309C75.9339 97.752 74.7667 96.6342 73.3268 96.6342C71.8869 96.6342 70.7197 97.752 70.7197 99.1309C70.7197 100.51 71.8869 101.628 73.3268 101.628Z" fill="white"/>
<path d="M91.4108 102.203C93.1829 102.203 94.6194 100.828 94.6194 99.1309C94.6194 97.4339 93.1829 96.0583 91.4108 96.0583C89.6388 96.0583 88.2023 97.4339 88.2023 99.1309C88.2023 100.828 89.6388 102.203 91.4108 102.203Z" fill="white"/>
<path d="M109.492 102.733C111.569 102.733 113.253 101.12 113.253 99.1308C113.253 97.1416 111.569 95.5291 109.492 95.5291C107.414 95.5291 105.73 97.1416 105.73 99.1308C105.73 101.12 107.414 102.733 109.492 102.733Z" fill="white"/>
<path d="M127.576 103.262C129.959 103.262 131.886 101.413 131.886 99.134C131.886 96.8522 129.955 95.0061 127.576 95.0061C125.193 95.0061 123.262 96.8553 123.262 99.134C123.262 101.413 125.193 103.262 127.576 103.262Z" fill="white"/>
<path d="M145.657 103.695C148.286 103.695 150.419 101.652 150.419 99.134C150.419 96.6156 148.286 94.5734 145.657 94.5734C143.027 94.5734 140.894 96.6156 140.894 99.134C140.894 101.652 143.027 103.695 145.657 103.695Z" fill="white"/>
<path d="M163.741 104.077C166.592 104.077 168.906 101.864 168.906 99.1309C168.906 96.4008 166.595 94.1843 163.741 94.1843C160.89 94.1843 158.575 96.3976 158.575 99.1309C158.575 101.864 160.886 104.077 163.741 104.077Z" fill="white"/>
<path d="M181.821 104.221C184.757 104.221 187.136 101.942 187.136 99.1309C187.136 96.3198 184.757 94.0411 181.821 94.0411C178.886 94.0411 176.506 96.3198 176.506 99.1309C176.506 101.942 178.886 104.221 181.821 104.221Z" fill="white"/>
<path d="M199.905 104.077C202.756 104.077 205.071 101.864 205.071 99.1309C205.071 96.4008 202.76 94.1843 199.905 94.1843C197.051 94.1843 194.74 96.3976 194.74 99.1309C194.74 101.864 197.051 104.077 199.905 104.077Z" fill="white"/>
<path d="M217.986 103.741C220.645 103.741 222.801 101.677 222.801 99.1309C222.801 96.5844 220.645 94.5205 217.986 94.5205C215.327 94.5205 213.172 96.5844 213.172 99.1309C213.175 101.677 215.327 103.741 217.986 103.741Z" fill="white"/>
<path d="M0.99707 116.592C1.08159 116.592 1.14661 116.526 1.14661 116.449C1.14661 116.371 1.07834 116.305 0.99707 116.305C0.9158 116.305 0.847534 116.371 0.847534 116.449C0.847534 116.53 0.91255 116.592 0.99707 116.592Z" fill="white"/>
<path d="M19.0779 117.071C19.437 117.071 19.728 116.793 19.728 116.449C19.728 116.105 19.437 115.826 19.0779 115.826C18.7188 115.826 18.4277 116.105 18.4277 116.449C18.4277 116.793 18.7188 117.071 19.0779 117.071Z" fill="white"/>
<path d="M37.1619 117.65C37.8549 117.65 38.4167 117.112 38.4167 116.449C38.4167 115.785 37.8549 115.247 37.1619 115.247C36.4689 115.247 35.9071 115.785 35.9071 116.449C35.9071 117.112 36.4689 117.65 37.1619 117.65Z" fill="white"/>
<path d="M55.2427 118.176C56.2391 118.176 57.0469 117.403 57.0469 116.449C57.0469 115.494 56.2391 114.721 55.2427 114.721C54.2463 114.721 53.4385 115.494 53.4385 116.449C53.4385 117.403 54.2463 118.176 55.2427 118.176Z" fill="white"/>
<path d="M73.3268 118.706C74.6271 118.706 75.6836 117.694 75.6836 116.449C75.6836 115.203 74.6271 114.192 73.3268 114.192C72.0265 114.192 70.97 115.203 70.97 116.449C70.97 117.694 72.0265 118.706 73.3268 118.706Z" fill="white"/>
<path d="M91.4108 119.235C93.0167 119.235 94.3203 117.986 94.3203 116.449C94.3203 114.911 93.0167 113.663 91.4108 113.663C89.805 113.663 88.5014 114.911 88.5014 116.449C88.5014 117.986 89.805 119.235 91.4108 119.235Z" fill="white"/>
<path d="M109.492 119.714C111.374 119.714 112.902 118.251 112.902 116.449C112.902 114.646 111.374 113.183 109.492 113.183C107.609 113.183 106.082 114.646 106.082 116.449C106.082 118.251 107.609 119.714 109.492 119.714Z" fill="white"/>
<path d="M127.576 120.194C129.734 120.194 131.486 118.516 131.486 116.449C131.486 114.382 129.734 112.704 127.576 112.704C125.414 112.704 123.665 114.382 123.665 116.449C123.662 118.516 125.414 120.194 127.576 120.194Z" fill="white"/>
<path d="M145.657 120.577C148.039 120.577 149.967 118.727 149.967 116.446C149.967 114.164 148.036 112.318 145.657 112.318C143.277 112.318 141.346 114.167 141.346 116.446C141.346 118.731 143.277 120.577 145.657 120.577Z" fill="white"/>
<path d="M163.741 120.819C166.26 120.819 168.305 118.861 168.305 116.449C168.305 114.036 166.26 112.078 163.741 112.078C161.221 112.078 159.176 114.033 159.176 116.449C159.176 118.864 161.221 120.819 163.741 120.819Z" fill="white"/>
<path d="M181.821 120.913C184.396 120.913 186.483 118.914 186.483 116.449C186.483 113.983 184.396 111.985 181.821 111.985C179.247 111.985 177.16 113.983 177.16 116.449C177.16 118.914 179.247 120.913 181.821 120.913Z" fill="white"/>
<path d="M199.905 120.819C202.425 120.819 204.469 118.861 204.469 116.449C204.469 114.036 202.428 112.078 199.905 112.078C197.383 112.078 195.341 114.033 195.341 116.449C195.341 118.864 197.386 120.819 199.905 120.819Z" fill="white"/>
<path d="M217.986 120.577C220.369 120.577 222.3 118.727 222.3 116.446C222.3 114.164 220.369 112.318 217.986 112.318C215.603 112.318 213.676 114.167 213.676 116.446C213.676 118.731 215.607 120.577 217.986 120.577Z" fill="white"/>
<path d="M0.99734 133.814C1.02676 133.814 1.04965 133.792 1.04965 133.767C1.04965 133.739 1.02676 133.72 0.99734 133.72C0.967918 133.72 0.948303 133.742 0.948303 133.767C0.948303 133.792 0.967918 133.814 0.99734 133.814Z" fill="white"/>
<path d="M19.0779 134.196C19.3282 134.196 19.5297 134.003 19.5297 133.763C19.5297 133.524 19.3282 133.331 19.0779 133.331C18.8276 133.331 18.626 133.524 18.626 133.763C18.6293 134.003 18.8308 134.196 19.0779 134.196Z" fill="white"/>
<path d="M37.1619 134.722C37.7149 134.722 38.1632 134.293 38.1632 133.763C38.1632 133.234 37.7149 132.805 37.1619 132.805C36.609 132.805 36.1607 133.234 36.1607 133.763C36.1607 134.293 36.609 134.722 37.1619 134.722Z" fill="white"/>
<path d="M55.2427 135.254C56.1009 135.254 56.7966 134.588 56.7966 133.766C56.7966 132.945 56.1009 132.278 55.2427 132.278C54.3845 132.278 53.6888 132.945 53.6888 133.766C53.6888 134.585 54.3845 135.254 55.2427 135.254Z" fill="white"/>
<path d="M73.3268 135.734C74.4613 135.734 75.3813 134.853 75.3813 133.766C75.3813 132.68 74.4613 131.799 73.3268 131.799C72.1923 131.799 71.2723 132.68 71.2723 133.766C71.2723 134.853 72.1923 135.734 73.3268 135.734Z" fill="white"/>
<path d="M91.4108 136.213C92.8217 136.213 93.9692 135.117 93.9692 133.763C93.9692 132.412 92.8249 131.313 91.4108 131.313C89.9967 131.313 88.8525 132.409 88.8525 133.763C88.8525 135.117 89.9967 136.213 91.4108 136.213Z" fill="white"/>
<path d="M109.492 136.693C111.182 136.693 112.551 135.382 112.551 133.763C112.551 132.145 111.182 130.834 109.492 130.834C107.801 130.834 106.433 132.145 106.433 133.763C106.433 135.382 107.804 136.693 109.492 136.693Z" fill="white"/>
<path d="M127.576 137.076C129.486 137.076 131.035 135.593 131.035 133.763C131.035 131.934 129.486 130.451 127.576 130.451C125.665 130.451 124.117 131.934 124.117 133.763C124.117 135.593 125.665 137.076 127.576 137.076Z" fill="white"/>
<path d="M145.657 137.365C147.734 137.365 149.418 135.753 149.418 133.763C149.418 131.774 147.734 130.162 145.657 130.162C143.579 130.162 141.895 131.774 141.895 133.763C141.895 135.753 143.579 137.365 145.657 137.365Z" fill="white"/>
<path d="M163.741 137.605C165.954 137.605 167.752 135.886 167.752 133.763C167.752 131.64 165.954 129.922 163.741 129.922C161.527 129.922 159.729 131.64 159.729 133.763C159.729 135.886 161.524 137.605 163.741 137.605Z" fill="white"/>
<path d="M181.821 137.652C184.064 137.652 185.882 135.911 185.882 133.763C185.882 131.616 184.064 129.875 181.821 129.875C179.579 129.875 177.761 131.616 177.761 133.763C177.761 135.911 179.579 137.652 181.821 137.652Z" fill="white"/>
<path d="M199.905 137.605C202.119 137.605 203.917 135.886 203.917 133.763C203.917 131.64 202.119 129.922 199.905 129.922C197.692 129.922 195.894 131.64 195.894 133.763C195.894 135.886 197.688 137.605 199.905 137.605Z" fill="white"/>
<path d="M217.986 137.415C220.09 137.415 221.796 135.781 221.796 133.766C221.796 131.752 220.09 130.118 217.986 130.118C215.883 130.118 214.176 131.752 214.176 133.766C214.176 135.781 215.883 137.415 217.986 137.415Z" fill="white"/>
<path d="M19.0779 151.274C19.1892 151.274 19.2794 151.188 19.2794 151.081C19.2794 150.975 19.1892 150.888 19.0779 150.888C18.9665 150.888 18.8763 150.975 18.8763 151.081C18.8763 151.188 18.9665 151.274 19.0779 151.274Z" fill="white"/>
<path d="M37.1619 151.754C37.5488 151.754 37.8641 151.452 37.8641 151.081C37.8641 150.711 37.5488 150.409 37.1619 150.409C36.7751 150.409 36.4598 150.711 36.4598 151.081C36.4598 151.452 36.7751 151.754 37.1619 151.754Z" fill="white"/>
<path d="M55.2427 152.233C55.907 152.233 56.4455 151.717 56.4455 151.081C56.4455 150.445 55.907 149.929 55.2427 149.929C54.5785 149.929 54.0399 150.445 54.0399 151.081C54.0399 151.717 54.5785 152.233 55.2427 152.233Z" fill="white"/>
<path d="M73.3268 152.712C74.2695 152.712 75.0302 151.981 75.0302 151.081C75.0302 150.178 74.2663 149.45 73.3268 149.45C72.3841 149.45 71.6201 150.181 71.6201 151.081C71.6234 151.984 72.3841 152.712 73.3268 152.712Z" fill="white"/>
<path d="M91.4108 153.145C92.6012 153.145 93.5661 152.221 93.5661 151.081C93.5661 149.941 92.6012 149.017 91.4108 149.017C90.2205 149.017 89.2556 149.941 89.2556 151.081C89.2556 152.221 90.2205 153.145 91.4108 153.145Z" fill="white"/>
<path d="M109.492 153.531C110.902 153.531 112.05 152.435 112.05 151.081C112.05 149.73 110.906 148.631 109.492 148.631C108.081 148.631 106.933 149.727 106.933 151.081C106.933 152.432 108.081 153.531 109.492 153.531Z" fill="white"/>
<path d="M127.576 153.914C129.211 153.914 130.534 152.647 130.534 151.081C130.534 149.515 129.211 148.248 127.576 148.248C125.941 148.248 124.617 149.518 124.617 151.081C124.617 152.647 125.941 153.914 127.576 153.914Z" fill="white"/>
<path d="M145.657 154.154C147.429 154.154 148.865 152.778 148.865 151.081C148.865 149.384 147.429 148.009 145.657 148.009C143.885 148.009 142.448 149.384 142.448 151.081C142.448 152.778 143.885 154.154 145.657 154.154Z" fill="white"/>
<path d="M163.741 154.347C165.623 154.347 167.151 152.884 167.151 151.081C167.151 149.279 165.623 147.816 163.741 147.816C161.858 147.816 160.33 149.279 160.33 151.081C160.33 152.884 161.855 154.347 163.741 154.347Z" fill="white"/>
<path d="M181.821 154.393C183.732 154.393 185.28 152.91 185.28 151.081C185.28 149.252 183.732 147.769 181.821 147.769C179.911 147.769 178.363 149.252 178.363 151.081C178.363 152.91 179.911 154.393 181.821 154.393Z" fill="white"/>
<path d="M199.905 154.347C201.789 154.347 203.315 152.885 203.315 151.081C203.315 149.278 201.789 147.816 199.905 147.816C198.022 147.816 196.495 149.278 196.495 151.081C196.495 152.885 198.022 154.347 199.905 154.347Z" fill="white"/>
<path d="M217.986 154.154C219.758 154.154 221.195 152.778 221.195 151.081C221.195 149.384 219.758 148.009 217.986 148.009C216.214 148.009 214.778 149.384 214.778 151.081C214.778 152.778 216.214 154.154 217.986 154.154Z" fill="white"/>
<path d="M19.0782 168.446C19.1076 168.446 19.1272 168.424 19.1272 168.399C19.1272 168.374 19.1043 168.352 19.0782 168.352C19.052 168.352 19.0291 168.374 19.0291 168.399C19.0291 168.424 19.052 168.446 19.0782 168.446Z" fill="white"/>
<path d="M37.1619 168.732C37.3558 168.732 37.513 168.581 37.513 168.396C37.513 168.21 37.3558 168.06 37.1619 168.06C36.968 168.06 36.8109 168.21 36.8109 168.396C36.8109 168.581 36.968 168.732 37.1619 168.732Z" fill="white"/>
<path d="M55.2427 169.214C55.7141 169.214 56.0944 168.85 56.0944 168.399C56.0944 167.947 55.7141 167.583 55.2427 167.583C54.7714 167.583 54.391 167.947 54.391 168.399C54.391 168.847 54.7746 169.214 55.2427 169.214Z" fill="white"/>
<path d="M73.3268 169.647C74.0452 169.647 74.6304 169.087 74.6304 168.399C74.6304 167.711 74.0452 167.151 73.3268 167.151C72.6051 167.151 72.0233 167.711 72.0233 168.399C72.0233 169.087 72.6084 169.647 73.3268 169.647Z" fill="white"/>
<path d="M91.4108 170.03C92.3535 170.03 93.1142 169.299 93.1142 168.396C93.1142 167.493 92.3503 166.765 91.4108 166.765C90.4681 166.765 89.7074 167.496 89.7074 168.396C89.7042 169.299 90.4681 170.03 91.4108 170.03Z" fill="white"/>
<path d="M109.492 170.363C110.626 170.363 111.546 169.482 111.546 168.396C111.546 167.309 110.626 166.428 109.492 166.428C108.357 166.428 107.437 167.309 107.437 168.396C107.437 169.482 108.357 170.363 109.492 170.363Z" fill="white"/>
<path d="M127.576 170.699C128.904 170.699 129.981 169.668 129.981 168.396C129.981 167.123 128.904 166.092 127.576 166.092C126.247 166.092 125.17 167.123 125.17 168.396C125.17 169.668 126.247 170.699 127.576 170.699Z" fill="white"/>
<path d="M145.657 170.892C147.096 170.892 148.264 169.775 148.264 168.396C148.264 167.017 147.096 165.899 145.657 165.899C144.217 165.899 143.049 167.017 143.049 168.396C143.049 169.775 144.217 170.892 145.657 170.892Z" fill="white"/>
<path d="M163.741 171.085C165.292 171.085 166.549 169.881 166.549 168.396C166.549 166.91 165.292 165.706 163.741 165.706C162.189 165.706 160.932 166.91 160.932 168.396C160.932 169.881 162.189 171.085 163.741 171.085Z" fill="white"/>
<path d="M181.821 171.132C183.399 171.132 184.679 169.907 184.679 168.396C184.679 166.885 183.399 165.659 181.821 165.659C180.243 165.659 178.964 166.885 178.964 168.396C178.964 169.907 180.243 171.132 181.821 171.132Z" fill="white"/>
<path d="M199.905 171.085C201.457 171.085 202.714 169.881 202.714 168.396C202.714 166.91 201.457 165.706 199.905 165.706C198.354 165.706 197.097 166.91 197.097 168.396C197.097 169.881 198.354 171.085 199.905 171.085Z" fill="white"/>
<path d="M217.986 170.939C219.453 170.939 220.642 169.8 220.642 168.396C220.642 166.991 219.453 165.852 217.986 165.852C216.519 165.852 215.33 166.991 215.33 168.396C215.33 169.8 216.519 170.939 217.986 170.939Z" fill="white"/>
<path d="M37.1622 185.764C37.1916 185.764 37.2112 185.742 37.2112 185.717C37.2112 185.689 37.1883 185.67 37.1622 185.67C37.136 185.67 37.1132 185.692 37.1132 185.717C37.1132 185.742 37.1328 185.764 37.1622 185.764Z" fill="white"/>
<path d="M55.2428 186.146C55.4931 186.146 55.6946 185.953 55.6946 185.714C55.6946 185.474 55.4931 185.281 55.2428 185.281C54.9924 185.281 54.7909 185.474 54.7909 185.714C54.7941 185.953 54.9957 186.146 55.2428 186.146Z" fill="white"/>
<path d="M73.3268 186.529C73.7982 186.529 74.1785 186.165 74.1785 185.714C74.1785 185.262 73.7982 184.898 73.3268 184.898C72.8554 184.898 72.4751 185.262 72.4751 185.714C72.4751 186.165 72.8554 186.529 73.3268 186.529Z" fill="white"/>
<path d="M91.4108 186.865C92.074 186.865 92.6136 186.349 92.6136 185.713C92.6136 185.078 92.074 184.562 91.4108 184.562C90.7477 184.562 90.2081 185.078 90.2081 185.713C90.2048 186.352 90.7444 186.865 91.4108 186.865Z" fill="white"/>
<path d="M109.492 187.202C110.35 187.202 111.046 186.535 111.046 185.714C111.046 184.892 110.35 184.226 109.492 184.226C108.633 184.226 107.938 184.892 107.938 185.714C107.938 186.535 108.633 187.202 109.492 187.202Z" fill="white"/>
<path d="M127.576 187.491C128.6 187.491 129.432 186.694 129.432 185.714C129.432 184.733 128.6 183.936 127.576 183.936C126.552 183.936 125.72 184.733 125.72 185.714C125.72 186.694 126.548 187.491 127.576 187.491Z" fill="white"/>
<path d="M145.657 187.681C146.791 187.681 147.711 186.8 147.711 185.714C147.711 184.627 146.791 183.746 145.657 183.746C144.522 183.746 143.602 184.627 143.602 185.714C143.602 186.8 144.522 187.681 145.657 187.681Z" fill="white"/>
<path d="M163.741 187.777C164.93 187.777 165.896 186.853 165.896 185.714C165.896 184.574 164.93 183.65 163.741 183.65C162.551 183.65 161.585 184.574 161.585 185.714C161.582 186.853 162.548 187.777 163.741 187.777Z" fill="white"/>
<path d="M181.821 187.827C183.04 187.827 184.029 186.881 184.029 185.714C184.029 184.546 183.04 183.6 181.821 183.6C180.602 183.6 179.614 184.546 179.614 185.714C179.617 186.881 180.602 187.827 181.821 187.827Z" fill="white"/>
<path d="M199.905 187.827C201.124 187.827 202.113 186.881 202.113 185.714C202.113 184.546 201.124 183.6 199.905 183.6C198.686 183.6 197.698 184.546 197.698 185.714C197.698 186.881 198.686 187.827 199.905 187.827Z" fill="white"/>
<path d="M217.986 187.681C219.121 187.681 220.041 186.8 220.041 185.714C220.041 184.627 219.121 183.746 217.986 183.746C216.852 183.746 215.932 184.627 215.932 185.714C215.932 186.8 216.852 187.681 217.986 187.681Z" fill="white"/>
<path d="M55.243 203.079C55.2725 203.079 55.2953 203.057 55.2953 203.032C55.2953 203.007 55.2725 202.985 55.243 202.985C55.2169 202.985 55.194 203.007 55.194 203.032C55.194 203.057 55.2169 203.079 55.243 203.079Z" fill="white"/>
<path d="M73.3268 203.368C73.5218 203.368 73.6779 203.218 73.6779 203.031C73.6779 202.845 73.5218 202.695 73.3268 202.695C73.1317 202.695 72.9757 202.845 72.9757 203.031C72.9757 203.215 73.1317 203.368 73.3268 203.368Z" fill="white"/>
<path d="M91.4108 203.704C91.7977 203.704 92.113 203.402 92.113 203.031C92.113 202.661 91.7977 202.359 91.4108 202.359C91.024 202.359 90.7087 202.661 90.7087 203.031C90.7087 203.402 91.0208 203.704 91.4108 203.704Z" fill="white"/>
<path d="M109.492 203.99C110.045 203.99 110.493 203.561 110.493 203.031C110.493 202.502 110.045 202.073 109.492 202.073C108.939 202.073 108.49 202.502 108.49 203.031C108.49 203.561 108.939 203.99 109.492 203.99Z" fill="white"/>
<path d="M127.576 204.23C128.268 204.23 128.83 203.691 128.83 203.028C128.83 202.365 128.268 201.827 127.576 201.827C126.883 201.827 126.321 202.365 126.321 203.028C126.321 203.694 126.883 204.23 127.576 204.23Z" fill="white"/>
<path d="M145.657 204.423C146.459 204.423 147.11 203.8 147.11 203.031C147.11 202.263 146.459 201.64 145.657 201.64C144.854 201.64 144.203 202.263 144.203 203.031C144.203 203.8 144.854 204.423 145.657 204.423Z" fill="white"/>
<path d="M163.741 204.519C164.599 204.519 165.294 203.853 165.294 203.031C165.294 202.21 164.599 201.543 163.741 201.543C162.882 201.543 162.187 202.21 162.187 203.031C162.187 203.853 162.882 204.519 163.741 204.519Z" fill="white"/>
<path d="M181.821 204.569C182.708 204.569 183.427 203.881 183.427 203.031C183.427 202.182 182.708 201.493 181.821 201.493C180.935 201.493 180.216 202.182 180.216 203.031C180.216 203.881 180.935 204.569 181.821 204.569Z" fill="white"/>
<path d="M199.905 204.569C200.792 204.569 201.511 203.881 201.511 203.031C201.511 202.182 200.792 201.493 199.905 201.493C199.019 201.493 198.3 202.182 198.3 203.031C198.3 203.881 199.019 204.569 199.905 204.569Z" fill="white"/>
<path d="M217.986 204.423C218.789 204.423 219.439 203.8 219.439 203.031C219.439 202.263 218.789 201.64 217.986 201.64C217.184 201.64 216.533 202.263 216.533 203.031C216.533 203.8 217.184 204.423 217.986 204.423Z" fill="white"/>
<path d="M73.3271 220.396C73.3532 220.396 73.3761 220.374 73.3761 220.349C73.3761 220.324 73.3532 220.302 73.3271 220.302C73.2977 220.302 73.2748 220.324 73.2748 220.349C73.278 220.374 73.3009 220.396 73.3271 220.396Z" fill="white"/>
<path d="M91.4108 220.539C91.5222 220.539 91.6124 220.453 91.6124 220.346C91.6124 220.239 91.5222 220.153 91.4108 220.153C91.2995 220.153 91.2093 220.239 91.2093 220.346C91.2093 220.453 91.2995 220.539 91.4108 220.539Z" fill="white"/>
<path d="M109.492 220.779C109.742 220.779 109.944 220.586 109.944 220.346C109.944 220.106 109.742 219.913 109.492 219.913C109.241 219.913 109.04 220.106 109.04 220.346C109.04 220.586 109.245 220.779 109.492 220.779Z" fill="white"/>
<path d="M127.576 221.018C127.963 221.018 128.278 220.716 128.278 220.346C128.278 219.976 127.963 219.674 127.576 219.674C127.189 219.674 126.874 219.976 126.874 220.346C126.874 220.716 127.186 221.018 127.576 221.018Z" fill="white"/>
<path d="M145.657 221.162C146.127 221.162 146.508 220.796 146.508 220.346C146.508 219.896 146.127 219.53 145.657 219.53C145.186 219.53 144.805 219.896 144.805 220.346C144.805 220.796 145.186 221.162 145.657 221.162Z" fill="white"/>
<path d="M163.741 221.258C164.267 221.258 164.693 220.85 164.693 220.346C164.693 219.842 164.267 219.434 163.741 219.434C163.214 219.434 162.788 219.842 162.788 220.346C162.788 220.85 163.214 221.258 163.741 221.258Z" fill="white"/>
<path d="M181.821 221.305C182.374 221.305 182.823 220.876 182.823 220.346C182.823 219.816 182.374 219.387 181.821 219.387C181.268 219.387 180.82 219.816 180.82 220.346C180.82 220.876 181.268 221.305 181.821 221.305Z" fill="white"/>
<path d="M199.905 221.258C200.431 221.258 200.858 220.85 200.858 220.346C200.858 219.842 200.431 219.434 199.905 219.434C199.379 219.434 198.953 219.842 198.953 220.346C198.953 220.85 199.379 221.258 199.905 221.258Z" fill="white"/>
<path d="M217.986 221.162C218.457 221.162 218.838 220.796 218.838 220.346C218.838 219.896 218.457 219.53 217.986 219.53C217.516 219.53 217.135 219.896 217.135 220.346C217.135 220.796 217.516 221.162 217.986 221.162Z" fill="white"/>
<path d="M109.492 237.711C109.521 237.711 109.541 237.689 109.541 237.664C109.541 237.636 109.518 237.614 109.492 237.614C109.466 237.614 109.443 237.636 109.443 237.664C109.443 237.689 109.466 237.711 109.492 237.711Z" fill="white"/>
<path d="M127.576 237.807C127.66 237.807 127.725 237.742 127.725 237.664C127.725 237.583 127.657 237.521 127.576 237.521C127.491 237.521 127.426 237.586 127.426 237.664C127.423 237.742 127.491 237.807 127.576 237.807Z" fill="white"/>
<path d="M145.657 237.903C145.796 237.903 145.907 237.795 145.907 237.664C145.907 237.53 145.793 237.424 145.657 237.424C145.52 237.424 145.406 237.533 145.406 237.664C145.406 237.795 145.52 237.903 145.657 237.903Z" fill="white"/>
<path d="M163.741 238C163.936 238 164.092 237.851 164.092 237.664C164.092 237.477 163.936 237.328 163.741 237.328C163.546 237.328 163.389 237.477 163.389 237.664C163.389 237.847 163.546 238 163.741 238Z" fill="white"/>
<path d="M181.821 238C182.016 238 182.172 237.851 182.172 237.664C182.172 237.477 182.016 237.328 181.821 237.328C181.626 237.328 181.47 237.477 181.47 237.664C181.47 237.847 181.63 238 181.821 238Z" fill="white"/>
<path d="M199.905 238C200.1 238 200.256 237.851 200.256 237.664C200.256 237.477 200.1 237.328 199.905 237.328C199.71 237.328 199.554 237.477 199.554 237.664C199.554 237.847 199.71 238 199.905 238Z" fill="white"/>
<path d="M217.986 237.95C218.152 237.95 218.289 237.823 218.289 237.664C218.289 237.505 218.155 237.374 217.986 237.374C217.817 237.374 217.687 237.502 217.687 237.664C217.687 237.823 217.82 237.95 217.986 237.95Z" fill="white"/>
</g>
</svg>
